<?xml version="1.0" encoding="UTF-8"?>
<svg id="Layer_2" xmlns="http://www.w3.org/2000/svg" xmlns:xlink="http://www.w3.org/1999/xlink" version="1.1" viewBox="0 0 720 216">
  <!-- Generator: Adobe Illustrator 30.1.0, SVG Export Plug-In . SVG Version: 2.1.1 Build 136)  -->
  <defs>
    <style>
      .st0, .st1 {
        fill: none;
      }

      .st2 {
        stroke: #ffd500;
      }

      .st2, .st3, .st1, .st4 {
        stroke-miterlimit: 10;
      }

      .st2, .st5 {
        fill: #fdd600;
      }

      .st3, .st1 {
        stroke: #000;
        stroke-width: .5px;
      }

      .st6 {
        fill: #fff;
      }

      .st4 {
        stroke: #fff;
      }

      .st7 {
        fill: #2a2a2a;
      }

      .st8 {
        fill: #171814;
      }

      .st9 {
        clip-path: url(#clippath);
      }
    </style>
    <clipPath id="clippath">
      <rect class="st0" x="-18" y="-18" width="756" height="252"/>
    </clipPath>
  </defs>
  <g id="Layer_1-2">
    <g>
      <g class="st9">
        <g>
          <rect class="st7" x="-18" y="-18" width="756" height="252"/>
          <polygon class="st2" points="38.8 -40.7 82.8 -85 103.3 -26 162.2 -46.7 155 15.3 217.1 22.1 183.7 74.9 236.7 108 183.7 141.1 217.1 193.9 155 200.7 162.2 262.7 103.3 242 82.8 301 38.8 256.7 -5.3 301 -25.7 242 -84.6 262.7 -77.5 200.7 -139.5 193.9 -106.2 141.1 -159.1 108 -106.2 74.9 -139.5 22.1 -77.5 15.3 -84.6 -46.7 -25.7 -26 -5.3 -85 38.8 -40.7"/>
          <g>
            <g>
              <path class="st8" d="M-190.9,141.9s3.5,18.5,4.9,26l1.5-3.9,69.2.4s9.6-16.9-6.7-36.2-41.2-12.1-41.2-12.1c0,0-19.9.3-27.6,25.8h-.1Z"/>
              <path class="st8" d="M137,166l-5.6-5.4-65.5,3.4-10-2.3s-5.6-49,42.8-49.5c0,0,48.4,2.4,38.3,53.8h0Z"/>
            </g>
            <g>
              <g>
                <g>
                  <path class="st8" d="M64.4,154c0,19,15.4,34.3,34.3,34.3s34.3-15.4,34.3-34.3-15.4-34.3-34.3-34.3-34.3,15.4-34.3,34.3ZM73.1,154c0-14.2,11.5-25.7,25.7-25.7s25.7,11.5,25.7,25.7-11.5,25.7-25.7,25.7-25.7-11.5-25.7-25.7Z"/>
                  <g>
                    <path class="st6" d="M73.1,154c0,14.2,11.5,25.7,25.7,25.7s25.7-11.5,25.7-25.7-11.5-25.7-25.7-25.7-25.7,11.5-25.7,25.7Z"/>
                    <g>
                      <circle class="st3" cx="98.7" cy="154" r="10"/>
                      <circle class="st1" cx="98.7" cy="154" r="6.6"/>
                    </g>
                  </g>
                </g>
                <g>
                  <path class="st8" d="M-186,154c0,19,15.4,34.3,34.3,34.3s34.3-15.4,34.3-34.3-15.4-34.3-34.3-34.3-34.3,15.4-34.3,34.3ZM-177.4,154c0-14.2,11.5-25.7,25.7-25.7s25.7,11.5,25.7,25.7-11.5,25.7-25.7,25.7-25.7-11.5-25.7-25.7Z"/>
                  <g>
                    <circle class="st8" cx="-151.7" cy="154" r="25.7"/>
                    <g>
                      <path class="st6" d="M-177.4,154c0,14.2,11.5,25.7,25.7,25.7s25.7-11.5,25.7-25.7-11.5-25.7-25.7-25.7-25.7,11.5-25.7,25.7Z"/>
                      <g>
                        <circle class="st3" cx="-151.7" cy="154" r="10"/>
                        <circle class="st1" cx="-151.7" cy="154" r="6.6"/>
                      </g>
                    </g>
                  </g>
                </g>
              </g>
              <g>
                <g>
                  <g>
                    <path d="M-180.9,94.4c2.7-4,5.9-4.1,7.3-4-1.3,2.6-4.7,8.5-13.1,19.1-.6-2.4,2.2-9.8,5.8-15.2h0q0,.1,0,0Z"/>
                    <path d="M-180.9,94.4c1.6-2.4,4.3-4.4,7.3-4.1,0,0,.2.1.1.2-1.7,3.5-3.7,6.8-5.9,10.1-2.2,3.2-4.6,6.3-7.1,9.3-.2.3-.6.2-.7-.1-.2-1.5.2-2.8.6-4.2,1.3-3.9,3.3-7.6,5.6-11.1h.1q0-.1,0,0ZM-180.9,94.4c-2.3,3.4-4,7.2-5.1,11.2-.3,1.2-.6,2.7-.4,3.9h-.7c4.5-6.3,9.5-12.3,13.3-19.1v.2c-2.9-.5-5.6,1.4-7.2,3.8h.1,0Z"/>
                  </g>
                  <path class="st6" d="M-186.7,109.6c8.4-10.6,11.8-16.5,13.1-19.1.5,0,.7.2.7.2,0,0-.3,0-.7-.2.6-1.2.7-1.7.7-1.7,17.5-23.7,37.7-45.1,52-50.6,15-5.8,85.4-17.4,121.8-4.7-.4,0-.8,0-1.2,0,.4,0,.8,0,1.2,0s.3,0,.4,0c36.3,12.8,73,42.8,73,42.8h14.5c.5.3.8.5.8.5,0,0-.3-.2-.8-.5h5.1c52.5,7.9,59.4,24.5,59.4,24.5l6.8,4.8c4,7.4,4.7,16.2,4.7,16.2l2.3,2.3s1.7,2.8,2,8.8-3.4,5.4-3.4,5.4l.8,11.8c5.1,2.4,1.1,7.4,1.1,7.4-4.7,3.5-30.6,8.6-30.6,8.6.3-4.3-.6-14.6-.6-14.6-1.3-20.5-18.4-36.7-39.3-36.7s-39.3,17.6-39.3,39.3v12c-59.1-1.3-173.2-1.6-173.2-1.6,1-3.3,1.5-6.8,1.5-10.5,0-20.9-16.9-37.8-37.8-37.8s-29,9.5-34.8,23l-1,2.8h-3.4c-2-23.3,4.2-32.3,4.2-32.3v-.2Z"/>
                </g>
                <g>
                  <path class="st1" d="M169,154.7s-16.8,2.1-26.3,2.2c0,0-.3-44.2-44.1-46.6-44.2-2.4-48.5,43.1-47.7,47.4l-101.4-1.1s-28.2,2.3-34.9-19-4.4-42.6-3.3-49.9c0,0,1.1-7.9,4-13.1"/>
                  <g>
                    <g>
                      <path d="M60.1,77.2c-6-.5-15.3-1.1-26.6-1.5l.8-17.3c12.7,8.5,25.8,18.9,25.8,18.9h0q0-.1,0,0Z"/>
                      <path class="st4" d="M-40.4,34.7c31.3.6,45.6,5.8,61.6,15.1,3.6,2.1,7.7,4.7,11.8,7.5l-.9,19.2c-29.1-1.2-70.1-2.2-104.4-2.9l3.6-38c8.9-.7,18.4-1,28.2-.8h.1q0,0,0,0Z"/>
                      <path class="st4" d="M-111.2,45c6-3.8,19-7,35.1-8.7-1.4,5.5-6,24.4-7.9,37.1-29.8-.6-51.9-.9-51.9-.9.6-1.8,14.7-21.1,24.7-27.5h0Z"/>
                      <path class="st6" d="M-68.8,36.2l-3.5,36.6c-3.9,0-7.7-.1-11.4-.2,1.9-12.2,6.3-30.4,7.6-35.7,2.4-.3,4.8-.5,7.3-.7h0Z"/>
                    </g>
                    <g>
                      <rect x="-77.8" y="91.9" width="19.5" height="8"/>
                      <path class="st8" d="M141.3,93.7s7.4-.5,13.4,10.6,1.2,10.4-2,8.7-19.9-17.1-11.4-19.3Z"/>
                    </g>
                  </g>
                </g>
              </g>
            </g>
          </g>
        </g>
      </g>
      <rect class="st6" x="513" y="9" width="198" height="198"/>
      <g>
        <path class="st6" d="M266.4,79.2c-3.2,0-6.1-.6-8.6-1.9-2.5-1.3-4.5-3.2-5.9-5.6-1.4-2.5-2.2-5.5-2.2-9v-1.6c0-3.2.7-6.1,2-8.6s3.2-4.5,5.7-5.9c2.4-1.4,5.4-2.1,8.7-2.1s4.6.3,6.7.9c2.1.6,4.1,1.7,5.9,3.2v8.7h-5.9l-.8-5c-.5-.4-1.1-.7-1.7-.9-.6-.3-1.2-.5-1.9-.6-.7-.1-1.4-.2-2.1-.2-1.7,0-3.2.4-4.5,1.2s-2.3,2-3,3.6-1.1,3.4-1.1,5.6v1.6c0,2.1.4,3.9,1.1,5.5s1.7,2.8,3,3.7,2.8,1.3,4.5,1.3,1.8,0,2.8-.3c.9-.2,1.9-.5,2.7-.8l.8-4.8h5.9v8.5c-1.3.9-3.1,1.7-5.1,2.4s-4.5,1-7.2,1h.2Z"/>
        <path class="st6" d="M293.6,79.2c-2.6,0-4.8-.5-6.6-1.6s-3.2-2.6-4.2-4.5-1.4-4.2-1.4-6.7v-.5c0-2.5.5-4.7,1.4-6.6,1-1.9,2.4-3.4,4.2-4.5s4-1.6,6.6-1.6,4.8.5,6.6,1.6c1.8,1.1,3.2,2.6,4.2,4.5s1.4,4.1,1.4,6.7v.5c0,2.5-.5,4.7-1.4,6.7-1,1.9-2.4,3.4-4.2,4.5-1.8,1.1-4,1.6-6.5,1.6h-.1q0-.1,0,0ZM293.6,73c1,0,1.8-.3,2.4-.8s1-1.3,1.3-2.3.4-2.2.4-3.5v-.5c0-1.3-.1-2.5-.4-3.4-.3-1-.7-1.7-1.3-2.3-.6-.5-1.4-.8-2.4-.8s-1.8.3-2.4.8-1,1.3-1.3,2.3-.4,2.1-.4,3.4v.5c0,1.4.1,2.6.4,3.5.3,1,.7,1.7,1.3,2.3.6.5,1.4.8,2.4.8Z"/>
        <path class="st6" d="M308,78.7v-4.8l3-.7v-14.1l-3.5-.7v-4.8h11.2l.3,3.3c.8-1.2,1.8-2.1,3-2.8s2.5-1,4.1-1,2.9.3,4,1,2,1.7,2.5,3.1c.8-1.3,1.7-2.3,2.9-3s2.6-1.1,4.2-1.1c2.4,0,4.3.8,5.7,2.5,1.4,1.6,2.1,4.2,2.1,7.6v10l3,.7v4.8h-13.5v-4.8l2.4-.7v-10c0-1.5-.2-2.5-.7-3s-1.1-.8-2-.8-1.4.1-1.9.4c-.6.3-1.1.7-1.5,1.2v12.2l2.1.7v4.8h-12.3v-4.8l2.1-.7v-10c0-1.5-.2-2.5-.7-3s-1.1-.8-2-.8-1.3.1-1.9.4c-.6.3-1.1.7-1.5,1.2v12.2l2.4.7v4.8h-13.5,0Z"/>
        <path class="st6" d="M352.2,88.4v-4.8l3.1-.7v-23.7l-3.5-.7v-4.8h11.2l.3,2.8c.7-1.1,1.5-1.9,2.5-2.4,1-.6,2.1-.9,3.5-.9,2,0,3.7.5,5.1,1.6s2.5,2.6,3.3,4.6,1.1,4.2,1.1,6.8v.5c0,2.5-.4,4.7-1.1,6.6-.8,1.9-1.9,3.3-3.3,4.4-1.4,1-3.2,1.6-5.2,1.6s-2.3-.2-3.3-.7c-.9-.5-1.7-1.1-2.4-2v6.4l2.8.7v4.8h-14.1q0-.1,0-.1ZM366.6,73c1.5,0,2.5-.6,3.1-1.7.6-1.1.9-2.7.9-4.6v-.5c0-1.4,0-2.6-.4-3.6s-.7-1.8-1.3-2.4c-.6-.6-1.3-.8-2.3-.8s-1.3.2-1.9.5-1,.8-1.3,1.4v10.2c.3.5.8.9,1.3,1.1.6.3,1.2.4,1.9.4h0Z"/>
        <path class="st6" d="M390,79.2c-2.4,0-4.4-.7-5.9-2.1s-2.3-3.2-2.3-5.5.9-4.3,2.8-5.8,4.8-2.2,8.6-2.2h2.6v-1.5c0-1-.3-1.9-.9-2.6s-1.5-1.1-2.7-1.1-1,0-1.5.2-.9.3-1.2.6l-.6,3.2h-5.7v-7c1.3-.6,2.8-1.2,4.3-1.6,1.6-.5,3.3-.7,5.2-.7,3.4,0,6.1.8,8.1,2.4,2,1.6,3,3.8,3,6.7v10.2c0,.3,0,.7,0,1l2.7.5v4.8h-9.5c-.2-.3-.4-.6-.6-1.1s-.4-.9-.5-1.4c-.8.9-1.6,1.7-2.5,2.2s-2.1.8-3.6.8h.1ZM392.5,73.5c.6,0,1.2-.1,1.8-.4.6-.2,1.1-.6,1.5-1.1v-3.6h-2.5c-1.1,0-1.9.2-2.5.7s-.9,1.1-.9,1.9.2,1.4.7,1.8,1.1.6,1.9.6h0Z"/>
        <path class="st6" d="M408,78.7v-4.8l2.9-.7v-14.1l-3.5-.7v-4.8h11.2l.3,3.5c.8-1.3,1.9-2.2,3.1-2.9s2.6-1,4.1-1c2.3,0,4.2.8,5.6,2.4,1.4,1.6,2,4.1,2,7.6v10.1l2.9.7v4.8h-13.4v-4.8l2.4-.7v-10.1c0-1.3-.3-2.3-.8-2.9-.5-.6-1.3-.8-2.3-.8s-1.4.1-1.9.4c-.5.3-1,.7-1.4,1.2v12.2l2.1.7v4.8h-13.3q0-.1,0,0Z"/>
        <path class="st6" d="M444.9,88.9c-.7,0-1.4,0-2.1-.2-.7-.1-1.5-.3-2.2-.5l1-5.8c.3,0,.6.1.9.2h.9c1,0,1.9-.2,2.6-.5.8-.4,1.2-.9,1.4-1.7l.2-.9-8.1-20.6-3.4-.5v-4.8h15.1v4.8l-3.1.5,3.4,10.2v.2h.2l4-10.4-2.9-.4v-4.8h13.7v4.8l-3,.4-9.4,23.6c-.4,1.1-1.1,2.2-1.8,3.2s-1.7,1.8-2.9,2.4c-1.2.6-2.7.9-4.5.9h0q0-.1,0,0Z"/>
        <path class="st6" d="M263,132.5l-10.6-28.6-3.2-.4v-4.8h15.1v4.8l-3,.5,6.1,19,.3,1.3h.1l.3-1.3,5.9-19-3.6-.5v-4.8h14.1v4.8l-3.3.4-9.5,28.6h-8.8.1Z"/>
        <path class="st6" d="M298.5,132.9c-2.5,0-4.6-.5-6.4-1.6s-3.3-2.5-4.3-4.3-1.5-3.9-1.5-6.2v-.9c0-2.6.4-4.8,1.3-6.8s2.2-3.5,3.9-4.6c1.7-1.1,3.9-1.7,6.4-1.7s4.2.4,5.8,1.3c1.6.9,2.8,2.2,3.6,3.8.8,1.7,1.2,3.8,1.2,6.2v4.2h-13.8v.2c.1.8.4,1.5.8,2.1s1,1.1,1.7,1.4c.7.4,1.6.5,2.7.5s2.1-.1,3.1-.4c1-.2,2.1-.6,3.2-1.1l1.9,4.9c-1.1.8-2.5,1.5-4.1,2s-3.4.8-5.4.8v.2q-.1,0-.1,0ZM294.7,117.5h6.4v-.6c0-.9,0-1.6-.3-2.2-.2-.6-.5-1.1-.9-1.4-.4-.3-1-.5-1.8-.5s-1.5.2-2,.6c-.5.4-.8.9-1.1,1.6-.2.7-.4,1.5-.5,2.4h.2q0,.1,0,0Z"/>
        <path class="st6" d="M311.2,132.5v-4.8l2.9-.7v-25.2l-3.5-.7v-4.8h11.6v14.2c.7-1.1,1.7-2,2.8-2.6s2.4-.9,3.9-.9c2.4,0,4.4.9,5.8,2.6,1.5,1.7,2.2,4.4,2.2,8v9.5l2.9.7v4.8h-13.4v-4.8l2.4-.7v-9.5c0-1.6-.3-2.8-.8-3.4-.5-.6-1.3-.9-2.4-.9s-1.4.1-1.9.4c-.6.2-1,.6-1.4,1.2v12.3l2.4.7v4.8h-13.4v-.2q-.1,0-.1,0Z"/>
        <path class="st6" d="M341.2,132.5v-4.8l2.9-.7v-14.1l-3.5-.7v-4.8h11.6v19.6l2.9.7v4.8h-14,0ZM343.9,102.6v-6.3h8.4v6.3h-8.4Z"/>
        <path class="st6" d="M368.9,132.9c-2.5,0-4.6-.5-6.4-1.6s-3.2-2.6-4.1-4.5c-1-1.9-1.4-4.1-1.4-6.6v-.5c0-2.5.5-4.7,1.5-6.7,1-1.9,2.4-3.4,4.2-4.5s3.9-1.6,6.2-1.6,4.4.4,6.2,1.1,3.1,1.5,4,2.3v7.9h-6.2l-1-4.5c-.3-.3-.6-.5-1.1-.6s-.8-.3-1.1-.3c-1.2,0-2.1.3-2.8.8s-1.2,1.3-1.5,2.3-.4,2.3-.4,3.9v.5c0,1.7.2,3,.6,3.9.4,1,.9,1.6,1.5,2s1.2.6,1.9.6c1,0,1.7-.2,2.3-.7.5-.5.9-1.2,1.2-2.1h6.9c-.4,2.1-1,3.8-1.7,5.1s-1.9,2.3-3.3,3-3.2,1-5.5,1v-.2h0Z"/>
        <path class="st6" d="M381.7,132.5v-4.8l3-.7v-25.2l-3.5-.7v-4.8h11.7v30.7l2.9.7v4.8h-14.1Z"/>
        <path class="st6" d="M409.2,132.9c-2.5,0-4.6-.5-6.4-1.6s-3.3-2.5-4.3-4.3-1.5-3.9-1.5-6.2v-.9c0-2.6.4-4.8,1.3-6.8s2.2-3.5,3.9-4.6,3.9-1.7,6.4-1.7,4.2.4,5.8,1.3c1.6.9,2.8,2.2,3.6,3.8.8,1.7,1.2,3.8,1.2,6.2v4.2h-13.8v.2c0,.8.4,1.5.8,2.1s1,1.1,1.7,1.4c.7.4,1.6.5,2.7.5s2.1-.1,3.1-.4c1-.2,2.1-.6,3.2-1.1l1.9,4.9c-1.1.8-2.5,1.5-4.1,2s-3.4.8-5.4.8v.2q0,0-.1,0ZM405.4,117.5h6.4v-.6c0-.9,0-1.6-.3-2.2-.2-.6-.5-1.1-.9-1.4-.4-.3-1-.5-1.8-.5s-1.5.2-2,.6c-.5.4-.8.9-1.1,1.6-.2.7-.4,1.5-.5,2.4h.2q0,.1,0,0Z"/>
        <path class="st6" d="M423.6,132.5v-6.7h8.1v6.7h-8.1Z"/>
        <path class="st5" d="M259.1,171.5c-2.1,0-3.9-.4-5.4-1.2s-2.6-2-3.3-3.4c-.8-1.5-1.1-3.2-1.1-5.1v-.9c0-2,.4-3.8,1.1-5.4.8-1.5,1.9-2.8,3.3-3.6,1.4-.9,3.2-1.3,5.2-1.3s2.8.2,4.2.6c1.4.4,2.6,1.1,3.7,2v4.8h-3.5l-.7-2.6c-.3-.3-.8-.6-1.4-.8s-1.2-.3-2-.3-2.1.3-2.8.8c-.8.6-1.3,1.3-1.7,2.3s-.6,2.1-.6,3.4v1c0,1.2.2,2.3.6,3.2s1,1.6,1.7,2.1c.8.5,1.7.7,2.8.7s1.2,0,1.8-.2c.6-.1,1-.3,1.4-.4v-2.6l-2.3-.3v-3.4h7.2v8.5c-1.1.7-2.3,1.2-3.7,1.6-1.4.4-2.9.5-4.5.5h0Z"/>
        <path class="st5" d="M276.3,171.5c-1.6,0-2.9-.3-4-1-1.1-.6-2-1.6-2.5-2.7-.6-1.2-.9-2.5-.9-4v-.3c0-1.5.3-2.8.9-4s1.4-2.1,2.5-2.7c1.1-.7,2.4-1,4-1s2.9.3,4,1,1.9,1.6,2.5,2.7.9,2.5.9,4v.3c0,1.5-.3,2.9-.9,4s-1.4,2.1-2.5,2.7c-1.1.7-2.4,1-4,1ZM276.3,167.7c.6,0,1.1-.2,1.4-.5.4-.3.6-.8.8-1.4.2-.6.2-1.3.2-2.1v-.3c0-.8,0-1.5-.2-2.1s-.4-1.1-.8-1.4c-.4-.3-.8-.5-1.5-.5s-1.1.2-1.4.5c-.4.3-.6.8-.8,1.4s-.2,1.3-.2,2.1v.3c0,.8,0,1.5.2,2.1s.4,1.1.8,1.4c.4.3.9.5,1.5.5Z"/>
        <path class="st5" d="M291.4,171.5c-1.6,0-2.8-.4-3.6-1.3s-1.2-2.2-1.2-4v-6.8h-1.9v-3.4h1.9v-3.7h4.9v3.7h2.5v3.4h-2.5v6.8c0,.5.1.8.3,1s.5.3.9.3h1l.3,3.7c-.4.1-.9.2-1.3.3-.4,0-.9.1-1.3.1h0q0-.1,0-.1Z"/>
        <path class="st5" d="M302.2,171.2v-2.9l2.1-.4v-13.7l-2.1-.4v-2.9h16.8v6h-3.7v-2.2h-6v4.7h6.9v3.8h-6.9v4.8l2.1.4v2.9h-9.2q0-.1,0-.1Z"/>
        <path class="st5" d="M327.4,171.5c-1.5,0-2.8-.3-3.9-1-1.1-.6-2-1.5-2.6-2.6s-.9-2.4-.9-3.8v-.5c0-1.5.3-2.9.8-4.1.5-1.2,1.3-2.1,2.4-2.8,1-.7,2.3-1,3.9-1s2.5.3,3.5.8c.9.5,1.7,1.3,2.2,2.3s.7,2.3.7,3.8v2.5h-8.3c0,.6.2,1,.5,1.4.2.4.6.7,1,.9s1,.3,1.6.3,1.3,0,1.9-.2c.6-.1,1.3-.4,1.9-.7l1.1,3c-.7.5-1.5.9-2.5,1.2s-2.1.5-3.3.5h0ZM325.1,162.1h3.9v-.4c0-.5,0-1-.2-1.4,0-.4-.3-.6-.6-.8s-.6-.3-1.1-.3-.9.1-1.2.4-.5.6-.6,1-.2.9-.3,1.4h0q0,.1,0,.1Z"/>
        <path class="st5" d="M342.5,171.5c-1.5,0-2.8-.3-3.9-1-1.1-.6-2-1.5-2.6-2.6s-.9-2.4-.9-3.8v-.5c0-1.5.3-2.9.8-4.1.5-1.2,1.3-2.1,2.4-2.8,1-.7,2.3-1,3.9-1s2.5.3,3.5.8c.9.5,1.7,1.3,2.2,2.3s.7,2.3.7,3.8v2.5h-8.3c0,.6.2,1,.5,1.4.2.4.6.7,1,.9s1,.3,1.6.3,1.3,0,1.9-.2c.6-.1,1.3-.4,1.9-.7l1.1,3c-.7.5-1.5.9-2.5,1.2s-2.1.5-3.3.5h0ZM340.2,162.1h3.9v-.4c0-.5,0-1-.2-1.4,0-.4-.3-.6-.6-.8s-.6-.3-1.1-.3-.9.1-1.2.4-.5.6-.6,1-.2.9-.3,1.4h0q0,.1,0,.1Z"/>
        <path class="st5" d="M355.6,171.5c-1.2,0-2.2-.3-3.1-.9-.9-.6-1.5-1.5-2-2.6s-.7-2.5-.7-4v-.3c0-1.6.2-3,.7-4.1.5-1.2,1.1-2.1,2-2.8s1.8-1,3-1,1.5.2,2.1.5,1.1.8,1.5,1.4v-5l-2.1-.4v-2.9h7v18.5l1.8.4v2.9h-6l-.4-1.9c-.5.7-1,1.2-1.6,1.6s-1.4.6-2.2.6h0ZM357.2,167.7c.4,0,.8,0,1.1-.2.4-.2.6-.4.9-.7v-6.1c-.2-.4-.5-.7-.9-.9-.3-.2-.7-.3-1.1-.3s-1,.2-1.4.5-.6.8-.7,1.4c-.2.6-.2,1.3-.2,2.2v.3c0,1.2.2,2.1.5,2.8s.9,1,1.8,1h0Z"/>
        <path class="st5" d="M376.2,171.5c-.9,0-1.7-.2-2.3-.5-.6-.4-1.1-.9-1.6-1.6l-.3,1.8h-4.2v-18.5l-2.1-.4v-2.9h7v8.2c.4-.6.9-1,1.5-1.3s1.3-.5,2.1-.5c1.2,0,2.2.3,3.1,1,.8.6,1.5,1.6,1.9,2.7s.7,2.6.7,4.2v.3c0,1.5-.2,2.9-.7,4-.4,1.1-1.1,2-1.9,2.6-.8.6-1.9.9-3.1.9h-.1ZM374.6,167.7c.9,0,1.5-.3,1.9-.9.4-.6.5-1.6.5-2.8v-.3c0-.9,0-1.6-.2-2.2s-.4-1.1-.7-1.4c-.3-.3-.8-.5-1.3-.5s-.9.1-1.2.3-.6.5-.8.9v6.1c.2.3.5.5.9.7.3.1.7.2,1.1.2h-.2Z"/>
        <path class="st5" d="M388.8,171.5c-1.5,0-2.7-.4-3.6-1.2s-1.4-1.9-1.4-3.3.6-2.6,1.7-3.5,2.9-1.4,5.2-1.4h1.6v-.9c0-.6-.2-1.1-.5-1.5s-.9-.6-1.6-.6-.6,0-.9.1c-.3,0-.5.2-.7.3l-.3,1.9h-3.5v-4.2c.8-.4,1.7-.7,2.6-1s2-.4,3.1-.4c2.1,0,3.7.5,4.9,1.4s1.8,2.3,1.8,4.1v6.8l1.6.3v2.9h-5.7c0-.2-.3-.4-.4-.7s-.2-.6-.3-.8c-.5.6-1,1-1.5,1.3-.6.3-1.3.5-2.2.5h0q0-.1,0-.1ZM390.3,168c.4,0,.7,0,1.1-.2s.7-.4.9-.7v-2.2h-1.5c-.7,0-1.2.1-1.5.4s-.5.7-.5,1.1,0,.8.4,1.1.7.4,1.1.4h0q0,.1,0,0Z"/>
        <path class="st5" d="M407.3,171.5c-1.5,0-2.8-.3-3.9-1s-1.9-1.6-2.5-2.7-.9-2.5-.9-4v-.3c0-1.5.3-2.9.9-4s1.4-2.1,2.5-2.7,2.3-1,3.8-1,2.7.2,3.7.7c1,.4,1.8.9,2.4,1.4v4.8h-3.7l-.6-2.7c-.2-.2-.4-.3-.6-.4s-.5-.2-.7-.2c-.7,0-1.3.2-1.7.5s-.7.8-.9,1.4c-.2.6-.3,1.4-.3,2.4v.3c0,1,0,1.8.4,2.4.2.6.5,1,.9,1.2s.7.4,1.1.4c.6,0,1-.1,1.4-.4.3-.3.6-.7.7-1.3h4.2c-.2,1.3-.6,2.3-1,3.1-.5.8-1.1,1.4-2,1.8s-1.9.6-3.3.6v-.3q0,0,0,0Z"/>
        <path class="st5" d="M415,171.2v-2.9l1.8-.4v-15.2l-2.1-.4v-2.9h7v18.5l1.4.4v2.9h-8.1ZM421.1,167.2l-2.5-2.4,6.6-5.7h0l-1.5-.3v-2.8h8.7v2.9l-2,.6-9.3,7.7h0ZM424.6,171.2v-2.7l.9-.3h0l-2.1-3.2,3.3-3,4.3,5.7,1.7.5v2.9h-8.1q0,.1,0,.1Z"/>
        <path class="st5" d="M437.6,165.3c0-.7,0-1.3.2-1.7,0-.5.3-.9.5-1.3.2-.4.5-.7.9-1.1.4-.4.9-.8,1.5-1.2.4-.3.7-.6,1-.9.3-.4.5-.8.7-1.2s.3-.9.3-1.3c0-.7-.2-1.2-.6-1.6-.4-.4-.9-.6-1.6-.6s-1.1.2-1.5.5-.6.8-.6,1.5h-4.8c0-1.3.3-2.4.8-3.2s1.4-1.5,2.4-1.9,2.3-.7,3.6-.7c2.2,0,4,.5,5.2,1.6,1.3,1.1,1.9,2.5,1.9,4.3s-.2,1.6-.5,2.3-.8,1.4-1.3,1.9c-.6.6-1.2,1.1-1.8,1.6-.4.3-.7.5-.9.8s-.3.6-.4,1,0,.8,0,1.3h-4.9q0-.1,0-.1ZM437.6,171.2v-4h4.8v4h-4.8Z"/>
      </g>
      <path class="st6" d="M391.7,11.8v1c.6,3.5,3.4,6.3,6.9,6.7h1c0,0-1,.3-1,.3-3.5.5-6.3,3.2-6.7,6.7v1c0,0-.3-1-.3-1-.5-3.5-3.2-6.3-6.7-6.7h-1c0,0,1-.3,1-.3,3.5-.5,6.3-3.2,6.7-6.7v-1h0Z"/>
      <path class="st5" d="M490,108v.5c.3,1.8,1.7,3.1,3.4,3.4h.5-.5c-1.8.3-3.1,1.7-3.4,3.5v.5-.5c-.3-1.8-1.7-3.1-3.5-3.4h-.5.5c1.8-.3,3.1-1.7,3.4-3.5v-.5h0Z"/>
      <path class="st6" d="M253.9,198v.5c.3,1.8,1.7,3.1,3.4,3.4h.5-.5c-1.8.3-3.1,1.7-3.4,3.5v.5-.5c-.3-1.8-1.7-3.1-3.5-3.4h-.5.5c1.8-.3,3.1-1.7,3.4-3.5v-.5h.1Z"/>
      <path class="st6" d="M488,156.8l.2,1.7c.8,5.9,5.4,10.6,11.3,11.3l1.7.2-1.7.2c-5.9.8-10.6,5.4-11.3,11.3l-.2,1.7-.2-1.7c-.8-5.9-5.4-10.6-11.3-11.3l-1.7-.2,1.7-.2c5.9-.8,10.6-5.4,11.3-11.3l.2-1.7Z"/>
      <path class="st5" d="M242.4,15.7v.6c.4,2.2,2.1,3.9,4.3,4.2h.6l-.6.2c-2.2.3-3.9,2-4.2,4.2v.6l-.2-.6c-.3-2.2-2-3.9-4.2-4.2h-.6l.6-.2c2.2-.3,3.9-2,4.2-4.2v-.6h.1Z"/>
    </g>
  </g>
</svg>