<?xml version="1.0" encoding="UTF-8"?>
<svg id="Layer_2" xmlns="http://www.w3.org/2000/svg" xmlns:xlink="http://www.w3.org/1999/xlink" version="1.1" viewBox="0 0 720 216">
  <!-- Generator: Adobe Illustrator 30.1.0, SVG Export Plug-In . SVG Version: 2.1.1 Build 136)  -->
  <defs>
    <style>
      .st0 {
        fill: none;
      }

      .st1, .st2 {
        fill-rule: evenodd;
      }

      .st1, .st3 {
        fill: #fff;
      }

      .st4 {
        fill: #fdd600;
        stroke: #ffd500;
        stroke-miterlimit: 10;
      }

      .st5 {
        fill: #2a2a2a;
      }

      .st6 {
        clip-path: url(#clippath);
      }
    </style>
    <clipPath id="clippath">
      <rect class="st0" x="301" y="-18" width="437" height="252"/>
    </clipPath>
  </defs>
  <g id="Layer_1-2">
    <g>
      <rect class="st4" x="-18" y="-18" width="756" height="252"/>
      <g class="st6">
        <g>
          <rect class="st5" x="301" y="-18" width="437" height="252"/>
          <g>
            <path class="st1" d="M340.7-44.8c84.4,0,152.9,68.5,152.9,152.9s-68.5,152.8-152.9,152.8-152.8-68.5-152.8-152.8S256.2-44.8,340.7-44.8h0ZM340.7-19.3c70.4,0,127.4,57,127.4,127.4s-57,127.2-127.4,127.2-127.2-57-127.2-127.2,57-127.4,127.2-127.4h0Z"/>
            <path class="st1" d="M295.9,227.2c45.8,3.8,25.9-65.7,14.3-82.6,34.9,12.6,26.2,12.6,61.2,0-11.6,16.9-31.5,86.5,14.3,82.6-27.3,10.5-60.2,11.2-89.8,0h0ZM366.6,68c24.1,6.6,48.2,13,72.3,19.6,29,7.2,21-17.5,13.5-33.2-5.4-11.2-12.4-21.5-20.9-30.5l25-21c25.3,27.8,40.7,64.6,40.7,105.2s-10.9,65.4-29.2,91l-27.5-17.7c9.7-13.1,27.4-41.6,9.3-50.2-20.2-9.3-60.9-5.4-73.8,8.9-3.1-24.1-6.2-48.1-9.3-72.2h0s-.1,0-.1,0ZM314.9,68c-24.1,6.6-48.2,13-72.3,19.6-28.9,7.2-20.9-17.5-13.4-33.2,5.4-11.2,12.4-21.5,20.8-30.5l-25-21c-25.2,27.8-40.5,64.6-40.5,105.2s10.9,65.4,29.2,91l27.4-17.7c-9.5-13.1-27.4-41.6-9.2-50.2,20-9.3,60.9-5.4,73.7,8.9,3.1-24.1,6.2-48.1,9.3-72.2h0q0,0,0,0Z"/>
            <path class="st1" d="M340.7,60.4c26.4,0,47.7,21.3,47.7,47.7s-21.3,47.6-47.7,47.6-47.6-21.3-47.6-47.6,21.3-47.7,47.6-47.7h0Z"/>
            <path class="st2" d="M340.7,72.4c19.7,0,35.7,16,35.7,35.7s-16,35.5-35.7,35.5-35.5-15.9-35.5-35.5,15.9-35.7,35.5-35.7h0Z"/>
          </g>
        </g>
      </g>
      <rect class="st3" x="513" y="9" width="198" height="198"/>
      <g>
        <path class="st5" d="M39.6,56.2v-4.3l3.2-.8v-20.4l-3.2-.8v-4.3h14.4c2.8,0,5.2.6,7.3,1.9s3.8,3.1,5,5.3c1.2,2.3,1.8,4.9,1.8,7.8v.5c0,3-.6,5.6-1.8,7.8-1.2,2.3-2.9,4-5,5.3s-4.6,1.9-7.3,1.9h-14.4ZM50.2,50.6h3.4c1.6,0,2.9-.4,3.9-1.2,1.1-.8,1.8-1.9,2.4-3.3.5-1.4.8-3.1.8-5v-.5c0-1.9-.3-3.5-.8-5-.5-1.4-1.3-2.5-2.4-3.3s-2.4-1.2-3.9-1.2h-3.4v19.5Z"/>
        <path class="st5" d="M82.1,56.6c-2.2,0-4.2-.5-5.8-1.4-1.7-1-3-2.3-3.9-3.9-.9-1.7-1.4-3.6-1.4-5.7v-.8c0-2.3.4-4.4,1.2-6.1.8-1.8,2-3.2,3.6-4.2s3.5-1.5,5.8-1.5,3.8.4,5.2,1.2c1.4.8,2.5,2,3.3,3.5.7,1.5,1.1,3.4,1.1,5.7v3.8h-12.5c0,.9.4,1.5.7,2.1.4.6.9,1,1.5,1.3.7.3,1.5.5,2.4.5s1.9,0,2.8-.3c.9-.2,1.9-.6,2.9-1l1.7,4.5c-1,.7-2.3,1.3-3.7,1.8-1.5.5-3.1.7-4.9.7,0,0,0-.2,0-.2ZM78.7,42.6h5.8v-.5c0-.8,0-1.5-.2-2s-.4-1-.8-1.2c-.4-.3-.9-.4-1.6-.4s-1.3.2-1.8.5c-.4.4-.8.8-1,1.5-.2.6-.3,1.3-.4,2.1h0Z"/>
        <path class="st5" d="M104.3,56.6c-2.3,0-4.2-.5-5.8-1.5s-2.9-2.4-3.7-4.1-1.3-3.7-1.3-6v-.5c0-2.3.5-4.3,1.4-6s2.2-3.1,3.8-4.1,3.5-1.5,5.7-1.5,4,.3,5.6,1c1.5.7,2.8,1.3,3.7,2.1v7.2h-5.6l-.9-4.1c-.2-.2-.6-.4-1-.6s-.7-.2-1-.2c-1.1,0-1.9.2-2.5.7s-1.1,1.1-1.3,2.1-.4,2.1-.4,3.6v.5c0,1.5.2,2.7.5,3.5.4.9.8,1.5,1.4,1.8.5.4,1.1.5,1.7.5.9,0,1.6-.2,2.1-.7.5-.4.9-1.1,1.1-1.9h6.3c-.3,1.9-.9,3.4-1.6,4.6-.7,1.2-1.7,2.1-3,2.7s-2.9.9-5,.9h-.2,0Z"/>
        <path class="st5" d="M123.8,56.6c-2.2,0-4-.6-5.4-1.9-1.4-1.2-2.1-2.9-2.1-5s.9-3.9,2.6-5.2c1.7-1.4,4.3-2,7.8-2h2.4v-1.3c0-.9-.3-1.7-.8-2.3-.5-.6-1.3-1-2.5-1s-.9,0-1.3.2c-.4,0-.8.3-1.1.5l-.5,2.9h-5.2v-6.3c1.2-.6,2.5-1.1,3.9-1.5s3-.6,4.7-.6c3.1,0,5.6.7,7.4,2.1,1.8,1.4,2.7,3.5,2.7,6.1v10.2l2.5.4v4.3h-8.6c-.2-.3-.4-.6-.6-1s-.4-.8-.4-1.3c-.7.9-1.5,1.5-2.3,2s-1.9.7-3.3.7h.1ZM126.1,51.4c.5,0,1.1,0,1.6-.3.5-.2,1-.5,1.4-1v-3.3h-2.3c-1,0-1.8.2-2.3.7s-.8,1-.8,1.7.2,1.2.7,1.6,1,.6,1.7.6h0Z"/>
        <path class="st5" d="M149.2,56.6c-1.8,0-3.3-.5-4.6-1.4s-2.3-2.3-2.9-4c-.7-1.7-1-3.7-1-6v-.4c0-2.4.3-4.4,1-6.2.7-1.8,1.7-3.2,2.9-4.1,1.3-1,2.8-1.5,4.5-1.5s2.2.2,3.1.7c.9.5,1.6,1.2,2.3,2.1v-7.5l-3.2-.7v-4.3h10.6v27.8l2.7.7v4.3h-9l-.5-2.8c-.7,1.1-1.5,1.9-2.4,2.4-.9.6-2.1.8-3.3.8h-.2q0,0,0,.1ZM151.5,51c.6,0,1.2,0,1.7-.4.5-.2,1-.6,1.3-1.1v-9.1c-.4-.6-.8-1-1.3-1.3s-1.1-.5-1.7-.5-1.5.3-2,.8-.9,1.2-1.1,2.2-.3,2-.3,3.2v.4c0,1.8.3,3.2.8,4.2s1.4,1.5,2.7,1.5h-.1q0,0,0,.1Z"/>
        <path class="st5" d="M177.3,56.6c-2.2,0-4.2-.5-5.8-1.4-1.7-1-3-2.3-3.9-3.9-.9-1.7-1.4-3.6-1.4-5.7v-.8c0-2.3.4-4.4,1.2-6.1.8-1.8,2-3.2,3.6-4.2s3.5-1.5,5.8-1.5,3.8.4,5.2,1.2c1.4.8,2.5,2,3.3,3.5.7,1.5,1.1,3.4,1.1,5.7v3.8h-12.5c.1.9.4,1.5.7,2.1.4.6.9,1,1.5,1.3.7.3,1.5.5,2.4.5s1.9,0,2.8-.3c.9-.2,1.9-.6,2.9-1l1.7,4.5c-1,.7-2.3,1.3-3.7,1.8-1.5.5-3.1.7-4.9.7v-.2h0ZM173.9,42.6h5.8v-.5c0-.8,0-1.5-.2-2s-.4-1-.8-1.2c-.4-.3-.9-.4-1.6-.4s-1.3.2-1.8.5c-.4.4-.8.8-1,1.5-.2.6-.3,1.3-.4,2.1h0Z"/>
        <path class="st5" d="M199,56.6c-1.8,0-3.5-.2-5-.5s-2.9-.8-4.2-1.4v-7.1h4.9l.8,3.3c.3.2.7.3,1.1.5.5,0,1,.2,1.7.2,1.2,0,2-.2,2.5-.5.4-.3.7-.7.7-1.2s-.3-.9-.8-1.3-1.6-.8-3.3-1.1c-2.7-.5-4.6-1.4-5.9-2.7-1.3-1.3-1.9-2.8-1.9-4.7s.3-2.5.9-3.5c.6-1.1,1.6-2,2.9-2.6,1.3-.7,3.1-1,5.4-1s3.3,0,4.9.4c1.5.3,2.8.7,3.8,1.1v6.9h-5l-.6-2.9c-.3-.2-.7-.4-1.1-.5s-.9-.2-1.4-.2c-.9,0-1.6.2-2.1.5-.4.3-.7.8-.7,1.3s0,.6.3.9.6.6,1.1.9,1.4.5,2.5.8c2.6.6,4.5,1.4,5.9,2.4,1.3,1,2,2.6,2,4.7s-.8,4-2.4,5.3c-1.6,1.3-3.9,2-7,2h0Z"/>
        <path class="st5" d="M39.6,102.8v-4.3l3.2-.7v-20.6l-3.2-.7v-4.3h13.9c3.9,0,6.9.7,9,2.1,2.2,1.4,3.2,3.5,3.2,6.3s-.3,2.7-1,3.9c-.7,1.1-1.7,2-3.2,2.6,1.2.3,2.2.7,3,1.4.8.6,1.3,1.4,1.7,2.3s.5,1.9.5,2.9c0,3-1,5.3-3,6.8s-4.9,2.3-8.7,2.3h-15.4ZM50.2,84.8h3c1.7,0,3-.3,3.9-.8.9-.6,1.3-1.4,1.3-2.6s-.4-2.2-1.2-2.8-2-.9-3.7-.9h-3.3v7.1h0ZM50.2,97.2h4.9c1.5,0,2.6-.3,3.3-.9s1.1-1.5,1.1-2.6-.3-2.3-1-3-1.7-1-3.1-1h-5.2s0,7.5,0,7.5Z"/>
        <path class="st5" d="M79.8,103.2c-2.2,0-4.2-.5-5.8-1.4-1.7-1-3-2.3-3.9-3.9-.9-1.7-1.4-3.6-1.4-5.7v-.8c0-2.3.4-4.4,1.2-6.1.8-1.8,2-3.2,3.6-4.2s3.5-1.5,5.8-1.5,3.8.4,5.2,1.2c1.4.8,2.5,2,3.3,3.5.7,1.5,1.1,3.4,1.1,5.7v3.8h-12.5c0,.9.4,1.5.7,2.1.4.6.9,1,1.5,1.3.7.3,1.5.5,2.4.5s1.9-.1,2.8-.3,1.9-.6,2.9-1l1.7,4.5c-1,.7-2.3,1.3-3.7,1.8-1.5.5-3.1.7-4.9.7v-.2h0ZM76.3,89.2h5.8v-.5c0-.8,0-1.5-.2-2s-.4-1-.8-1.2c-.4-.3-.9-.4-1.6-.4s-1.3.2-1.8.5c-.4.4-.8.8-1,1.5-.2.6-.3,1.3-.4,2.1h0Z"/>
        <path class="st5" d="M91.3,102.8v-4.3l2.7-.7v-22.8l-3.2-.7v-4.3h10.5v12.9c.7-1,1.5-1.8,2.5-2.4s2.2-.9,3.5-.9c2.2,0,3.9.8,5.3,2.3,1.4,1.5,2,4,2,7.2v8.6l2.7.7v4.3h-12.2v-4.3l2.2-.7v-8.6c0-1.5-.2-2.5-.7-3.1s-1.2-.8-2.2-.8-1.2.1-1.7.3-.9.6-1.3,1.1v11.1l2.2.7v4.3h-12.3q0,.1,0,0Z"/>
        <path class="st5" d="M118.5,102.8v-4.3l2.7-.7v-12.8l-3.2-.7v-4.3h10.6v17.8l2.7.7v4.3h-12.8ZM120.9,75.7v-5.7h7.6v5.7h-7.6Z"/>
        <path class="st5" d="M132.4,102.8v-4.3l2.7-.7v-12.8l-3.2-.7v-4.3h10.1l.3,3.2c.8-1.1,1.7-2,2.8-2.7s2.4-.9,3.8-.9c2.1,0,3.8.7,5,2.2,1.2,1.4,1.9,3.7,1.9,6.9v9.2l2.7.7v4.3h-12.2v-4.3l2.1-.7v-9.2c0-1.2-.2-2.1-.7-2.6s-1.2-.8-2.1-.8-1.3.1-1.8.4c-.5.2-.9.6-1.3,1.1v11.1l1.9.7v4.3h-12q0-.1,0,0Z"/>
        <path class="st5" d="M168.1,103.2c-1.8,0-3.3-.5-4.6-1.4s-2.3-2.3-2.9-4c-.7-1.7-1-3.7-1-6v-.4c0-2.4.3-4.4,1-6.2s1.7-3.2,2.9-4.1c1.3-1,2.8-1.5,4.5-1.5s2.2.2,3.1.7c.9.5,1.6,1.2,2.3,2.1v-7.5l-3.2-.7v-4.3h10.6v27.8l2.7.7v4.3h-9l-.5-2.8c-.7,1.1-1.5,1.9-2.4,2.4-.9.6-2.1.8-3.3.8h-.2q0,.1,0,0ZM170.4,97.5c.6,0,1.2-.1,1.7-.4.5-.2,1-.6,1.3-1.1v-9.1c-.4-.6-.8-1-1.3-1.3s-1.1-.5-1.7-.5-1.5.3-2,.8-.9,1.2-1.1,2.2-.3,2-.3,3.2v.4c0,1.8.3,3.2.8,4.2s1.4,1.5,2.7,1.5h-.1q0,.1,0,.1Z"/>
        <path class="st5" d="M49.5,149.8c-2.4,0-4.2-.6-5.4-1.9s-1.9-3.3-1.9-6v-10.2h-2.8v-5.1h2.8v-5.6h7.3v5.6h3.7v5.1h-3.7v10.2c0,.7.2,1.3.5,1.6s.8.4,1.4.4h.8c.3,0,.5,0,.8-.1l.5,5.5c-.6.2-1.3.3-1.9.4s-1.3.2-2,.2h0q0-.1,0,0Z"/>
        <path class="st5" d="M55.3,149.4v-4.3l2.7-.7v-22.8l-3.2-.7v-4.3h10.5v12.9c.7-1,1.5-1.8,2.5-2.4s2.2-.9,3.5-.9c2.2,0,3.9.8,5.3,2.3s2,4,2,7.2v8.6l2.7.7v4.3h-12.2v-4.3l2.2-.7v-8.6c0-1.5-.2-2.5-.7-3.1s-1.2-.8-2.2-.8-1.2.1-1.7.3-.9.6-1.3,1.1v11.1l2.2.7v4.3h-12.3q0,.1,0,0Z"/>
        <path class="st5" d="M93.8,149.8c-2.2,0-4.2-.5-5.8-1.4-1.7-1-3-2.3-3.9-3.9-.9-1.7-1.4-3.6-1.4-5.7v-.8c0-2.3.4-4.4,1.2-6.1.8-1.8,2-3.2,3.6-4.2s3.5-1.5,5.8-1.5,3.8.4,5.2,1.2c1.4.8,2.5,2,3.3,3.5.7,1.5,1.1,3.4,1.1,5.7v3.8h-12.5c0,.9.4,1.5.7,2.1.4.6.9,1,1.5,1.3.7.3,1.5.5,2.4.5s1.9-.1,2.8-.3,1.9-.6,2.9-1l1.7,4.5c-1,.7-2.3,1.3-3.7,1.8-1.5.5-3.1.7-4.9.7v-.2h0ZM90.4,135.8h5.8v-.5c0-.8,0-1.5-.2-2s-.4-1-.8-1.2c-.4-.3-.9-.4-1.6-.4s-1.3.2-1.8.5c-.4.4-.8.8-1,1.5-.2.6-.3,1.3-.4,2.1h0Z"/>
        <path class="st5" d="M125.6,149.4l-7.1-26-3.5-.3v-4.3h13.8v4.3l-3.4.5,3.3,13.7.5,2h.1l.5-2,6-18.5h5.1l6.3,19.4.4,1.3h.1l.4-1.3,3.6-14.5-3.5-.5v-4.3h13.6v4.3l-3.3.3-7.4,26h-6.6l-5.3-15.8-.7-2.2h-.1l-.8,2.3-5.4,15.7h-6.8.2q0-.1,0,0Z"/>
        <path class="st5" d="M163.1,149.4v-4.3l2.7-.7v-22.8l-3.2-.7v-4.3h10.5v12.9c.7-1,1.5-1.8,2.5-2.4s2.2-.9,3.5-.9c2.2,0,3.9.8,5.3,2.3s2,4,2,7.2v8.6l2.7.7v4.3h-12.2v-4.3l2.2-.7v-8.6c0-1.5-.2-2.5-.7-3.1s-1.2-.8-2.2-.8-1.2.1-1.7.3-.9.6-1.3,1.1v11.1l2.2.7v4.3h-12.3q0,.1,0,0Z"/>
        <path class="st5" d="M201.6,149.8c-2.2,0-4.2-.5-5.8-1.4-1.7-1-3-2.3-3.9-3.9-.9-1.7-1.4-3.6-1.4-5.7v-.8c0-2.3.4-4.4,1.2-6.1.8-1.8,2-3.2,3.6-4.2s3.5-1.5,5.8-1.5,3.8.4,5.2,1.2,2.5,2,3.3,3.5c.7,1.5,1.1,3.4,1.1,5.7v3.8h-12.5c.1.9.4,1.5.7,2.1.4.6.9,1,1.5,1.3.7.3,1.5.5,2.4.5s1.9-.1,2.8-.3c.9-.2,1.9-.6,2.9-1l1.7,4.5c-1,.7-2.3,1.3-3.7,1.8-1.5.5-3.1.7-4.9.7v-.2h0ZM198.1,135.8h5.8v-.5c0-.8,0-1.5-.2-2s-.4-1-.8-1.2c-.4-.3-.9-.4-1.6-.4s-1.3.2-1.8.5c-.4.4-.8.8-1,1.5-.2.6-.3,1.3-.4,2.1h0Z"/>
        <path class="st5" d="M224.2,149.8c-2.2,0-4.2-.5-5.8-1.4-1.7-1-3-2.3-3.9-3.9-.9-1.7-1.4-3.6-1.4-5.7v-.8c0-2.3.4-4.4,1.2-6.1.8-1.8,2-3.2,3.6-4.2s3.5-1.5,5.8-1.5,3.8.4,5.2,1.2,2.5,2,3.3,3.5c.7,1.5,1.1,3.4,1.1,5.7v3.8h-12.5c.1.9.4,1.5.7,2.1.4.6.9,1,1.5,1.3.7.3,1.5.5,2.4.5s1.9-.1,2.8-.3c.9-.2,1.9-.6,2.9-1l1.7,4.5c-1,.7-2.3,1.3-3.7,1.8-1.5.5-3.1.7-4.9.7v-.2h0ZM220.8,135.8h5.8v-.5c0-.8,0-1.5-.2-2s-.4-1-.8-1.2c-.4-.3-.9-.4-1.6-.4s-1.3.2-1.8.5c-.4.4-.8.8-1,1.5-.2.6-.3,1.3-.4,2.1h0Z"/>
        <path class="st5" d="M235.5,149.4v-4.3l2.7-.7v-22.8l-3.2-.7v-4.3h10.6v27.8l2.7.7v4.3h-12.8Z"/>
        <path class="st5" d="M251,149.4v-6.1h7.3v6.1h-7.3Z"/>
        <path class="st5" d="M39.3,183.4v-2.6l1.9-.4v-12.3l-1.9-.4v-2.6h8.2v2.6l-1.9.4v4.6h6.6v-4.6l-1.9-.4v-2.6h8.2v2.6l-1.9.4v12.3l1.9.4v2.6h-8.2v-2.6l1.9-.4v-4.3h-6.6v4.3l1.9.4v2.6h-8.2Z"/>
        <path class="st5" d="M66.3,183.6c-1.4,0-2.6-.3-3.6-.9s-1.7-1.4-2.3-2.4c-.5-1-.8-2.2-.8-3.6v-.2c0-1.4.3-2.5.8-3.6.5-1,1.3-1.8,2.3-2.4s2.2-.9,3.6-.9,2.6.3,3.6.9,1.7,1.4,2.3,2.4c.5,1,.8,2.2.8,3.6v.2c0,1.4-.3,2.6-.8,3.6s-1.3,1.8-2.3,2.4-2.2.9-3.5.9h0ZM66.3,180.3c.5,0,1-.1,1.3-.4s.6-.7.7-1.2.2-1.2.2-1.9v-.2c0-.7,0-1.3-.2-1.9,0-.5-.4-.9-.7-1.2-.3-.3-.8-.4-1.3-.4s-1,.1-1.3.4-.6.7-.7,1.2-.2,1.1-.2,1.9v.2c0,.7,0,1.4.2,1.9,0,.5.4.9.7,1.2.3.3.8.4,1.3.4Z"/>
        <path class="st5" d="M78.2,183.4l-2.9-10.6-1.7-.4v-2.6h7.1v2.6l-1.3.3.9,4.3v.7h.2l.2-.7,2.7-7.2h2.7l2.6,7.4.2.6h0l.2-.6,1.2-4.5-1.5-.3v-2.6h7v2.6l-1.6.4-3.4,10.6h-3.5l-2.3-5.8-.3-1.1h0l-.3,1.1-2.1,5.8h-4.1,0Z"/>
        <path class="st5" d="M102.6,183.4v-2.6l1.3-.2,5.4-15.5h4.8l5.4,15.5,1.3.2v2.6h-6.8v-2.6l1.2-.2-.6-2h-5.9l-.5,2,1.2.2v2.6h-6.8,0ZM109.7,175.5h4l-1.8-5.5-.2-.6h0l-.2.7-1.7,5.5h-.1q0-.1,0,0Z"/>
        <path class="st5" d="M121.2,183.4v-2.6l1.6-.4v-7.6l-1.9-.4v-2.6h6v1.8c.6-.7,1.1-1.2,1.8-1.5.6-.4,1.4-.5,2.2-.5s1.6.2,2.2.5c.6.4,1.1.9,1.4,1.7.4-.7.9-1.2,1.6-1.6s1.4-.6,2.3-.6c1.3,0,2.3.4,3.1,1.3s1.1,2.2,1.1,4.1v5.4l1.6.4v2.6h-7.3v-2.6l1.3-.4v-5.4c0-.8-.1-1.3-.4-1.6-.2-.3-.6-.4-1.1-.4s-.7,0-1,.2c-.3.1-.6.4-.8.6v6.6l1.1.4v2.6h-6.6v-2.6l1.1-.4v-5.4c0-.8-.1-1.3-.4-1.6-.2-.3-.6-.4-1.1-.4s-.7,0-1,.2c-.3.1-.6.4-.8.6v6.6l1.3.4v2.6h-7.3Z"/>
        <path class="st5" d="M151,183.4v-2.6l1.9-.4v-12.3l-1.9-.4v-2.6h8.2v2.6l-1.9.4v12.3l1.9.4v2.6h-8.2Z"/>
        <path class="st5" d="M166.3,183.4v-2.6l1.9-.5v-12.1l-1.9-.5v-2.6h8.5c1.6,0,3.1.4,4.4,1.1,1.3.8,2.3,1.8,3,3.2s1.1,2.9,1.1,4.7v.3c0,1.8-.4,3.3-1.1,4.7-.7,1.3-1.7,2.4-3,3.2s-2.7,1.1-4.4,1.1h-8.5ZM172.7,180h2c.9,0,1.7-.2,2.3-.7s1.1-1.1,1.4-2c.3-.8.5-1.8.5-3v-.3c0-1.1-.2-2.1-.5-3-.3-.8-.8-1.5-1.4-2-.6-.5-1.4-.7-2.3-.7h-2v11.7Z"/>
        <path class="st5" d="M191.6,183.6c-1.4,0-2.6-.3-3.6-.9s-1.7-1.4-2.3-2.4c-.5-1-.8-2.2-.8-3.6v-.2c0-1.4.3-2.5.8-3.6.5-1,1.3-1.8,2.3-2.4s2.2-.9,3.6-.9,2.6.3,3.6.9,1.7,1.4,2.3,2.4c.5,1,.8,2.2.8,3.6v.2c0,1.4-.3,2.6-.8,3.6s-1.3,1.8-2.3,2.4-2.2.9-3.5.9h-.1ZM191.6,180.3c.5,0,1-.1,1.3-.4s.6-.7.7-1.2c.1-.5.2-1.2.2-1.9v-.2c0-.7,0-1.3-.2-1.9-.1-.5-.4-.9-.7-1.2s-.8-.4-1.3-.4-1,.1-1.3.4-.6.7-.7,1.2c-.1.5-.2,1.1-.2,1.9v.2c0,.7,0,1.4.2,1.9.1.5.4.9.7,1.2s.8.4,1.3.4Z"/>
        <path class="st5" d="M199.5,183.4v-2.6l1.6-.4v-7.6l-1.9-.4v-2.6h6.3v10.6l1.6.4v2.6h-7.6ZM201,167.3v-3.4h4.5v3.4h-4.5Z"/>
        <path class="st5" d="M207.7,183.4v-2.6l1.6-.4v-7.6l-1.9-.4v-2.6h6l.2,1.9c.5-.7,1-1.2,1.7-1.6s1.4-.6,2.2-.6c1.3,0,2.3.4,3,1.3s1.1,2.2,1.1,4.1v5.4l1.6.4v2.6h-7.3v-2.6l1.3-.4v-5.5c0-.7-.1-1.2-.4-1.5-.3-.3-.7-.5-1.3-.5s-.8,0-1.1.2c-.3.1-.5.4-.8.7v6.6l1.1.4v2.6h-7.1.1q0,.1,0,.1Z"/>
        <path class="st5" d="M229.9,188.8c-.7,0-1.5,0-2.4-.3-.9-.2-1.7-.4-2.4-.8l.7-3c.7.3,1.3.5,2,.6s1.3.2,1.8.2c.9,0,1.6-.2,2-.7s.6-1.2.6-2v-.6c-.4.5-.8.8-1.3,1.1s-1.1.4-1.7.4c-1.1,0-2-.3-2.8-.8-.8-.6-1.4-1.3-1.8-2.4-.4-1-.6-2.2-.6-3.5v-.3c0-1.4.2-2.6.6-3.7.4-1.1,1-1.9,1.8-2.5s1.7-.9,2.7-.9,1.5.2,2,.5c.6.3,1,.8,1.4,1.4l.3-1.7h3.9v13c0,1.2-.3,2.3-.8,3.2s-1.3,1.6-2.3,2.1-2.2.8-3.6.8h-.1q0-.1,0-.1ZM230.5,180.3c.4,0,.7,0,1-.2s.5-.3.7-.6v-5.7c-.2-.3-.4-.5-.7-.7s-.6-.2-1-.2-.9.2-1.3.5c-.3.3-.5.7-.7,1.3-.1.5-.2,1.2-.2,1.9v.3c0,1.1.2,1.9.5,2.5s.9.9,1.7.9h0ZM236.1,172.8l-2-3h4v2.6l-2.1.4h.1Z"/>
        <path class="st5" d="M242.5,178.1c0-.6,0-1.1.1-1.6s.2-.8.4-1.1c.2-.3.5-.7.8-1,.4-.3.8-.7,1.4-1.1.3-.2.6-.5.9-.8s.5-.7.6-1.1c.2-.4.2-.8.2-1.2,0-.6-.2-1.1-.5-1.5s-.8-.5-1.4-.5-.9.1-1.3.4c-.4.3-.6.7-.6,1.3h-4.3c0-1.2.2-2.1.8-2.9.5-.8,1.2-1.3,2.2-1.7s2-.6,3.2-.6c2,0,3.6.5,4.7,1.4,1.1,1,1.7,2.2,1.7,3.9s-.1,1.4-.5,2.1-.7,1.2-1.2,1.7-1,1-1.6,1.4c-.3.2-.6.5-.8.7s-.3.5-.4.9c0,.3-.1.7-.1,1.1h-4.4v.2q.1,0,0,0ZM242.5,183.4v-3.6h4.3v3.6h-4.3Z"/>
      </g>
    </g>
  </g>
</svg>