<?xml version="1.0" encoding="UTF-8"?>
<svg id="Layer_2" xmlns="http://www.w3.org/2000/svg" xmlns:xlink="http://www.w3.org/1999/xlink" version="1.1" viewBox="0 0 720 216">
  <!-- Generator: Adobe Illustrator 30.1.0, SVG Export Plug-In . SVG Version: 2.1.1 Build 136)  -->
  <defs>
    <style>
      .st0 {
        fill: none;
      }

      .st1 {
        stroke: #ffd500;
        stroke-miterlimit: 10;
      }

      .st1, .st2 {
        fill: #fdd600;
      }

      .st3 {
        fill: #fff;
      }

      .st4 {
        fill: #2a2a2a;
      }

      .st5 {
        clip-path: url(#clippath);
      }
    </style>
    <clipPath id="clippath">
      <rect class="st0" x="-18" y="-18" width="756" height="252"/>
    </clipPath>
  </defs>
  <g id="Layer_1-2">
    <g>
      <g class="st5">
        <g>
          <rect class="st4" x="-18" y="-18" width="756" height="252"/>
          <polygon class="st1" points="597.6 -39.9 630.1 -91.4 662.1 -39.6 713.7 -71.8 720.1 -11.3 780.6 -17.9 760.1 39.4 817.5 59.7 774.1 102.4 817 145.6 759.4 165.2 779.4 222.7 718.9 215.5 711.9 275.9 660.6 243.1 628.1 294.6 596.1 242.8 544.4 275.1 538.1 214.5 477.6 221.2 498.1 163.8 440.7 143.6 484.1 100.9 441.1 57.7 498.8 38 478.8 -19.5 539.3 -12.2 546.3 -72.7 597.6 -39.9"/>
          <g>
            <path d="M628.8,52c-1.8,0-3.5-.2-5-.6-1.5-.4-3-1.2-4.5-2.2v-6.1h3.7l.6,3.7c.6.4,1.3.8,2.3,1.1.9.3,1.9.4,3,.4s1.8,0,2.5-.4c.7-.3,1.2-.7,1.5-1.2s.5-1.1.5-1.8-.2-1.2-.5-1.7-.8-1-1.6-1.4c-.7-.4-1.7-.8-2.9-1.2-2-.6-3.6-1.2-4.9-1.9-1.3-.7-2.3-1.6-3-2.6s-1-2.2-1-3.6.4-2.6,1.1-3.7c.8-1.1,1.8-1.9,3.2-2.5,1.3-.6,2.9-.9,4.7-.9s3.7.2,5.2.7,2.8,1.2,3.8,2v5.6h-3.6l-.7-3.5c-.5-.3-1.1-.6-1.9-.8-.8-.2-1.6-.3-2.6-.3s-1.6,0-2.3.4-1.2.6-1.6,1.2c-.4.5-.6,1.1-.6,1.8s.2,1.1.5,1.6.9.9,1.7,1.3,1.8.8,3.2,1.2c2.8.8,4.9,1.8,6.4,3.1s2.2,3,2.2,5.1-.4,2.7-1.2,3.8-1.9,1.9-3.3,2.5c-1.4.6-3.1.9-4.9.9h0Z"/>
            <path d="M649.4,52c-1.8,0-3.4-.4-4.7-1.2s-2.3-2-3.1-3.4c-.7-1.4-1.1-3.1-1.1-5v-.6c0-1.9.4-3.5,1.1-5,.7-1.4,1.7-2.6,3.1-3.4,1.3-.8,2.9-1.2,4.7-1.2s3.1.3,4.4.8c1.2.5,2.2,1.2,3,1.9v5.3h-3.6l-.7-3.4c-.3-.3-.7-.6-1.2-.7-.5-.2-1-.3-1.5-.3-1,0-1.8.2-2.4.8-.7.5-1.1,1.2-1.5,2.1-.3.9-.5,2-.5,3.2v.6c0,1.3.2,2.4.5,3.3s.8,1.5,1.5,2c.6.4,1.3.7,2.1.7s1.7-.3,2.3-.8,1-1.2,1.2-2.2h4.2c-.2,1.4-.5,2.5-1.1,3.5s-1.4,1.7-2.5,2.3c-1.1.5-2.4.8-4.1.8h0c0,0,0-.1,0,0h-.1Z"/>
            <path d="M665.9,52c-1.9,0-3.4-.5-4.5-1.5s-1.7-2.4-1.7-4.1.7-3.3,2.2-4.4c1.5-1.1,3.6-1.7,6.3-1.7h2.7v-1.5c0-1-.3-1.7-.9-2.3s-1.4-.9-2.5-.9-1.1,0-1.6.2c-.5,0-.9.4-1.3.6l-.4,2.6h-3.5v-4.8c.9-.6,2-1.1,3.2-1.4,1.2-.4,2.5-.5,3.9-.5,2.5,0,4.4.6,5.8,1.7,1.4,1.1,2.1,2.8,2.1,4.9v9.6l2,.3v2.9h-6.1c0-.4-.3-.7-.4-1.1,0-.4-.2-.8-.2-1.2-.6.8-1.4,1.4-2.2,1.9-.9.5-1.9.7-3,.7h.1ZM667.1,48.4c.8,0,1.6-.2,2.3-.6.7-.4,1.2-.9,1.6-1.4v-3.1h-2.7c-1.2,0-2.2.3-2.8.9-.6.6-.9,1.2-.9,2s.2,1.3.7,1.6c.4.4,1.1.6,1.9.6h0Z"/>
            <path d="M679.7,51.6v-2.9l2.6-.5v-12.2l-2.8-.5v-2.9h7.2l.2,2.8c.6-1,1.4-1.7,2.4-2.3.9-.5,2-.8,3.2-.8,1.9,0,3.4.6,4.5,1.8s1.6,3.1,1.6,5.7v8.5l2.6.5v2.9h-9.7v-2.9l2.3-.5v-8.5c0-1.4-.3-2.3-.8-2.9-.5-.6-1.3-.9-2.4-.9s-1.5.2-2.1.5-1.1.8-1.5,1.5v10.3l2.3.5v2.9h-9.6Z"/>
            <path d="M618.5,83.6v-2.9l2.8-.5v-18.8l-2.8-.5v-2.9h10.3v2.9l-2.8.5v7.7h10.9v-7.7l-2.8-.5v-2.9h10.3v2.9l-2.8.5v18.8l2.8.5v2.9h-10.3v-2.9l2.8-.5v-7.4h-10.9v7.4l2.8.5v2.9h-10.3Z"/>
            <path d="M655.8,84c-1.8,0-3.4-.4-4.7-1.2s-2.4-1.9-3.1-3.3c-.7-1.4-1.1-3-1.1-4.9v-.7c0-1.9.4-3.5,1.1-5s1.7-2.6,3-3.4,2.8-1.3,4.4-1.3,3.2.3,4.4,1,2.1,1.7,2.7,3,.9,2.8.9,4.6v2.7h-11.5c0,1,.3,1.8.6,2.6.4.7.9,1.3,1.5,1.7.7.4,1.5.6,2.4.6s1.9,0,2.7-.4,1.6-.6,2.4-1.1l1.4,3c-.8.6-1.7,1.2-2.9,1.6s-2.5.6-4.1.6h0c0,0-.1,0-.1,0ZM651.9,72.2h6.9v-.5c0-.8,0-1.5-.4-2.1-.2-.6-.6-1.1-1.1-1.4s-1.1-.5-1.9-.5-1.3.2-1.8.6-.9.9-1.2,1.6-.5,1.4-.6,2.2h0q0,0,0,0h0Z"/>
            <path d="M666,83.6v-2.9l2.6-.5v-12.2l-2.8-.5v-2.9h7.2l.2,2.4v.4c.5-1,1.1-1.8,1.8-2.3s1.6-.8,2.5-.8h1c.4,0,.7,0,.9.2l-.5,4.4h-2.5c-.8-.2-1.4,0-1.9.3s-.9.8-1.3,1.4v9.7l2.6.5v2.9h-9.9q0,0,0,0h.1Z"/>
            <path d="M689.9,84c-1.8,0-3.4-.4-4.7-1.2s-2.4-1.9-3.1-3.3-1.1-3-1.1-4.9v-.7c0-1.9.4-3.5,1.1-5s1.7-2.6,3-3.4,2.8-1.3,4.4-1.3,3.2.3,4.4,1,2.1,1.7,2.7,3,.9,2.8.9,4.6v2.7h-11.5c0,1,.3,1.8.6,2.6.4.7.9,1.3,1.5,1.7.7.4,1.5.6,2.4.6s1.9,0,2.7-.4,1.6-.6,2.4-1.1l1.4,3c-.8.6-1.7,1.2-2.9,1.6s-2.5.6-4.1.6h0c0,0-.1,0-.1,0ZM686,72.2h6.9v-.5c0-.8,0-1.5-.4-2.1-.2-.6-.6-1.1-1.1-1.4s-1.1-.5-1.9-.5-1.3.2-1.8.6-.9.9-1.2,1.6-.5,1.4-.6,2.2h0q0,0,0,0h0Z"/>
          </g>
        </g>
      </g>
      <rect class="st3" x="411.1" y="9" width="198" height="198"/>
      <g>
        <path class="st2" d="M46.1,68.3v-4.4l3.2-.7v-20.9l-3.2-.7v-4.4h24.8v9h-5.7l-.2-3.2h-8.3v6.4h9.9v5.7h-9.9v7.4h8.7l.2-3.3h5.6v9.1h-25.1,0Z"/>
        <path class="st2" d="M73.4,68.3v-4.4l2.8-.6,8.3-10.2-7.9-10.9-2.4-.6v-4.4h13.4v4.4l-3,.3,4.4,6.2,4.6-6.2-2.8-.3v-4.4h13.1v4.4l-2.7.6-7.7,10,8.7,11.1,3.1.6v4.4h-13.8v-4.4l2.5-.3-4.8-6.5-5,6.5,2.5.3v4.4h-13.3,0Z"/>
        <path class="st2" d="M106.1,68.3v-4.4l3.2-.7v-20.9l-3.2-.7v-4.4h15.1c2.5,0,4.6.4,6.4,1.3,1.8.9,3.2,2.1,4.2,3.6s1.5,3.3,1.5,5.4-.5,3.8-1.5,5.4c-1,1.5-2.4,2.7-4.2,3.6-1.8.9-4,1.3-6.4,1.3h-4.4v5.5l3.2.7v4.4h-13.9ZM116.8,52.1h4.4c1.5,0,2.7-.4,3.5-1.2s1.2-1.9,1.2-3.2-.4-2.5-1.2-3.3c-.8-.9-1.9-1.3-3.5-1.3h-4.4v9.1h0Z"/>
        <path class="st2" d="M134.8,68.3v-4.4l3.2-.7v-20.9l-3.2-.7v-4.4h24.8v9h-5.7l-.2-3.2h-8.3v6.4h9.9v5.7h-9.9v7.4h8.7l.2-3.3h5.6v9.1h-25.1Z"/>
        <path class="st2" d="M162.7,68.3v-4.4l3.2-.7v-20.9l-3.2-.7v-4.4h15.3c2.5,0,4.6.4,6.4,1.2,1.8.8,3.2,1.9,4.2,3.3,1,1.4,1.5,3.2,1.5,5.1s-.5,3.5-1.5,5.1-2.3,2.8-4.1,3.8c-1.7.9-3.7,1.4-5.9,1.4h-5.2v6.1l3.2.7v4.4s-13.9,0-13.9,0ZM173.4,51.3h4.6c1.5,0,2.6-.3,3.3-1,.8-.7,1.2-1.7,1.2-2.9s-.4-2.4-1.2-3.2-1.9-1.2-3.4-1.2h-4.6v8.3h.1,0ZM182.4,68.3l-4.2-12.1,6.5-2.2,3.8,9.2,2.9.7v4.4h-9Z"/>
        <path class="st2" d="M193,68.3v-4.4l3.2-.7v-20.9l-3.2-.7v-4.4h13.9v4.4l-3.2.7v20.9l3.2.7v4.4h-13.9Z"/>
        <path class="st2" d="M208.6,68.3v-4.4l3.2-.7v-20.9l-3.2-.7v-4.4h24.8v9h-5.7l-.2-3.2h-8.3v6.4h9.9v5.7h-9.9v7.4h8.7l.2-3.3h5.6v9.1h-25.1Z"/>
        <path class="st2" d="M236.5,68.3v-4.4l3.2-.7v-20.9l-3.2-.7v-4.4h10.8l12.5,19.9h.1v-14.8l-4.1-.7v-4.4h13.9v4.4l-3.2.7v26h-7.4l-12.7-19.5h-.1v14.4l4.1.7v4.4h-13.9,0Z"/>
        <path class="st2" d="M286.2,68.8c-3,0-5.6-.6-7.9-1.8s-4.1-2.9-5.5-5.2c-1.3-2.3-2-5-2-8.3v-1.4c0-3,.6-5.6,1.8-7.9,1.2-2.3,3-4.1,5.2-5.4,2.3-1.3,4.9-2,8-2s4.2.3,6.2.9c2,.6,3.8,1.6,5.4,3v8h-5.4l-.7-4.6c-.5-.3-1-.6-1.5-.9-.5-.2-1.1-.4-1.7-.6-.6,0-1.3-.2-2-.2-1.6,0-3,.4-4.1,1.1-1.2.8-2.1,1.8-2.7,3.3-.6,1.4-1,3.2-1,5.2v1.5c0,1.9.3,3.6,1,5s1.6,2.6,2.8,3.4c1.2.8,2.6,1.2,4.2,1.2s1.7,0,2.6-.3c.9-.2,1.7-.4,2.5-.7l.7-4.4h5.5v7.8c-1.2.9-2.8,1.6-4.7,2.2-1.9.6-4.1.9-6.6.9v.2q0,0,0,0h0Z"/>
        <path class="st2" d="M299.5,68.3v-4.4l3.2-.7v-20.9l-3.2-.7v-4.4h24.8v9h-5.7l-.2-3.2h-8.3v6.4h9.9v5.7h-9.9v7.4h8.7l.2-3.3h5.6v9.1h-25.1Z"/>
        <path class="st2" d="M327.4,68.3v-4.4l3.3-.8v-20.7l-3.3-.8v-4.4h14.5c2.8,0,5.3.7,7.4,2,2.2,1.3,3.9,3.1,5.1,5.4,1.2,2.3,1.8,4.9,1.8,7.9v.5c0,3-.6,5.6-1.8,7.9-1.2,2.3-2.9,4.1-5.1,5.4-2.2,1.3-4.6,1.9-7.4,1.9h-14.5ZM338.2,62.7h3.4c1.6,0,2.9-.4,4-1.2s1.9-1.9,2.4-3.4.8-3.1.8-5v-.5c0-1.9-.3-3.6-.8-5s-1.4-2.6-2.4-3.3c-1.1-.8-2.4-1.2-4-1.2h-3.4v19.7h0Z"/>
        <path class="st3" d="M46.1,120.8v-4.4l3.3-.8v-20.7l-3.3-.8v-4.4h14.5c2.8,0,5.3.7,7.4,2,2.2,1.3,3.9,3.1,5.1,5.4s1.8,4.9,1.8,7.9v.5c0,3-.6,5.6-1.8,7.9s-2.9,4.1-5.1,5.4-4.6,1.9-7.4,1.9h-14.5ZM56.9,115.1h3.4c1.6,0,2.9-.4,4-1.2s1.9-1.9,2.4-3.4.8-3.1.8-5v-.5c0-1.9-.3-3.6-.8-5s-1.4-2.6-2.4-3.3c-1.1-.8-2.4-1.2-4-1.2h-3.4v19.7h0Z"/>
        <path class="st3" d="M77.5,120.8v-4.4l3.2-.7v-20.9l-3.2-.7v-4.4h15.3c2.5,0,4.6.4,6.4,1.2s3.2,1.9,4.2,3.3,1.5,3.2,1.5,5.1-.5,3.5-1.5,5.1-2.3,2.8-4.1,3.8c-1.7.9-3.7,1.4-5.9,1.4h-5.2v6.1l3.2.7v4.4h-13.9ZM88.2,103.8h4.6c1.5,0,2.6-.3,3.3-1,.8-.7,1.2-1.7,1.2-2.9s-.4-2.4-1.2-3.2-1.9-1.2-3.4-1.2h-4.6v8.3h0ZM97.1,120.8l-4.2-12.1,6.5-2.2,3.8,9.2,2.9.7v4.4h-9Z"/>
        <path class="st3" d="M107.8,120.8v-4.4l3.2-.7v-20.9l-3.2-.7v-4.4h13.9v4.4l-3.2.7v20.9l3.2.7v4.4h-13.9Z"/>
        <path class="st3" d="M135.6,120.8l-9.7-26.3-2.9-.3v-4.4h13.9v4.4l-2.8.4,5.6,17.4.3,1.2h.1l.3-1.2,5.4-17.5-3.3-.4v-4.4h13v4.4l-3,.3-8.7,26.3h-8.2Z"/>
        <path class="st3" d="M156.5,120.8v-4.4l3.2-.7v-20.9l-3.2-.7v-4.4h24.8v9h-5.7l-.2-3.2h-8.3v6.4h9.9v5.7h-9.9v7.4h8.7l.2-3.3h5.6v9.1h-25.1Z"/>
        <path class="st3" d="M184.4,120.8v-4.4l3.2-.7v-20.9l-3.2-.7v-4.4h15.3c2.5,0,4.6.4,6.4,1.2,1.8.8,3.2,1.9,4.2,3.3s1.5,3.2,1.5,5.1-.5,3.5-1.5,5.1-2.3,2.8-4.1,3.8c-1.7.9-3.7,1.4-5.9,1.4h-5.2v6.1l3.2.7v4.4h-13.9ZM195.1,103.8h4.6c1.5,0,2.6-.3,3.3-1,.8-.7,1.2-1.7,1.2-2.9s-.4-2.4-1.2-3.2-1.9-1.2-3.4-1.2h-4.6v8.3h.1,0ZM204.1,120.8l-4.2-12.1,6.5-2.2,3.8,9.2,2.9.7v4.4h-9Z"/>
        <path class="st3" d="M216.5,120.8v-6.2h7.4v6.2h-7.4Z"/>
        <path class="st3" d="M60.8,173.6c-3.2,0-5.9-.6-8.2-1.9-2.2-1.3-3.9-3-5.1-5.2s-1.7-4.8-1.7-7.7v-1.4c0-3.1.6-5.8,1.7-8.2s2.8-4.2,5-5.5,4.8-2,7.9-2,4.2.3,6.4,1c2.1.6,4,1.7,5.6,3.1v7.3h-5.3l-1.1-3.9c-.5-.5-1.2-.9-2.1-1.2s-1.9-.5-3-.5c-1.7,0-3.1.4-4.3,1.3-1.2.8-2,2-2.6,3.5s-.9,3.3-.9,5.2v1.5c0,1.9.3,3.5.9,4.9s1.5,2.4,2.7,3.2,2.6,1.1,4.3,1.1,1.8,0,2.7-.3c.9-.2,1.6-.4,2.1-.6v-4l-3.5-.4v-5.2h11v12.9c-1.7,1.1-3.6,1.9-5.7,2.4s-4.4.8-6.9.8v-.2s0,0,0,0h0Z"/>
        <path class="st3" d="M90.6,173.6c-2.1,0-4.1-.4-5.9-1.2s-3.4-1.9-4.7-3.3-2.3-3.1-3.1-5c-.7-1.9-1.1-4-1.1-6.2v-.5c0-2.2.4-4.3,1.1-6.2s1.7-3.6,3.1-5c1.3-1.4,2.9-2.5,4.7-3.3s3.8-1.2,5.9-1.2,4.1.4,5.9,1.2,3.4,1.9,4.7,3.3c1.4,1.4,2.4,3.1,3.2,5s1.1,4,1.1,6.2v.5c0,2.2-.4,4.3-1.1,6.2-.8,1.9-1.8,3.6-3.2,5s-2.9,2.5-4.7,3.3-3.8,1.2-5.8,1.2h0ZM90.6,168c1.6,0,2.9-.4,4-1.3,1.1-.8,2-2,2.5-3.5.6-1.5.9-3.3.9-5.3v-.5c0-2-.3-3.7-.9-5.2s-1.4-2.7-2.5-3.5-2.5-1.3-4-1.3-3,.4-4.1,1.2-1.8,2-2.4,3.5c-.5,1.5-.8,3.2-.8,5.3v.5c0,2,.3,3.8.8,5.3s1.3,2.7,2.4,3.5,2.4,1.2,4.1,1.2h0q0,0,0,0h0Z"/>
        <path class="st3" d="M113.8,173.2v-4.4l3.2-.7v-20.2h-4.8l-.2,3.3h-5.7v-9.2h28.9v9.2h-5.7l-.2-3.3h-4.8v20.2l3.2.7v4.4h-14,.1Z"/>
        <path class="st3" d="M147,173.2v-4.4l3.2-.7v-20.9l-3.2-.7v-4.4h25.6v9.2h-5.7v-3.4h-9.2v7.2h10.6v5.7h-10.6v7.3l3.2.7v4.4h-13.9Z"/>
        <path class="st3" d="M174.1,173.2v-4.4l3.2-.7v-20.9l-3.2-.7v-4.4h24.8v9h-5.7l-.2-3.2h-8.3v6.4h9.9v5.7h-9.9v7.4h8.7l.2-3.3h5.6v9.1h-25.1Z"/>
        <path class="st3" d="M202,173.2v-4.4l3.2-.7v-20.9l-3.2-.7v-4.4h24.8v9h-5.7l-.2-3.2h-8.3v6.4h9.9v5.7h-9.9v7.4h8.7l.2-3.3h5.6v9.1h-25.1Z"/>
        <path class="st3" d="M229.9,173.2v-4.4l3.3-.8v-20.7l-3.3-.8v-4.4h14.5c2.8,0,5.3.7,7.4,2,2.2,1.3,3.9,3.1,5.1,5.4,1.2,2.3,1.8,4.9,1.8,7.9v.5c0,3-.6,5.6-1.8,7.9-1.2,2.3-2.9,4.1-5.1,5.4s-4.6,1.9-7.4,1.9h-14.5ZM240.7,167.5h3.4c1.6,0,2.9-.4,4-1.2s1.9-1.9,2.4-3.4.8-3.1.8-5v-.5c0-1.9-.3-3.6-.8-5s-1.4-2.6-2.4-3.3c-1.1-.8-2.4-1.2-4-1.2h-3.4v19.7h0Z"/>
        <path class="st3" d="M261.3,173.2v-4.4l3.2-.7v-20.9l-3.2-.7v-4.4h14.1c3.9,0,7,.7,9.2,2.2,2.2,1.4,3.3,3.6,3.3,6.4s-.3,2.8-1,3.9c-.7,1.2-1.8,2-3.2,2.6,1.2.3,2.2.7,3,1.4.8.6,1.4,1.4,1.7,2.3.4.9.6,1.9.6,3,0,3-1,5.3-3.1,6.9-2,1.6-5,2.3-8.9,2.3h-15.7ZM272,155h3c1.8,0,3.1-.3,4-.8s1.3-1.4,1.3-2.6-.4-2.2-1.2-2.8c-.8-.6-2.1-.9-3.7-.9h-3.3v7.2h-.1q0,0,0,0h0ZM272,167.5h4.9c1.5,0,2.6-.3,3.3-.9s1.1-1.5,1.1-2.7-.3-2.3-1-3c-.6-.7-1.7-1-3.1-1h-5.3v7.5h.1Z"/>
        <path class="st3" d="M289.9,173.2v-4.4l2.2-.3,9.3-26.4h8.1l9.3,26.4,2.2.3v4.4h-11.6v-4.4l2-.4-.9-3.4h-10l-.9,3.4,2,.4v4.4h-11.7ZM302,159.8h6.8l-3-9.4-.3-1.1h-.1l-.4,1.2-2.9,9.3h-.1Z"/>
        <path class="st3" d="M336.3,173.6c-3,0-5.6-.6-7.9-1.8s-4.1-2.9-5.5-5.2c-1.3-2.3-2-5-2-8.3v-1.4c0-3,.6-5.6,1.8-7.9,1.2-2.3,3-4.1,5.2-5.4,2.3-1.3,4.9-2,8-2s4.2.3,6.2.9c2,.6,3.8,1.6,5.4,3v8h-5.4l-.7-4.6c-.5-.3-1-.6-1.5-.9-.5-.2-1.1-.4-1.7-.6-.6-.1-1.3-.2-2-.2-1.6,0-3,.4-4.1,1.1-1.2.8-2.1,1.8-2.7,3.3-.6,1.4-1,3.2-1,5.2v1.5c0,1.9.3,3.6,1,5s1.6,2.6,2.8,3.4c1.2.8,2.6,1.2,4.2,1.2s1.7,0,2.6-.3c.9-.2,1.7-.4,2.5-.7l.7-4.4h5.5v7.8c-1.2.9-2.8,1.6-4.7,2.2-1.9.6-4.1.9-6.6.9v.2q0,0,0,0h0Z"/>
        <path class="st3" d="M349.7,173.2v-4.4l3.2-.7v-20.9l-3.2-.7v-4.4h13.7v4.4l-2.9.7v20.9l2.9.7v4.4h-13.7ZM358.4,166.4l-3.8-4.4,15.5-15.3h0l-3.5-.3v-4.4h14.5v4.4l-2.9.6-19.8,19.3h0q0,.1,0,0ZM367.3,173.2v-4.4l3.1-.2h0l-7.5-10.2,5.2-4.6,10.9,14.5,3.2.5v4.4h-15,.1,0Z"/>
        <path class="st3" d="M389.1,164.3c0-1,0-1.9.2-2.6.2-.7.4-1.4.8-1.9.3-.6.8-1.1,1.4-1.7.6-.6,1.4-1.2,2.3-1.9.6-.4,1.1-.9,1.5-1.4s.8-1.1,1.1-1.8c.3-.6.4-1.3.4-2,0-1.1-.3-1.9-.9-2.5s-1.4-.9-2.5-.9-1.6.2-2.2.7-.9,1.2-1,2.2h-7.4c0-2,.4-3.6,1.3-4.9.9-1.3,2.1-2.3,3.7-2.9,1.6-.7,3.4-1,5.5-1,3.4,0,6.1.8,8,2.5,1.9,1.6,2.9,3.8,2.9,6.6s-.3,2.4-.8,3.5-1.2,2.1-2,3-1.8,1.7-2.8,2.5c-.6.4-1,.8-1.3,1.3-.3.4-.5.9-.6,1.5-.1.5-.2,1.2-.2,2h-7.5v-.3h.1ZM389.1,173.2v-6.1h7.4v6.1h-7.4Z"/>
      </g>
      <path class="st3" d="M364.7,98.6h-3.7c-.2,0-.3,0-.3-.3v-.7c0-3.7-1.3-7.2-3.8-9.9-2.4-2.7-5.8-4.5-9.4-5-3.5-.4-7.4-.7-11.6-.7s-10.3.5-14.9,1.5h-39.7c-4.6-1-9.6-1.5-14.9-1.5s-8.1.2-11.6.7c-3.6.5-7,2.2-9.4,5-2.4,2.7-3.8,6.3-3.8,9.9v.7c0,.2-.1.3-.3.3h-3.7c-.2,0-.3,0-.3.3v2.3c0,.2.1.3.3.3l3.8.7c.2,0,.3.2.3.3v3.3c0,2.9.5,5.6,1.6,8.2,1,2.5,2.5,4.8,4.5,6.7,1.9,2,4.2,3.5,6.7,4.6,2.6,1.1,5.4,1.7,8.2,1.7h.4c3.8,0,7.6-1.1,11.5-3.3,3.5-1.9,6.9-4.8,9.9-8.1,5.8-6.5,9.5-14.3,9.5-19.9h.6c.6,0,1-.5,1-1.1v-2.8c0-1.5,1.2-2.8,2.8-2.8h5.7c1.5,0,2.8,1.2,2.8,2.8v2.8c0,.6.5,1.1,1,1.1h.6c0,5.6,3.7,13.4,9.5,19.9,3,3.4,6.5,6.2,9.9,8.1,3.9,2.2,7.8,3.3,11.5,3.3h.4c2.8,0,5.6-.6,8.2-1.7,2.5-1.1,4.8-2.6,6.7-4.6,1.9-1.9,3.4-4.2,4.5-6.7,1.1-2.6,1.6-5.4,1.6-8.2v-3.3c0-.2.1-.3.3-.3l3.8-.7c.1,0,.3-.2.3-.3v-2.3c0-.2-.1-.3-.3-.3h-.2ZM243.9,110.4l11.8-25.7c2.6-.3,5.4-.5,8.3-.5l-15.9,34.4c-2.1-2.4-3.6-5.2-4.3-8.2h.1,0ZM254,123c-1-.5-2-1.1-2.9-1.7l17.1-37.1c1.2,0,2.4,0,3.6.2l-17.8,38.7h0q0,0,0-.1ZM263.8,124.8h-1.6c-1.6,0-3.2-.2-4.7-.6l18.2-39.6c2.1.3,4.1.6,6.1,1.1l-18,39h0q0,0,0,0h0ZM310.7,88.7c-.8,1.1-1.5,2.4-1.9,3.7h0v-.7c0-2.7-2.2-4.9-4.9-4.9h-6c-2.7,0-4.9,2.2-4.9,4.9v.6h0c-.4-1.3-1-2.6-1.9-3.7-.9-1.2-1.9-2.1-3.2-2.9h25.7c-1.2.7-2.3,1.7-3.2,2.9h.3q0,0,0,0h0ZM319.3,114c-1.9-2.1-3.6-4.4-4.9-6.8l10.3-22.3c2.7-.4,5.5-.7,8.4-.8l-13.7,29.8h-.1q0,0,0,.1ZM324.7,119.1c-.9-.7-1.8-1.4-2.6-2.3l15.1-32.7c1.2,0,2.4,0,3.6,0,0,0-16.1,34.9-16.1,34.9ZM333.3,123.8c-1.5-.5-3-1.2-4.5-2-.3-.2-.6-.4-1-.6l16.9-36.8c.8,0,1.6.2,2.4.3,1.3.2,2.5.5,3.6,1l-17.5,38.1s.1,0,.1,0Z"/>
      <path d="M646.6,140.8c.3,2.5-2.6,6.3-8.7,11.4,10.1-.7,18.3-4,24.7-12.2-1.4-.7-2.5-1.3-3.7-1.7-5.5-1.8-9.1-5.5-10.4-11-.9-3.6-1.4-7.4-1-11,.6-6.8,6.8-10.1,13-7.2s9.4,8.1,10.7,14.6c.5,2.5.7,5,1.1,8.1,9-4.4,13.1-13,18.8-20.3,2.2,2.3.9,4.2.2,5.8-3.6,8.1-9,14.8-16.8,19.2-2.5,1.4-4.2,3.1-5.6,5.6-4,7.1-10.3,11.7-18,14.4-1.8.6-3.6,1.1-6.1,1.9,5.6,4.4,12.7,5.5,17.7,11.6-2.3,0-3.7.4-4.8,0-9.2-3.3-18.4-6.8-27.6-10.2-.7-.3-1.5-.6-2.1-1-3.5-2.3-3.6-5-.2-7.4,2.7-1.9,5.7-3.4,8.7-5,3.3-1.9,6.7-3.7,10.1-5.5h0q0-.1,0-.1ZM664.6,133.8c1.4-4.9.9-9.3-1.3-13.4-1.3-2.3-3.4-4.2-5.5-5.8-1.6-1.2-3.4-.7-4.4,1.2-3.8,7.3,2.3,17.3,11.3,18h0Z"/>
    </g>
  </g>
</svg>