<?xml version="1.0" encoding="UTF-8"?>
<svg id="Layer_2" xmlns="http://www.w3.org/2000/svg" xmlns:xlink="http://www.w3.org/1999/xlink" version="1.1" viewBox="0 0 720 216">
  <!-- Generator: Adobe Illustrator 30.1.0, SVG Export Plug-In . SVG Version: 2.1.1 Build 136)  -->
  <defs>
    <style>
      .st0, .st1 {
        fill: none;
      }

      .st2 {
        fill: #151515;
      }

      .st3 {
        fill: #f4f4f5;
      }

      .st4 {
        isolation: isolate;
      }

      .st5 {
        stroke: #ffd500;
      }

      .st5, .st6 {
        fill: #fdd600;
      }

      .st5, .st7, .st1 {
        stroke-miterlimit: 10;
      }

      .st8 {
        fill: #434446;
      }

      .st7, .st9 {
        fill: #fff;
      }

      .st7, .st1 {
        stroke: #000;
      }

      .st10 {
        fill: #ffd500;
      }

      .st11 {
        fill: #2a2a2a;
      }

      .st12 {
        clip-path: url(#clippath);
      }
    </style>
    <clipPath id="clippath">
      <rect class="st0" x="-18" y="-18" width="756" height="252"/>
    </clipPath>
  </defs>
  <g id="Layer_1-2">
    <g>
      <g class="st12">
        <g>
          <rect class="st11" x="-18" y="-18" width="756" height="252"/>
          <polygon class="st5" points="650.3 -21 688.5 -59.5 706.3 -8.3 757.4 -26.3 751.2 27.5 805.1 33.5 776.1 79.3 822.1 108 776.1 136.7 805.1 182.5 751.2 188.5 757.4 242.3 706.3 224.3 688.5 275.5 650.3 237 612.1 275.5 594.3 224.3 543.2 242.3 549.4 188.5 495.6 182.5 524.5 136.7 478.5 108 524.5 79.3 495.6 33.5 549.4 27.5 543.2 -26.3 594.3 -8.3 612.1 -59.5 650.3 -21"/>
        </g>
      </g>
      <rect class="st9" x="513" y="9" width="198" height="198"/>
      <g>
        <path class="st9" d="M28.4,128.1c-1.2-1.5-2.5-3.1-4.1-4.1-1.7-1-3.8-1.4-5.6-.6-1.7.7-2.8,2.3-3.5,4-1.7,4-1.2,9,1.5,12.5,2.7,3.5,7.6,5.1,11.7,3.7v-15.5h0Z"/>
        <path class="st9" d="M117.9,122.3c1-1.7,2.1-3.4,3.6-4.6s3.6-1.9,5.5-1.3c1.7.5,3.1,2,4,3.5,2.2,3.8,2.4,8.8.1,12.5-2.2,3.8-6.9,6.1-11.2,5.2l-2-15.4h0c0,0,0,0,0,0h0Z"/>
        <g>
          <path class="st1" d="M29,137.6c-1.1-4.6-5.6-8-10.3-7.9-1.7,0-3.4.6-4.4,1.9"/>
          <path class="st1" d="M118.5,131.8c.5-4.7,4.6-8.7,9.2-9.2,1.7-.2,3.5,0,4.6,1.3"/>
        </g>
        <path class="st9" d="M123.8,160.1c-1.3-19.7-12.5-95.9-20.1-102.5-5.9-5.2-34.4-6.6-35.7-6.4-1.3,0-29.4,5.1-34.6,11s-8,84.6-6.7,104.3c1.2,18.2,30.5,21.8,50.1,20.5,23.2-1.5,48.2-8.6,47-26.8h0Z"/>
        <g>
          <path class="st2" d="M58,111.6c.2,2.6-1.8,4.9-4.4,5.1s-4.9-1.8-5.1-4.4,1.8-4.9,4.4-5.1,4.9,1.8,5.1,4.4Z"/>
          <path class="st2" d="M100.2,108.9c.2,2.6-1.8,4.9-4.4,5.1s-4.9-1.8-5.1-4.4,1.8-4.9,4.4-5.1,4.9,1.8,5.1,4.4Z"/>
        </g>
        <path class="st7" d="M73.6,135.2c3.8-1.6,7.4-3.7,10.8-6.2,2.6-1.9,5.1-4.1,6.5-7-.2-1-1.2-1.1-2-1.8-4.4-4-8.9-7.8-13.6-11.5"/>
        <path class="st1" d="M50.3,136.6s8.5,15.7,32.3,14.8c14.3-.5,19.7-11.1,24.1-19.6"/>
        <path class="st7" d="M78.4,164.4c-.8.6-1.9.2-2.5-.5s-.7-1.8-.6-2.7c0-1.4.6-2.8,1.7-3.7,1.3-1,3.4-.9,4.8,0,1.4,1,2.2,2.7,2.3,4.4.2,2.6-.9,5.2-2.9,6.8s-4.8,2.2-7.3,1.4"/>
        <path class="st1" d="M55.3,117.1c-3.9-1.2-8.2-1.5-12.2-.8"/>
        <path class="st1" d="M96.3,114.2c3.2-2.1,6.6-3.9,10.1-5.4"/>
        <g>
          <path class="st2" d="M48,89.7c2.3-2.3,5-3.8,8.1-4.7,1.6-.5.8-2.9-.9-2.5-3.5,1-6.6,2.9-9.3,5.5-1.2,1.2.8,2.9,2,1.7h.1Z"/>
          <path class="st2" d="M103.5,84.3c-2.9-2.2-6.2-3.7-9.9-4.2-1.7-.2-2.2,2.3-.5,2.6,3.2.5,6.1,1.7,8.7,3.6,1.3,1,3.1-.9,1.7-2h0Z"/>
        </g>
        <g>
          <path class="st2" d="M26.6,125.9l3.7-.2s12.3-16.9,12-34.7c-.3-17.7-3.6-21.4-3.6-21.4,0,0-7.5-5.3-12-2.5-4.5,2.9-5.6,11.4-6.1,26-.3,8.7,2.4,30.2,2.4,30.2l3.7,2.5h-.1Z"/>
          <path class="st2" d="M100.1,61.3s1.5,16.5,17.9,61c0,0,.5-1.1,3.6-4.6,0,0,.4-45.3-2.9-53.6-3.3-8.3-10.9-9.6-10.9-9.6l-7.6,6.8s0,0,0,0Z"/>
          <path class="st2" d="M31.7,68c-2.7-9-.4-24.1,9.3-28.3,14.2-6.1,31.1.7,45.9-3.7,5.8-1.7,11-5.1,15.4-9.3.6,4.9-2.3,9.7-6.6,12.2,0,.8.9,1,1.6,1.1,4.2.8,8.5,0,12.6-1.2,3.2-.8,6.5-1.9,8.5-4.6,1.3,6.2.7,13-3,18.2-3.2,4.6-8.4,7.4-13.4,9.8-6.1,2.9-12.7,5.5-19.5,4.9-9-.8-17-7.1-26-7.4-8.2-.3-16.3,5.2-19.2,12.8-2.7-.3-4.9-2-5.7-4.6h0c0,0,.1,0,.1,0Z"/>
          <path class="st2" d="M41,62.3c.8-.4,1.6-.9,2.4-1.3s1.6-.6,2.5-.8c1.7-.4,3.6-.5,5.3-.3s3.8.7,5.6,1.1,4,.8,6.1,1.2c4,.8,7.8,2.1,11.7,2.9s7.9,1,11.8.7,3.9-.4,5.8-.9,3.6-1.2,5.3-2.1.8-.5,1.2-.7,0-1-.4-.7c-1.7.7-3.6,1.3-5.4,1.7s-3.7.8-5.5.9c-3.9.4-7.8,0-11.6-.5s-3.8-.7-5.7-1.2-4-1.1-6.1-1.5-4.1-.8-6.1-1.1-3.9-.9-5.9-1.1c-3.5-.3-7.5.2-10.4,2.3s-.7.6-1,.9,0,.7.4.5h0Z"/>
          <path class="st8" d="M31,66.7s0,.2.2.2v-.2.3h.2s.2,0,.3.2c.2,0,.4.2.5.2.4.2.7.3,1.1.5s.7.3,1.1.5.8.4,1.2.5.4.2.6.2.2,0,.3,0,.2,0,.3,0c.2,0,.4,0,.4-.2v-.5c0-.2-.2,0-.2-.2s-.2,0-.3-.2c-.2,0-.3-.2-.5-.3-.4-.2-.7-.3-1.1-.5-.7-.3-1.5-.6-2.2-.9s-.4-.2-.6-.3,0,0-.2,0h-.8.2-.3v.2h0v.2l-.2.2h0Z"/>
          <path class="st8" d="M30.7,67s-.2,0-.2.3,0,.3-.2.4c0,.3-.2.5-.3.8-.2.5-.5,1-.7,1.6-.5,1-1,2-1.6,3-1.2,2-2.5,3.8-4,5.5s-1.8,1.8-2.6,2.8,0,.4.2.3c1-.7,1.8-1.5,2.6-2.4s1.5-1.8,2.2-2.7,1.3-1.9,1.9-2.9,1.2-2,1.7-3.1.5-1.2.8-1.8.2-.6.4-.9,0-.3.2-.5,0-.3,0-.5,0,0-.2,0h-.2,0Z"/>
          <path class="st8" d="M38.3,69v.6c0,.2,0,.5.2.7,0,.4.2.9.3,1.3.2.9.3,1.7.5,2.6.3,1.8.5,3.5.5,5.3,0,3.5,0,7.1-.8,10.6s-1.7,6.9-3.2,10.2-3.2,6.4-5.3,9.2-2.2,2.8-3.4,4.1-2.5,2.5-3.9,3.7-.7.6-1,.9,0,.6.3.4c.7-.5,1.5-1.1,2.2-1.6s1.3-1.2,2-1.8c1.3-1.3,2.5-2.6,3.6-4,2.2-2.8,4.1-5.9,5.7-9.2s2.7-6.7,3.5-10.2,1.1-7.2,1.1-10.8-.5-7.2-1.5-10.6,0-.4-.2-.7-.2-.4-.3-.6-.2,0-.2,0h0Z"/>
          <path class="st8" d="M101.4,63.2h.6c.2,0,.5,0,.7-.2.4-.2.8-.4,1.2-.5.8-.4,1.5-.8,2.3-1.2,1.5-.9,2.9-1.9,4.3-3s.7-.6,1.1-1,.4-.4.5-.6.3-.4.4-.6,0-.4-.3-.3-.3.2-.5.3-.4.3-.6.4c-.3.3-.6.5-1,.8s-.3.3-.5.4-.2,0-.2.2-.2,0-.2.2c-.3.3-.7.5-1,.7-1.4,1-2.8,1.9-4.3,2.7s-1.7.8-2.4,1.5,0,.3,0,.3h-.2,0Z"/>
          <path class="st8" d="M103.1,62.9c0,.4.2.7.4,1.1.2.4.3.7.5,1,.3.7.7,1.3,1.1,2,.8,1.3,1.6,2.5,2.6,3.7,2,2.3,4.3,4.2,6.9,5.8s1.5.8,2.2,1.2,1.6.6,2.4.9.4-.3.2-.4c-.7-.3-1.3-.6-2-.9s-1.3-.7-2-1c-1.3-.7-2.5-1.5-3.6-2.5-2.3-1.8-4.3-4.1-5.9-6.5s-.9-1.4-1.3-2.1-.4-.7-.6-1.1-.3-.8-.6-1.1-.3,0-.3,0h0v-.2h0Z"/>
          <path class="st8" d="M110.8,58.1v.5c0,.2,0,.3,0,.5,0,.3.3.7.4,1,.3.6.7,1.2,1.1,1.7.8,1.1,1.9,1.9,3.1,2.6,1.2.7.7.3,1.1.5s.8.2,1.2.2.2,0,.3-.2,0-.2-.2-.3-.3,0-.5-.2,0,0,0,0h-.4c-.2,0-.3,0-.5-.2s0,0,0,0h-.3c-.6-.3-1.1-.6-1.7-1s0,0,0,0h0l-.2-.2c0,0-.3-.2-.4-.3l-.7-.7c0,0-.2-.3-.3-.4,0-.2,0,0,0,0h0l-.2-.2c-.2-.3-.4-.5-.5-.8s-.3-.6-.5-1h0s0-.3,0-.4,0-.2,0-.2,0,0-.2-.2,0,0-.2,0h0l-.3-.5h0v-.2h0Z"/>
          <path class="st8" d="M104.9,66.8v2.2c0,.8,0,1.5.2,2.3,0,1.5.3,3,.6,4.5.5,3,1.3,5.9,2.2,8.8,1.9,5.7,4.5,11.2,7.9,16.1s1.9,2.7,3,4.1,1.1,1.3,1.6,2,1.2,1.2,1.9,1.8.5,0,.3-.3c-.5-.6-.9-1.2-1.4-1.8s-1-1.2-1.5-1.7c-.9-1.1-1.8-2.3-2.7-3.5-1.7-2.4-3.3-5-4.6-7.7-2.7-5.3-4.7-10.9-5.8-16.8-.3-1.7-.6-3.3-.8-5s-.2-1.6-.3-2.5,0-.8,0-1.2,0-.8-.2-1.3-.2,0-.2,0h-.2Z"/>
          <path class="st8" d="M31.1,58.6c0-.2.2-.4.3-.7s0-.5.2-.8c0-.5.3-1,.5-1.4.4-.9.8-1.9,1.3-2.7,1-1.7,2.4-3.3,3.8-4.7,3.1-2.9,7-4.9,11.1-6s10.4-1.8,15.6-2,10.1,0,15.2-.7,9.5-1.6,13.8-3.9,1-.6,1.5-1,0-.6-.3-.5c-4.3,2.4-9,3.7-13.9,4.4s-10.1.7-15.2.8-10.6.4-15.8,1.7-8.2,3-11.6,5.8-5.7,6.1-6.6,10.1,0,.5-.2.7,0,.5,0,.8,0,0,.2,0h.1Z"/>
          <path class="st8" d="M38.1,67.8c1.6-4.3,4.9-7.7,8.7-10s9.2-3.9,14.2-4.7,11.6-1,17.4-1.9,10.5-2.2,15.5-4.1,5-2,7.4-3.3,2.4-1.2,3.6-1.9,2.4-1.3,3.4-2.1,1-.8,1.5-1.2,0-.3-.2-.2c-1.2.5-2.4,1.3-3.5,2s-2.4,1.4-3.6,2c-2.4,1.3-4.9,2.4-7.4,3.4-5,2-10.2,3.5-15.6,4.4s-11.6,1.2-17.4,1.9-10.2,1.8-14.7,4.4-7.5,5.4-9.3,9.6-.4,1-.6,1.5c-.2.5.3.4.4,0h.2,0Z"/>
        </g>
        <g>
          <path class="st2" d="M76.3,139.5c-3-4-8.1-6.1-13-5.5-1.8.2-3.6.8-5.5,1s-3.9-.2-5.1-1.6c1,3.3,4,5,7.2,6.4,2.8,1.2,5.6,2.3,8.6,2.7s4.9-.2,7.8-2.9h0Z"/>
          <path class="st2" d="M77.5,139.4c2.4-4.3,7.2-7.1,12.2-7.2,1.9,0,3.7.3,5.5.3s3.8-.7,4.9-2.2c-.6,3.4-3.3,5.5-6.3,7.2-2.6,1.5-5.3,3-8.2,3.8s-4.9.5-8.1-1.9h0Z"/>
        </g>
      </g>
      <path class="st9" d="M180.9,157.3c1.3,0,2.3-.2,2.8.2,1.6,1.3,3.3,2.6,4.5,4.3,4.2,5.5,6.6,11.9,8.4,18.6.3,1,.3,2.1.4,3.1.4,7-5.2,12-12.1,10.3-3.4-.9-6.8-2.5-9.6-4.5-4.6-3.5-8.8-7.6-13.1-11.4-2.1-1.9-4-3.9-6.6-5.7.9,2.1,1.8,4.1,2.6,6.2.8,2.2,2.2,4.3,1.3,6.7-1.7.8-2.7,0-3.6-1.2-1-1.3-1.9-2.6-2.7-4.1-3.7-7-7.3-14-10.9-21-1-2-2.3-4.2-.6-6.2,1.9-2.2,4.2-.6,6.2.1,6.1,2.3,11.3,6,16.2,10.1.2.2.5.4.6.6.8,1,2.2,2.2.8,3.4-.6.5-2.2.2-3.1-.2-2.7-1.5-5.3-3.3-8.4-4.4.6.7,1.1,1.5,1.7,2.2,4.8,5.1,9.5,10.3,14.5,15.2,2.8,2.8,6,5.3,9.2,7.7,1.6,1.2,3.6,2.2,5.6,2.6,5.1,1.2,8.7-2.2,7.7-7.3-1.8-8.7-4.8-16.9-11.1-23.5-.2-.2-.2-.5-.8-1.7h.1q0-.1,0-.1Z"/>
      <g>
        <g class="st4">
          <g class="st4">
            <g class="st4">
              <g class="st4">
                <g class="st4">
                  <g class="st4">
                    <path class="st9" d="M287.4,184.8c-.6,0-1.2,0-1.8-.2s-1.1-.4-1.6-.8v-2.1h1.4l.2,1.3c.2.2.4.3.8.4s.7.1,1,.1.6,0,.8-.1c.2,0,.4-.2.5-.4.1-.2.2-.4.2-.6s0-.4-.2-.6c-.1-.2-.3-.3-.5-.4-.2-.1-.6-.3-1-.4-.7-.2-1.3-.4-1.7-.7-.5-.2-.8-.5-1-.9-.2-.3-.3-.8-.3-1.2s.1-.9.4-1.3c.3-.4.6-.7,1.1-.9s1-.3,1.6-.3c.7,0,1.3,0,1.8.2.5.2,1,.4,1.4.7v2h-1.3l-.2-1.2c-.2,0-.4-.2-.6-.3-.3,0-.6-.1-.9-.1s-.5,0-.7.1-.4.2-.5.4c-.1.2-.2.4-.2.6s0,.4.2.5.3.3.5.4c.3.1.6.3,1.1.4,1,.3,1.7.6,2.2,1.1.5.4.8,1,.8,1.8s-.1.9-.4,1.3c-.3.4-.6.6-1.1.8-.5.2-1.1.3-1.7.3Z"/>
                    <path class="st9" d="M294.5,184.8c-.6,0-1.2-.1-1.6-.4-.5-.3-.8-.7-1.1-1.2-.2-.5-.4-1.1-.4-1.7v-.2c0-.6.1-1.2.4-1.7.2-.5.6-.9,1.1-1.2.5-.3,1-.4,1.6-.4s1.1,0,1.5.3c.4.2.8.4,1,.6v1.9h-1.3l-.2-1.2c0,0-.2-.2-.4-.2s-.3,0-.5,0c-.3,0-.6,0-.8.2-.2.2-.4.4-.5.7s-.2.7-.2,1.1v.2c0,.4,0,.8.2,1.1.1.3.3.5.5.6.2.1.4.2.7.2s.6,0,.7-.2c.2-.2.3-.4.4-.7h1.5c0,.5-.2.9-.4,1.2-.2.3-.5.6-.9.8-.4.2-.8.3-1.4.3Z"/>
                    <path class="st9" d="M300.2,184.8c-.6,0-1.2-.2-1.5-.5-.4-.3-.6-.8-.6-1.4s.2-1.1.8-1.5,1.2-.6,2.2-.6h.9v-.5c0-.3,0-.6-.3-.8-.2-.2-.5-.3-.8-.3s-.4,0-.5,0c-.1,0-.3.1-.4.2v.9h-1.4v-1.7c.3-.2.7-.4,1.1-.5.4-.1.8-.2,1.3-.2.9,0,1.5.2,2,.6s.7,1,.7,1.7v2.7c0,0,0,.2,0,.3,0,0,0,.2,0,.3h.7v1.2h-2.2c0-.1,0-.2-.1-.4,0-.1,0-.3,0-.4-.2.3-.5.5-.7.6-.3.2-.6.2-1,.2ZM300.6,183.5c.2,0,.5,0,.7-.2.2-.1.4-.3.5-.4v-1h-.9c-.4,0-.7,0-.9.3s-.3.4-.3.6,0,.4.2.5c.1.1.4.2.6.2Z"/>
                    <path class="st9" d="M304.9,184.7v-1.1l.8-.2v-4.1l-.9-.2v-1.1h2.6v.9c.3-.3.6-.6.9-.8s.7-.3,1.1-.3c.6,0,1.2.2,1.5.6.4.4.6,1.1.6,2v2.9l.8.2v1.1h-3.4v-1.1l.8-.2v-2.8c0-.4,0-.8-.3-.9-.2-.2-.4-.3-.8-.3s-.5,0-.7.2c-.2.1-.3.3-.5.5v3.4l.7.2v1.1h-3.3Z"/>
                  </g>
                </g>
              </g>
            </g>
            <g class="st4">
              <g class="st4">
                <g class="st4">
                  <g class="st4">
                    <path class="st9" d="M318.5,184.8c-.6,0-1.1-.2-1.4-.5s-.5-.9-.5-1.6v-3.3h-.9v-1.2h.9v-1.6h1.8v1.6h1.2v1.2h-1.2v3.3c0,.3,0,.4.2.5.1.1.3.2.4.2s.2,0,.3,0c.1,0,.2,0,.3,0l.2,1.3c-.2,0-.4,0-.6.1-.2,0-.4,0-.6,0Z"/>
                  </g>
                </g>
              </g>
            </g>
            <g class="st4">
              <g class="st4">
                <g class="st4">
                  <g class="st4">
                    <path class="st9" d="M323.3,184.8c-.6,0-1.2-.1-1.7-.4-.5-.3-.8-.7-1.1-1.2-.2-.5-.4-1.1-.4-1.7h0c0-.8.1-1.4.4-1.9.2-.5.6-.9,1.1-1.2.5-.3,1-.4,1.7-.4s1.2.1,1.7.4c.5.3.8.7,1.1,1.2.2.5.4,1.1.4,1.7h0c0,.8-.1,1.4-.4,1.9-.2.5-.6.9-1.1,1.2-.5.3-1,.4-1.7.4ZM323.3,183.5c.3,0,.6,0,.8-.2.2-.2.3-.4.4-.7,0-.3.1-.6.1-1h0c0-.5,0-.9-.1-1.2,0-.3-.2-.5-.4-.7-.2-.2-.4-.3-.8-.3s-.6,0-.8.3c-.2.2-.3.4-.4.7s-.1.6-.1,1h0c0,.5,0,.9.1,1.2,0,.3.2.5.4.7.2.2.5.2.8.2Z"/>
                  </g>
                </g>
              </g>
            </g>
            <g class="st4">
              <g class="st4">
                <g class="st4">
                  <g class="st4">
                    <path class="st9" d="M332.3,184.7v-1.1l.9-.2v-6.2h-1.6v1.1h-1.4v-2.4h7.9v2.4h-1.3v-1.1h-1.7v6.2l1,.2v1.1h-3.7Z"/>
                  </g>
                </g>
              </g>
            </g>
            <g class="st4">
              <g class="st4">
                <g class="st4">
                  <g class="st4">
                    <path class="st9" d="M341.3,184.8c-.6,0-1.2-.1-1.6-.4-.5-.3-.8-.7-1.1-1.1s-.4-1-.4-1.7v-.2c0-.6.1-1.2.4-1.7.2-.5.6-.9,1-1.2.4-.3,1-.4,1.6-.4s1.1.1,1.5.4c.4.2.7.6.9,1,.2.4.3,1,.3,1.6v1h-3.9c0,.3,0,.6.2.8.1.2.3.4.5.5.2.1.5.2.8.2s.6,0,.9-.1c.3,0,.6-.2.8-.4l.5,1.1c-.3.2-.6.4-1,.5s-.9.2-1.4.2ZM340.1,180.8h2.2v-.2c0-.3,0-.5-.1-.7,0-.2-.2-.3-.3-.4-.2-.1-.4-.2-.6-.2s-.4,0-.6.2c-.2.1-.3.3-.4.5s-.2.5-.2.7h0Z"/>
                    <path class="st9" d="M344.6,184.7v-1.1l.9-.2v-7l-.9-.2v-1.1h2.7v8.2l.9.2v1.1h-3.5Z"/>
                    <path class="st9" d="M348.6,184.7v-1.1l.9-.2v-7l-.9-.2v-1.1h2.7v8.2l.9.2v1.1h-3.5Z"/>
                  </g>
                </g>
              </g>
            </g>
          </g>
        </g>
        <g>
          <g class="st4">
            <g class="st4">
              <g class="st4">
                <g class="st4">
                  <g class="st4">
                    <g class="st4">
                      <path class="st3" d="M156.7,58v-3l2.7-.5v-17.9l-2.7-.5v-3h10.3v3l-2.7.5v7.2h10.2v-7.2l-2.7-.5v-3h10.3v3l-2.7.5v17.9l2.7.5v3h-10.3v-3l2.7-.5v-6.9h-10.2v6.9l2.7.5v3h-10.3Z"/>
                    </g>
                  </g>
                </g>
              </g>
              <g class="st4">
                <g class="st4">
                  <g class="st4">
                    <g class="st4">
                      <path class="st3" d="M193.1,58.4c-1.8,0-3.4-.4-4.7-1.2s-2.3-1.9-3-3.3c-.7-1.4-1-3.1-1-4.9v-.4c0-1.8.3-3.5,1-4.9.7-1.4,1.7-2.5,3-3.3,1.3-.8,2.9-1.2,4.7-1.2s3.4.4,4.7,1.2c1.3.8,2.3,1.9,3,3.3.7,1.4,1,3.1,1,4.9v.4c0,1.9-.3,3.5-1,4.9-.7,1.4-1.7,2.5-3,3.3-1.3.8-2.9,1.2-4.7,1.2ZM193.1,54.5c.9,0,1.6-.2,2.1-.7s1-1.1,1.2-2,.4-1.8.4-2.9v-.4c0-1.1-.1-2.1-.4-2.9s-.7-1.5-1.2-2c-.6-.5-1.3-.7-2.2-.7s-1.6.2-2.1.7c-.6.5-1,1.1-1.2,2-.3.8-.4,1.8-.4,2.9v.4c0,1.1.1,2.1.4,2.9.3.8.7,1.5,1.2,2,.6.5,1.3.7,2.2.7Z"/>
                    </g>
                  </g>
                </g>
              </g>
              <g class="st4">
                <g class="st4">
                  <g class="st4">
                    <g class="st4">
                      <path class="st3" d="M209.8,58l-4.3-15.1-2.3-.4v-3h9v3l-2,.4,1.7,7.2.3,1.4h.1l.5-1.4,3.8-10.6h3.4l3.7,10.7.5,1.5h.1l.4-1.5,2-7.3-2.2-.4v-3h8.8v3l-2.2.4-4.7,15.1h-4.2l-3.4-9.2-.6-2h-.1l-.6,2.1-3.3,9.2h-4.4Z"/>
                    </g>
                  </g>
                </g>
              </g>
              <g class="st4">
                <g class="st4">
                  <g class="st4">
                    <g class="st4">
                      <path class="st3" d="M236.3,40.3v-9h3.7v4.4l-1.5,4.7h-2.2Z"/>
                    </g>
                  </g>
                </g>
              </g>
              <g class="st4">
                <g class="st4">
                  <g class="st4">
                    <g class="st4">
                      <path class="st3" d="M248.9,58.4c-1.4,0-2.7-.1-3.9-.4-1.2-.3-2.3-.6-3.4-1.1v-5.2c0,0,3.4,0,3.4,0l.7,2.7c.4.2.8.3,1.3.5s1,.2,1.6.2c1.1,0,1.9-.2,2.4-.5s.7-.8.7-1.4-.2-1-.7-1.4c-.5-.4-1.5-.7-2.9-1-2.2-.5-3.8-1.2-4.9-2.1-1-1-1.6-2.2-1.6-3.7s.3-2,.8-2.8c.5-.8,1.3-1.5,2.4-2,1.1-.5,2.4-.8,4.1-.8s2.7.1,3.8.4c1.2.3,2.1.6,2.9,1.1v5.1c0,0-3.4,0-3.4,0l-.5-2.4c-.3-.2-.7-.4-1.1-.5-.4-.1-.9-.2-1.4-.2-.9,0-1.6.2-2,.5-.5.4-.7.8-.7,1.4s0,.6.2.9.5.5,1,.8,1.2.5,2.1.7c2.3.5,4,1.2,5,2.1s1.6,2.1,1.6,3.7-.6,3.1-1.9,4.2-3.1,1.6-5.6,1.6Z"/>
                      <path class="st3" d="M267.2,58v-3l2.7-.5v-17.9l-2.7-.5v-3h10.1l6.8,17.4h.1l6.6-17.4h10.1v3l-2.7.5v17.9l2.7.5v3h-10.3v-3l2.8-.5v-16c0,0,0,0,0,0l-7.5,19.2h-3.8l-7.6-19.1h-.1s.3,10.6.3,10.6v5.3l2.9.5v3h-10.3Z"/>
                      <path class="st3" d="M307.9,65.5c-.4,0-.9,0-1.4-.1-.5,0-.9-.2-1.4-.3l.6-3.7c.2,0,.5,0,.7.1.3,0,.5,0,.7,0,.7,0,1.3-.2,1.9-.6.5-.4.9-.9,1.1-1.6l.4-1.1-6.2-15.4-2.3-.3v-3h9.8v3l-2.3.3,2.9,8.2.4,1h.1l3.4-9.2-2.2-.3v-3h9.2v3l-2.1.3-7.1,18c-.3.9-.8,1.6-1.3,2.4-.5.7-1.2,1.3-2,1.7-.8.4-1.8.7-3,.7Z"/>
                      <path class="st3" d="M333.2,58v-3l2.7-.6v-17.8l-2.7-.6v-3h11c2.2,0,4.2.5,5.9,1.6,1.7,1,3,2.5,4,4.3,1,1.8,1.4,4,1.4,6.3v.5c0,2.4-.5,4.5-1.4,6.3-.9,1.8-2.3,3.3-4,4.3-1.7,1.1-3.7,1.6-5.9,1.6h-11ZM340.9,54.2h3.1c1.4,0,2.6-.4,3.5-1.1s1.7-1.7,2.2-3c.5-1.3.8-2.7.8-4.3v-.5c0-1.6-.3-3.1-.8-4.4-.5-1.3-1.2-2.2-2.2-3-1-.7-2.1-1.1-3.5-1.1h-3.1v17.3Z"/>
                    </g>
                  </g>
                </g>
              </g>
              <g class="st4">
                <g class="st4">
                  <g class="st4">
                    <g class="st4">
                      <path class="st3" d="M359.5,58v-3l2.4-.5v-11.5l-2.7-.5v-3h7.3l.2,2.3v.4c.5-1,1.1-1.8,1.7-2.3.7-.5,1.5-.8,2.4-.8s.6,0,1,0,.7.1.9.2l-.5,4.6h-2.5c-.7-.2-1.3,0-1.7.2-.4.3-.8.7-1.2,1.2v9.1l2.4.5v3h-9.8Z"/>
                    </g>
                  </g>
                </g>
              </g>
              <g class="st4">
                <g class="st4">
                  <g class="st4">
                    <g class="st4">
                      <path class="st3" d="M374.5,58v-3l2.4-.5v-11.5l-2.7-.5v-3h7.7v15l2.4.5v3h-9.8ZM376.8,35.5v-4.3h5.2v4.3h-5.2Z"/>
                      <path class="st3" d="M392.9,58l-5.6-15.2-2-.3v-3h9v3l-2,.3,2.8,8.4.4,1.4h.1l.5-1.4,3.1-8.4-2.3-.4v-3h9v3l-2.1.3-5.9,15.2h-5.1Z"/>
                      <path class="st3" d="M407.2,58v-3l2.4-.5v-11.5l-2.7-.5v-3h7.7v15l2.4.5v3h-9.8ZM409.5,35.5v-4.3h5.2v4.3h-5.2Z"/>
                    </g>
                  </g>
                </g>
              </g>
              <g class="st4">
                <g class="st4">
                  <g class="st4">
                    <g class="st4">
                      <path class="st3" d="M418.9,58v-3l2.4-.5v-11.5l-2.7-.5v-3h7.3l.2,2.7c.6-.9,1.4-1.7,2.3-2.2s1.9-.8,3.1-.8c1.8,0,3.3.6,4.3,1.8s1.6,3,1.6,5.5v8.1l2.4.5v3h-9.6v-3l2.1-.5v-8.1c0-1.2-.2-2.1-.7-2.6-.5-.5-1.2-.8-2.2-.8s-1.3.2-1.9.5-1,.7-1.3,1.3v9.7l2,.5v3h-9.4Z"/>
                    </g>
                  </g>
                </g>
              </g>
              <g class="st4">
                <g class="st4">
                  <g class="st4">
                    <g class="st4">
                      <path class="st3" d="M449.3,65.5c-.9,0-2-.1-3.2-.4-1.2-.2-2.2-.6-3.1-1l.9-3.6c.8.3,1.6.6,2.5.8.9.2,1.7.3,2.5.3,1.3,0,2.3-.4,2.9-1.1.6-.7.9-1.8.9-3.1v-1.2c-.5.7-1.2,1.2-1.9,1.6s-1.6.5-2.6.5c-1.5,0-2.8-.4-3.9-1.1-1.1-.8-1.9-1.8-2.5-3.2-.6-1.4-.9-3-.9-4.8v-.4c0-2,.3-3.7.9-5.1.6-1.5,1.4-2.6,2.5-3.4,1.1-.8,2.3-1.2,3.8-1.2s2.1.2,2.9.7c.8.5,1.5,1.1,2,2l.4-2.3h4.4v18c0,1.6-.3,3.1-1,4.3-.7,1.2-1.7,2.1-3,2.8-1.3.7-2.8,1-4.6,1ZM449.8,54.5c.7,0,1.3-.1,1.8-.4s.9-.7,1.3-1.2v-8.1c-.3-.6-.7-1-1.3-1.3s-1.1-.5-1.8-.5-1.6.2-2.1.7-.9,1.2-1.2,2.1c-.3.9-.4,1.9-.4,3.1v.4c0,1.6.3,2.9.8,3.8.6.9,1.5,1.4,2.8,1.4ZM457.3,43.1l-2.2-3.6h5v3l-2.8.6Z"/>
                      <path class="st3" d="M466.2,50.9c0-.8,0-1.5.2-2.1.1-.6.3-1.1.5-1.5.2-.4.6-.9,1-1.3.4-.4,1-.9,1.7-1.4.6-.5,1.1-1,1.5-1.5.4-.5.7-1,.9-1.6.2-.5.3-1.1.3-1.7,0-1-.3-1.8-.8-2.3-.5-.6-1.3-.8-2.3-.8s-1.5.2-2.1.7-.9,1.1-.9,2.1h-4.9c0-1.5.3-2.7,1-3.7s1.6-1.7,2.8-2.3c1.2-.5,2.6-.8,4.1-.8,2.5,0,4.5.6,6,1.9,1.4,1.3,2.2,3,2.2,5.1s-.2,1.9-.6,2.8c-.4.8-.9,1.6-1.6,2.4s-1.5,1.5-2.3,2.2c-.4.4-.8.7-1,1.1-.2.3-.4.7-.4,1.2s-.1,1-.1,1.6h-5ZM466.2,58v-4.4h5v4.4h-5Z"/>
                    </g>
                  </g>
                </g>
              </g>
            </g>
          </g>
          <g>
            <g class="st4">
              <g class="st4">
                <g class="st4">
                  <g class="st4">
                    <g class="st4">
                      <g class="st4">
                        <path class="st6" d="M164.2,104.6v-3.8l3.4-.7v-22.4h-5.8l-.3,3.8h-4.8v-8.7h28.4v8.7h-4.8l-.3-3.8h-5.8v22.4l3.4.7v3.8h-13.2Z"/>
                      </g>
                    </g>
                  </g>
                </g>
                <g class="st4">
                  <g class="st4">
                    <g class="st4">
                      <g class="st4">
                        <path class="st6" d="M197.1,105.1c-2.3,0-4.2-.5-5.9-1.5-1.7-1-3-2.4-3.9-4.1s-1.4-3.7-1.4-6v-.9c0-2.3.4-4.4,1.3-6.2s2.1-3.2,3.7-4.3c1.6-1,3.5-1.5,5.6-1.5s3.9.4,5.4,1.3,2.6,2.1,3.3,3.6c.8,1.6,1.1,3.5,1.1,5.8v3.5h-13.9c0,1.2.3,2.1.8,2.9.4.8,1,1.4,1.8,1.9s1.7.7,2.9.7,2.3-.1,3.3-.4,2-.7,3-1.3l1.7,3.9c-1,.8-2.2,1.4-3.7,2-1.5.5-3.2.8-5.1.8ZM192.5,90.5h7.9v-.6c0-1-.1-1.8-.4-2.5-.3-.7-.7-1.2-1.2-1.6-.6-.4-1.3-.6-2.2-.6s-1.6.2-2.1.7c-.6.4-1,1.1-1.4,1.8-.3.8-.5,1.6-.7,2.6h0Z"/>
                        <path class="st6" d="M209,104.6v-3.8l3.1-.7v-25.1l-3.4-.7v-3.8h9.8v29.6l3.1.7v3.8h-12.5Z"/>
                        <path class="st6" d="M223.2,104.6v-3.8l3.1-.7v-25.1l-3.4-.7v-3.8h9.8v29.6l3.1.7v3.8h-12.5Z"/>
                        <path class="st6" d="M248.6,104.6v-3.8l3.4-.7v-22.8l-3.4-.7v-3.8h12.8l8.7,22.2h.1l8.4-22.2h12.8v3.8l-3.4.7v22.8l3.4.7v3.8h-13.2v-3.8l3.6-.7v-20.4c.1,0,0,0,0,0l-9.5,24.5h-4.8l-9.7-24.3h-.1s.4,13.5.4,13.5v6.7l3.8.7v3.8h-13.2Z"/>
                        <path class="st6" d="M300.4,114.1c-.6,0-1.1,0-1.8-.1-.6,0-1.2-.2-1.8-.4l.7-4.7c.3,0,.6.1.9.1.3,0,.6,0,.9,0,.9,0,1.7-.2,2.4-.7s1.2-1.2,1.5-2.1l.5-1.5-7.9-19.6-2.9-.4v-3.8h12.5v3.8l-2.9.4,3.7,10.4.5,1.3h.1l4.4-11.7-2.8-.4v-3.8h11.7v3.8l-2.7.4-9,22.9c-.4,1.1-1,2.1-1.7,3-.7.9-1.5,1.6-2.6,2.2-1,.6-2.3.8-3.8.8Z"/>
                      </g>
                    </g>
                  </g>
                </g>
              </g>
            </g>
            <g>
              <path class="st10" d="M358.9,67.1c-11.5,0-23.3,8.7-29.9,17.3v.2c-1.6,2-2.4,3.1-2.9,4.2-.3.7-.6,1.4-.4,2.2.1.5.4,1,.9,1.3s1,.4,1.5.3c1.4-.3,2.1-2,3-4.1.2-.5.4-1,.7-1.4,5.9-8,16.6-16,27.1-16s9.7,2.8,9.7,7.5-2.1,11.9-5.6,17.2c-.2-.7-.8-1.2-1.5-1.4-3-.5-5.7-.7-8.3-.7s-6.3.3-9.3,1c4.6-7.6,10.3-16,13.8-18.8.4-.4.6-.9.6-1.4,0-1-.9-1.9-1.9-1.9s-.9.2-1.2.4c-4.3,3.5-11.4,14.3-16.7,23.4-8,3.2-13.6,8.8-13.6,13.9s3.7,6.9,9.7,6.9c18.4,0,37.9-19.8,37.9-38.6s-5.3-11.3-13.6-11.3v-.2h0ZM329.4,87.6c-.4,1-1.2,2.6-1.6,2.9h0c0-.2,0-.6.2-.9.3-.7.9-1.5,1.7-2.7-.1.2-.2.5-.3.7h0ZM340.8,96.2c0,.2,0,.4.2.6s.3.2.4.3c-.4,0-.9.3-1.3.4h-.1c.3-.5.5-.9.8-1.4h0ZM339.4,98h0c-.3.5-.6,1-.9,1.5,0-.2,0-.4-.3-.6-.1,0-.3-.2-.4-.3.5-.2,1-.4,1.5-.6h0ZM334.6,113.2c-1.4,0-5.9-.2-5.9-3.1s2-5.5,6.5-8.2c-1.2,2.1-2.1,4-2.8,5.5-.4.9-.7,2.3-.1,3.2.2.3.7.8,1.7.8,1.5,0,2.6-1.8,3.2-3.2.3-.7.2-1.2,0-1.6v-.2c.9-1.8,2.4-4.5,4-7.2,3.7-1.2,7.8-1.8,12.1-1.8s5.1.2,7.6.7h.4c-6.6,8.7-16.9,15.1-26.7,15.1h0ZM335.4,107.5c-.6,1.4-1.2,2-1.4,2h0c0-.2,0-.6.3-1.2.2-.4.4-.9.7-1.5v.2c0,.2.2.3.3.4h.1Z"/>
              <path class="st10" d="M439.8,93.8c0-1-.9-1.9-1.9-1.9s-1,.2-1.3.5c-10,8.9-15.1,10.8-17.5,10.8s-1.6-.2-1.6-2.1.3-2.9.9-4.9c7.4-6.9,18.3-18.7,18.3-23.5s-1.4-3.5-3.5-3.5c-6.2,0-12.9,12-16.2,19.7-.8-.7-1.8-1.1-3-1.1-2.5,0-5.6,1.5-8.3,3.8-.4,0-.7.3-.9.5-6.4,7-13.8,10.7-17.4,10.7s-1.6-.3-1.6-1.6c0-2,2.4-6.8,5.4-10.5.3-.4.5-.8.5-1.3,0-1-.9-1.9-1.9-1.9s-1.1.3-1.5.7c-.3.3-.5.6-.8,1-.1,0-.2.3-.3.4-1.1-1.3-2.7-2.2-4.5-2.2-6.3,0-16.1,9.7-16.1,16s1.4,3.7,3.8,3.7,6.1-2,11.6-7v1.1c0,3.4,2,5.4,5.5,5.4s6.7-1.4,10.7-4v1.1c0,2.3,1.4,3.7,3.7,3.7s7.7-3.6,12-7.2v.7c0,3.8,2,6,5.5,6s11.2-3.8,20-11.7c.4-.3.7-.9.7-1.5h-.3ZM370.4,103.2c.1-4.1,8.1-12,12.2-12s1.5.5,1.8,1.3c-3.1,3.1-10.9,10.6-14,10.8h0ZM383.7,97.1c-.2,0-.4-.2-.6-.2s-.4,0-.6,0c1.1-1.1,2.4-2.3,3.7-3.6.2-.2.3-.5.3-.9s0-.4-.1-.5c.1,0,.3.2.5.2.4,0,.7,0,.9-.4,0,0,0,0,.1-.2-1.4,2.1-2.8,4.6-3.6,6.7,0-.8-.4-1.1-.6-1.3h0ZM432.8,73c-.5,2-4.5,7.4-11,14.2,3.4-7.2,7.9-13.6,11-14.2ZM401.8,103.6c.2-4.1,8.1-12,12.2-12s.4,0,.5,0c0,0,.3.4.2,1.4v1c-6.8,6.3-11.4,9.2-13,9.5h0ZM416.6,95.2c-.2.7-.4,1.5-.6,2.1,0-.2-.2-.4-.4-.5-.2,0-.3,0-.5,0h-.2c.6-.6,1.2-1.1,1.8-1.6h0ZM416.9,93.7c0,0-.2-.2-.3-.3h0v-1.6c.2.2.4.2.6.2s.5,0,.6-.2c0,.3.2.6.4.8.3.2.6.2.9,0-.7.7-1.5,1.4-2.3,2.1v-.2c.1-.3,0-.6,0-.8h0Z"/>
              <path class="st10" d="M456.7,68.9c-.6,0-1.1.3-1.5.7-2.6,3.3-12.6,19.6-15.7,25.9-.1.3-.2.6-.2.9,0,1,.9,1.9,1.9,1.9s1.4-.4,1.8-1.1c3-6.2,12.8-22,15.3-25.2.2-.3.4-.7.4-1.2,0-1-.9-1.9-1.9-1.9h0Z"/>
              <path class="st10" d="M438.4,100.2c-.7,0-1.4.4-1.7,1-.6,1.2-1,2-1.5,3.1,0,0-.1.4-.1.7,0,1,.9,1.9,1.9,1.9s1.5-.5,1.8-1.3c.4-.9.7-1.6,1.3-2.7.1-.3.2-.6.2-.9,0-1-.9-1.9-1.9-1.9h0Z"/>
            </g>
          </g>
        </g>
        <g>
          <polygon class="st5" points="231.8 131.7 236.7 142.9 248.8 144.1 239.7 152.2 242.3 164.1 231.8 157.9 221.2 164.1 223.9 152.2 214.7 144.1 226.9 142.9 231.8 131.7"/>
          <polygon class="st5" points="274.9 131.7 279.8 142.9 292 144.1 282.8 152.2 285.5 164.1 274.9 157.9 264.4 164.1 267 152.2 257.8 144.1 270 142.9 274.9 131.7"/>
          <polygon class="st5" points="318 131.7 322.9 142.9 335.1 144.1 326 152.2 328.6 164.1 318 157.9 307.5 164.1 310.1 152.2 301 144.1 313.2 142.9 318 131.7"/>
          <polygon class="st5" points="361.2 131.7 366.1 142.9 378.2 144.1 369.1 152.2 371.7 164.1 361.2 157.9 350.6 164.1 353.3 152.2 344.1 144.1 356.3 142.9 361.2 131.7"/>
          <polygon class="st5" points="404.3 131.7 409.2 142.9 421.4 144.1 412.2 152.2 414.9 164.1 404.3 157.9 393.8 164.1 396.4 152.2 387.2 144.1 399.4 142.9 404.3 131.7"/>
        </g>
      </g>
    </g>
  </g>
</svg>