<?xml version="1.0" encoding="UTF-8"?>
<svg id="Layer_2" xmlns="http://www.w3.org/2000/svg" version="1.1" viewBox="0 0 720 216">
  <!-- Generator: Adobe Illustrator 30.1.0, SVG Export Plug-In . SVG Version: 2.1.1 Build 136)  -->
  <defs>
    <style>
      .st0 {
        isolation: isolate;
      }

      .st1 {
        fill: #fdd600;
        stroke: #ffd500;
        stroke-miterlimit: 10;
      }

      .st2 {
        fill: #fff;
      }

      .st3 {
        fill: #2a2a2a;
      }
    </style>
  </defs>
  <g id="Layer_1-2">
    <g>
      <g>
        <rect class="st1" x="-18" y="-17.7" width="756" height="252"/>
        <rect class="st3" x="504" y="-18.3" width="234" height="252.6"/>
        <rect class="st2" x="513" y="9.3" width="198" height="198"/>
      </g>
      <rect class="st2" x="26" y="159.4" width="155.8" height="35.2"/>
      <g class="st0">
        <g class="st0">
          <g class="st0">
            <g class="st0">
              <path d="M48.9,182.3c-.9,0-1.7-.1-2.4-.3-.7-.2-1.5-.6-2.2-1.1v-2.9h1.8l.3,1.8c.3.2.6.4,1.1.5.4.1.9.2,1.5.2s.9,0,1.2-.2c.3-.1.6-.3.7-.6s.3-.5.3-.9,0-.6-.2-.8c-.2-.2-.4-.5-.8-.7-.4-.2-.8-.4-1.4-.6-1-.3-1.8-.6-2.4-.9-.6-.3-1.1-.8-1.4-1.2-.3-.5-.5-1.1-.5-1.7s.2-1.3.6-1.8c.4-.5.9-.9,1.5-1.2.7-.3,1.4-.4,2.3-.5.9,0,1.8.1,2.5.4.7.2,1.3.6,1.9,1v2.7h-1.8l-.3-1.7c-.2-.2-.5-.3-.9-.4-.4-.1-.8-.2-1.3-.2s-.8,0-1.1.2c-.3.1-.6.3-.8.6-.2.2-.3.5-.3.9s0,.6.2.8c.2.2.4.4.8.6.4.2.9.4,1.5.6,1.4.4,2.4.9,3.1,1.5.7.6,1.1,1.4,1.1,2.4s-.2,1.3-.6,1.8c-.4.5-.9.9-1.6,1.2-.7.3-1.5.4-2.4.4Z"/>
            </g>
          </g>
          <g class="st0">
            <g class="st0">
              <path d="M58.9,182.3c-.9,0-1.6-.2-2.3-.6-.6-.4-1.1-.9-1.5-1.6-.3-.7-.5-1.5-.5-2.4v-.3c0-.9.2-1.7.5-2.4.4-.7.8-1.3,1.5-1.7.6-.4,1.4-.6,2.3-.6s1.5.1,2.1.4c.6.3,1.1.6,1.4.9v2.6h-1.8l-.3-1.6c-.1-.1-.3-.3-.6-.4-.2,0-.5-.1-.7-.1-.5,0-.9.1-1.2.4-.3.2-.6.6-.7,1-.2.4-.2,1-.2,1.6v.3c0,.6,0,1.2.3,1.6.2.4.4.7.7,1,.3.2.6.3,1,.3s.8-.1,1.1-.4c.3-.2.5-.6.6-1h2c0,.7-.3,1.2-.6,1.7s-.7.8-1.2,1.1c-.5.3-1.2.4-2,.4Z"/>
            </g>
          </g>
          <g class="st0">
            <g class="st0">
              <path d="M66.8,182.3c-.9,0-1.7-.2-2.2-.7-.5-.5-.8-1.2-.8-2s.4-1.6,1.1-2.1c.7-.5,1.7-.8,3.1-.8h1.3v-.7c0-.5-.1-.8-.4-1.1-.3-.3-.7-.4-1.2-.4s-.6,0-.8.1c-.2,0-.4.2-.6.3l-.2,1.2h-1.7v-2.3c.4-.3,1-.5,1.5-.7.6-.2,1.2-.3,1.9-.3,1.2,0,2.1.3,2.8.8.7.6,1,1.4,1,2.4v3.9c0,.1,0,.2,0,.4,0,.1,0,.2,0,.4h.9v1.5h-2.9c0-.2-.1-.4-.2-.5,0-.2,0-.4-.1-.6-.3.4-.7.7-1.1.9-.4.2-.9.4-1.4.4ZM67.4,180.5c.4,0,.8,0,1.1-.3s.6-.4.8-.7v-1.5h-1.3c-.6,0-1,.1-1.4.4s-.5.6-.5,1,.1.6.3.8c.2.2.5.3.9.3Z"/>
              <path d="M73.5,182.1v-1.4l1.2-.3v-5.9l-1.3-.3v-1.4h3.5v1.3c.4-.5.8-.8,1.3-1.1.5-.3,1-.4,1.6-.4.9,0,1.7.3,2.2.9.5.6.8,1.5.8,2.7v4.1l1.2.3v1.4h-4.7v-1.4l1.1-.3v-4.1c0-.7-.1-1.1-.4-1.4-.3-.3-.7-.4-1.2-.4s-.7,0-1,.3c-.3.2-.5.4-.7.7v5l1.1.3v1.4h-4.7Z"/>
            </g>
          </g>
          <g class="st0">
            <g class="st0">
              <path d="M92.7,182.3c-.8,0-1.5-.2-1.9-.7-.5-.5-.7-1.2-.7-2.2v-4.9h-1.3v-1.6h1.3v-2.3h2.3v2.3h1.8v1.6h-1.8v4.9c0,.4,0,.6.2.8.2.2.4.2.6.2s.3,0,.5,0c.2,0,.3,0,.4,0l.2,1.6c-.3,0-.5.1-.9.2-.3,0-.6,0-.9,0Z"/>
            </g>
          </g>
          <g class="st0">
            <g class="st0">
              <path d="M99.6,182.3c-.9,0-1.7-.2-2.3-.6-.6-.4-1.1-1-1.5-1.7-.3-.7-.5-1.5-.5-2.4v-.2c0-.9.2-1.7.5-2.4.3-.7.8-1.3,1.5-1.7.6-.4,1.4-.6,2.3-.6s1.7.2,2.3.6c.6.4,1.1,1,1.5,1.7.3.7.5,1.5.5,2.4v.2c0,.9-.2,1.7-.5,2.4-.3.7-.8,1.3-1.5,1.7-.6.4-1.4.6-2.3.6ZM99.6,180.5c.4,0,.8-.1,1.1-.4.3-.2.5-.6.7-1,.1-.4.2-.9.2-1.5v-.2c0-.6,0-1.1-.2-1.5-.1-.4-.4-.8-.7-1-.3-.2-.7-.4-1.1-.4s-.8.1-1.1.4c-.3.2-.5.6-.7,1-.1.4-.2.9-.2,1.5v.2c0,.6,0,1.1.2,1.5.1.4.4.8.7,1,.3.2.7.4,1.1.4Z"/>
              <path d="M109.3,182.1v-1.4l1.3-.3v-9.1l-1.3-.3v-1.4h5.8c.9,0,1.7.1,2.4.4.7.3,1.2.7,1.5,1.3s.5,1.2.5,2-.2,1.4-.5,1.9c-.4.6-.8,1-1.5,1.3-.6.3-1.4.5-2.2.5h-2.4v3.4l1.3.3v1.4h-5ZM113,175.3h2.1c.8,0,1.3-.2,1.7-.5.4-.3.6-.8.6-1.4s-.2-1.1-.5-1.4c-.4-.4-.9-.5-1.6-.5h-2.2v3.8ZM117.4,182.1l-2.2-5.6,2.1-.4,1.9,4.3,1,.2v1.4h-2.8Z"/>
              <path d="M125.7,182.3c-.9,0-1.6-.2-2.3-.6-.7-.4-1.2-.9-1.5-1.6s-.5-1.5-.5-2.4v-.4c0-.9.2-1.7.5-2.4s.8-1.3,1.4-1.7c.6-.4,1.3-.6,2.2-.6s1.5.2,2.1.5c.6.3,1,.8,1.3,1.4.3.6.4,1.4.4,2.2v1.3h-5.6c0,.5.1.9.3,1.2.2.3.4.6.7.8.3.2.7.3,1.2.3s.9,0,1.3-.2c.4-.1.8-.3,1.1-.6l.7,1.4c-.4.3-.8.6-1.4.8-.6.2-1.2.3-2,.3ZM123.8,176.6h3.3v-.2c0-.4,0-.7-.2-1-.1-.3-.3-.5-.5-.7-.2-.2-.5-.2-.9-.2s-.6,0-.9.3c-.2.2-.4.4-.6.8-.1.3-.2.7-.3,1.1h0Z"/>
            </g>
          </g>
          <g class="st0">
            <g class="st0">
              <path d="M130.4,185.7v-1.4l1.2-.3v-9.5l-1.4-.3v-1.4h3.5v1.1c.4-.4.7-.7,1.1-.9.4-.2.9-.3,1.4-.3s1.4.2,1.9.6c.5.4.9,1,1.2,1.7.3.7.4,1.6.4,2.6v.2c0,.9-.1,1.7-.4,2.4-.3.7-.7,1.2-1.2,1.6-.5.4-1.2.6-1.9.6s-1,0-1.3-.3c-.4-.2-.7-.5-1-.8v2.8l1.3.3v1.4h-4.8ZM135.5,180.5c.7,0,1.2-.2,1.5-.7.3-.5.5-1.2.5-2v-.2c0-.6,0-1.1-.2-1.6-.1-.5-.4-.8-.6-1.1-.3-.3-.7-.4-1.1-.4s-.7,0-1,.3c-.3.2-.5.4-.7.7v4.1c.2.3.4.5.7.7.3.2.6.2,1,.2Z"/>
            </g>
          </g>
          <g class="st0">
            <g class="st0">
              <path d="M145.5,182.3c-.9,0-1.7-.2-2.3-.6-.6-.4-1.1-1-1.5-1.7-.3-.7-.5-1.5-.5-2.4v-.2c0-.9.2-1.7.5-2.4.3-.7.8-1.3,1.5-1.7.6-.4,1.4-.6,2.3-.6s1.7.2,2.3.6c.6.4,1.1,1,1.5,1.7.3.7.5,1.5.5,2.4v.2c0,.9-.2,1.7-.5,2.4-.3.7-.8,1.3-1.5,1.7-.6.4-1.4.6-2.3.6ZM145.5,180.5c.4,0,.8-.1,1.1-.4.3-.2.5-.6.7-1,.1-.4.2-.9.2-1.5v-.2c0-.6,0-1.1-.2-1.5-.1-.4-.4-.8-.7-1-.3-.2-.7-.4-1.1-.4s-.8.1-1.1.4c-.3.2-.5.6-.7,1-.1.4-.2.9-.2,1.5v.2c0,.6,0,1.1.2,1.5.1.4.4.8.7,1,.3.2.7.4,1.1.4Z"/>
            </g>
          </g>
          <g class="st0">
            <g class="st0">
              <path d="M151.1,182.1v-1.4l1.2-.3v-5.9l-1.3-.3v-1.4h3.5v1.2c.1,0,.1.2.1.2.2-.5.5-.9.9-1.1.3-.3.8-.4,1.2-.4s.3,0,.5,0c.2,0,.3,0,.5,0l-.3,2.1h-1.2c-.4,0-.7,0-.9.1-.2.2-.4.4-.6.7v4.7l1.2.3v1.4h-4.8Z"/>
            </g>
          </g>
          <g class="st0">
            <g class="st0">
              <path d="M162.3,182.3c-.8,0-1.5-.2-1.9-.7-.5-.5-.7-1.2-.7-2.2v-4.9h-1.3v-1.6h1.3v-2.3h2.3v2.3h1.8v1.6h-1.8v4.9c0,.4,0,.6.2.8.2.2.4.2.6.2s.3,0,.5,0c.2,0,.3,0,.4,0l.2,1.6c-.3,0-.5.1-.9.2-.3,0-.6,0-.9,0Z"/>
            </g>
          </g>
        </g>
      </g>
      <g>
        <path d="M463.8,181.7v18l-16.9-17c-.7-.7-1.5-1-2.5-1h-97.2c-1.9,0-3.5-1.6-3.5-3.5v-60.4c0-1.9,1.6-3.5,3.5-3.5h113.1c1.9,0,3.5,1.6,3.5,3.5v63.9h0Z"/>
        <g>
          <rect class="st2" x="357.5" y="125.1" width="81.8" height="5.2"/>
          <rect class="st2" x="357.5" y="138.3" width="49.6" height="5.2"/>
          <rect class="st2" x="357.5" y="151.4" width="73.1" height="5.2"/>
          <rect class="st2" x="357.5" y="164.5" width="79" height="5.2"/>
        </g>
      </g>
      <g>
        <path d="M26.8,56v-4.1l3-.6v-19.6l-3-.6v-4.1h13.1v4.1l-3,.6v7.4h10.6v-7.4l-3-.6v-4.1h13.1v4.1l-3,.6v19.6l3,.6v4.1h-13.1v-4.1l3-.6v-6.9h-10.6v6.9l3,.6v4.1h-13.1Z"/>
        <path d="M70,56.4c-2.2,0-4.1-.5-5.7-1.4s-2.8-2.2-3.6-3.9-1.3-3.6-1.3-5.8v-.4c0-2.2.4-4.1,1.3-5.7.8-1.7,2-3,3.6-3.9s3.5-1.4,5.7-1.4,4.1.5,5.7,1.4,2.8,2.2,3.6,3.9c.8,1.7,1.3,3.6,1.3,5.7v.4c0,2.2-.4,4.1-1.3,5.8s-2,3-3.6,3.9-3.5,1.4-5.7,1.4ZM70,51.1c.9,0,1.5-.2,2.1-.7.5-.5.9-1.1,1.1-2s.4-1.9.4-3v-.4c0-1.1,0-2.1-.4-3-.2-.8-.6-1.5-1.1-2s-1.2-.7-2.1-.7-1.5.2-2.1.7c-.5.5-.9,1.1-1.1,2-.2.8-.3,1.8-.3,3v.4c0,1.2,0,2.2.3,3.1.2.9.6,1.5,1.1,2s1.2.7,2.1.7h0Z"/>
        <path d="M89.1,56l-4.6-16.9-2.8-.6v-4.1h11.4v4.1l-2,.4,1.4,6.9.2,1.1h0l.3-1.1,4.3-11.5h4.3l4.2,11.8.3,1h0l.3-1,1.9-7.2-2.4-.5v-4.1h11.2v4.1l-2.6.6-5.4,17h-5.6l-3.7-9.3-.5-1.7h0l-.5,1.7-3.4,9.3h-6.4,0Z"/>
        <path d="M120.2,35.7v-10.9h5.1v5.5l-2.1,5.4h-3Z"/>
        <path d="M135.3,56.4c-1.7,0-3.3-.2-4.8-.5s-2.8-.7-4-1.3v-6.7h4.7l.8,3.1c.3.2.6.3,1.1.5s1,.2,1.6.2c1.1,0,1.9-.2,2.3-.5.4-.3.6-.7.6-1.2s-.2-.9-.7-1.3-1.5-.7-3.1-1c-2.5-.5-4.4-1.3-5.6-2.5-1.2-1.2-1.8-2.7-1.8-4.5s.3-2.3.8-3.4c.6-1,1.5-1.9,2.8-2.5s3-1,5.1-1,3.2,0,4.7.4c1.5.3,2.7.6,3.6,1.1v6.5h-4.7l-.6-2.8c-.3-.2-.7-.4-1-.5-.4,0-.8-.2-1.3-.2-.9,0-1.5.2-2,.5-.4.3-.6.7-.6,1.2s0,.6.3.9c.2.3.5.6,1.1.8.5.3,1.3.5,2.3.7,2.5.5,4.3,1.3,5.6,2.3s1.9,2.5,1.9,4.4-.8,3.8-2.3,5.1c-1.5,1.2-3.7,1.9-6.7,1.9v.3h-.1Z"/>
        <path d="M170.5,56.4c-2,0-3.9-.4-5.6-1.1-1.7-.7-3.2-1.8-4.4-3.1s-2.2-2.9-2.9-4.7-1-3.7-1-5.9v-.5c0-2.1.3-4,1-5.8s1.6-3.4,2.9-4.7c1.2-1.3,2.7-2.4,4.4-3.1s3.5-1.1,5.5-1.1,3.8.4,5.5,1.1,3.2,1.8,4.5,3.1,2.3,2.9,3,4.7,1.1,3.7,1.1,5.8v.5c0,2.1-.4,4.1-1.1,5.9-.7,1.8-1.7,3.4-3,4.7s-2.8,2.4-4.4,3.1c-1.7.7-3.5,1.1-5.5,1.1ZM170.5,51.1c1.5,0,2.7-.4,3.8-1.2,1-.8,1.8-1.9,2.4-3.3.5-1.4.8-3.1.8-5v-.5c0-1.9-.3-3.5-.8-4.9s-1.4-2.5-2.4-3.3-2.3-1.2-3.8-1.2-2.8.4-3.8,1.2-1.7,1.9-2.2,3.3c-.5,1.4-.7,3.1-.7,4.9v.5c0,1.9.2,3.6.7,5s1.2,2.5,2.2,3.3,2.3,1.2,3.8,1.2Z"/>
        <path d="M195.7,56.4c-2.2,0-4-.7-5.3-2.1s-1.9-3.6-1.9-6.6v-8.6l-2.3-.6v-4.1h9.4v13.4c0,1.1.2,1.9.7,2.4s1.1.8,2,.8,1,0,1.6-.3,1-.5,1.4-.9v-10.8l-2.4-.6v-4.1h9.4v16.9l2.7.6v4.1h-8.8l-.5-2.5c-.7.9-1.5,1.6-2.5,2.1s-2.1.7-3.4.7v.2q0,0,0,0h0Z"/>
        <path d="M213.3,56v-4.1l2.5-.6v-12.2l-3-.6v-4.1h9.6l.2,2.6v.5c.5-1.2,1.1-2.1,1.8-2.7.7-.6,1.6-.9,2.7-.9s.6,0,1,0,.8,0,1.2.2l-.7,6.4h-3c-.7-.2-1.2,0-1.6,0-.4.2-.8.5-1.2.9v9.6l2.5.6v4.1h-12.1s.1.3.1.3Z"/>
        <path d="M240.4,56v-4.1l3.1-.7v-19.4l-3.1-.8v-4.1h13.7c2.6,0,5,.6,7,1.8s3.6,2.9,4.8,5.1c1.1,2.2,1.7,4.6,1.7,7.5v.5c0,2.8-.6,5.3-1.7,7.5s-2.7,3.8-4.8,5.1-4.4,1.8-7,1.8h-13.7v-.2h0ZM250.5,50.7h3.2c1.5,0,2.7-.4,3.7-1.1s1.8-1.8,2.3-3.2.8-2.9.8-4.7v-.5c0-1.8-.3-3.4-.8-4.7s-1.3-2.4-2.3-3.1c-1-.7-2.2-1.1-3.7-1.1h-3.2v18.5h0Z"/>
        <path d="M270.9,56v-4.1l2.5-.6v-12.2l-3-.6v-4.1h9.6l.2,2.6v.5c.5-1.2,1.1-2.1,1.8-2.7.7-.6,1.6-.9,2.7-.9s.6,0,1,0,.8,0,1.2.2l-.7,6.4h-3c-.7-.2-1.2,0-1.6,0-.4.2-.8.5-1.2.9v9.6l2.5.6v4.1h-12.1s.1.3.1.3Z"/>
        <path d="M288.5,56v-4.1l2.5-.6v-12.2l-3-.6v-4.1h10.1v16.9l2.5.6v4.1h-12.1ZM290.8,30.3v-5.5h7.2v5.5h-7.2Z"/>
        <path d="M309.6,56l-5.8-17.1-2.4-.4v-4.1h11.4v4.1l-1.9.4,2.3,8.3.4,1.6h.1l.5-1.6,3-8.2-2.5-.4v-4.1h11.4v4.1l-2.5.5-6.6,17.1h-7.5s.1-.2.1-.2Z"/>
        <path d="M337.9,56.4c-2.1,0-4-.5-5.6-1.4s-2.8-2.2-3.7-3.8c-.9-1.6-1.3-3.4-1.3-5.4v-.7c0-2.2.4-4.1,1.2-5.8.8-1.7,1.9-3,3.4-4s3.3-1.4,5.5-1.4,3.6.4,5,1.1c1.4.8,2.4,1.9,3.1,3.3.7,1.5,1.1,3.3,1.1,5.4v3.6h-11.9c.1.8.3,1.4.7,2s.8.9,1.5,1.3c.6.3,1.4.5,2.3.5s1.8,0,2.7-.3,1.8-.5,2.8-1l1.6,4.2c-1,.7-2.2,1.3-3.6,1.7-1.4.5-3,.7-4.7.7,0,0-.1,0-.1,0ZM334.6,43.1h5.5v-.5c0-.8,0-1.4-.2-1.9s-.4-.9-.8-1.2-.9-.4-1.5-.4-1.3.2-1.7.5c-.4.3-.7.8-.9,1.4-.2.6-.3,1.3-.4,2h0Z"/>
        <path d="M349.8,56v-4.1l2.5-.6v-12.2l-3-.6v-4.1h9.6l.2,2.6v.5c.5-1.2,1.1-2.1,1.8-2.7.7-.6,1.6-.9,2.7-.9s.6,0,1,0,.8,0,1.2.2l-.7,6.4h-3c-.7-.2-1.2,0-1.6,0-.4.2-.8.5-1.2.9v9.6l2.5.6v4.1h-12.1s.1.3.1.3Z"/>
        <path d="M372.4,47.7c0-1,0-1.8.2-2.5.1-.7.4-1.3.7-1.8.3-.5.8-1.1,1.4-1.6s1.3-1.1,2.2-1.7c.5-.4,1-.8,1.4-1.4.4-.5.7-1.1,1-1.7.2-.6.4-1.2.4-1.9,0-1-.3-1.8-.8-2.3s-1.3-.9-2.3-.9-1.5.2-2.1.7-.9,1.2-.9,2.1h-6.9c0-1.9.4-3.4,1.2-4.6.8-1.2,2-2.1,3.5-2.7s3.2-.9,5.2-.9c3.2,0,5.7.8,7.5,2.3s2.7,3.6,2.7,6.2-.2,2.3-.7,3.3-1.1,1.9-1.9,2.8c-.8.8-1.7,1.6-2.6,2.3-.5.4-.9.8-1.2,1.2s-.5.9-.6,1.4-.2,1.1-.2,1.8h-7.2s0,0,0,0h0ZM372.4,56v-5.7h6.9v5.7h-6.9Z"/>
        <path d="M34.8,97.3v-4.1l3-.6v-4.9l-8.4-15-3-.4v-4.1h12.6v4.1l-1.8.3,4,8,.5,1h.2l.5-1,4.7-8-3-.3v-4.1h12.4v4.1l-3.1.4-8.4,14.4v5.4l3,.6v4.1h-13.2Z"/>
        <path d="M68.2,97.8c-2.2,0-4.1-.5-5.7-1.4s-2.8-2.2-3.6-3.9-1.3-3.6-1.3-5.8v-.4c0-2.2.4-4.1,1.3-5.7.8-1.7,2-3,3.6-3.9,1.6-.9,3.5-1.4,5.7-1.4s4.1.5,5.7,1.4,2.8,2.2,3.6,3.9c.8,1.7,1.3,3.6,1.3,5.7v.4c0,2.2-.4,4.1-1.3,5.8s-2,3-3.6,3.9-3.5,1.4-5.7,1.4ZM68.2,92.4c.9,0,1.5-.2,2.1-.7.5-.5.9-1.1,1.1-2s.4-1.9.4-3v-.4c0-1.1,0-2.1-.4-3-.2-.8-.6-1.5-1.1-2s-1.2-.7-2.1-.7-1.5.2-2.1.7c-.5.5-.9,1.1-1.1,2-.2.8-.3,1.8-.3,3v.4c0,1.2,0,2.2.3,3.1.2.9.6,1.5,1.1,2s1.2.7,2.1.7h0Z"/>
        <path d="M90,97.8c-2.2,0-4-.7-5.3-2.1s-1.9-3.6-1.9-6.6v-8.6l-2.3-.6v-4.1h9.4v13.4c0,1.1.2,1.9.7,2.4s1.1.8,2,.8,1,0,1.6-.3,1-.5,1.4-.9v-10.8l-2.4-.6v-4.1h9.4v16.9l2.7.6v4.1h-8.8l-.5-2.5c-.7.9-1.5,1.6-2.5,2.1s-2.1.7-3.4.7v.2s0,0,0,0h0Z"/>
        <path d="M107.6,97.3v-4.1l2.5-.6v-12.2l-3-.6v-4.1h9.6l.2,2.6v.5c.5-1.2,1.1-2.1,1.8-2.7s1.6-.9,2.7-.9.6,0,1,0,.8,0,1.2.2l-.7,6.4h-3c-.7-.2-1.2,0-1.6,0-.4.2-.8.5-1.2.9v9.6l2.5.6v4.1h-12.1v.3h0Z"/>
        <path d="M134.7,97.3v-4.1l3-.6v-19.6l-3-.6v-4.1h24v8.6h-5.3v-3.2h-8.7v6.7h9.9v5.4h-9.9v6.9l3,.6v4.1h-13.1s.1,0,.1-.1Z"/>
        <path d="M170.7,97.8c-2.1,0-4-.5-5.6-1.4s-2.8-2.2-3.7-3.8-1.3-3.4-1.3-5.4v-.7c0-2.2.4-4.1,1.2-5.8s1.9-3,3.4-4,3.3-1.4,5.5-1.4,3.6.4,5,1.1c1.4.8,2.4,1.9,3.1,3.3.7,1.5,1.1,3.3,1.1,5.4v3.6h-11.9c.1.8.3,1.4.7,2s.8.9,1.5,1.3c.6.3,1.4.5,2.3.5s1.8,0,2.7-.3,1.8-.5,2.8-1l1.6,4.2c-1,.7-2.2,1.3-3.6,1.7-1.4.5-3,.7-4.7.7h-.1ZM167.5,84.4h5.5v-.5c0-.8,0-1.4-.2-1.9s-.4-.9-.8-1.2c-.4-.3-.9-.4-1.5-.4s-1.3.2-1.7.5-.7.8-.9,1.4-.3,1.3-.4,2h0Z"/>
        <path d="M192.3,97.8c-2.1,0-4-.5-5.6-1.4s-2.8-2.2-3.7-3.8-1.3-3.4-1.3-5.4v-.7c0-2.2.4-4.1,1.2-5.8s1.9-3,3.4-4,3.3-1.4,5.5-1.4,3.6.4,5,1.1c1.4.8,2.4,1.9,3.1,3.3.7,1.5,1.1,3.3,1.1,5.4v3.6h-11.9c.1.8.3,1.4.7,2s.8.9,1.5,1.3c.6.3,1.4.5,2.3.5s1.8,0,2.7-.3,1.8-.5,2.8-1l1.6,4.2c-1,.7-2.2,1.3-3.6,1.7-1.4.5-3,.7-4.7.7h-.1ZM189,84.4h5.5v-.5c0-.8,0-1.4-.2-1.9s-.4-.9-.8-1.2c-.4-.3-.9-.4-1.5-.4s-1.3.2-1.7.5-.7.8-.9,1.4-.3,1.3-.4,2h0Z"/>
        <path d="M211.2,97.8c-1.7,0-3.2-.4-4.4-1.3s-2.2-2.2-2.8-3.8-1-3.5-1-5.7v-.4c0-2.3.3-4.2,1-5.9s1.6-3,2.8-3.9,2.6-1.4,4.3-1.4,2.1.2,3,.7c.8.5,1.6,1.1,2.2,2v-7.1l-3-.6v-4.1h10.1v26.5l2.5.6v4.1h-8.6l-.5-2.7c-.7,1-1.4,1.8-2.3,2.3-.9.5-2,.8-3.2.8h-.1ZM213.3,92.4c.6,0,1.1,0,1.6-.3s.9-.6,1.3-1v-8.7c-.3-.5-.7-1-1.2-1.3s-1-.4-1.6-.4-1.4.2-1.9.7-.9,1.2-1.1,2.1c-.2.9-.3,1.9-.3,3.1v.4c0,1.7.2,3.1.7,4s1.3,1.4,2.6,1.4c0,0-.1,0-.1,0Z"/>
        <path d="M240.5,97.8c-1.3,0-2.4-.3-3.3-.8-.9-.5-1.6-1.3-2.3-2.2l-.5,2.6h-6.1v-26.5l-3-.6v-4.1h10v11.7c.6-.8,1.3-1.4,2.2-1.9.9-.4,1.9-.7,3-.7,1.7,0,3.2.5,4.4,1.4s2.1,2.2,2.7,3.9c.6,1.7.9,3.7.9,6v.4c0,2.2-.3,4.1-.9,5.7s-1.5,2.9-2.7,3.8-2.7,1.3-4.5,1.3h.1ZM238.3,92.4c1.3,0,2.2-.4,2.7-1.3s.8-2.2.8-4.1v-.4c0-1.3-.1-2.3-.3-3.2s-.6-1.5-1.1-2-1.1-.7-1.9-.7-1.2.2-1.7.5-.9.7-1.2,1.3v8.7c.3.5.8.8,1.2,1s1,.3,1.6.3c0,0-.1,0-.1-.1Z"/>
        <path d="M258.6,97.8c-2.1,0-3.8-.6-5.1-1.8s-2-2.8-2-4.7.8-3.7,2.5-5c1.6-1.3,4.1-1.9,7.4-1.9h2.3v-1.3c0-.9-.2-1.6-.7-2.2s-1.3-.9-2.3-.9-.9,0-1.3.2c-.4,0-.8.3-1.1.5l-.5,2.8h-4.9v-6c1.1-.5,2.4-1,3.8-1.4,1.3-.4,2.8-.6,4.5-.6,3,0,5.3.7,7,2,1.7,1.4,2.6,3.3,2.6,5.8v9.7l2.3.4v4.1h-8.2c-.2-.2-.4-.6-.6-1s-.3-.8-.4-1.2c-.7.8-1.4,1.4-2.2,1.9-.8.5-1.8.7-3.1.7h0ZM260.8,92.8c.5,0,1,0,1.5-.3s1-.5,1.3-.9v-3.1h-2.2c-.9,0-1.7.2-2.2.6s-.8,1-.8,1.6.2,1.2.6,1.5c.4.4,1,.6,1.6.6,0,0,.2,0,.2,0Z"/>
        <path d="M285,97.8c-2.1,0-4-.5-5.5-1.4s-2.7-2.2-3.6-3.9c-.8-1.7-1.2-3.5-1.2-5.7v-.5c0-2.2.4-4.1,1.3-5.7.9-1.7,2.1-2.9,3.6-3.9,1.5-.9,3.3-1.4,5.4-1.4s3.8.3,5.3.9,2.6,1.3,3.5,2v6.8h-5.3l-.8-3.9c-.2-.2-.5-.4-.9-.6-.4,0-.7-.2-1-.2-1,0-1.8.2-2.4.7-.6.4-1,1.1-1.3,2s-.4,2-.4,3.4v.5c0,1.4.2,2.6.5,3.4s.8,1.4,1.3,1.8,1.1.5,1.6.5c.8,0,1.5-.2,2-.6s.8-1,1.1-1.9h6c-.3,1.8-.8,3.3-1.5,4.4s-1.6,2-2.8,2.6-2.8.9-4.7.9l-.2-.2h0Z"/>
        <path d="M296,97.3v-4.1l2.6-.6v-21.7l-3-.6v-4.1h10v26.5l2.1.6v4.1h-11.7ZM304.8,91.6l-3.6-3.4,9.4-8.2h0l-2.2-.4v-4.1h12.5v4.1l-2.8.8-13.3,11v.2ZM309.8,97.3v-3.8l1.3-.5h0l-3.1-4.5,4.8-4.2,6.1,8.2,2.4.7v4.1h-11.5,0Z"/>
        <path d="M26.6,138.6v-4.1l3-.6v-19.6l-3-.6v-4.1h13.8l7,19.2h0l6.8-19.2h13.6v4.1l-3,.6v19.6l3,.6v4.1h-13.1v-4.1l3.1-.6v-3.8l.2-13.7h0l-8.2,22.3h-5.5l-8.4-22h0l.5,12.5v4.8l3.4.6v4.1h-13.2Z"/>
        <path d="M76.9,139.1c-2.1,0-3.8-.6-5.1-1.8-1.3-1.2-2-2.8-2-4.7s.8-3.7,2.5-5c1.6-1.3,4.1-1.9,7.4-1.9h2.3v-1.3c0-.9-.2-1.6-.7-2.2s-1.3-.9-2.3-.9-.9,0-1.3.2c-.4,0-.8.3-1.1.5l-.5,2.8h-4.9v-6c1.1-.5,2.4-1,3.8-1.4,1.3-.4,2.8-.6,4.5-.6,3,0,5.3.7,7,2,1.7,1.4,2.6,3.3,2.6,5.8v9.7l2.3.4v4.1h-8.2c-.2-.2-.4-.6-.6-1s-.3-.8-.4-1.2c-.7.8-1.4,1.4-2.2,1.9-.8.5-1.8.7-3.1.7h0q0-.1,0,0ZM79.1,134.1c.5,0,1-.1,1.5-.3s1-.5,1.3-.9v-3.1h-2.2c-.9,0-1.7.2-2.2.6-.5.4-.8,1-.8,1.6s.2,1.2.6,1.5c.4.4,1,.6,1.6.6h.2Z"/>
        <path d="M100.7,139.1c-2.3,0-4-.6-5.2-1.8s-1.8-3.1-1.8-5.7v-9.7h-2.7v-4.8h2.7v-5.3h7v5.3h3.5v4.8h-3.5v9.7c0,.7.2,1.2.5,1.5s.8.4,1.3.4h.7c.2,0,.5,0,.7-.1l.5,5.2c-.6.2-1.2.3-1.9.4-.6,0-1.3.2-1.9.2h0q0,0,0,0h.1Z"/>
        <path d="M115.5,139.1c-2.3,0-4-.6-5.2-1.8s-1.8-3.1-1.8-5.7v-9.7h-2.7v-4.8h2.7v-5.3h7v5.3h3.5v4.8h-3.5v9.7c0,.7.2,1.2.5,1.5s.8.4,1.3.4h.7c.2,0,.5,0,.7-.1l.5,5.2c-.6.2-1.2.3-1.9.4-.6,0-1.3.2-1.9.2h0q0,0,0,0h0Z"/>
        <path d="M131.4,139.1c-2.1,0-4-.5-5.6-1.4s-2.8-2.2-3.7-3.8-1.3-3.4-1.3-5.4v-.7c0-2.2.4-4.1,1.2-5.8s1.9-3,3.4-4,3.3-1.4,5.5-1.4,3.6.4,5,1.1c1.4.8,2.4,1.9,3.1,3.3.7,1.5,1.1,3.3,1.1,5.4v3.6h-11.9c.1.8.3,1.4.7,2s.8.9,1.5,1.3c.6.3,1.4.5,2.3.5s1.8-.1,2.7-.3,1.8-.5,2.8-1l1.6,4.2c-1,.7-2.2,1.3-3.6,1.7-1.4.5-3,.7-4.7.7h-.1ZM128.1,125.7h5.5v-.5c0-.8,0-1.4-.2-1.9s-.4-.9-.8-1.2c-.4-.3-.9-.4-1.5-.4s-1.3.2-1.7.5-.7.8-.9,1.4-.3,1.3-.4,2h0q0,0,0,0h0Z"/>
        <path d="M143.3,138.6v-4.1l2.5-.6v-12.2l-3-.6v-4.1h9.6l.2,2.6v.5c.5-1.2,1.1-2.1,1.8-2.7s1.6-.9,2.7-.9.6,0,1,0,.8,0,1.2.2l-.7,6.4h-3c-.7-.2-1.2,0-1.6,0-.4.2-.8.5-1.2.9v9.6l2.5.6v4.1h-12.1v.3h.1Z"/>
        <path d="M170.3,139.1c-1.7,0-3.3-.2-4.8-.5s-2.8-.7-4-1.3v-6.7h4.7l.8,3.1c.3.2.6.3,1.1.5s1,.2,1.6.2c1.1,0,1.9-.2,2.3-.5.4-.3.6-.7.6-1.2s-.2-.9-.7-1.3c-.5-.4-1.5-.7-3.1-1-2.5-.5-4.4-1.3-5.6-2.5-1.2-1.2-1.8-2.7-1.8-4.5s.3-2.3.8-3.4c.6-1,1.5-1.9,2.8-2.5s3-1,5.1-1,3.2,0,4.7.4,2.7.6,3.6,1.1v6.5h-4.7l-.6-2.8c-.3-.2-.7-.4-1-.5-.4,0-.8-.2-1.3-.2-.9,0-1.5.2-2,.5-.4.3-.6.7-.6,1.2s0,.6.3.9c.2.3.5.6,1.1.8.5.3,1.3.5,2.3.7,2.5.5,4.3,1.3,5.6,2.3s1.9,2.5,1.9,4.4-.8,3.8-2.3,5.1c-1.5,1.2-3.7,1.9-6.7,1.9v.3h-.1Z"/>
        <path d="M182.8,138.6v-5.8h7v5.8h-7Z"/>
      </g>
      <path d="M312.1,160.5c-8.4-1.9-17,.3-24.9-3.7,1.1-3.4,3.4-3.7,5.2-2.7,2.5,1.4,4.9,1.1,7.4,1.1,4.6,0,9.3-.1,13.9-.2,4.3-.1,5.4,1.2,3.8,5.1-2.1,5.2-4.3,10.4-6.4,15.6-.4,1-1,1.9-1.5,3-2.5-2.9-2.4-3.5,1.8-15.3-1.2.4-2.2.5-3.1.9-16.7,7.4-33.5,8.1-50.4.7-7.2-3.1-13.5-7.5-17.1-14.8-1-2-2.6-2.7-4.5-3.2-5.7-1.5-10.6-4.4-14.8-8.6-1.1-1.1-1.9-2.4-2.5-3.9,5.9,4.2,11.4,9,19.1,9.9v-2.9c-.2-8.4,4.6-15.2,12.6-17.8,7.1-2.3,13.7.8,15.9,7.6,2.5,7.6-1,14.8-8.3,16.8-2.6.7-5.4.8-8.1,1-1.5.1-3.1,0-5.1,0,1.6,3.9,4.3,6.4,7.3,8.4,12,8,25.2,10.9,39.4,8.9,4.6-.6,9.1-2.1,13.5-3.4,2.3-.6,4.5-1.7,6.7-2.6h.1q0,0,0,0h0ZM242.8,135.9c0,1.9-.2,4.9,0,7.8,0,.8,1.3,2,2.1,2.1,4.8.6,9.6.9,14.1-1,4.1-1.8,6-6.6,4.7-11.3-1.3-4.6-4.8-7.1-9.3-6.4-4.9.7-8.4,3.6-11.6,8.8h0Z"/>
    </g>
  </g>
</svg>