<?xml version="1.0" encoding="UTF-8"?>
<svg id="Layer_2" xmlns="http://www.w3.org/2000/svg" xmlns:xlink="http://www.w3.org/1999/xlink" version="1.1" viewBox="0 0 720 216">
  <!-- Generator: Adobe Illustrator 30.1.0, SVG Export Plug-In . SVG Version: 2.1.1 Build 136)  -->
  <defs>
    <style>
      .st0 {
        fill: none;
      }

      .st1, .st2 {
        fill-rule: evenodd;
      }

      .st1, .st3 {
        fill: #fff;
      }

      .st4 {
        fill: #f4f4f5;
      }

      .st5 {
        isolation: isolate;
      }

      .st6 {
        stroke: #ffd500;
        stroke-miterlimit: 10;
      }

      .st6, .st7 {
        fill: #fdd600;
      }

      .st8 {
        fill: #ffd500;
      }

      .st9 {
        fill: #2a2a2a;
      }

      .st10 {
        clip-path: url(#clippath);
      }
    </style>
    <clipPath id="clippath">
      <rect class="st0" x="-18" y="-18" width="756" height="252"/>
    </clipPath>
  </defs>
  <g id="Layer_1-2">
    <g>
      <g class="st10">
        <g>
          <rect class="st9" x="-18" y="-18" width="756" height="252"/>
          <polygon class="st6" points="650.3 -21 688.5 -59.5 706.3 -8.3 757.4 -26.3 751.2 27.5 805.1 33.5 776.1 79.3 822.1 108 776.1 136.7 805.1 182.5 751.2 188.5 757.4 242.3 706.3 224.3 688.5 275.5 650.3 237 612.1 275.5 594.3 224.3 543.2 242.3 549.4 188.5 495.6 182.5 524.5 136.7 478.5 108 524.5 79.3 495.6 33.5 549.4 27.5 543.2 -26.3 594.3 -8.3 612.1 -59.5 650.3 -21"/>
        </g>
      </g>
      <rect class="st3" x="513" y="9" width="198" height="198"/>
      <g>
        <g>
          <g class="st5">
            <g class="st5">
              <g class="st5">
                <g class="st5">
                  <g class="st5">
                    <g class="st5">
                      <path class="st4" d="M156.7,56.3v-3l2.7-.5v-17.9l-2.7-.5v-3h10.3v3l-2.7.5v7.2h10.2v-7.2l-2.7-.5v-3h10.3v3l-2.7.5v17.9l2.7.5v3h-10.3v-3l2.7-.5v-6.9h-10.2v6.9l2.7.5v3h-10.3Z"/>
                    </g>
                  </g>
                </g>
              </g>
              <g class="st5">
                <g class="st5">
                  <g class="st5">
                    <g class="st5">
                      <path class="st4" d="M193.1,56.7c-1.8,0-3.4-.4-4.7-1.2s-2.3-1.9-3-3.3c-.7-1.4-1-3.1-1-4.9v-.4c0-1.8.3-3.5,1-4.9.7-1.4,1.7-2.5,3-3.3,1.3-.8,2.9-1.2,4.7-1.2s3.4.4,4.7,1.2c1.3.8,2.3,1.9,3,3.3.7,1.4,1,3.1,1,4.9v.4c0,1.9-.3,3.5-1,4.9-.7,1.4-1.7,2.5-3,3.3-1.3.8-2.9,1.2-4.7,1.2ZM193.1,52.8c.9,0,1.6-.2,2.1-.7s1-1.1,1.2-2,.4-1.8.4-2.9v-.4c0-1.1-.1-2.1-.4-2.9s-.7-1.5-1.2-2c-.6-.5-1.3-.7-2.2-.7s-1.6.2-2.1.7c-.6.5-1,1.1-1.2,2-.3.8-.4,1.8-.4,2.9v.4c0,1.1.1,2.1.4,2.9.3.8.7,1.5,1.2,2,.6.5,1.3.7,2.2.7Z"/>
                    </g>
                  </g>
                </g>
              </g>
              <g class="st5">
                <g class="st5">
                  <g class="st5">
                    <g class="st5">
                      <path class="st4" d="M209.8,56.3l-4.3-15.1-2.3-.4v-3h9v3l-2,.4,1.7,7.2.3,1.4h.1l.5-1.4,3.8-10.6h3.4l3.7,10.7.5,1.5h.1l.4-1.5,2-7.3-2.2-.4v-3h8.8v3l-2.2.4-4.7,15.1h-4.2l-3.4-9.2-.6-2h-.1l-.6,2.1-3.3,9.2h-4.4Z"/>
                    </g>
                  </g>
                </g>
              </g>
              <g class="st5">
                <g class="st5">
                  <g class="st5">
                    <g class="st5">
                      <path class="st4" d="M236.3,38.6v-9h3.7v4.4l-1.5,4.7h-2.2Z"/>
                    </g>
                  </g>
                </g>
              </g>
              <g class="st5">
                <g class="st5">
                  <g class="st5">
                    <g class="st5">
                      <path class="st4" d="M248.9,56.7c-1.4,0-2.7-.1-3.9-.4-1.2-.3-2.3-.6-3.4-1.1v-5.2c0,0,3.4,0,3.4,0l.7,2.7c.4.2.8.3,1.3.5s1,.2,1.6.2c1.1,0,1.9-.2,2.4-.5s.7-.8.7-1.4-.2-1-.7-1.4c-.5-.4-1.5-.7-2.9-1-2.2-.5-3.8-1.2-4.9-2.1-1-1-1.6-2.2-1.6-3.7s.3-2,.8-2.8c.5-.8,1.3-1.5,2.4-2,1.1-.5,2.4-.8,4.1-.8s2.7.1,3.8.4c1.2.3,2.1.6,2.9,1.1v5.1c0,0-3.4,0-3.4,0l-.5-2.4c-.3-.2-.7-.4-1.1-.5-.4-.1-.9-.2-1.4-.2-.9,0-1.6.2-2,.5-.5.4-.7.8-.7,1.4s0,.6.2.9.5.5,1,.8,1.2.5,2.1.7c2.3.5,4,1.2,5,2.1s1.6,2.1,1.6,3.7-.6,3.1-1.9,4.2-3.1,1.6-5.6,1.6Z"/>
                      <path class="st4" d="M267.2,56.3v-3l2.7-.5v-17.9l-2.7-.5v-3h10.1l6.8,17.4h.1l6.6-17.4h10.1v3l-2.7.5v17.9l2.7.5v3h-10.3v-3l2.8-.5v-16c0,0,0,0,0,0l-7.5,19.2h-3.8l-7.6-19.1h-.1s.3,10.6.3,10.6v5.3l2.9.5v3h-10.3Z"/>
                      <path class="st4" d="M307.9,63.8c-.4,0-.9,0-1.4-.1-.5,0-.9-.2-1.4-.3l.6-3.7c.2,0,.5,0,.7.1.3,0,.5,0,.7,0,.7,0,1.3-.2,1.9-.6.5-.4.9-.9,1.1-1.6l.4-1.1-6.2-15.4-2.3-.3v-3h9.8v3l-2.3.3,2.9,8.2.4,1h.1l3.4-9.2-2.2-.3v-3h9.2v3l-2.1.3-7.1,18c-.3.9-.8,1.6-1.3,2.4-.5.7-1.2,1.3-2,1.7-.8.4-1.8.7-3,.7Z"/>
                      <path class="st4" d="M333.2,56.3v-3l2.7-.6v-17.8l-2.7-.6v-3h11c2.2,0,4.2.5,5.9,1.6,1.7,1,3,2.5,4,4.3,1,1.8,1.4,4,1.4,6.3v.5c0,2.4-.5,4.5-1.4,6.3-.9,1.8-2.3,3.3-4,4.3-1.7,1.1-3.7,1.6-5.9,1.6h-11ZM340.9,52.5h3.1c1.4,0,2.6-.4,3.5-1.1s1.7-1.7,2.2-3c.5-1.3.8-2.7.8-4.3v-.5c0-1.6-.3-3.1-.8-4.4-.5-1.3-1.2-2.2-2.2-3-1-.7-2.1-1.1-3.5-1.1h-3.1v17.3Z"/>
                    </g>
                  </g>
                </g>
              </g>
              <g class="st5">
                <g class="st5">
                  <g class="st5">
                    <g class="st5">
                      <path class="st4" d="M359.5,56.3v-3l2.4-.5v-11.5l-2.7-.5v-3h7.3l.2,2.3v.4c.5-1,1.1-1.8,1.7-2.3.7-.5,1.5-.8,2.4-.8s.6,0,1,0,.7.1.9.2l-.5,4.6h-2.5c-.7-.2-1.3,0-1.7.2-.4.3-.8.7-1.2,1.2v9.1l2.4.5v3h-9.8Z"/>
                    </g>
                  </g>
                </g>
              </g>
              <g class="st5">
                <g class="st5">
                  <g class="st5">
                    <g class="st5">
                      <path class="st4" d="M374.5,56.3v-3l2.4-.5v-11.5l-2.7-.5v-3h7.7v15l2.4.5v3h-9.8ZM376.8,33.8v-4.3h5.2v4.3h-5.2Z"/>
                      <path class="st4" d="M392.9,56.3l-5.6-15.2-2-.3v-3h9v3l-2,.3,2.8,8.4.4,1.4h.1l.5-1.4,3.1-8.4-2.3-.4v-3h9v3l-2.1.3-5.9,15.2h-5.1Z"/>
                      <path class="st4" d="M407.2,56.3v-3l2.4-.5v-11.5l-2.7-.5v-3h7.7v15l2.4.5v3h-9.8ZM409.5,33.8v-4.3h5.2v4.3h-5.2Z"/>
                    </g>
                  </g>
                </g>
              </g>
              <g class="st5">
                <g class="st5">
                  <g class="st5">
                    <g class="st5">
                      <path class="st4" d="M418.9,56.3v-3l2.4-.5v-11.5l-2.7-.5v-3h7.3l.2,2.7c.6-.9,1.4-1.7,2.3-2.2s1.9-.8,3.1-.8c1.8,0,3.3.6,4.3,1.8s1.6,3,1.6,5.5v8.1l2.4.5v3h-9.6v-3l2.1-.5v-8.1c0-1.2-.2-2.1-.7-2.6-.5-.5-1.2-.8-2.2-.8s-1.3.2-1.9.5-1,.7-1.3,1.3v9.7l2,.5v3h-9.4Z"/>
                    </g>
                  </g>
                </g>
              </g>
              <g class="st5">
                <g class="st5">
                  <g class="st5">
                    <g class="st5">
                      <path class="st4" d="M449.3,63.8c-.9,0-2-.1-3.2-.4-1.2-.2-2.2-.6-3.1-1l.9-3.6c.8.3,1.6.6,2.5.8.9.2,1.7.3,2.5.3,1.3,0,2.3-.4,2.9-1.1.6-.7.9-1.8.9-3.1v-1.2c-.5.7-1.2,1.2-1.9,1.6s-1.6.5-2.6.5c-1.5,0-2.8-.4-3.9-1.1-1.1-.8-1.9-1.8-2.5-3.2-.6-1.4-.9-3-.9-4.8v-.4c0-2,.3-3.7.9-5.1.6-1.5,1.4-2.6,2.5-3.4,1.1-.8,2.3-1.2,3.8-1.2s2.1.2,2.9.7c.8.5,1.5,1.1,2,2l.4-2.3h4.4v18c0,1.6-.3,3.1-1,4.3-.7,1.2-1.7,2.1-3,2.8-1.3.7-2.8,1-4.6,1ZM449.8,52.8c.7,0,1.3-.1,1.8-.4s.9-.7,1.3-1.2v-8.1c-.3-.6-.7-1-1.3-1.3s-1.1-.5-1.8-.5-1.6.2-2.1.7-.9,1.2-1.2,2.1c-.3.9-.4,1.9-.4,3.1v.4c0,1.6.3,2.9.8,3.8.6.9,1.5,1.4,2.8,1.4ZM457.3,41.4l-2.2-3.6h5v3l-2.8.6Z"/>
                      <path class="st4" d="M466.2,49.2c0-.8,0-1.5.2-2.1.1-.6.3-1.1.5-1.5.2-.4.6-.9,1-1.3.4-.4,1-.9,1.7-1.4.6-.5,1.1-1,1.5-1.5.4-.5.7-1,.9-1.6.2-.5.3-1.1.3-1.7,0-1-.3-1.8-.8-2.3-.5-.6-1.3-.8-2.3-.8s-1.5.2-2.1.7-.9,1.1-.9,2.1h-4.9c0-1.5.3-2.7,1-3.7s1.6-1.7,2.8-2.3c1.2-.5,2.6-.8,4.1-.8,2.5,0,4.5.6,6,1.9,1.4,1.3,2.2,3,2.2,5.1s-.2,1.9-.6,2.8c-.4.8-.9,1.6-1.6,2.4s-1.5,1.5-2.3,2.2c-.4.4-.8.7-1,1.1-.2.3-.4.7-.4,1.2s-.1,1-.1,1.6h-5ZM466.2,56.3v-4.4h5v4.4h-5Z"/>
                    </g>
                  </g>
                </g>
              </g>
            </g>
          </g>
          <g class="st5">
            <g class="st5">
              <g class="st5">
                <g class="st5">
                  <g class="st5">
                    <g class="st5">
                      <path class="st7" d="M164.2,102.9v-3.8l3.4-.7v-22.4h-5.8l-.3,3.8h-4.8v-8.7h28.4v8.7h-4.8l-.3-3.8h-5.8v22.4l3.4.7v3.8h-13.2Z"/>
                    </g>
                  </g>
                </g>
              </g>
              <g class="st5">
                <g class="st5">
                  <g class="st5">
                    <g class="st5">
                      <path class="st7" d="M197.1,103.4c-2.3,0-4.2-.5-5.9-1.5-1.7-1-3-2.4-3.9-4.1s-1.4-3.7-1.4-6v-.9c0-2.3.4-4.4,1.3-6.2s2.1-3.2,3.7-4.3c1.6-1,3.5-1.5,5.6-1.5s3.9.4,5.4,1.3,2.6,2.1,3.3,3.6c.8,1.6,1.1,3.5,1.1,5.8v3.5h-13.9c0,1.2.3,2.1.8,2.9.4.8,1,1.4,1.8,1.9s1.7.7,2.9.7,2.3-.1,3.3-.4,2-.7,3-1.3l1.7,3.9c-1,.8-2.2,1.4-3.7,2-1.5.5-3.2.8-5.1.8ZM192.5,88.8h7.9v-.6c0-1-.1-1.8-.4-2.5-.3-.7-.7-1.2-1.2-1.6-.6-.4-1.3-.6-2.2-.6s-1.6.2-2.1.7c-.6.4-1,1.1-1.4,1.8-.3.8-.5,1.6-.7,2.6h0Z"/>
                      <path class="st7" d="M209,102.9v-3.8l3.1-.7v-25.1l-3.4-.7v-3.8h9.8v29.6l3.1.7v3.8h-12.5Z"/>
                      <path class="st7" d="M223.2,102.9v-3.8l3.1-.7v-25.1l-3.4-.7v-3.8h9.8v29.6l3.1.7v3.8h-12.5Z"/>
                      <path class="st7" d="M248.6,102.9v-3.8l3.4-.7v-22.8l-3.4-.7v-3.8h12.8l8.7,22.2h.1l8.4-22.2h12.8v3.8l-3.4.7v22.8l3.4.7v3.8h-13.2v-3.8l3.6-.7v-20.4c.1,0,0,0,0,0l-9.5,24.5h-4.8l-9.7-24.3h-.1s.4,13.5.4,13.5v6.7l3.8.7v3.8h-13.2Z"/>
                      <path class="st7" d="M300.4,112.4c-.6,0-1.1,0-1.8-.1-.6,0-1.2-.2-1.8-.4l.7-4.7c.3,0,.6.1.9.1.3,0,.6,0,.9,0,.9,0,1.7-.2,2.4-.7s1.2-1.2,1.5-2.1l.5-1.5-7.9-19.6-2.9-.4v-3.8h12.5v3.8l-2.9.4,3.7,10.4.5,1.3h.1l4.4-11.7-2.8-.4v-3.8h11.7v3.8l-2.7.4-9,22.9c-.4,1.1-1,2.1-1.7,3-.7.9-1.5,1.6-2.6,2.2-1,.6-2.3.8-3.8.8Z"/>
                    </g>
                  </g>
                </g>
              </g>
            </g>
          </g>
        </g>
        <g class="st5">
          <g class="st5">
            <g class="st5">
              <g class="st5">
                <g class="st5">
                  <g class="st5">
                    <path class="st3" d="M287.4,186.4c-.6,0-1.2,0-1.8-.2s-1.1-.4-1.6-.8v-2.1h1.4l.2,1.3c.2.2.4.3.8.4s.7.1,1,.1.6,0,.8-.1c.2,0,.4-.2.5-.4.1-.2.2-.4.2-.6s0-.4-.2-.6c-.1-.2-.3-.3-.5-.4-.2-.1-.6-.3-1-.4-.7-.2-1.3-.4-1.7-.7-.5-.2-.8-.5-1-.9-.2-.3-.3-.8-.3-1.2s.1-.9.4-1.3c.3-.4.6-.7,1.1-.9s1-.3,1.6-.3c.7,0,1.3,0,1.8.2.5.2,1,.4,1.4.7v2h-1.3l-.2-1.2c-.2,0-.4-.2-.6-.3-.3,0-.6-.1-.9-.1s-.5,0-.7.1-.4.2-.5.4c-.1.2-.2.4-.2.6s0,.4.2.5.3.3.5.4c.3.1.6.3,1.1.4,1,.3,1.7.6,2.2,1.1.5.4.8,1,.8,1.8s-.1.9-.4,1.3c-.3.4-.6.6-1.1.8-.5.2-1.1.3-1.7.3Z"/>
                    <path class="st3" d="M294.5,186.4c-.6,0-1.2-.1-1.6-.4-.5-.3-.8-.7-1.1-1.2-.2-.5-.4-1.1-.4-1.7v-.2c0-.6.1-1.2.4-1.7.2-.5.6-.9,1.1-1.2.5-.3,1-.4,1.6-.4s1.1,0,1.5.3c.4.2.8.4,1,.6v1.9h-1.3l-.2-1.2c0,0-.2-.2-.4-.2s-.3,0-.5,0c-.3,0-.6,0-.8.2-.2.2-.4.4-.5.7s-.2.7-.2,1.1v.2c0,.4,0,.8.2,1.1.1.3.3.5.5.6.2.1.4.2.7.2s.6,0,.7-.2c.2-.2.3-.4.4-.7h1.5c0,.5-.2.9-.4,1.2-.2.3-.5.6-.9.8-.4.2-.8.3-1.4.3Z"/>
                    <path class="st3" d="M300.2,186.4c-.6,0-1.2-.2-1.5-.5-.4-.3-.6-.8-.6-1.4s.2-1.1.8-1.5,1.2-.6,2.2-.6h.9v-.5c0-.3,0-.6-.3-.8-.2-.2-.5-.3-.8-.3s-.4,0-.5,0c-.1,0-.3.1-.4.2v.9h-1.4v-1.7c.3-.2.7-.4,1.1-.5.4-.1.8-.2,1.3-.2.9,0,1.5.2,2,.6s.7,1,.7,1.7v2.7c0,0,0,.2,0,.3,0,0,0,.2,0,.3h.7v1.2h-2.2c0-.1,0-.2-.1-.4,0-.1,0-.3,0-.4-.2.3-.5.5-.7.6-.3.2-.6.2-1,.2ZM300.6,185.1c.2,0,.5,0,.7-.2.2-.1.4-.3.5-.4v-1h-.9c-.4,0-.7,0-.9.3s-.3.4-.3.6,0,.4.2.5c.1.1.4.2.6.2Z"/>
                    <path class="st3" d="M304.9,186.3v-1.1l.8-.2v-4.1l-.9-.2v-1.1h2.6v.9c.3-.3.6-.6.9-.8s.7-.3,1.1-.3c.6,0,1.2.2,1.5.6.4.4.6,1.1.6,2v2.9l.8.2v1.1h-3.4v-1.1l.8-.2v-2.8c0-.4,0-.8-.3-.9-.2-.2-.4-.3-.8-.3s-.5,0-.7.2c-.2.1-.3.3-.5.5v3.4l.7.2v1.1h-3.3Z"/>
                  </g>
                </g>
              </g>
            </g>
            <g class="st5">
              <g class="st5">
                <g class="st5">
                  <g class="st5">
                    <path class="st3" d="M318.5,186.4c-.6,0-1.1-.2-1.4-.5s-.5-.9-.5-1.6v-3.3h-.9v-1.2h.9v-1.6h1.8v1.6h1.2v1.2h-1.2v3.3c0,.3,0,.4.2.5.1.1.3.2.4.2s.2,0,.3,0c.1,0,.2,0,.3,0l.2,1.3c-.2,0-.4,0-.6.1-.2,0-.4,0-.6,0Z"/>
                  </g>
                </g>
              </g>
            </g>
            <g class="st5">
              <g class="st5">
                <g class="st5">
                  <g class="st5">
                    <path class="st3" d="M323.3,186.4c-.6,0-1.2-.1-1.7-.4-.5-.3-.8-.7-1.1-1.2-.2-.5-.4-1.1-.4-1.7h0c0-.8.1-1.4.4-1.9.2-.5.6-.9,1.1-1.2.5-.3,1-.4,1.7-.4s1.2.1,1.7.4c.5.3.8.7,1.1,1.2.2.5.4,1.1.4,1.7h0c0,.8-.1,1.4-.4,1.9-.2.5-.6.9-1.1,1.2-.5.3-1,.4-1.7.4ZM323.3,185.1c.3,0,.6,0,.8-.2.2-.2.3-.4.4-.7,0-.3.1-.6.1-1h0c0-.5,0-.9-.1-1.2,0-.3-.2-.5-.4-.7-.2-.2-.4-.3-.8-.3s-.6,0-.8.3c-.2.2-.3.4-.4.7s-.1.6-.1,1h0c0,.5,0,.9.1,1.2,0,.3.2.5.4.7.2.2.5.2.8.2Z"/>
                  </g>
                </g>
              </g>
            </g>
            <g class="st5">
              <g class="st5">
                <g class="st5">
                  <g class="st5">
                    <path class="st3" d="M332.3,186.3v-1.1l.9-.2v-6.2h-1.6v1.1h-1.4v-2.4h7.9v2.4h-1.3v-1.1h-1.7v6.2l1,.2v1.1h-3.7Z"/>
                  </g>
                </g>
              </g>
            </g>
            <g class="st5">
              <g class="st5">
                <g class="st5">
                  <g class="st5">
                    <path class="st3" d="M341.3,186.4c-.6,0-1.2-.1-1.6-.4-.5-.3-.8-.7-1.1-1.1s-.4-1-.4-1.7v-.2c0-.6.1-1.2.4-1.7.2-.5.6-.9,1-1.2.4-.3,1-.4,1.6-.4s1.1.1,1.5.4c.4.2.7.6.9,1,.2.4.3,1,.3,1.6v1h-3.9c0,.3,0,.6.2.8.1.2.3.4.5.5.2.1.5.2.8.2s.6,0,.9-.1c.3,0,.6-.2.8-.4l.5,1.1c-.3.2-.6.4-1,.5s-.9.2-1.4.2ZM340.1,182.4h2.2v-.2c0-.3,0-.5-.1-.7,0-.2-.2-.3-.3-.4-.2-.1-.4-.2-.6-.2s-.4,0-.6.2c-.2.1-.3.3-.4.5s-.2.5-.2.7h0Z"/>
                    <path class="st3" d="M344.6,186.3v-1.1l.9-.2v-7l-.9-.2v-1.1h2.7v8.2l.9.2v1.1h-3.5Z"/>
                    <path class="st3" d="M348.6,186.3v-1.1l.9-.2v-7l-.9-.2v-1.1h2.7v8.2l.9.2v1.1h-3.5Z"/>
                  </g>
                </g>
              </g>
            </g>
          </g>
        </g>
        <g>
          <polygon class="st6" points="231.8 130 236.7 141.2 248.8 142.4 239.7 150.5 242.3 162.5 231.8 156.3 221.2 162.5 223.9 150.5 214.7 142.4 226.9 141.2 231.8 130"/>
          <polygon class="st6" points="274.9 130 279.8 141.2 292 142.4 282.8 150.5 285.5 162.5 274.9 156.3 264.4 162.5 267 150.5 257.8 142.4 270 141.2 274.9 130"/>
          <polygon class="st6" points="318 130 322.9 141.2 335.1 142.4 326 150.5 328.6 162.5 318 156.3 307.5 162.5 310.1 150.5 301 142.4 313.2 141.2 318 130"/>
          <polygon class="st6" points="361.2 130 366.1 141.2 378.2 142.4 369.1 150.5 371.7 162.5 361.2 156.3 350.6 162.5 353.3 150.5 344.1 142.4 356.3 141.2 361.2 130"/>
          <polygon class="st6" points="404.3 130 409.2 141.2 421.4 142.4 412.2 150.5 414.9 162.5 404.3 156.3 393.8 162.5 396.4 150.5 387.2 142.4 399.4 141.2 404.3 130"/>
        </g>
      </g>
      <path class="st3" d="M180.9,157.3c1.3,0,2.3-.2,2.8.2,1.6,1.3,3.3,2.6,4.5,4.3,4.2,5.5,6.6,11.9,8.4,18.6.3,1,.3,2.1.4,3.1.4,7-5.2,12-12.1,10.3-3.4-.9-6.8-2.5-9.6-4.5-4.6-3.5-8.8-7.6-13.1-11.4-2.1-1.9-4-3.9-6.6-5.7.9,2.1,1.8,4.1,2.6,6.2.8,2.2,2.2,4.3,1.3,6.7-1.7.8-2.7,0-3.6-1.2-1-1.3-1.9-2.6-2.7-4.1-3.7-7-7.3-14-10.9-21-1-2-2.3-4.2-.6-6.2,1.9-2.2,4.2-.6,6.2.1,6.1,2.3,11.3,6,16.2,10.1.2.2.5.4.6.6.8,1,2.2,2.2.8,3.4-.6.5-2.2.2-3.1-.2-2.7-1.5-5.3-3.3-8.4-4.4.6.7,1.1,1.5,1.7,2.2,4.8,5.1,9.5,10.3,14.5,15.2,2.8,2.8,6,5.3,9.2,7.7,1.6,1.2,3.6,2.2,5.6,2.6,5.1,1.2,8.7-2.2,7.7-7.3-1.8-8.7-4.8-16.9-11.1-23.5-.2-.2-.2-.5-.8-1.7h.1q0-.1,0-.1Z"/>
      <g>
        <g>
          <g>
            <path class="st1" d="M114.8,65.8c-7,2.6-11.4,10.3-9.8,17.1,1.6,6.9,8.7,10.3,15.7,7.7s11.4-10.3,9.8-17.1c-1.6-6.9-8.7-10.3-15.7-7.7Z"/>
            <path class="st2" d="M118.7,73.8c10.5-2.3,8.2,10.8-2.2,11.6,15.7,1.1,11.2-19.7,2.2-11.6Z"/>
          </g>
          <g>
            <path class="st1" d="M59.8,58.8c5.9,4.4,7.7,12.8,4.1,18.7s-11.4,7.2-17.2,2.8c-5.9-4.4-7.7-12.8-4.1-18.7,3.6-5.9,11.4-7.2,17.3-2.8h0Z"/>
            <path class="st2" d="M54.2,66.1c-11.3-5.8-9.3,9.5-1.6,11.7-15.2-4-4.3-22.3,1.6-11.7Z"/>
          </g>
        </g>
        <g>
          <path class="st1" d="M73.4,36.7l38,6.3c3.1.5,10.1,8.6,9.6,11.7l-4.4,30.3c3,12.3-14.3,27.3-34.8,24.4-20.5-2.9-32.5-23.9-25.1-34.1l4-30.9c.4-3.1,9.7-8.1,12.7-7.6h0Z"/>
          <g>
            <g>
              <path class="st2" d="M76.8,65.2c1.9.3,3.2,2.1,2.9,4s-2.1,3.2-4,2.9-3.2-2.1-2.9-4,2.1-3.2,4-2.9h0Z"/>
              <path class="st2" d="M99.4,68.9c1.9.3,3.2,2.1,2.9,4s-2.1,3.2-4,2.9-3.2-2.1-2.9-4,2.1-3.2,4-2.9Z"/>
              <path class="st2" d="M77.6,53.2c3,.4,5.4.8,5.4,2.1-.2.7-2.3.4-5.2,0-3-.4-7.1-.3-7.1-1.2,0-1.8,3.9-1.3,6.9-1h0Z"/>
              <path class="st2" d="M100,56.7c2.9.6,6.1.5,6,2.2s-12-.2-12-1.8,3.1-1,6-.4Z"/>
            </g>
            <path class="st2" d="M90.7,72c-.8,8.5-7.7,5.8-9.4,3.5.9,5.3,11.5,5.3,9.4-3.5Z"/>
            <g>
              <path class="st2" d="M66.1,81.9c-2.8,15.7,31.8,27.1,37.8,4.2-4-2.7-34.4-6.4-37.8-4.2Z"/>
              <path class="st1" d="M98.8,85.5c-6.8-2.3-20.7-3.8-27.6-3.3-.7,3,4.4,5,13.4,6,1.5.2,2.5.3,3.9.4.3-3.5,5-3.8,5.7,0,2.7-.2,4.5-1.1,4.6-3.2h0Z"/>
              <path class="st1" d="M73.9,95.2c5.1,3.7,14.6,5,20.7,2.3-2.8-7.8-17.7-8.9-20.7-2.3Z"/>
            </g>
            <path class="st2" d="M78.6,99.4c.6,4.5,7.8,6.1,10,1.5-3.2.9-7.1.2-10-1.5Z"/>
          </g>
        </g>
        <path class="st2" d="M45,58.7c6.1-4.4,16.7.8,13.8,15.1,2.9-2.7,3.3-4.9,3.1-10.4,0-4.6,1.9-12.9,2.3-15.6,3.1,6.3,10.9-.6,11.3-4.8,5.3,6.9,24.8,14.6,36.1,7.3,6.7,11-5.6,19.5,3.7,27.5-1.1-15.6,10.6-12.3,13.7-7.4v.2c-.2.2-.1.4,0,.5.2,0,.4,0,.5,0,3.4-5.8,5.2-10.9,5.5-15.4.3-4.2-.5-7.7-2.4-10.5s-4.8-4.8-8.4-5.9h-.5c-1.9-9.5-7.5-15.6-14.5-19.1-8.5-9.9-20.5-9.2-36,2.1.9-2.4,1.5-6.8,8.2-9.7-9-1.9-16.6,2.5-18.8,14.5-2.1-7.8-14.5-6.1-5.4,4.7-4.3,0-7.9.4-10.5,1.6-1.9.8-3.4,2-4.4,3.4-1.1,1.5-1.7,3.2-2,5.3-.5,4.4.8,10.1,3.9,17.3,0,.2.3.2.4.2s.2-.3.2-.4h0l.2-.3h0ZM107.7,19.1c-9.4-4-20.9-3.4-29,0,12.1-7.4,21.7-7.4,29,0h0ZM133.8,59.7c1.4-8-2.1-14.5-9.7-19.6v-.3h0c3.5,1.1,6.3,3,8.1,5.6s2.7,6,2.3,10.1c-.1,1.3-.4,2.8-.7,4.3h-.1ZM52.8,32.3c-6.8,2.3-12,11.2-8.9,23.8-2.3-5.8-3.2-10.5-2.7-14.2.2-2,.8-3.6,1.8-5s2.4-2.4,4.2-3.2c1.6-.7,3.4-1.1,5.6-1.4h0Z"/>
        <path class="st2" d="M74.2,56.1c3.5.5,6.4,2.4,8.4,5.1,1.8,2.5,2.8,5.7,2.4,9l5,.8c.7-3.2,2.5-5.9,4.9-7.7,2.6-1.9,6-2.9,9.5-2.4s6.4,2.4,8.4,5.1c1.9,2.6,2.9,6,2.4,9.5s-2.4,6.4-5,8.4c-2.6,1.9-6,2.9-9.5,2.4s-6.4-2.4-8.4-5.1c-1.9-2.6-2.8-5.8-2.4-9.2l-5-.8c-.6,3.3-2.5,6-5,7.9-2.6,1.9-6,2.9-9.5,2.4s-6.4-2.4-8.4-5.1c-1.9-2.6-2.9-6-2.4-9.5s2.4-6.4,5-8.4c2.6-1.9,6-2.9,9.5-2.4,0,0,0,0,0,0ZM112,66.5c-1.8-2.4-4.5-4.2-7.7-4.7s-6.3.4-8.7,2.2c-2.4,1.8-4.2,4.5-4.6,7.7-.5,3.2.4,6.3,2.2,8.7s4.5,4.2,7.7,4.7,6.3-.4,8.7-2.2c2.4-1.8,4.2-4.5,4.6-7.7.5-3.2-.4-6.3-2.2-8.7h0ZM81.7,61.7c-1.8-2.4-4.5-4.2-7.7-4.7s-6.3.4-8.7,2.2-4.2,4.5-4.6,7.7c-.5,3.2.4,6.3,2.2,8.7s4.5,4.2,7.7,4.7,6.3-.4,8.7-2.2,4.2-4.5,4.6-7.7c.5-3.2-.4-6.3-2.2-8.7Z"/>
      </g>
      <g>
        <g>
          <g>
            <path class="st1" d="M65.2,144.3c-4.5,5.3-4.5,13.4,0,18.1,4.4,4.7,11.6,4.3,16-1,4.5-5.3,4.5-13.4,0-18.1-4.4-4.7-11.6-4.3-16,1Z"/>
            <path class="st2" d="M71.9,149c7.7-5.9,10.9,5,3.4,10.3,13-6.2,0-20.8-3.4-10.3Z"/>
          </g>
          <g>
            <path class="st1" d="M18.1,163.5c6.7.9,12,6.7,11.7,13.1-.2,6.4-5.8,10.9-12.5,10s-11.9-6.7-11.7-13.1,5.8-10.9,12.5-10Z"/>
            <path class="st2" d="M16.9,171.9c-10.3-.5-5.2,10.3,4,10-14,3.6-13.5-15.9-4-10Z"/>
          </g>
        </g>
        <g>
          <path class="st1" d="M18.9,139.7l33.2-12.1c2.7-1,11.9,2.4,13,5l10.2,26.2c7.9,8.5.9,28.3-16.8,35.2s-36.8-4.5-35.5-16l-10.7-26.5c-1.1-2.6,4-10.9,6.7-11.9h0Z"/>
          <g>
            <g>
              <path class="st2" d="M34.5,161c1.7-.6,3.5.2,4.1,1.9s-.2,3.5-1.9,4.1-3.5-.2-4.1-1.9.2-3.5,1.9-4.1Z"/>
              <path class="st2" d="M54.3,153.8c1.7-.6,3.5.2,4.1,1.9s-.2,3.5-1.9,4.1-3.5-.2-4.1-1.9.2-3.5,1.9-4.1Z"/>
              <path class="st2" d="M36.4,152.6c0,1-10.6,4.7-11.1,3.9-.2-2,10.5-5.5,11.1-3.9Z"/>
              <path class="st2" d="M56.7,144.3c.4.9-10,5.9-10.8,4.8-.7-2.2,10.2-6.2,10.8-4.8Z"/>
            </g>
            <path class="st2" d="M48.7,160.1c2.6,5.9-.9,8.4-5.9,7.1,3.1,3.8,11.6-1,5.9-7.1Z"/>
            <g>
              <path class="st2" d="M33.5,179.1c4.9,13.8,37.6,7.3,32.1-13.7-2.6-3.6-10.4,2.6-18,5.9-6.9,3-15,2.7-14.2,7.8h.1Z"/>
              <path class="st1" d="M60.6,166.7c-2.3,0-6.5,2.7-10.9,4.6-4.6,2-9.3,3-12,4.8.6,2.1,3.8,2.8,8.8,1.5,1.8.6,5.9-1.2,7.2-2.8,2.6-1.1,9-4.1,6.9-8h0Z"/>
              <path class="st1" d="M45.8,186.3c5.7.7,13.9-2.6,17.6-7.5-5.7-5-18.2.9-17.6,7.5Z"/>
            </g>
            <path class="st2" d="M51.4,187.5c2.5,3.3,9,1.4,8.7-3.3-2.2,2.2-5.6,3.4-8.7,3.3Z"/>
          </g>
        </g>
        <path class="st2" d="M7.2,177.8c-5-16.2,15.3-15.8,17.6-4,1.3-1.9,4.2-10.2-5.2-11.7,2.3-3.5,4.6-14.3,5-17.3.9,2.4.9,5.3-.2,8.7,9.8-4.5,14.6-9.8,14.4-16.1,2.5,1.9-1.2,10.4-1.2,10.4,6.8-1.8,8.4-7.8,6.1-10.8,4.5,4.8,8.9,5.5,17.4,4.3-3.2-4.8-4.8-7.1-4.8-7.1,5.4,5.8,8.3,8.8,10.5,10.4-3.9,2.5-6,8.8.8,12.2-.9-3.6.2-7.5,2.2-8.8-.3-14.1,18.3-6.7,14,8.3-1.4,3.8-3.3,6.4-5.8,7.8.7,4.2.4,7.8-.7,10.7,2.3,1.6,5.3,1.1,8.8-1.5,2.4,10.3,14.5,11.4,20.5,6.3-2.3-6,.9-18-14.3-17.7.6-10.3-7-24.1-17.6-34.4-7-10.4-14-16.4-20.9-17.9-6.2-1.4-12.3.8-18.4,6.4-.7.4-1.5.9-2.2,1.5-7.3-8.5-12.9-7.1-16.8,4.4-10.7,6.7-16.8,20.4-18.7,35.1-2.5,2.8-4,5.8-4.3,9-.4,4.3,1.1,8.9,4.5,14,0,.1.2.2.3.1.1.6.2,1.2.3,1.8,0,0-5.1,14.8,2.7,20.8,9.1,7,23.4-2.8,23.4-2.8,4.3-.6,9-4.2,11.7-5.9-5.5-2.2-9.4-5.1-11.8-9-7.5,3.2-13,0-17.5-7.4h0l.2.2h0ZM-2.4,158.2c-.8,7-.6,14.2.5,21-3.1-4.7-4.4-9-4-13,.3-2.8,1.5-5.5,3.5-8h0ZM72.5,125.6c-10.7-9.6-24-15.4-34.8-10.7,5.3-4.2,10.6-5.8,15.9-4.6,6.2,1.4,12.5,6.5,18.9,15.3h0ZM31.9,117.8c-5.1,0-9.6,1.1-13.6,3.1,3.9-4.7,8.4-5.8,13.6-3.1Z"/>
      </g>
    </g>
  </g>
  <path class="st8" d="M447.2,91.7h0c0,0,0,0,0,0h0Z"/>
  <g>
    <g>
      <path class="st8" d="M457.7,68.7c-.6,0-1.1.3-1.5.7-2.4,3.1-11.8,18.3-14.7,24.2-.1.3-.2.6-.2.8,0,1,.9,1.9,1.9,1.9s1.3-.4,1.7-1.1c2.8-5.8,12-20.6,14.3-23.6.2-.3.4-.7.4-1.1,0-1-.9-1.9-1.9-1.9h0Z"/>
      <path class="st8" d="M440.7,98c-.7,0-1.3.4-1.6,1-.6,1.1-1,1.9-1.4,2.9,0,0-.1.4-.1.7,0,1,.9,1.9,1.9,1.9s1.5-.5,1.7-1.2c.4-.9.7-1.6,1.2-2.5.1-.3.2-.6.2-.9,0-1-.9-1.9-1.9-1.9h0Z"/>
    </g>
    <path class="st8" d="M440.1,90.1c-1,0-.7,0-.9.2h-.2c-3.5,2.3-8.3,4.6-13.4,7.1l-.4.2c-2.5,1.2-4.9,2.4-6.9,3.4,1.7-7.8,2.7-12.1,4.7-12.1s1.2.2,2.2,1.3c.4.4.9.7,1.4.7,1,0,1.9-.9,1.9-1.9s-.2-1-.5-1.2c-1.5-1.7-3.2-2.6-5.1-2.6-3.4,0-4.9,2.8-5.9,5.4-9.2,8.2-13.9,9.9-16.2,9.9s-1.4,0-1.4-1.9.3-2.7.8-4.5c7-6.5,17.1-17.5,17.1-21.9s-1.4-3.3-3.4-3.3c-5.8,0-12,11.1-15.1,18.3-.7-.6-1.7-1-2.8-1-2.4,0-5.4,1.5-8.4,4.1,0,0-.3.2-.4.3-9.3,8.3-14,10-16.3,10s-1.4-.2-1.4-1.4c0-1.8,2.2-6.5,5.1-10.2.3-.3.4-.7.4-1.2,0-1-.9-1.9-1.9-1.9s-1.2.3-1.4.7c-1.9,2.4-5.9,8.6-5.9,12.5s1.9,5.1,5.2,5.1,6-1.4,10.1-4.1v1c0,2.2,1.3,3.6,3.5,3.6s7.2-3.3,11.2-6.6v.5c0,3.5,1.9,5.7,5.2,5.7s8.3-2.4,14.4-7.3c-.3,1.5-.7,3.1-1.1,4.9l-.3,1.5c-6.2,3.5-8.5,5.9-8.5,8.7s1.5,3.5,3.7,3.5c5,0,7-5.4,8.1-9.8,2.8-1.5,6-3.1,9.6-4.9l.4-.2c5-2.4,10.1-4.9,13.9-7.4.5-.4.8-.8.8-1.4,0-1-.9-1.8-1.9-1.8h0ZM413.8,72.7c-.6,1.9-4.1,6.8-10,12.9,3.3-6.9,7.4-12.3,10-12.9ZM396.9,92.2c-6.1,5.7-10.2,8.4-11.9,8.8.4-3.8,7.6-11,11.3-11h.4s.2.5.2,1.2v1ZM409.5,112.2h0c0-1,1.5-2.2,3.2-3.3-.8,1.8-1.8,3.3-3.1,3.3h-.1Z"/>
    <path class="st8" d="M383.4,70.6c0-1-.9-1.9-1.9-1.9s-1.4.4-1.7,1.1c-4.2,8.5-17.9,18.4-30,22,3.8-6.8,7.5-13.8,10.4-20.1.4-.9,0-1.8-.7-2.4,0,0-.2,0-.2,0-.8-.5-1.7-.4-2.4.4-6.6,6.8-15.5,10.6-22.7,9.6-.2,0-.3,0-.5-.2-.7-.2-1.3-.4-1.8-.4-1.3,0-2,1-2,2s.6,1.6,1.7,1.9c.6,0,1.4.3,2.2.4,6.2.8,13.3-1.2,19.6-5.4-2.2,4.3-4.5,8.7-7,13.1-1.6-.9-3.4-1.3-5.3-1.3-3.4,0-5.7,1.5-5.7,3.7s2.5,3.9,6.3,3.9h1c-3.9,6.5-7.4,11.8-10.4,15.8,0,.2-.3.6-.3,1,0,1,.9,1.9,1.9,1.9s1.2-.3,1.5-.8c3.6-4.8,7.8-11.2,12.1-18.6,1.8,2.1,3.3,5.1,4.9,8.3,3.4,6.8,7.2,14.5,16.2,14.5s6.6-1.4,7.8-2.1h0c.6-.4,1-1,1-1.7,0-1-.9-1.9-1.9-1.9h0c-.4,0-.7,0-1,.4h-.2c-1.2.8-2.8,1.7-5.9,1.7-6.6,0-9.7-6.1-12.9-12.5-1.4-2.8-2.7-5.4-4.3-7.6,8.7-2.7,17.7-8.1,24.2-14.2-.2.2-.3.4-.5.6-.1.2-.4.6-.4,1.1,0,1,.9,1.9,1.9,1.9s1.1-.3,1.5-.7c.3-.4.9-1.1,1.3-1.6.3-.3.4-.8.4-1.2,0-1-.9-1.9-1.9-1.9h-.6c2.6-2.6,4.6-5.3,5.9-7.9,0-.3.2-.6.2-.8h.2,0Z"/>
  </g>
</svg>