<?xml version="1.0" encoding="UTF-8"?>
<svg id="Layer_2" xmlns="http://www.w3.org/2000/svg" version="1.1" viewBox="0 0 720 216">
  <!-- Generator: Adobe Illustrator 30.1.0, SVG Export Plug-In . SVG Version: 2.1.1 Build 136)  -->
  <defs>
    <style>
      .st0 {
        fill: #f4f4f5;
      }

      .st1 {
        isolation: isolate;
      }

      .st2 {
        stroke: #ffd500;
        stroke-miterlimit: 10;
      }

      .st2, .st3 {
        fill: #fdd600;
      }

      .st4 {
        fill: #fff;
      }

      .st5 {
        fill: #ffd500;
      }

      .st6 {
        fill: #2a2a2a;
      }
    </style>
  </defs>
  <g id="Layer_1-2">
    <g>
      <rect class="st6" x="-18" y="-18" width="756" height="252"/>
      <path class="st3" d="M489.2,91.2l.4,2c1.3,6.1,6.1,10.8,12.1,12.1l2,.4-2,.4c-6.1,1.3-10.8,6.1-12.1,12.1l-.4,2-.4-2c-1.3-6.1-6.1-10.8-12.1-12.1l-2-.4,2-.4c6.1-1.3,10.8-6.1,12.1-12.1l.4-2Z"/>
      <path class="st3" d="M395.7,21.4l.2.7c.5,2.2,2.2,4,4.5,4.5l.7.2-.7.2c-2.2.5-4,2.2-4.5,4.5l-.2.7-.2-.7c-.5-2.2-2.2-4-4.5-4.5l-.7-.2.7-.2c2.2-.5,4-2.2,4.5-4.5,0,0,.2-.7.2-.7Z"/>
      <g>
        <g>
          <polygon class="st0" points="55.9 52.5 59.3 53.2 59.3 62.4 46.2 62.4 46.2 53.2 49.6 52.5 49.6 48.6 36.4 48.6 36.4 52.5 39.8 53.2 39.8 76.2 36.4 76.9 36.4 80.7 49.6 80.7 49.6 76.9 46.2 76.2 46.2 67.4 59.3 67.4 59.3 76.2 55.9 76.9 55.9 80.7 69.1 80.7 69.1 76.9 65.7 76.2 65.7 53.2 69.1 52.5 69.1 48.6 55.9 48.6 55.9 52.5"/>
          <path class="st0" d="M89.2,58c-1.6-1-3.7-1.5-6-1.5s-4.3.5-6,1.5-3,2.5-3.9,4.3c-.9,1.9-1.3,3.9-1.3,6.3v.5c0,2.4.4,4.5,1.3,6.3.9,1.8,2.3,3.3,3.9,4.3,1.6,1,3.7,1.5,6,1.5s4.4-.4,6-1.5c1.6-1.1,2.9-2.5,3.8-4.3.9-1.8,1.3-3.9,1.3-6.3v-.5c0-2.4-.5-4.5-1.3-6.3s-2.1-3.3-3.8-4.3ZM88,69c0,1.5-.2,2.7-.5,3.8-.4,1.1-.9,1.9-1.6,2.5-.7.6-1.6.9-2.7.9s-2.1-.3-2.8-.9c-.7-.6-1.3-1.4-1.6-2.5s-.5-2.4-.5-3.8v-.5c0-1.4.2-2.6.5-3.7.4-1,.9-1.9,1.6-2.5.7-.6,1.5-.9,2.7-.9s2.1.3,2.8.9c.7.6,1.3,1.4,1.6,2.5s.5,2.3.5,3.7v.5Z"/>
          <polygon class="st0" points="123.6 60.7 126.4 61.2 123.8 70.6 123.2 72.5 123.1 72.5 122.5 70.6 117.8 56.8 113.5 56.8 108.6 70.4 108 72.2 107.9 72.2 107.5 70.4 105.3 61.2 107.8 60.7 107.8 56.9 96.3 56.9 96.3 60.8 99.2 61.3 104.7 80.7 110.2 80.7 114.5 68.9 115.3 66.3 115.4 66.3 116.2 68.9 120.6 80.7 126 80.7 132 61.3 134.8 60.8 134.8 56.9 123.6 56.9 123.6 60.7"/>
          <polygon class="st0" points="138.6 58 141.4 58 143.3 52 143.3 46.4 138.6 46.4 138.6 58"/>
          <path class="st0" d="M162.3,69.2c-1.3-1.1-3.5-2-6.4-2.7-1.2-.3-2.1-.6-2.7-.9-.7-.3-1.1-.7-1.3-1s-.3-.3-.3-1.1.3-1.3.9-1.8c.6-.5,1.5-.7,2.6-.7s1.3,0,1.8.2c.5.2,1,.4,1.4.7l.7,3.1h4.4v-6.5c-1-.6-2.2-1.1-3.7-1.4-1.5-.3-2.7-.5-4.9-.5s-3.9.3-5.3,1c-1.4.6-2.4,1.5-3.1,2.6-.7,1.1-1,1.7-1,3.6s.7,3.5,2,4.7,3.4,2.1,6.2,2.7c1.8.4,3.1.8,3.7,1.3.6.5.9,1,.9,1.7s-.3,1.3-.9,1.8c-.6.5-1.6.7-3,.7s-1.4-.1-2-.2c-.6-.2-1.1-.4-1.6-.6l-.9-3.4h-4.4v6.7c1.4.7,2.9,1.2,4.4,1.5,1.6.3,3.2.5,5,.5h0c3.2,0,5.6-.5,7.2-1.9s2.4-3.4,2.4-5.4-.7-3.6-2-4.7Z"/>
          <polygon class="st0" points="199.9 70.9 199.8 70.9 191.1 48.6 178.2 48.6 178.2 52.5 181.6 53.2 181.6 76.2 178.2 76.9 178.2 80.7 191.4 80.7 191.4 76.9 187.6 76.2 187.6 69.4 187.2 55.8 187.3 55.8 197.1 80.3 202 80.3 211.6 55.6 211.6 76.2 208 76.9 208 80.7 221.2 80.7 221.2 76.9 217.8 76.2 217.8 53.2 221.2 52.5 221.2 48.6 208.3 48.6 199.9 70.9"/>
          <path class="st0" d="M238.3,60.7l2.8.4-4.4,11.8h-.1l-.5-1.3-3.7-10.5,2.9-.4v-3.9h-12.6v3.9l2.9.4,8,19.8-.5,1.5c-.3.9-.8,1.6-1.5,2.1s-1.5.7-2.4.7h-.9c-.3,0-.6-.1-.9-.1l-.7,4.7c.6.2,1.2.4,1.8.4.7,0,1.2,0,1.8,0h-.2c1.6,0,2.9-.3,3.9-.9,1.1-.5,1.9-1.3,2.6-2.2.7-.9,1.3-1.9,1.7-3l9.1-23.1,2.7-.4v-3.9h-11.8v3.9Z"/>
          <path class="st0" d="M284.4,50.8c-2.2-1.3-4.7-2-7.6-2h-14v3.9l3.4.7v22.8l-3.4.7v3.8h0c0,0,14.1,0,14.1,0,2.8,0,5.3-.6,7.5-2s3.9-3.2,5.1-5.6c1.2-2.4,1.8-5.1,1.8-8.1v-.6c0-3-.6-5.7-1.8-8.1-1.2-2.4-2.9-4.3-5.1-5.6ZM284.9,65c0,2.1-.3,4-1,5.6-.6,1.6-1.6,2.9-2.8,3.8-1.2.9-2.7,1.4-4.5,1.4h-3.9v-22.2h3.9c1.8,0,3.3.5,4.5,1.4,1.2.9,2.1,2.2,2.8,3.8.7,1.6,1,3.5,1,5.6v.6Z"/>
          <path class="st0" d="M311,56.4c-1.2,0-2.2.3-3.1,1-.8.6-1.6,1.6-2.2,2.9v-.5l-.2-2.9h-9.4v3.9l3.4.7v14.7l-3.1.7v3.6h12.6v-3.8l-3.1-.7v-11.6c.4-.6.9-1.1,1.5-1.5.6-.4,1.3-.5,2.2-.5l3.2.2.7-5.9c-.3-.1-.7-.3-1.2-.3h-1.3Z"/>
          <rect class="st0" x="318.7" y="46.4" width="6.6" height="5.5"/>
          <polygon class="st0" points="325.3 56.9 315.5 56.9 315.5 60.8 318.9 61.5 318.9 76.2 315.8 76.9 315.8 80.7 328.4 80.7 328.4 76.9 325.3 76.2 325.3 56.9"/>
          <polygon class="st0" points="339.4 80.7 339.4 80.6 339.3 80.6 339.4 80.7"/>
          <polygon class="st0" points="344.4 60.6 347.3 61.1 343.4 71.9 342.8 73.7 342.7 73.7 342.2 71.9 338.6 61.1 341.1 60.7 341.1 56.9 329.6 56.9 329.6 60.8 332.2 61.2 339.4 80.6 345.8 80.6 353.3 61.1 355.9 60.7 355.9 56.8 344.4 56.8 344.4 60.6"/>
          <polygon class="st0" points="367.2 56.9 357.4 56.9 357.4 60.8 360.8 61.5 360.8 76.2 357.7 76.9 357.7 80.7 370.3 80.7 370.3 76.9 367.2 76.2 367.2 56.9"/>
          <rect class="st0" x="360.6" y="46.4" width="6.6" height="5.5"/>
          <path class="st0" d="M396.4,65.9c0-3.2-.7-5.6-2-7.1s-3.1-2.3-5.5-2.3-2.8.3-4,1c-1.1.6-2.1,1.6-2.9,2.8l-.3-3.4h-9.4v3.9l3.4.7v14.7l-3.1.7v3.8h0c0,0,12.1,0,12.1,0v-3.8l-2.6-.7v-12.5c.5-.8,1-1.3,1.7-1.7.7-.4,1.2-.6,2.4-.6s2.2.3,2.8,1c.6.7.9,1.8.9,3.4v10.3l-2.7.7v3.8h12.3v-3.8l-3.1-.7v-10.3Z"/>
          <path class="st0" d="M422.7,56.6h-5.6l-.5,3c-.7-1.1-1.6-1.9-2.6-2.5-1.1-.6-1.8-.9-3.7-.9s-3.5.6-4.9,1.6c-1.3,1.1-2.4,2.5-3.1,4.4-.7,1.9-1.1,4.1-1.1,6.6v.5c0,2.3.4,4.3,1.1,6.1.7,1.8,1.8,3.1,3.2,4.1,1.4,1,3.1,1.5,5,1.5s2.3-.2,3.3-.7c1-.4,1.8-1.1,2.5-2v1.6c0,1.7-.4,3-1.2,4-.8.9-2.1,1.4-3.8,1.4s-2.1,0-3.2-.4c-1.2-.2-2.3-.6-3.3-1l-1.2,4.6c1.2.6,2.5,1,4,1.3s2.8.5,4,.5v-.3c2.4,0,4.3-.5,6-1.3,1.6-.9,2.9-2.1,3.8-3.6.9-1.5,1.3-3.3,1.3-5.4v-18.2l2.7-.6v-3.9h-2.7v-.4ZM416.2,74.1c-.4.7-.9,1.2-1.6,1.6-.7.3-1.5.5-2.3.5-1.7,0-2.9-.6-3.6-1.8-.7-1.2-1.1-2.8-1.1-4.9v-.5c0-1.5.2-2.8.5-3.9.3-1.1.8-2,1.5-2.6.7-.7,1.8-1,2.7-1s1.6.2,2.3.6c.7.4,1.2,1,1.6,1.7v10.3Z"/>
          <path class="st0" d="M444.7,50.7c-1.9-1.6-4.4-2.4-7.7-2.4s-3.8.3-5.3,1c-1.6.7-2.7,1.6-3.6,2.9-.8,1.3-1.2,2.8-1.2,4.7h6.3c0-1.1.4-2,1.2-2.6.7-.6,1.5-.9,2.7-.9s2.2.4,2.9,1.1c.7.8,1,1.7,1,3s-.2,1.5-.4,2.2-.6,1.4-1.1,2c-.5.6-1.1,1.3-1.9,1.9-.9.6-1.6,1.3-2.2,1.8s-1,1-1.3,1.6c-.3.5-.5,1.2-.6,1.9-.2.7-.2,1.6-.2,2.7h.1c0,.1,6.4.1,6.4.1,0-.8.1-1.5.1-2.1,0-.6.3-1.1.6-1.5.3-.5.7-.9,1.3-1.4,1.1-1,2.2-1.9,3-2.9s1.5-2.1,2-3.1.7-.8.7-3.5-1-4.9-2.8-6.5Z"/>
          <rect class="st0" x="433.3" y="75.1" width="6.4" height="5.6"/>
        </g>
        <g class="st1">
          <g class="st1">
            <g class="st1">
              <g class="st1">
                <g class="st1">
                  <g class="st1">
                    <path class="st3" d="M50.2,129.6h11.3v16.2c0,8.2-4.1,12.9-12,12.9s-12-4.7-12-12.9v-26.6c0-8.2,4.1-12.9,12-12.9s12,4.7,12,12.9v5h-7.6v-5.5c0-3.7-1.6-5.1-4.2-5.1s-4.2,1.4-4.2,5.1v27.7c0,3.7,1.6,5,4.2,5s4.2-1.3,4.2-5v-9.4h-3.7v-7.3h0Z"/>
                    <path class="st3" d="M66,119.2c0-8.2,4.3-12.9,12.2-12.9s12.2,4.7,12.2,12.9v26.6c0,8.2-4.3,12.9-12.2,12.9s-12.2-4.7-12.2-12.9v-26.6ZM74.1,146.3c0,3.7,1.6,5,4.2,5s4.2-1.4,4.2-5v-27.7c0-3.7-1.6-5.1-4.2-5.1s-4.2,1.4-4.2,5.1v27.7Z"/>
                    <path class="st3" d="M115.1,128.5h11.1v7.3h-11.1v15h13.9v7.3h-22v-51.2h22v7.3h-13.9v14.3h0Z"/>
                    <path class="st3" d="M160,158.1h-8.1l-1.4-9.3h-9.9l-1.4,9.3h-7.4l8.2-51.2h11.8l8.2,51.2h0ZM141.6,141.8h7.8l-3.9-25.9-3.9,25.9h0Z"/>
                  </g>
                </g>
              </g>
            </g>
            <g class="st1">
              <g class="st1">
                <g class="st1">
                  <g class="st1">
                    <path class="st3" d="M174.6,106.3c7.8,0,11.9,4.7,11.9,12.9v1.6h-7.6v-2.1c0-3.7-1.5-5.1-4-5.1s-4,1.4-4,5.1c0,10.5,15.7,12.5,15.7,27.2s-4.1,12.9-12,12.9-12-4.7-12-12.9v-3.1h7.6v3.7c0,3.7,1.6,5,4.2,5s4.2-1.3,4.2-5c0-10.5-15.7-12.5-15.7-27.2s4-12.9,11.9-12.9h-.2Z"/>
                  </g>
                </g>
              </g>
            </g>
            <g class="st1">
              <g class="st1">
                <g class="st1">
                  <g class="st1">
                    <path class="st3" d="M198.2,141.1l-10.2-34.3h8.4l6.1,23.3,6.1-23.3h7.7l-10.2,34.3v17h-8.1v-17h.2Z"/>
                  </g>
                </g>
              </g>
            </g>
            <g class="st1">
              <g class="st1">
                <g class="st1">
                  <g class="st1">
                    <path class="st3" d="M213.7,158.1v-7.8h7.8v7l-3.5,8.1h-3.3l2.1-7.3h-3.1Z"/>
                    <path class="st3" d="M238.7,106.9h8.1v51.2h-8.1v-51.2Z"/>
                    <path class="st3" d="M252.6,114.6v-7.8h7.8v7l-3.5,8.1h-3.3l2.1-7.3h-3.1,0Z"/>
                    <path class="st3" d="M283.3,143.2l5.5-36.4h11.2v51.2h-7.6v-36.7l-5.6,36.7h-7.6l-6-36.2v36.2h-7v-51.2h11.2l5.9,36.4h0Z"/>
                  </g>
                </g>
              </g>
            </g>
          </g>
        </g>
      </g>
      <g>
        <path class="st5" d="M394.3,100.3c1.2,0,2.1-.8,2.3-1.8.4,0,1-.3,1.4-.4,1.2-.3,2.1-.5,2-1.5-.1-1.1-.9-1.1-5.8-1.1-10.5,0-22.7,23.3-32.5,42h0c-6.3,12-10.3,19.1-12.2,21.2v-1.8c0-5.6,1.7-15.4,3.5-25,1.7-9.5,3.4-19.3,3.4-24.9s.1-1.5.2-2.2c.2-1.3.4-2.6-.4-3.5-.7-.8-1.8-1.1-3.7-1.1-5.2,0-13.7,11.8-38,52.4-2.4,4-4.5,7.5-6.1,10.1-1.2,2-2,3.6-1.5,4.8.2.5.6,1,1.7,1.3h.6c1.7,0,3.4-1.5,4.5-3.1.2,0,.3-.2.4-.3.8-1.1.5-2,.1-2.8.8-1.4,1.7-2.9,2.6-4.4.6-1,1.2-2,1.8-3,22.6-37.7,30.5-48.1,32.9-49.6v1.5c0,5.3-1.7,15.1-3.4,24l-.2,1.3c-1.6,9.3-3.3,18.9-3.3,24.6v.6c0,2.5,0,4.5,1.2,5.7.7.7,1.6,1,2.9,1,3.8,0,6.7-4.6,17.1-24.2,8.2-15.8,20.5-39.7,28.3-39.7h.2ZM354.8,103c0-.2-.1-.3-.2-.5h.1s0,.2.1.4h0Z"/>
        <path class="st5" d="M475.1,132.2c-1,0-1.6.6-1.9,1-3.4,4.6-11.2,12.4-19.1,12.4s-3.2-.6-4.3-1.7c3.1-3.8,6.3-9,6.3-12.9s0-.6,0-.8c0-.8.1-1.7-.5-2.5-.6-.7-1.7-1-3.7-1-4.6,0-8.5,6-8.5,13s.2,2.3.6,3.7c-3.4,3.7-6.6,5.6-8.1,5.6s-2.1,0-2.1-3.7,0-1.7.2-2.8c1.3-1.6,5.8-7.2,5.8-9.6v-.4c0-.7,0-1.6-.6-2.2-.5-.5-1.4-.8-2.7-.8-3.4,0-6.2,5.9-7.1,11.6-5.7,6.6-11.3,11.2-13.6,11.2s-.3,0-.5,0v-1.4c0-5.1,5.4-14.5,11.7-20.6,0,0,.1-.1.2-.2.4-.4.5-.8.5-1.5,0-1.3-1.1-2.4-2.4-2.4s-1.2.3-1.6.6h-.1c-1.8,1.8-3.5,3.7-5.1,5.8-.3,0-.5.2-.6.4-8.7,7.8-24.5,15.6-31.1,15.6s-3.7-.9-3.7-2.9.4-3,1.1-4.5c7.8.6,12.4-2.5,14.5-4.4,1.9-1.7,3.1-3.7,3.1-5.2s.1-1,.2-1.4c.2-.8.4-1.8-.2-2.6-.7-.9-2.3-1.3-5.8-1.3-7.9,0-17.7,10.8-17.7,19.6s0,.3,0,.4h0c0,2.4,0,4.2,1.3,5.5,1.2,1.2,3.3,1.7,7.1,1.7,6.5,0,17.3-5.2,25.7-10.6-1.3,3-2,5.8-2,8s0,.4.2.6c0,2.5.9,5.4,5.3,5.4s9.9-5.5,13.4-9c.9,3.8,3.7,5.8,6.5,5.8s6.1-2,9.9-5.5c0,.3,0,.6.3.9.6.8,1.9,1.2,7.9,1.2,12.1,0,21.9-12.8,23-14.3.4-.4.5-.9.5-1.5,0-1.3-1.1-2.4-2.4-2.4h.1ZM451.2,131.5h0c0,1.5-1.2,4-3.1,6.8.4-3.6,2.1-6.4,3.1-6.8ZM387.2,136.6c2.8-3.3,6.1-5.5,8.8-5.5s1.1.1,1.1.5-.3,1-1.2,1.9c-1,.9-3.6,2.9-8.7,3.1h0ZM400.2,129.3c-.2-.3-.4-.5-.6-.7.5.1.6.2.6.2v.5ZM447.8,148c0-.1,0-.3.1-.4.3.2.6.5,1,.7-.6,0-.9-.1-1.1-.2h0Z"/>
      </g>
      <polygon class="st2" points="738 234 486 234 738 -18 738 -18 738 234"/>
      <rect class="st4" x="513" y="9" width="198" height="198"/>
      <path class="st4" d="M436.1,176.8l.8,2.2c.7,2,2.3,3.6,4.3,4.3l2.2.8-2.2.8c-2,.7-3.6,2.3-4.3,4.3l-.8,2.2-.8-2.2c-.7-2-2.3-3.6-4.3-4.3l-2.2-.8,2.2-.8c2-.7,3.6-2.3,4.3-4.3l.8-2.2Z"/>
      <path class="st4" d="M342.8,173.7l.5,1.4c.5,1.2,1.4,2.2,2.7,2.7l1.4.5-1.4.5c-1.2.5-2.2,1.4-2.7,2.7l-.5,1.4-.5-1.4c-.5-1.2-1.4-2.2-2.7-2.7l-1.4-.5,1.4-.5c1.2-.5,2.2-1.4,2.7-2.7l.5-1.4Z"/>
      <path class="st4" d="M476.3,50.1v1c.6,3.5,3.4,6.3,6.9,6.7h1l-1,.3c-3.5.5-6.3,3.2-6.7,6.7v1c-.1,0-.3-1-.3-1-.5-3.5-3.2-6.3-6.7-6.7h-1l1-.3c3.5-.5,6.3-3.2,6.7-6.7v-1s.1,0,.1,0Z"/>
    </g>
  </g>
</svg>