<?xml version="1.0" encoding="UTF-8"?>
<svg id="Layer_2" xmlns="http://www.w3.org/2000/svg" xmlns:xlink="http://www.w3.org/1999/xlink" version="1.1" viewBox="0 0 720 216">
  <!-- Generator: Adobe Illustrator 30.1.0, SVG Export Plug-In . SVG Version: 2.1.1 Build 136)  -->
  <defs>
    <style>
      .st0, .st1, .st2, .st3 {
        fill: none;
      }

      .st4 {
        fill: #f4f4f5;
      }

      .st5 {
        isolation: isolate;
      }

      .st6 {
        stroke: #ffd500;
      }

      .st6, .st7 {
        fill: #fdd600;
      }

      .st6, .st2, .st3 {
        stroke-miterlimit: 10;
      }

      .st8 {
        fill: #fff;
      }

      .st1 {
        stroke: #000;
        stroke-linejoin: round;
      }

      .st1, .st2, .st3 {
        stroke-linecap: round;
        stroke-width: .5px;
      }

      .st9 {
        fill: #ffd500;
      }

      .st10 {
        fill: #2a2a2a;
      }

      .st2 {
        stroke: #fff;
      }

      .st3 {
        stroke: #282833;
      }

      .st11 {
        clip-path: url(#clippath);
      }
    </style>
    <clipPath id="clippath">
      <rect class="st0" x="-18" y="-18" width="756" height="252"/>
    </clipPath>
  </defs>
  <g id="Layer_1-2">
    <g>
      <g class="st11">
        <g>
          <rect class="st10" x="-18" y="-18" width="756" height="252"/>
          <polygon class="st6" points="650.3 -21 688.5 -59.5 706.3 -8.3 757.4 -26.3 751.2 27.5 805.1 33.5 776.1 79.3 822.1 108 776.1 136.7 805.1 182.5 751.2 188.5 757.4 242.3 706.3 224.3 688.5 275.5 650.3 237 612.1 275.5 594.3 224.3 543.2 242.3 549.4 188.5 495.6 182.5 524.5 136.7 478.5 108 524.5 79.3 495.6 33.5 549.4 27.5 543.2 -26.3 594.3 -8.3 612.1 -59.5 650.3 -21"/>
        </g>
      </g>
      <rect class="st8" x="513" y="9" width="198" height="198"/>
      <path class="st8" d="M195.8,157.3c1.3,0,2.3-.2,2.8.2,1.6,1.3,3.3,2.6,4.5,4.3,4.2,5.5,6.6,11.9,8.4,18.6.3,1,.3,2.1.4,3.1.4,7-5.2,12-12.1,10.3-3.4-.9-6.8-2.5-9.6-4.5-4.6-3.5-8.8-7.6-13.1-11.4-2.1-1.9-4-3.9-6.6-5.7.9,2.1,1.8,4.1,2.6,6.2.8,2.2,2.2,4.3,1.3,6.7-1.7.8-2.7,0-3.6-1.2-1-1.3-1.9-2.6-2.7-4.1-3.7-7-7.3-14-10.9-21-1-2-2.3-4.2-.6-6.2,1.9-2.2,4.2-.6,6.2.1,6.1,2.3,11.3,6,16.2,10.1.2.2.5.4.6.6.8,1,2.2,2.2.8,3.4-.6.5-2.2.2-3.1-.2-2.7-1.5-5.3-3.3-8.4-4.4.6.7,1.1,1.5,1.7,2.2,4.8,5.1,9.5,10.3,14.5,15.2,2.8,2.8,6,5.3,9.2,7.7,1.6,1.2,3.6,2.2,5.6,2.6,5.1,1.2,8.7-2.2,7.7-7.3-1.8-8.7-4.8-16.9-11.1-23.5-.2-.2-.2-.5-.8-1.7h.1q0-.1,0-.1Z"/>
      <g>
        <g>
          <g class="st5">
            <g class="st5">
              <g class="st5">
                <g class="st5">
                  <g class="st5">
                    <g class="st5">
                      <path class="st4" d="M156.7,57.1v-3l2.7-.5v-17.9l-2.7-.5v-3h10.3v3l-2.7.5v7.2h10.2v-7.2l-2.7-.5v-3h10.3v3l-2.7.5v17.9l2.7.5v3h-10.3v-3l2.7-.5v-6.9h-10.2v6.9l2.7.5v3h-10.3Z"/>
                    </g>
                  </g>
                </g>
              </g>
              <g class="st5">
                <g class="st5">
                  <g class="st5">
                    <g class="st5">
                      <path class="st4" d="M193.1,57.5c-1.8,0-3.4-.4-4.7-1.2s-2.3-1.9-3-3.3c-.7-1.4-1-3.1-1-4.9v-.4c0-1.8.3-3.5,1-4.9.7-1.4,1.7-2.5,3-3.3,1.3-.8,2.9-1.2,4.7-1.2s3.4.4,4.7,1.2c1.3.8,2.3,1.9,3,3.3.7,1.4,1,3.1,1,4.9v.4c0,1.9-.3,3.5-1,4.9-.7,1.4-1.7,2.5-3,3.3-1.3.8-2.9,1.2-4.7,1.2ZM193.1,53.6c.9,0,1.6-.2,2.1-.7s1-1.1,1.2-2,.4-1.8.4-2.9v-.4c0-1.1-.1-2.1-.4-2.9s-.7-1.5-1.2-2c-.6-.5-1.3-.7-2.2-.7s-1.6.2-2.1.7c-.6.5-1,1.1-1.2,2-.3.8-.4,1.8-.4,2.9v.4c0,1.1.1,2.1.4,2.9.3.8.7,1.5,1.2,2,.6.5,1.3.7,2.2.7Z"/>
                    </g>
                  </g>
                </g>
              </g>
              <g class="st5">
                <g class="st5">
                  <g class="st5">
                    <g class="st5">
                      <path class="st4" d="M209.8,57.1l-4.3-15.1-2.3-.4v-3h9v3l-2,.4,1.7,7.2.3,1.4h.1l.5-1.4,3.8-10.6h3.4l3.7,10.7.5,1.5h.1l.4-1.5,2-7.3-2.2-.4v-3h8.8v3l-2.2.4-4.7,15.1h-4.2l-3.4-9.2-.6-2h-.1l-.6,2.1-3.3,9.2h-4.4Z"/>
                    </g>
                  </g>
                </g>
              </g>
              <g class="st5">
                <g class="st5">
                  <g class="st5">
                    <g class="st5">
                      <path class="st4" d="M236.3,39.4v-9h3.7v4.4l-1.5,4.7h-2.2Z"/>
                    </g>
                  </g>
                </g>
              </g>
              <g class="st5">
                <g class="st5">
                  <g class="st5">
                    <g class="st5">
                      <path class="st4" d="M248.9,57.5c-1.4,0-2.7-.1-3.9-.4-1.2-.3-2.3-.6-3.4-1.1v-5.2c0,0,3.4,0,3.4,0l.7,2.7c.4.2.8.3,1.3.5s1,.2,1.6.2c1.1,0,1.9-.2,2.4-.5s.7-.8.7-1.4-.2-1-.7-1.4c-.5-.4-1.5-.7-2.9-1-2.2-.5-3.8-1.2-4.9-2.1-1-1-1.6-2.2-1.6-3.7s.3-2,.8-2.8c.5-.8,1.3-1.5,2.4-2,1.1-.5,2.4-.8,4.1-.8s2.7.1,3.8.4c1.2.3,2.1.6,2.9,1.1v5.1c0,0-3.4,0-3.4,0l-.5-2.4c-.3-.2-.7-.4-1.1-.5-.4-.1-.9-.2-1.4-.2-.9,0-1.6.2-2,.5-.5.4-.7.8-.7,1.4s0,.6.2.9.5.5,1,.8,1.2.5,2.1.7c2.3.5,4,1.2,5,2.1s1.6,2.1,1.6,3.7-.6,3.1-1.9,4.2-3.1,1.6-5.6,1.6Z"/>
                      <path class="st4" d="M267.2,57.1v-3l2.7-.5v-17.9l-2.7-.5v-3h10.1l6.8,17.4h.1l6.6-17.4h10.1v3l-2.7.5v17.9l2.7.5v3h-10.3v-3l2.8-.5v-16c0,0,0,0,0,0l-7.5,19.2h-3.8l-7.6-19.1h-.1s.3,10.6.3,10.6v5.3l2.9.5v3h-10.3Z"/>
                      <path class="st4" d="M307.9,64.6c-.4,0-.9,0-1.4-.1-.5,0-.9-.2-1.4-.3l.6-3.7c.2,0,.5,0,.7.1.3,0,.5,0,.7,0,.7,0,1.3-.2,1.9-.6.5-.4.9-.9,1.1-1.6l.4-1.1-6.2-15.4-2.3-.3v-3h9.8v3l-2.3.3,2.9,8.2.4,1h.1l3.4-9.2-2.2-.3v-3h9.2v3l-2.1.3-7.1,18c-.3.9-.8,1.6-1.3,2.4-.5.7-1.2,1.3-2,1.7-.8.4-1.8.7-3,.7Z"/>
                      <path class="st4" d="M333.2,57.1v-3l2.7-.6v-17.8l-2.7-.6v-3h11c2.2,0,4.2.5,5.9,1.6,1.7,1,3,2.5,4,4.3,1,1.8,1.4,4,1.4,6.3v.5c0,2.4-.5,4.5-1.4,6.3-.9,1.8-2.3,3.3-4,4.3-1.7,1.1-3.7,1.6-5.9,1.6h-11ZM340.9,53.3h3.1c1.4,0,2.6-.4,3.5-1.1s1.7-1.7,2.2-3c.5-1.3.8-2.7.8-4.3v-.5c0-1.6-.3-3.1-.8-4.4-.5-1.3-1.2-2.2-2.2-3-1-.7-2.1-1.1-3.5-1.1h-3.1v17.3Z"/>
                    </g>
                  </g>
                </g>
              </g>
              <g class="st5">
                <g class="st5">
                  <g class="st5">
                    <g class="st5">
                      <path class="st4" d="M359.5,57.1v-3l2.4-.5v-11.5l-2.7-.5v-3h7.3l.2,2.3v.4c.5-1,1.1-1.8,1.7-2.3.7-.5,1.5-.8,2.4-.8s.6,0,1,0,.7.1.9.2l-.5,4.6h-2.5c-.7-.2-1.3,0-1.7.2-.4.3-.8.7-1.2,1.2v9.1l2.4.5v3h-9.8Z"/>
                    </g>
                  </g>
                </g>
              </g>
              <g class="st5">
                <g class="st5">
                  <g class="st5">
                    <g class="st5">
                      <path class="st4" d="M374.5,57.1v-3l2.4-.5v-11.5l-2.7-.5v-3h7.7v15l2.4.5v3h-9.8ZM376.8,34.6v-4.3h5.2v4.3h-5.2Z"/>
                      <path class="st4" d="M392.9,57.1l-5.6-15.2-2-.3v-3h9v3l-2,.3,2.8,8.4.4,1.4h.1l.5-1.4,3.1-8.4-2.3-.4v-3h9v3l-2.1.3-5.9,15.2h-5.1Z"/>
                      <path class="st4" d="M407.2,57.1v-3l2.4-.5v-11.5l-2.7-.5v-3h7.7v15l2.4.5v3h-9.8ZM409.5,34.6v-4.3h5.2v4.3h-5.2Z"/>
                    </g>
                  </g>
                </g>
              </g>
              <g class="st5">
                <g class="st5">
                  <g class="st5">
                    <g class="st5">
                      <path class="st4" d="M418.9,57.1v-3l2.4-.5v-11.5l-2.7-.5v-3h7.3l.2,2.7c.6-.9,1.4-1.7,2.3-2.2s1.9-.8,3.1-.8c1.8,0,3.3.6,4.3,1.8s1.6,3,1.6,5.5v8.1l2.4.5v3h-9.6v-3l2.1-.5v-8.1c0-1.2-.2-2.1-.7-2.6-.5-.5-1.2-.8-2.2-.8s-1.3.2-1.9.5-1,.7-1.3,1.3v9.7l2,.5v3h-9.4Z"/>
                    </g>
                  </g>
                </g>
              </g>
              <g class="st5">
                <g class="st5">
                  <g class="st5">
                    <g class="st5">
                      <path class="st4" d="M449.3,64.6c-.9,0-2-.1-3.2-.4-1.2-.2-2.2-.6-3.1-1l.9-3.6c.8.3,1.6.6,2.5.8.9.2,1.7.3,2.5.3,1.3,0,2.3-.4,2.9-1.1.6-.7.9-1.8.9-3.1v-1.2c-.5.7-1.2,1.2-1.9,1.6s-1.6.5-2.6.5c-1.5,0-2.8-.4-3.9-1.1-1.1-.8-1.9-1.8-2.5-3.2-.6-1.4-.9-3-.9-4.8v-.4c0-2,.3-3.7.9-5.1.6-1.5,1.4-2.6,2.5-3.4,1.1-.8,2.3-1.2,3.8-1.2s2.1.2,2.9.7c.8.5,1.5,1.1,2,2l.4-2.3h4.4v18c0,1.6-.3,3.1-1,4.3-.7,1.2-1.7,2.1-3,2.8-1.3.7-2.8,1-4.6,1ZM449.8,53.6c.7,0,1.3-.1,1.8-.4s.9-.7,1.3-1.2v-8.1c-.3-.6-.7-1-1.3-1.3s-1.1-.5-1.8-.5-1.6.2-2.1.7-.9,1.2-1.2,2.1c-.3.9-.4,1.9-.4,3.1v.4c0,1.6.3,2.9.8,3.8.6.9,1.5,1.4,2.8,1.4ZM457.3,42.2l-2.2-3.6h5v3l-2.8.6Z"/>
                      <path class="st4" d="M466.2,50c0-.8,0-1.5.2-2.1.1-.6.3-1.1.5-1.5.2-.4.6-.9,1-1.3.4-.4,1-.9,1.7-1.4.6-.5,1.1-1,1.5-1.5.4-.5.7-1,.9-1.6.2-.5.3-1.1.3-1.7,0-1-.3-1.8-.8-2.3-.5-.6-1.3-.8-2.3-.8s-1.5.2-2.1.7-.9,1.1-.9,2.1h-4.9c0-1.5.3-2.7,1-3.7s1.6-1.7,2.8-2.3c1.2-.5,2.6-.8,4.1-.8,2.5,0,4.5.6,6,1.9,1.4,1.3,2.2,3,2.2,5.1s-.2,1.9-.6,2.8c-.4.8-.9,1.6-1.6,2.4s-1.5,1.5-2.3,2.2c-.4.4-.8.7-1,1.1-.2.3-.4.7-.4,1.2s-.1,1-.1,1.6h-5ZM466.2,57.1v-4.4h5v4.4h-5Z"/>
                    </g>
                  </g>
                </g>
              </g>
            </g>
          </g>
          <g>
            <g class="st5">
              <g class="st5">
                <g class="st5">
                  <g class="st5">
                    <g class="st5">
                      <g class="st5">
                        <path class="st7" d="M164.2,103.7v-3.8l3.4-.7v-22.4h-5.8l-.3,3.8h-4.8v-8.7h28.4v8.7h-4.8l-.3-3.8h-5.8v22.4l3.4.7v3.8h-13.2Z"/>
                      </g>
                    </g>
                  </g>
                </g>
                <g class="st5">
                  <g class="st5">
                    <g class="st5">
                      <g class="st5">
                        <path class="st7" d="M197.1,104.2c-2.3,0-4.2-.5-5.9-1.5-1.7-1-3-2.4-3.9-4.1s-1.4-3.7-1.4-6v-.9c0-2.3.4-4.4,1.3-6.2s2.1-3.2,3.7-4.3c1.6-1,3.5-1.5,5.6-1.5s3.9.4,5.4,1.3,2.6,2.1,3.3,3.6c.8,1.6,1.1,3.5,1.1,5.8v3.5h-13.9c0,1.2.3,2.1.8,2.9.4.8,1,1.4,1.8,1.9s1.7.7,2.9.7,2.3-.1,3.3-.4,2-.7,3-1.3l1.7,3.9c-1,.8-2.2,1.4-3.7,2-1.5.5-3.2.8-5.1.8ZM192.5,89.6h7.9v-.6c0-1-.1-1.8-.4-2.5-.3-.7-.7-1.2-1.2-1.6-.6-.4-1.3-.6-2.2-.6s-1.6.2-2.1.7c-.6.4-1,1.1-1.4,1.8-.3.8-.5,1.6-.7,2.6h0Z"/>
                        <path class="st7" d="M209,103.7v-3.8l3.1-.7v-25.1l-3.4-.7v-3.8h9.8v29.6l3.1.7v3.8h-12.5Z"/>
                        <path class="st7" d="M223.2,103.7v-3.8l3.1-.7v-25.1l-3.4-.7v-3.8h9.8v29.6l3.1.7v3.8h-12.5Z"/>
                        <path class="st7" d="M248.6,103.7v-3.8l3.4-.7v-22.8l-3.4-.7v-3.8h12.8l8.7,22.2h.1l8.4-22.2h12.8v3.8l-3.4.7v22.8l3.4.7v3.8h-13.2v-3.8l3.6-.7v-20.4c.1,0,0,0,0,0l-9.5,24.5h-4.8l-9.7-24.3h-.1s.4,13.5.4,13.5v6.7l3.8.7v3.8h-13.2Z"/>
                        <path class="st7" d="M300.4,113.2c-.6,0-1.1,0-1.8-.1-.6,0-1.2-.2-1.8-.4l.7-4.7c.3,0,.6.1.9.1.3,0,.6,0,.9,0,.9,0,1.7-.2,2.4-.7s1.2-1.2,1.5-2.1l.5-1.5-7.9-19.6-2.9-.4v-3.8h12.5v3.8l-2.9.4,3.7,10.4.5,1.3h.1l4.4-11.7-2.8-.4v-3.8h11.7v3.8l-2.7.4-9,22.9c-.4,1.1-1,2.1-1.7,3-.7.9-1.5,1.6-2.6,2.2-1,.6-2.3.8-3.8.8Z"/>
                      </g>
                    </g>
                  </g>
                </g>
              </g>
            </g>
            <path class="st9" d="M437.5,98.6c-.8,0-1.5.4-1.7,1.1-.5,1-.9,1.8-1.3,2.8v.7c0,.2,0,.4.2.5.3.8,1.1,1.4,1.8,1.4s1.6-.6,1.8-1.3c.4-.9.6-1.5,1.1-2.4,0,0,.1-.3.1-.4v-.4c0-1.1-1-1.9-1.9-1.9h-.1Z"/>
          </g>
        </g>
        <g>
          <polygon class="st6" points="231.8 130.8 236.7 142 248.8 143.2 239.7 151.3 242.3 163.3 231.8 157.1 221.2 163.3 223.9 151.3 214.7 143.2 226.9 142 231.8 130.8"/>
          <polygon class="st6" points="274.9 130.8 279.8 142 292 143.2 282.8 151.3 285.5 163.3 274.9 157.1 264.4 163.3 267 151.3 257.8 143.2 270 142 274.9 130.8"/>
          <polygon class="st6" points="318 130.8 322.9 142 335.1 143.2 326 151.3 328.6 163.3 318 157.1 307.5 163.3 310.1 151.3 301 143.2 313.2 142 318 130.8"/>
          <polygon class="st6" points="361.2 130.8 366.1 142 378.2 143.2 369.1 151.3 371.7 163.3 361.2 157.1 350.6 163.3 353.3 151.3 344.1 143.2 356.3 142 361.2 130.8"/>
          <polygon class="st6" points="404.3 130.8 409.2 142 421.4 143.2 412.2 151.3 414.9 163.3 404.3 157.1 393.8 163.3 396.4 151.3 387.2 143.2 399.4 142 404.3 130.8"/>
        </g>
        <g class="st5">
          <g class="st5">
            <g class="st5">
              <g class="st5">
                <g class="st5">
                  <g class="st5">
                    <path class="st8" d="M287.4,185.6c-.6,0-1.2,0-1.8-.2s-1.1-.4-1.6-.8v-2.1h1.4l.2,1.3c.2.2.4.3.8.4s.7.1,1,.1.6,0,.8-.1c.2,0,.4-.2.5-.4.1-.2.2-.4.2-.6s0-.4-.2-.6c-.1-.2-.3-.3-.5-.4-.2-.1-.6-.3-1-.4-.7-.2-1.3-.4-1.7-.7-.5-.2-.8-.5-1-.9-.2-.3-.3-.8-.3-1.2s.1-.9.4-1.3c.3-.4.6-.7,1.1-.9s1-.3,1.6-.3c.7,0,1.3,0,1.8.2.5.2,1,.4,1.4.7v2h-1.3l-.2-1.2c-.2,0-.4-.2-.6-.3-.3,0-.6-.1-.9-.1s-.5,0-.7.1-.4.2-.5.4c-.1.2-.2.4-.2.6s0,.4.2.5.3.3.5.4c.3.1.6.3,1.1.4,1,.3,1.7.6,2.2,1.1.5.4.8,1,.8,1.8s-.1.9-.4,1.3c-.3.4-.6.6-1.1.8-.5.2-1.1.3-1.7.3Z"/>
                    <path class="st8" d="M294.5,185.6c-.6,0-1.2-.1-1.6-.4-.5-.3-.8-.7-1.1-1.2-.2-.5-.4-1.1-.4-1.7v-.2c0-.6.1-1.2.4-1.7.2-.5.6-.9,1.1-1.2.5-.3,1-.4,1.6-.4s1.1,0,1.5.3c.4.2.8.4,1,.6v1.9h-1.3l-.2-1.2c0,0-.2-.2-.4-.2s-.3,0-.5,0c-.3,0-.6,0-.8.2-.2.2-.4.4-.5.7s-.2.7-.2,1.1v.2c0,.4,0,.8.2,1.1.1.3.3.5.5.6.2.1.4.2.7.2s.6,0,.7-.2c.2-.2.3-.4.4-.7h1.5c0,.5-.2.9-.4,1.2-.2.3-.5.6-.9.8-.4.2-.8.3-1.4.3Z"/>
                    <path class="st8" d="M300.2,185.6c-.6,0-1.2-.2-1.5-.5-.4-.3-.6-.8-.6-1.4s.2-1.1.8-1.5,1.2-.6,2.2-.6h.9v-.5c0-.3,0-.6-.3-.8-.2-.2-.5-.3-.8-.3s-.4,0-.5,0c-.1,0-.3.1-.4.2v.9h-1.4v-1.7c.3-.2.7-.4,1.1-.5.4-.1.8-.2,1.3-.2.9,0,1.5.2,2,.6s.7,1,.7,1.7v2.7c0,0,0,.2,0,.3,0,0,0,.2,0,.3h.7v1.2h-2.2c0-.1,0-.2-.1-.4,0-.1,0-.3,0-.4-.2.3-.5.5-.7.6-.3.2-.6.2-1,.2ZM300.6,184.3c.2,0,.5,0,.7-.2.2-.1.4-.3.5-.4v-1h-.9c-.4,0-.7,0-.9.3s-.3.4-.3.6,0,.4.2.5c.1.1.4.2.6.2Z"/>
                    <path class="st8" d="M304.9,185.5v-1.1l.8-.2v-4.1l-.9-.2v-1.1h2.6v.9c.3-.3.6-.6.9-.8s.7-.3,1.1-.3c.6,0,1.2.2,1.5.6.4.4.6,1.1.6,2v2.9l.8.2v1.1h-3.4v-1.1l.8-.2v-2.8c0-.4,0-.8-.3-.9-.2-.2-.4-.3-.8-.3s-.5,0-.7.2c-.2.1-.3.3-.5.5v3.4l.7.2v1.1h-3.3Z"/>
                  </g>
                </g>
              </g>
            </g>
            <g class="st5">
              <g class="st5">
                <g class="st5">
                  <g class="st5">
                    <path class="st8" d="M318.5,185.6c-.6,0-1.1-.2-1.4-.5s-.5-.9-.5-1.6v-3.3h-.9v-1.2h.9v-1.6h1.8v1.6h1.2v1.2h-1.2v3.3c0,.3,0,.4.2.5.1.1.3.2.4.2s.2,0,.3,0c.1,0,.2,0,.3,0l.2,1.3c-.2,0-.4,0-.6.1-.2,0-.4,0-.6,0Z"/>
                  </g>
                </g>
              </g>
            </g>
            <g class="st5">
              <g class="st5">
                <g class="st5">
                  <g class="st5">
                    <path class="st8" d="M323.3,185.6c-.6,0-1.2-.1-1.7-.4-.5-.3-.8-.7-1.1-1.2-.2-.5-.4-1.1-.4-1.7h0c0-.8.1-1.4.4-1.9.2-.5.6-.9,1.1-1.2.5-.3,1-.4,1.7-.4s1.2.1,1.7.4c.5.3.8.7,1.1,1.2.2.5.4,1.1.4,1.7h0c0,.8-.1,1.4-.4,1.9-.2.5-.6.9-1.1,1.2-.5.3-1,.4-1.7.4ZM323.3,184.3c.3,0,.6,0,.8-.2.2-.2.3-.4.4-.7,0-.3.1-.6.1-1h0c0-.5,0-.9-.1-1.2,0-.3-.2-.5-.4-.7-.2-.2-.4-.3-.8-.3s-.6,0-.8.3c-.2.2-.3.4-.4.7s-.1.6-.1,1h0c0,.5,0,.9.1,1.2,0,.3.2.5.4.7.2.2.5.2.8.2Z"/>
                  </g>
                </g>
              </g>
            </g>
            <g class="st5">
              <g class="st5">
                <g class="st5">
                  <g class="st5">
                    <path class="st8" d="M332.3,185.5v-1.1l.9-.2v-6.2h-1.6v1.1h-1.4v-2.4h7.9v2.4h-1.3v-1.1h-1.7v6.2l1,.2v1.1h-3.7Z"/>
                  </g>
                </g>
              </g>
            </g>
            <g class="st5">
              <g class="st5">
                <g class="st5">
                  <g class="st5">
                    <path class="st8" d="M341.3,185.6c-.6,0-1.2-.1-1.6-.4-.5-.3-.8-.7-1.1-1.1s-.4-1-.4-1.7v-.2c0-.6.1-1.2.4-1.7.2-.5.6-.9,1-1.2.4-.3,1-.4,1.6-.4s1.1.1,1.5.4c.4.2.7.6.9,1,.2.4.3,1,.3,1.6v1h-3.9c0,.3,0,.6.2.8.1.2.3.4.5.5.2.1.5.2.8.2s.6,0,.9-.1c.3,0,.6-.2.8-.4l.5,1.1c-.3.2-.6.4-1,.5s-.9.2-1.4.2ZM340.1,181.6h2.2v-.2c0-.3,0-.5-.1-.7,0-.2-.2-.3-.3-.4-.2-.1-.4-.2-.6-.2s-.4,0-.6.2c-.2.1-.3.3-.4.5s-.2.5-.2.7h0Z"/>
                    <path class="st8" d="M344.6,185.5v-1.1l.9-.2v-7l-.9-.2v-1.1h2.7v8.2l.9.2v1.1h-3.5Z"/>
                    <path class="st8" d="M348.6,185.5v-1.1l.9-.2v-7l-.9-.2v-1.1h2.7v8.2l.9.2v1.1h-3.5Z"/>
                  </g>
                </g>
              </g>
            </g>
          </g>
        </g>
      </g>
      <g>
        <path class="st8" d="M125,113.4c.4-3.6,4.9-13.2,12.4-9.5,6.5,3.2,6.4,15.7,2.8,23.6-1.8,4-8.6,10.5-14.8,4.2"/>
        <path class="st1" d="M136.3,109.4c-7.8-2.8-10.7,8.6-10.4,13.4"/>
        <path class="st1" d="M131.7,126.1c1.7-4.8-.9-13.6-4.1-11.9"/>
        <path class="st8" d="M28,141.2c-4.8,7.3-12.7,2.3-15.3-1.3-5-7.1-7.5-19.3-1.8-23.7,6.7-5.1,13.5,1.8,14.7,11.9"/>
        <path class="st1" d="M13.1,121.4c7.1-4.3,12.2,6.3,12.8,11.1"/>
        <path class="st1" d="M20.4,136.9c-2.6-4.4-1.1-13.4,2.3-12.4"/>
        <path class="st8" d="M126.7,113.2c3.6-22.3-2.4-54.1-17.4-67.4-19.3-17-53.9-17.3-72.7,0-20.8,19-20.1,50.8-12.6,78.6l.4,3.9c3.2,32.9,23.6,57.8,57.1,54.5s48.5-36.6,45.3-69.5"/>
        <path d="M127.6,109.5c.4,8.8-10.9,23.1-21.3,26.4-14.5,4.6-20.1-5.1-29.9-4.1h-.5c-9.7,1-12.9,11.5-28,9.8-10.9-1.2-24.7-13.1-26-21.8,0,0,1.7,70.1,60.3,64.4,56.3-5.5,45.5-74.7,45.5-74.7h0Z"/>
        <path class="st2" d="M65.2,150c5.7,6.6,18.9,5.7,23.9-2.3"/>
        <path d="M53.9,112.9c.3,3-1.3,5.6-3.5,5.8s-4.3-2-4.6-5.1,1.3-5.6,3.5-5.9c2.2-.2,4.3,2,4.6,5.1h0Z"/>
        <path d="M100.8,108.3c.3,3-1.3,5.6-3.5,5.8s-4.3-2-4.6-5.1,1.3-5.6,3.5-5.9c2.2-.2,4.3,2,4.6,5.1h0Z"/>
        <path d="M35.8,95.4c5.5-.9,11.1-1.3,16.6-1.3s.7.9,0,1c-5.5.8-11.1,1.3-16.6,1.3s-.7-.9,0-1h0Z"/>
        <path d="M104.1,89.8c-5.5,1.1-11,1.7-16.6,2-.6,0-.7-.9,0-1,5.5-1.1,11-1.8,16.6-2,.6,0,.7.9,0,1h0Z"/>
        <path class="st3" d="M71.3,89.4c.8,8.2,12.6,24.3,9.4,30-2.8,4.8-8.9,1.3-12.9,6"/>
      </g>
    </g>
  </g>
  <path class="st9" d="M359.8,67.9c-7,0-.3,0-.4,0-11,.2-21.9,8.5-27.4,16.2-1.3,1.6-2,2.7-2.6,3.8-.4.7-.4,1.4-.4,1.9v.2h0c.2,1,1.2,1.6,2.1,1.6h.3c1.4-.4,2.1-2.1,3-4.2.1-.3.3-.6.4-.9,5.6-7.5,15.5-15,25.1-15s7.7,1,7.7,4.7-4.6,9.5-11.6,13.6c-1.8-.4-3.9-.5-6.2-.4,4.3-6.7,8-11.6,10.2-13.5h0c.4-.5.5-.8.5-1.5,0-1-.9-1.9-1.9-1.9s-.8.2-1,.3h-.2c-3.5,2.8-8.7,10.6-12.6,16.9-5,.9-7.3,2.7-7,5.2.1.8.6,2,2.5,2.6-.5.9-1,1.8-1.4,2.6-.4.7-.7,1.4-1.1,2-5.4,1.4-9.8,5.5-9.8,9.1s-.2,1-.5,1.5c-.3.8-.8,1.7-.2,2.6.7,1.1,2.5,1.7,9.7,1.7,13.8,0,27.4-9.2,27.4-18.5s-1.5-5.7-4.4-7.3c5.7-4.1,11-10.2,11-15.1h0c0-5.2-4.4-8.4-11.4-8.4h.2ZM330.9,89.6c0-.3,0-.4.2-.7.3-.6.6-1.1,1.2-2-.4.9-1,2.3-1.4,2.7h0ZM330.2,113.4h0ZM360.8,98.8h.1c0,7.3-12.2,14.9-23.7,14.9s-5.4-.8-5.4-2.1,1.5-3.2,4-4.4v.3c0,1.1,1,1.9,1.9,1.9s1.5-.4,1.7-1.3c.2-.5.6-1.3,1-2.2,1.9-.3,3.9-.4,6-.2,1,0,1.9-.9,1.9-1.9s-.7-1.9-1.7-1.9c-1.4-.2-2.8-.3-4.2-.2.5-1,1.1-2,1.8-3.1l.2-.4h.4c3.3-.4,7.4-1.9,11.5-4.2,2.1.6,4.5,1.8,4.5,4.8h0Z"/>
  <path class="st9" d="M454.7,69.5h-.3c-.5,0-1,.3-1.4.7-2.4,3.1-11,17.1-14.2,23.2v-.5c0-1-.9-1.9-1.9-1.9s-.4,0-.6,0-.3,0-.5.2c-3.1,2.1-7.4,4.1-11.9,6.3l-4.4,2.2c-1.6.8-3,1.5-4.3,2.1.7-3.5,1.3-6.3,2-8.3h0c.8-2.4,1.6-3.7,2.7-3.7s1.2.2,2.2,1.3c.4.6.8.7,1.5.7,1,0,1.9-.9,1.9-1.9s-.2-1-.4-1.3c-.2-.3-.3-.5-.4-.8-.5-1.5-1.4-1.9-4.6-1.9s-4.6,1.9-5.9,5.3c-3.1,2-7.2,4-11.6,6.2l-4.4,2.2c-1.6.8-3,1.5-4.3,2.2.7-3.4,1.3-6.2,1.9-8.2.3-.3.4-.7.4-1,.7-1.8,1.4-2.8,2.4-2.8s1.2.2,2.2,1.3c.4.6.8.7,1.5.7,1,0,1.9-.9,1.9-1.9s-.2-1-.4-1.3c-.2-.3-.3-.5-.4-.8-.5-1.5-1.4-1.9-4.6-1.9s-4.6,1.9-5.9,5.3c-1.3,1.8-6.2,6.9-12,7.3,1.4-2.3,2.3-4.9,2.3-6.9,0-3-1.7-4.8-4.5-4.8s-4.5,1.5-5.6,3.8h-.3c-.3,0-.6.3-.9.6-2.6,2.5-4.4,6.2-4.4,9.4v.2c0,2.5,1.9,4.3,4.4,4.3s4.3-1.5,5.9-3h2.5c4.2,0,7.9-1.9,10.7-3.9-.3,1.3-.6,2.6-.9,4l-.4,1.7c-5.9,3.3-8.3,5.6-8.4,8.4,0,0-.1.3-.1.4v.6c0,.6,0,1.4.5,2.1.6.6,1.5.9,3.2.9,4.8,0,6.9-5.1,8.1-9.7,2.8-1.5,6-3.1,9.6-4.9l1.1-.5c3.1-1.5,6.3-3.1,9.1-4.6-.4,1.7-.8,3.6-1.3,5.7l-.4,1.7c-5.9,3.3-8.3,5.6-8.4,8.4v1c0,.6-.1,1.4.5,2.1.6.6,1.5.9,3.2.9,4.8,0,6.9-5.1,8.1-9.7,2.8-1.5,6-3.1,9.6-4.9l1.1-.5c4.7-2.3,9.5-4.6,13-6.9.1,0,.3-.2.5-.4h0v.3c0,.2-.2.4-.2.6,0,1.1,1,1.9,1.9,1.9s1.2-.4,1.6-.9h0c2.7-5.7,11.6-20,14.2-23.3.5-.3.5-.9.5-1.3,0-1-.9-1.9-1.9-1.9h-.1ZM371.8,101.9h-.7v-.8c0-1.4.5-3,1.4-4.5.3,1.6,1,2.9,2,3.9-1.1.9-2.1,1.4-2.7,1.4h0ZM377.9,100.1c-.3,0-.5,0-.8,0h0c.3,0,.6,0,.8-.4v.3ZM379.4,91.4v.4h-.1c0,1.7-.9,4-2.3,5.9-.6-.5-1-1.4-1-3.2s1.1-3.7,2.6-3.7.7,0,.8.6ZM385.1,112.8h0c0-.8,1-1.8,3.3-3.3-.8,1.8-1.8,3.3-3.2,3.3h0ZM406.6,112.8h0c0-.8,1-1.8,3.3-3.3-.8,1.8-1.8,3.3-3.2,3.3h0Z"/>
</svg>