<?xml version="1.0" encoding="UTF-8"?>
<svg id="Layer_2" xmlns="http://www.w3.org/2000/svg" xmlns:xlink="http://www.w3.org/1999/xlink" version="1.1" viewBox="0 0 720 216">
  <!-- Generator: Adobe Illustrator 30.1.0, SVG Export Plug-In . SVG Version: 2.1.1 Build 136)  -->
  <defs>
    <style>
      .st0, .st1 {
        fill: none;
      }

      .st2 {
        isolation: isolate;
      }

      .st3 {
        stroke: #ffd500;
      }

      .st3, .st4, .st1, .st5 {
        stroke-miterlimit: 10;
      }

      .st3, .st6 {
        fill: #fdd600;
      }

      .st4, .st1 {
        stroke: #000;
        stroke-width: .5px;
      }

      .st7 {
        fill: #fff;
      }

      .st5 {
        stroke: #fff;
      }

      .st8 {
        fill: #2a2a2a;
      }

      .st9 {
        fill: #171814;
      }

      .st10 {
        clip-path: url(#clippath);
      }
    </style>
    <clipPath id="clippath">
      <rect class="st0" x="-18" y="-18" width="756" height="252"/>
    </clipPath>
  </defs>
  <g id="Layer_1-2">
    <g>
      <g class="st10">
        <g>
          <rect class="st8" x="-18" y="-18" width="756" height="252"/>
          <rect class="st3" x="460.9" y="-18" width="277.1" height="252"/>
          <g>
            <g>
              <path class="st9" d="M604.3,130.4s3,15.8,4.2,22.3l1.3-3.3,59.3.4s8.3-14.5-5.7-31-35.3-10.4-35.3-10.4c0,0-17.1.3-23.7,22.1h0q0,0,0,0h0Z"/>
              <path class="st9" d="M885.4,151.1l-4.8-4.7-56.1,2.9-8.6-2s-4.8-42,36.7-42.4c0,0,41.5,2.1,32.8,46.1h0q0,.1,0,.1Z"/>
            </g>
            <g>
              <g>
                <g>
                  <path class="st9" d="M823.1,140.7c0,16.3,13.2,29.4,29.4,29.4s29.4-13.2,29.4-29.4-13.2-29.4-29.4-29.4-29.4,13.2-29.4,29.4ZM830.6,140.7c0-12.2,9.9-22,22-22s22,9.9,22,22-9.9,22-22,22-22-9.9-22-22Z"/>
                  <g>
                    <path class="st7" d="M830.6,140.7c0,12.2,9.9,22,22,22s22-9.9,22-22-9.9-22-22-22-22,9.9-22,22Z"/>
                    <g>
                      <circle class="st4" cx="852.6" cy="140.7" r="8.6"/>
                      <circle class="st1" cx="852.6" cy="140.7" r="5.7"/>
                    </g>
                  </g>
                </g>
                <g>
                  <path class="st9" d="M608.5,140.7c0,16.3,13.2,29.4,29.4,29.4s29.4-13.2,29.4-29.4-13.2-29.4-29.4-29.4-29.4,13.2-29.4,29.4ZM615.9,140.7c0-12.2,9.9-22,22-22s22,9.9,22,22-9.9,22-22,22-22-9.9-22-22Z"/>
                  <g>
                    <circle class="st9" cx="637.9" cy="140.7" r="22"/>
                    <g>
                      <path class="st7" d="M615.9,140.7c0,12.2,9.9,22,22,22s22-9.9,22-22-9.9-22-22-22-22,9.9-22,22Z"/>
                      <g>
                        <circle class="st4" cx="637.9" cy="140.7" r="8.6"/>
                        <circle class="st1" cx="637.9" cy="140.7" r="5.7"/>
                      </g>
                    </g>
                  </g>
                </g>
              </g>
              <g>
                <g>
                  <g>
                    <path d="M612.9,89.7c2.3-3.4,5-3.6,6.2-3.4-1.1,2.3-4,7.3-11.2,16.4-.5-2.1,1.9-8.4,5-13Z"/>
                    <path d="M612.9,89.7c1.4-2.1,3.6-3.8,6.3-3.5v.2c-1.4,3.1-3.2,5.9-5,8.7-1.9,2.8-3.9,5.4-6.1,7.9,0,.2-.4.2-.6,0-.5-1.1,0-2.7.4-3.9,1.2-3.4,2.9-6.5,4.8-9.5h0c0,0,.2.1.2.1ZM612.9,89.7c-1.9,2.9-3.4,6.2-4.3,9.6-.3,1.1-.5,2.3-.3,3.3h-.7c3.4-4.9,8.6-11.3,11.4-16.4v.2c-2.4-.5-4.8,1.2-6.1,3.3h0Z"/>
                  </g>
                  <path class="st7" d="M607.9,102.7c7.2-9.1,10.1-14.2,11.2-16.4h.6-.6c.5-1,.6-1.5.6-1.5,15-20.3,32.3-38.6,44.6-43.4,12.9-5,73.2-14.9,104.4-4.1h-1,1.3c31.1,11,62.6,36.7,62.6,36.7h12.4c.4.3.7.4.7.4,0,0-.2-.2-.7-.4h4.3c45,6.8,50.9,21,50.9,21l5.9,4.1c3.4,6.3,4,13.9,4,13.9l2,1.9s1.5,2.4,1.7,7.6c.3,5.2-2.9,4.6-2.9,4.6l.7,10.1c4.4,2.1.9,6.3.9,6.3-4,3-26.3,7.3-26.3,7.3.2-3.7-.5-12.6-.5-12.6-1.1-17.6-15.8-31.5-33.7-31.5s-33.7,15.1-33.7,33.7v10.3c-50.7-1.1-148.4-1.3-148.4-1.3.8-2.9,1.3-5.9,1.3-9,0-17.9-14.5-32.4-32.4-32.4s-24.9,8.1-29.8,19.7l-.9,2.4h-2.9c-1.7-20,3.6-27.7,3.6-27.7v.2h.1Z"/>
                </g>
                <g>
                  <path class="st1" d="M912.8,141.4s-14.4,1.8-22.5,1.9c0,0-.3-37.9-37.8-39.9-37.9-2.1-41.6,36.9-40.9,40.6l-87-.9s-24.2,2-29.9-16.3c-5.7-18.2-3.8-36.5-2.9-42.8,0,0,.9-6.8,3.4-11.2"/>
                  <g>
                    <g>
                      <path d="M819.4,74.9c-5.2-.5-13.2-.9-22.8-1.3l.7-14.9c10.9,7.3,22.1,16.2,22.1,16.2Z"/>
                      <path class="st5" d="M733.3,38.5c26.8.5,39.1,5,52.8,12.9,3.1,1.8,6.6,4,10.1,6.4l-.8,16.4c-25-1-60.1-1.9-89.5-2.4l3.1-32.6c7.6-.6,15.8-.9,24.2-.7h.1Z"/>
                      <path class="st5" d="M672.6,47.3c5.1-3.3,16.3-6,30.1-7.5-1.2,4.7-5.1,21-6.8,31.8-25.5-.5-44.5-.7-44.5-.7.5-1.5,12.6-18.1,21.2-23.6Z"/>
                      <path class="st7" d="M708.9,39.8l-3,31.4c-3.3,0-6.6,0-9.8-.2,1.6-10.4,5.4-26.1,6.5-30.6,2-.2,4.1-.4,6.2-.6h0Z"/>
                    </g>
                    <g>
                      <rect x="701.3" y="87.6" width="16.7" height="6.9" rx="3.4" ry="3.4"/>
                      <path class="st9" d="M889,89.1s6.3-.5,11.5,9.1c5.2,9.5,1,8.9-1.7,7.5-2.8-1.5-17.1-14.7-9.8-16.5h0Z"/>
                    </g>
                  </g>
                </g>
              </g>
            </g>
          </g>
        </g>
      </g>
      <rect class="st7" x="390.8" y="9" width="198" height="198"/>
      <g>
        <g>
          <path class="st7" d="M96.7,81.7v-4.9l3.6-.8v-23.6l-3.6-.8v-5h15.4v5l-3.3.8v23.6l3.3.8v4.9h-15.4ZM106.6,74.1l-4.3-4.9,17.5-17.2h0l-4-.3v-5h16.4v5l-3.3.7-22.3,21.8h0s0,0,0,0h0ZM116.5,81.7v-4.9l3.5-.3h0l-8.4-11.5,5.9-5.2,12.3,16.4,3.6.6v4.9s-16.9,0-16.9,0Z"/>
          <path class="st7" d="M134.5,81.7v-4.9l3.6-.8v-23.6l-3.6-.8v-5h28v10.1h-6.4l-.2-3.6h-9.3v7.2h11.2v6.5h-11.2v8.3h9.8l.2-3.8h6.3v10.3h-28.4q0,0,0,0Z"/>
          <path class="st7" d="M166,81.7v-4.9l3.6-.8v-23.6l-3.6-.8v-5h28v10.1h-6.4l-.2-3.6h-9.3v7.2h11.2v6.5h-11.2v8.3h9.8l.2-3.8h6.3v10.3h-28.4q0,0,0,0Z"/>
          <path class="st7" d="M197.5,81.7v-4.9l3.6-.8v-23.6l-3.6-.8v-5h17c2.8,0,5.2.5,7.3,1.5s3.6,2.3,4.8,4.1c1.1,1.7,1.7,3.8,1.7,6.1s-.6,4.3-1.7,6.1c-1.1,1.7-2.7,3.1-4.8,4-2.1,1-4.5,1.4-7.3,1.4h-5v6.2l3.6.8v4.9h-15.7.1,0ZM209.6,63.4h5c1.7,0,3-.5,3.9-1.4s1.3-2.1,1.3-3.6-.4-2.8-1.3-3.8c-.9-1-2.2-1.5-3.9-1.5h-5v10.3Z"/>
          <path class="st7" d="M229.8,81.7v-4.9l3.6-.8v-23.6l-3.6-.8v-5h15.7v5l-3.6.8v23.6l3.6.8v4.9h-15.7Z"/>
          <path class="st7" d="M247.4,81.7v-4.9l3.6-.8v-23.6l-3.6-.8v-5h12.2l14.1,22.4h.1v-16.7l-4.6-.8v-5h15.7v5l-3.6.8v29.3h-8.3l-14.3-21.9h-.1v16.2l4.6.8v4.9h-15.8Z"/>
          <path class="st7" d="M302.8,82.2c-3.6,0-6.7-.7-9.2-2.1s-4.4-3.4-5.7-5.9c-1.3-2.5-2-5.4-2-8.7v-1.6c0-3.5.7-6.6,1.9-9.2,1.3-2.7,3.2-4.7,5.7-6.3,2.5-1.5,5.5-2.3,9-2.3s4.8.4,7.2,1.1c2.4.7,4.5,1.9,6.4,3.5v8.2h-6l-1.3-4.5c-.5-.6-1.3-1-2.3-1.4s-2.1-.6-3.4-.6c-1.9,0-3.5.5-4.8,1.4-1.3,1-2.3,2.3-2.9,4-.7,1.7-1,3.7-1,5.9v1.6c0,2.1.3,4,1,5.5.7,1.6,1.7,2.8,3,3.6,1.3.9,2.9,1.3,4.9,1.3s2,0,3-.3c1-.2,1.8-.4,2.3-.7v-4.5l-3.9-.5v-5.8h12.4v14.5c-1.9,1.2-4,2.1-6.4,2.7s-5,.9-7.7.9c0,0-.2.2-.2.2Z"/>
          <path class="st7" d="M39.7,128.7v-4.9l3.6-.8v-23.6l-3.6-.8v-5h17.2c2.8,0,5.2.4,7.2,1.3,2,.9,3.6,2.1,4.7,3.8,1.1,1.6,1.7,3.6,1.7,5.8s-.6,4-1.7,5.7c-1.1,1.8-2.6,3.2-4.6,4.2-1.9,1.1-4.2,1.6-6.6,1.6h-5.8v6.9l3.6.8v4.9h-15.7q0,0,0,0h0ZM51.8,109.6h5.2c1.6,0,2.9-.4,3.8-1.1.9-.8,1.3-1.9,1.3-3.3s-.4-2.7-1.3-3.6-2.2-1.4-3.9-1.4h-5.1v9.4ZM61.9,128.7l-4.7-13.7,7.3-2.5,4.3,10.4,3.3.8v4.9h-10.2q0,.1,0,0Z"/>
          <path class="st7" d="M91.1,129.2c-2.4,0-4.6-.4-6.7-1.3s-3.8-2.1-5.3-3.7-2.6-3.5-3.5-5.6c-.8-2.2-1.2-4.5-1.2-7v-.6c0-2.5.4-4.9,1.2-7,.8-2.1,2-4,3.4-5.6,1.5-1.6,3.2-2.9,5.3-3.8s4.2-1.3,6.7-1.3,4.6.4,6.6,1.3,3.8,2.2,5.4,3.8c1.5,1.6,2.7,3.5,3.6,5.6.9,2.2,1.3,4.5,1.3,7v.6c0,2.5-.4,4.9-1.3,7-.8,2.2-2,4-3.6,5.6-1.5,1.6-3.3,2.9-5.3,3.7-2,.8-4.2,1.3-6.6,1.3ZM91.1,122.8c1.8,0,3.3-.5,4.5-1.4,1.3-.9,2.2-2.3,2.9-4,.7-1.7,1-3.7,1-6v-.6c0-2.2-.3-4.2-1-5.9-.7-1.7-1.6-3-2.9-4-1.3-.9-2.8-1.4-4.5-1.4s-3.4.5-4.6,1.4-2.1,2.2-2.7,3.9c-.6,1.7-.9,3.7-.9,5.9v.6c0,2.3.3,4.3.9,6s1.5,3,2.7,4c1.2.9,2.7,1.4,4.6,1.4h0Z"/>
          <path class="st7" d="M108.4,128.7v-4.9l2.5-.4,10.4-29.7h9.1l10.5,29.7,2.5.4v4.9h-13.1v-4.9l2.3-.4-1.1-3.8h-11.3l-1,3.8,2.3.4v4.9h-13.1ZM122.1,113.7h7.7l-3.4-10.6-.4-1.2h0l-.4,1.3-3.3,10.5s0,0,0,0Z"/>
          <path class="st7" d="M144.9,128.7v-4.9l3.7-.9v-23.3l-3.7-.9v-5h16.4c3.2,0,6,.7,8.4,2.2s4.3,3.5,5.7,6.1,2.1,5.6,2.1,9v.6c0,3.4-.7,6.4-2.1,9s-3.3,4.6-5.7,6.1-5.2,2.2-8.4,2.2h-16.4v-.2h0ZM157,122.3h3.8c1.8,0,3.3-.4,4.5-1.3s2.1-2.2,2.7-3.8c.6-1.6.9-3.5.9-5.7v-.6c0-2.2-.3-4.1-.9-5.7-.6-1.6-1.5-2.9-2.7-3.8s-2.7-1.3-4.5-1.3h-3.8v22.2h0Z"/>
          <path class="st7" d="M195.6,129.2c-2.9,0-5.4-.3-7.6-.8-2.2-.5-4.4-1.6-6.6-3.1v-9.1h6.5l.7,4.7c.5.6,1.4,1.1,2.7,1.5s2.7.6,4.3.6,2,0,2.7-.4,1.3-.7,1.6-1.2.6-1.1.6-1.9-.2-1.3-.5-1.9-.9-1.1-1.7-1.6-1.8-1-3.2-1.5c-3-1-5.5-1.9-7.4-2.9s-3.4-2.2-4.3-3.5c-.9-1.4-1.4-3.1-1.4-5.1s.6-3.6,1.7-5.1c1.1-1.5,2.6-2.6,4.6-3.4,1.9-.8,4.2-1.3,6.7-1.3s5.4.2,7.6.9c2.2.6,4.1,1.6,5.8,2.9v8.4h-6.3l-1-4.7c-.5-.3-1.3-.5-2.3-.7s-2.1-.3-3.2-.3-1.8,0-2.6.4-1.4.6-1.8,1.2-.7,1.2-.7,1.9.2,1.2.6,1.7c.4.5,1,1,1.9,1.5s2.2,1.1,3.9,1.7c4,1.2,7,2.6,9.1,4.4s3.1,4.1,3.1,7.2-.6,3.8-1.7,5.3c-1.1,1.5-2.7,2.6-4.7,3.3s-4.3,1.1-7,1.1v-.2h-.1Z"/>
          <path class="st7" d="M238.2,129.2c-2.9,0-5.4-.3-7.6-.8-2.2-.5-4.4-1.6-6.6-3.1v-9.1h6.5l.7,4.7c.5.6,1.4,1.1,2.7,1.5s2.7.6,4.3.6,2,0,2.7-.4,1.3-.7,1.6-1.2.6-1.1.6-1.9-.2-1.3-.5-1.9-.9-1.1-1.7-1.6-1.8-1-3.2-1.5c-3-1-5.5-1.9-7.4-2.9s-3.4-2.2-4.3-3.5c-.9-1.4-1.4-3.1-1.4-5.1s.6-3.6,1.7-5.1c1.1-1.5,2.6-2.6,4.6-3.4,1.9-.8,4.2-1.3,6.7-1.3s5.4.2,7.6.9c2.2.6,4.1,1.6,5.8,2.9v8.4h-6.3l-1-4.7c-.5-.3-1.3-.5-2.3-.7s-2.1-.3-3.2-.3-1.8,0-2.6.4-1.4.6-1.8,1.2-.7,1.2-.7,1.9.2,1.2.6,1.7c.4.5,1,1,1.9,1.5s2.2,1.1,3.9,1.7c4,1.2,7,2.6,9.1,4.4s3.1,4.1,3.1,7.2-.6,3.8-1.7,5.3-2.7,2.6-4.7,3.3-4.3,1.1-7,1.1v-.2q0,0,0,0h-.1Z"/>
          <path class="st7" d="M253.1,128.7v-4.9l2.5-.4,10.4-29.7h9.1l10.5,29.7,2.5.4v4.9h-13.1v-4.9l2.3-.4-1.1-3.8h-11.3l-1,3.8,2.3.4v4.9h-13.1,0ZM266.7,113.7h7.7l-3.4-10.6-.4-1.2h-.1l-.4,1.3-3.3,10.5h-.1Z"/>
          <path class="st7" d="M289.6,128.7v-4.9l3.6-.8v-23.6l-3.6-.8v-5h28.8v10.3h-6.4l-.2-3.8h-10.2v8.1h11.9v6.4h-11.9v8.3l3.6.8v4.9h-15.7.1q0,.1,0,.1Z"/>
          <path class="st7" d="M320.1,128.7v-4.9l3.6-.8v-23.6l-3.6-.8v-5h28v10.1h-6.4l-.2-3.6h-9.3v7.2h11.2v6.5h-11.2v8.3h9.8l.2-3.8h6.3v10.3h-28.4Z"/>
          <path class="st7" d="M353.5,128.7v-7h8.4v7h-8.4Z"/>
        </g>
        <g class="st2">
          <g class="st2">
            <g class="st2">
              <g class="st2">
                <path class="st6" d="M78.5,167.6v-2.8l2.5-.5v-16.6l-2.5-.5v-2.8h10.9c1.8,0,3.3.3,4.6.8s2.2,1.3,2.9,2.4c.7,1,1,2.3,1,3.7s-.3,2.6-1,3.6c-.7,1.1-1.6,1.9-2.8,2.5-1.2.6-2.6.9-4.2.9h-4.4v5.9l2.5.5v2.8h-9.6ZM85.6,154.9h3.8c1.3,0,2.3-.3,3-.8.7-.6,1-1.4,1-2.5s-.3-1.9-1-2.6c-.7-.6-1.6-1-2.9-1h-3.9v6.8ZM93.4,167.6l-3.9-10,4.2-1,3.4,7.8,2,.5v2.8h-5.6Z"/>
              </g>
            </g>
            <g class="st2">
              <g class="st2">
                <path class="st6" d="M106.8,167.9c-1.7,0-3.1-.5-4.1-1.4-1-.9-1.5-2.2-1.5-3.7s.7-2.9,2-3.9c1.3-1,3.2-1.5,5.8-1.5h2.3v-1.3c0-.8-.2-1.5-.7-2-.5-.5-1.2-.8-2.2-.8s-.9,0-1.3.2c-.4.1-.8.3-1.1.5l-.4,2.3h-3.3v-4.5c.8-.5,1.8-.9,2.9-1.2,1-.3,2.2-.5,3.5-.5,2.2,0,4,.5,5.3,1.6,1.3,1,2,2.5,2,4.5v7.1c0,.2,0,.5,0,.7s0,.4,0,.7l1.8.3v2.8h-5.7c-.1-.3-.2-.6-.3-1-.1-.3-.2-.7-.3-1-.5.7-1.2,1.3-1.9,1.7-.7.4-1.6.6-2.6.6ZM108.1,164.5c.6,0,1.3-.1,1.8-.4.6-.3,1-.7,1.3-1.2v-2.7h-2.3c-1,0-1.8.2-2.3.7-.5.5-.8,1-.8,1.7s.2,1.1.6,1.4c.4.3.9.5,1.6.5Z"/>
              </g>
            </g>
            <g class="st2">
              <g class="st2">
                <path class="st6" d="M125.4,167.9c-1.6,0-2.8-.4-3.7-1.3-.9-.9-1.3-2.3-1.3-4.2v-8.8h-2.4v-3.3h2.4v-4.2h4.6v4.2h3.2v3.3h-3.2v8.7c0,.7.1,1.1.4,1.4.3.3.7.4,1.2.4s.5,0,.8,0,.5,0,.8-.1l.4,3.3c-.5.1-1,.3-1.5.3-.6,0-1.1.1-1.6.1Z"/>
              </g>
            </g>
            <g class="st2">
              <g class="st2">
                <path class="st6" d="M138.2,167.9c-1.6,0-3.1-.4-4.3-1.1-1.2-.7-2.2-1.7-2.8-3s-1-2.7-1-4.3v-.6c0-1.7.3-3.2,1-4.5s1.5-2.4,2.7-3.1c1.2-.8,2.5-1.1,4.1-1.1s2.9.3,3.9.9c1.1.6,1.9,1.5,2.4,2.7.5,1.2.8,2.5.8,4.2v2.5h-10.1c0,.8.3,1.5.6,2.1.3.6.8,1,1.3,1.4.6.3,1.3.5,2.1.5s1.6-.1,2.4-.3c.7-.2,1.5-.5,2.2-1l1.3,2.9c-.7.6-1.6,1-2.7,1.4-1.1.4-2.3.6-3.7.6ZM134.9,157.3h5.7v-.4c0-.7,0-1.3-.3-1.8-.2-.5-.5-.9-.9-1.2-.4-.3-.9-.4-1.6-.4s-1.1.2-1.6.5c-.4.3-.8.8-1,1.3-.2.6-.4,1.2-.5,1.9h0Z"/>
                <path class="st6" d="M160.3,167.6v-2.8l2.5-.5v-16.3h-4.2l-.3,2.8h-3.5v-6.3h20.6v6.3h-3.5l-.3-2.8h-4.2v16.3l2.5.5v2.8h-9.6Z"/>
                <path class="st6" d="M176.9,167.6v-2.8l2.2-.5v-18.2l-2.5-.5v-2.8h7.1v9.8c.5-.8,1.2-1.4,2-1.8.8-.4,1.7-.7,2.7-.7,1.7,0,3.1.6,4.1,1.7,1,1.1,1.5,2.9,1.5,5.3v7.2l2.2.5v2.8h-8.9v-2.8l2-.5v-7.2c0-1.2-.2-2.1-.7-2.6-.5-.5-1.1-.8-2-.8s-1.2.1-1.7.4c-.5.3-.9.6-1.3,1.1v9.1l2,.5v2.8h-8.9Z"/>
                <path class="st6" d="M197.6,167.6v-2.8l2.2-.5v-10.6l-2.5-.5v-2.8h7.1v13.9l2.2.5v2.8h-9.1ZM199.7,146.8v-4h4.8v4h-4.8Z"/>
                <path class="st6" d="M215.6,167.9c-1.3,0-2.5-.1-3.6-.4-1.1-.2-2.2-.6-3.2-1v-4.9s3.2,0,3.2,0l.6,2.5c.4.2.8.3,1.2.4.4.1.9.2,1.5.2,1,0,1.8-.2,2.2-.5.4-.3.6-.8.6-1.3s-.2-.9-.7-1.3-1.3-.7-2.7-1c-2-.4-3.5-1.1-4.5-2-1-.9-1.4-2-1.4-3.4s.2-1.8.7-2.6,1.2-1.4,2.2-1.9c1-.5,2.3-.7,3.8-.7s2.5.1,3.5.4,2,.6,2.7,1v4.7s-3.2,0-3.2,0l-.5-2.3c-.3-.2-.6-.4-1-.5-.4-.1-.8-.2-1.3-.2-.8,0-1.4.2-1.9.5-.4.3-.7.8-.7,1.3s0,.6.2.8.5.5.9.7c.5.2,1.1.4,2,.6,2.1.5,3.7,1.1,4.6,1.9,1,.8,1.5,1.9,1.5,3.4s-.6,2.9-1.7,3.9c-1.2,1-2.9,1.5-5.2,1.5Z"/>
                <path class="st6" d="M232.5,167.6v-2.8l2.5-.5v-16.5l-2.5-.5v-2.8h10.1c2.1,0,3.9.5,5.5,1.5,1.6,1,2.8,2.3,3.7,4,.9,1.7,1.3,3.7,1.3,5.9v.4c0,2.2-.4,4.1-1.3,5.8-.9,1.7-2.1,3-3.7,4-1.6,1-3.4,1.5-5.4,1.5h-10.2ZM239.7,164.1h2.8c1.3,0,2.4-.3,3.3-1,.9-.7,1.6-1.6,2-2.8.5-1.2.7-2.5.7-4v-.4c0-1.5-.2-2.9-.7-4-.5-1.2-1.2-2.1-2-2.7s-2-1-3.3-1h-2.8v16Z"/>
              </g>
            </g>
            <g class="st2">
              <g class="st2">
                <path class="st6" d="M255.9,167.6v-2.8l2.2-.5v-10.6l-2.5-.5v-2.8h6.8l.2,2.1v.4c.5-.9,1-1.6,1.6-2.1.6-.5,1.4-.7,2.2-.7s.6,0,.9,0c.3,0,.6.1.9.2l-.5,4.3h-2.3c-.7-.2-1.2,0-1.6.2-.4.3-.8.6-1.1,1.1v8.4l2.2.5v2.8h-9.1Z"/>
              </g>
            </g>
            <g class="st2">
              <g class="st2">
                <path class="st6" d="M270,167.6v-2.8l2.2-.5v-10.6l-2.5-.5v-2.8h7.1v13.9l2.2.5v2.8h-9.1ZM272,146.8v-4h4.8v4h-4.8Z"/>
              </g>
            </g>
            <g class="st2">
              <g class="st2">
                <path class="st6" d="M287,167.6l-5.2-14.1-1.9-.3v-2.8h8.3v2.8l-1.8.3,2.6,7.8.4,1.3h0l.4-1.3,2.8-7.8-2.1-.3v-2.8h8.3v2.8l-1.9.3-5.4,14.1h-4.7Z"/>
              </g>
            </g>
            <g class="st2">
              <g class="st2">
                <path class="st6" d="M308.5,167.9c-1.6,0-3.1-.4-4.3-1.1-1.2-.7-2.2-1.7-2.8-3s-1-2.7-1-4.3v-.6c0-1.7.3-3.2,1-4.5s1.5-2.4,2.7-3.1c1.2-.8,2.5-1.1,4.1-1.1s2.9.3,3.9.9c1.1.6,1.9,1.5,2.4,2.7.5,1.2.8,2.5.8,4.2v2.5h-10.1c0,.8.3,1.5.6,2.1.3.6.8,1,1.3,1.4.6.3,1.3.5,2.1.5s1.6-.1,2.4-.3c.7-.2,1.5-.5,2.2-1l1.3,2.9c-.7.6-1.6,1-2.7,1.4-1.1.4-2.3.6-3.7.6ZM305.2,157.3h5.7v-.4c0-.7,0-1.3-.3-1.8-.2-.5-.5-.9-.9-1.2-.4-.3-.9-.4-1.6-.4s-1.1.2-1.6.5c-.4.3-.8.8-1,1.3-.2.6-.4,1.2-.5,1.9h0Z"/>
              </g>
            </g>
            <g class="st2">
              <g class="st2">
                <path class="st6" d="M317.8,167.6v-2.8l2.2-.5v-10.6l-2.5-.5v-2.8h6.8l.2,2.1v.4c.5-.9,1-1.6,1.6-2.1.6-.5,1.4-.7,2.2-.7s.6,0,.9,0c.3,0,.6.1.9.2l-.5,4.3h-2.3c-.7-.2-1.2,0-1.6.2-.4.3-.8.6-1.1,1.1v8.4l2.2.5v2.8h-9.1Z"/>
              </g>
            </g>
            <g class="st2">
              <g class="st2">
                <path class="st6" d="M329.8,167.6v-4.1h4.6v4.1h-4.6Z"/>
              </g>
            </g>
          </g>
        </g>
      </g>
      <g class="st2">
        <g class="st2">
          <g class="st2">
            <g class="st2">
              <path class="st8" d="M610.8,199.1c-.9,0-1.7-.1-2.4-.3-.7-.2-1.5-.5-2.2-1v-2.9h1.9l.3,1.7c.3.2.6.4,1,.5.4.1.9.2,1.4.2s.8,0,1.1-.2c.3-.1.5-.3.7-.5.2-.2.2-.5.2-.8s0-.5-.2-.8-.4-.4-.7-.6c-.3-.2-.8-.4-1.3-.5-1-.3-1.8-.6-2.4-.9s-1.1-.7-1.4-1.2c-.3-.5-.5-1-.5-1.7s.2-1.2.5-1.7c.4-.5.9-.9,1.5-1.2s1.4-.4,2.2-.5c.9,0,1.8.1,2.5.3.7.2,1.3.6,1.9,1v2.7h-1.8l-.3-1.7c-.2-.1-.5-.3-.9-.4-.4-.1-.8-.2-1.2-.2s-.7,0-1,.2c-.3.1-.5.3-.7.5-.2.2-.3.5-.3.8s0,.5.2.7c.2.2.4.4.8.6.4.2.8.4,1.5.6,1.3.4,2.4.9,3.1,1.5.7.6,1,1.4,1,2.4s-.2,1.3-.6,1.8-.9.9-1.6,1.2c-.7.3-1.5.4-2.4.4Z"/>
              <path class="st8" d="M620.6,199.1c-.9,0-1.6-.2-2.2-.6s-1.1-.9-1.5-1.6-.5-1.5-.5-2.4v-.2c0-.9.2-1.7.5-2.4.3-.7.8-1.2,1.5-1.6s1.4-.6,2.2-.6,1.5.1,2.1.4c.6.3,1.1.5,1.4.9v2.6h-1.9l-.3-1.6c-.1-.1-.3-.2-.5-.3-.2,0-.4-.1-.6-.1-.4,0-.8.1-1.1.3-.3.2-.5.5-.7,1-.1.4-.2.9-.2,1.5v.2c0,.6,0,1.1.2,1.5.2.4.4.7.6.9.3.2.6.3.9.3s.8-.1,1-.3.4-.5.5-1h2.1c0,.7-.3,1.2-.6,1.7s-.7.8-1.2,1.1c-.5.2-1.2.4-1.9.4Z"/>
              <path class="st8" d="M628.4,199.1c-.9,0-1.6-.2-2.1-.7-.5-.5-.8-1.1-.8-2s.3-1.5,1-2.1c.7-.5,1.7-.8,3-.8h1.2v-.7c0-.4-.1-.8-.4-1.1-.3-.3-.6-.4-1.1-.4s-.5,0-.7,0c-.2,0-.4.2-.6.3l-.2,1.2h-1.8v-2.3c.4-.3,1-.5,1.5-.7s1.2-.2,1.8-.2c1.2,0,2.1.3,2.8.8.7.5,1,1.3,1,2.4v3.7c0,.1,0,.2,0,.4,0,.1,0,.2,0,.3h.9v1.6h-3c0-.2-.1-.3-.2-.5,0-.2-.1-.4-.1-.5-.3.4-.6.7-1,.9-.4.2-.9.3-1.4.3ZM629,197.3c.3,0,.7,0,1-.2.3-.2.5-.4.7-.6v-1.4h-1.2c-.5,0-.9.1-1.2.4s-.4.5-.4.9.1.6.3.7c.2.2.5.3.8.3Z"/>
              <path class="st8" d="M634.9,198.9v-1.5l1.2-.3v-5.6l-1.3-.2v-1.5h3.6v1.3c.4-.5.8-.8,1.2-1.1s.9-.4,1.5-.4c.9,0,1.6.3,2.1.9.5.6.8,1.5.8,2.7v3.9l1.2.3v1.5h-4.7v-1.5l1-.3v-3.9c0-.6-.1-1-.4-1.3-.2-.3-.6-.4-1.1-.4s-.7,0-.9.2-.5.4-.6.6v4.7l1,.3v1.5h-4.6Z"/>
            </g>
          </g>
          <g class="st2">
            <g class="st2">
              <path class="st8" d="M653.7,199.1c-.8,0-1.5-.2-1.9-.7-.5-.5-.7-1.2-.7-2.2v-4.6h-1.2v-1.7h1.2v-2.2h2.4v2.2h1.7v1.7h-1.7v4.6c0,.4,0,.6.2.8.1.2.3.2.6.2s.3,0,.4,0,.3,0,.4,0l.2,1.8c-.2,0-.5.1-.8.2-.3,0-.6,0-.9,0Z"/>
            </g>
          </g>
          <g class="st2">
            <g class="st2">
              <path class="st8" d="M660.3,199.1c-.9,0-1.7-.2-2.3-.6s-1.1-.9-1.5-1.6-.5-1.5-.5-2.4v-.2c0-.9.2-1.7.5-2.4s.8-1.2,1.5-1.6,1.4-.6,2.3-.6,1.7.2,2.3.6c.6.4,1.1.9,1.5,1.6.3.7.5,1.5.5,2.4v.2c0,.9-.2,1.7-.5,2.4-.3.7-.8,1.2-1.5,1.6-.6.4-1.4.6-2.3.6ZM660.3,197.2c.4,0,.8-.1,1-.3.3-.2.5-.5.6-1,.1-.4.2-.9.2-1.4v-.2c0-.5,0-1-.2-1.4-.1-.4-.3-.7-.6-1-.3-.2-.6-.3-1-.3s-.8.1-1,.3c-.3.2-.5.6-.6,1s-.2.9-.2,1.4v.2c0,.5,0,1,.2,1.4s.3.7.6,1,.6.3,1.1.3Z"/>
              <path class="st8" d="M669.8,198.9v-1.5l1.3-.3v-8.7l-1.3-.2v-1.5h5.8c.9,0,1.7.1,2.4.4.7.3,1.2.7,1.5,1.2s.5,1.2.5,1.9-.2,1.3-.5,1.9c-.4.6-.9,1-1.5,1.3-.6.3-1.4.5-2.2.5h-2.3v3.1l1.3.3v1.5h-5ZM673.5,192.2h2c.7,0,1.2-.1,1.6-.4.3-.3.5-.7.5-1.3s-.2-1-.5-1.3-.9-.5-1.5-.5h-2v3.6ZM677.6,198.9l-2-5.3,2.2-.5,1.8,4.1,1,.2v1.5h-3Z"/>
            </g>
          </g>
          <g class="st2">
            <g class="st2">
              <path class="st8" d="M684.6,199.1c-.9,0-1.6-.2-2.1-.7-.5-.5-.8-1.1-.8-2s.3-1.5,1-2.1,1.7-.8,3-.8h1.2v-.7c0-.4-.1-.8-.4-1.1-.3-.3-.6-.4-1.1-.4s-.5,0-.7,0c-.2,0-.4.2-.6.3l-.2,1.2h-1.8v-2.3c.4-.3,1-.5,1.5-.7.6-.2,1.2-.2,1.8-.2,1.2,0,2.1.3,2.8.8.7.5,1,1.3,1,2.4v3.7c0,.1,0,.2,0,.4,0,.1,0,.2,0,.3h.9v1.6h-3c0-.2-.1-.3-.2-.5s-.1-.4-.1-.5c-.3.4-.6.7-1,.9s-.9.3-1.4.3ZM685.3,197.3c.3,0,.7,0,1-.2.3-.2.5-.4.7-.6v-1.4h-1.2c-.5,0-.9.1-1.2.4s-.4.5-.4.9.1.6.3.7c.2.2.5.3.8.3Z"/>
            </g>
          </g>
          <g class="st2">
            <g class="st2">
              <path class="st8" d="M694.5,199.1c-.8,0-1.5-.2-1.9-.7-.5-.5-.7-1.2-.7-2.2v-4.6h-1.2v-1.7h1.2v-2.2h2.4v2.2h1.7v1.7h-1.7v4.6c0,.4,0,.6.2.8s.3.2.6.2.3,0,.4,0,.3,0,.4,0l.2,1.8c-.3,0-.5.1-.8.2-.3,0-.6,0-.9,0Z"/>
            </g>
          </g>
          <g class="st2">
            <g class="st2">
              <path class="st8" d="M701.3,199.1c-.9,0-1.6-.2-2.3-.6s-1.1-.9-1.5-1.6c-.4-.7-.5-1.4-.5-2.3v-.3c0-.9.2-1.7.5-2.4.3-.7.8-1.2,1.4-1.6s1.3-.6,2.2-.6,1.5.2,2.1.5c.6.3,1,.8,1.3,1.4.3.6.4,1.3.4,2.2v1.3h-5.3c0,.4.1.8.3,1.1.2.3.4.6.7.7.3.2.7.3,1.1.3s.9,0,1.2-.2.8-.3,1.1-.5l.7,1.5c-.4.3-.8.5-1.4.7-.6.2-1.2.3-1.9.3ZM699.5,193.5h3v-.2c0-.4,0-.7-.1-.9,0-.3-.3-.5-.5-.6-.2-.1-.5-.2-.8-.2s-.6,0-.8.3c-.2.2-.4.4-.5.7-.1.3-.2.6-.3,1h0Z"/>
            </g>
          </g>
        </g>
      </g>
    </g>
  </g>
</svg>