<?xml version="1.0" encoding="UTF-8"?>
<svg id="Layer_2" xmlns="http://www.w3.org/2000/svg" xmlns:xlink="http://www.w3.org/1999/xlink" version="1.1" viewBox="0 0 720 216">
  <!-- Generator: Adobe Illustrator 30.1.0, SVG Export Plug-In . SVG Version: 2.1.1 Build 136)  -->
  <defs>
    <style>
      .st0, .st1 {
        fill: none;
      }

      .st2 {
        isolation: isolate;
      }

      .st3 {
        fill: #fdd600;
        stroke: #ffd500;
      }

      .st3, .st4, .st1, .st5 {
        stroke-miterlimit: 10;
      }

      .st6 {
        stroke-miterlimit: 10;
        stroke-width: .5px;
      }

      .st6, .st4, .st1 {
        stroke: #000;
      }

      .st4, .st1 {
        stroke-width: .5px;
      }

      .st7 {
        fill: #fff;
      }

      .st5 {
        stroke: #fff;
      }

      .st8 {
        fill: #2a2a2a;
      }

      .st9 {
        fill: #171814;
      }

      .st10 {
        clip-path: url(#clippath);
      }
    </style>
    <clipPath id="clippath">
      <rect class="st0" x="-18" y="-18" width="756" height="252"/>
    </clipPath>
  </defs>
  <g id="Layer_1-2">
    <g>
      <g class="st10">
        <g>
          <rect class="st3" x="-18" y="-18" width="756" height="252"/>
          <g>
            <g>
              <path class="st9" d="M-118.9,137.1s3,15.8,4.2,22.3l1.3-3.3,59.3.4s8.3-14.5-5.7-31-35.3-10.4-35.3-10.4c0,0-17.1.3-23.7,22.1h0c0-.1,0,0,0,0Z"/>
              <path class="st9" d="M162.2,157.7l-4.8-4.7-56.1,2.9-8.6-2s-4.8-42,36.7-42.4c0,0,41.5,2.1,32.8,46.1h0Z"/>
            </g>
            <g>
              <g>
                <g>
                  <path class="st9" d="M100,147.4c0,16.3,13.2,29.4,29.4,29.4s29.4-13.2,29.4-29.4-13.2-29.4-29.4-29.4-29.4,13.2-29.4,29.4h0ZM107.4,147.4c0-12.2,9.9-22,22-22s22,9.9,22,22-9.9,22-22,22-22-9.9-22-22h0Z"/>
                  <g>
                    <path class="st7" d="M107.4,147.4c0,12.2,9.9,22,22,22s22-9.9,22-22-9.9-22-22-22-22,9.9-22,22h0Z"/>
                    <g>
                      <circle class="st6" cx="129.4" cy="147.3" r="8.6"/>
                      <circle class="st1" cx="129.4" cy="147.4" r="5.7"/>
                    </g>
                  </g>
                </g>
                <g>
                  <path class="st9" d="M-114.7,147.4c0,16.3,13.2,29.4,29.4,29.4s29.4-13.2,29.4-29.4-13.2-29.4-29.4-29.4-29.4,13.2-29.4,29.4ZM-107.3,147.4c0-12.2,9.9-22,22-22s22,9.9,22,22-9.9,22-22,22-22-9.9-22-22Z"/>
                  <g>
                    <circle class="st9" cx="-85.2" cy="147.4" r="22"/>
                    <g>
                      <path class="st7" d="M-107.3,147.4c0,12.2,9.9,22,22,22s22-9.9,22-22-9.9-22-22-22-22,9.9-22,22Z"/>
                      <g>
                        <circle class="st4" cx="-85.2" cy="147.4" r="8.6"/>
                        <circle class="st1" cx="-85.2" cy="147.4" r="5.7"/>
                      </g>
                    </g>
                  </g>
                </g>
              </g>
              <g>
                <g>
                  <g>
                    <path d="M-110.3,96.4c2.3-3.4,5-3.6,6.2-3.4-1.1,2.3-4,7.3-11.2,16.4-.5-2.1,1.9-8.4,5-13Z"/>
                    <path d="M-110.3,96.4c1.4-2.1,3.6-3.8,6.3-3.5,0,0,0,0,0,.2-1.4,3.1-3.2,5.9-5,8.7-1.9,2.8-3.9,5.4-6.1,7.9,0,.2-.4.2-.6,0-.5-1.1,0-2.7.4-3.9,1.2-3.4,2.9-6.5,4.8-9.5h0s0,0,0,0h0ZM-110.3,96.4c-1.9,2.9-3.4,6.2-4.3,9.6-.3,1.1-.5,2.3-.3,3.3h-.7c3.4-4.9,8.6-11.3,11.4-16.4v.2c-2.4-.5-4.8,1.2-6.1,3.3h0Z"/>
                  </g>
                  <path class="st7" d="M-115.2,109.4c7.2-9.1,10.1-14.2,11.2-16.4.4,0,.6,0,.6,0,0,0-.2,0-.6,0,.5-1,.6-1.5.6-1.5,15-20.3,32.3-38.6,44.6-43.4,12.9-5,73.2-14.9,104.4-4.1h-1,1.3c31.1,11,62.6,36.7,62.6,36.7h12.4c.4.3.7.4.7.4,0,0-.2-.2-.7-.4h4.3c45,6.8,50.9,21,50.9,21l5.9,4.1c3.4,6.3,4,13.9,4,13.9l2,1.9s1.5,2.4,1.7,7.6c.3,5.2-2.9,4.6-2.9,4.6l.7,10.1c4.4,2.1.9,6.3.9,6.3-4,3-26.3,7.3-26.3,7.3.2-3.7-.5-12.6-.5-12.6-1.1-17.6-15.8-31.5-33.7-31.5s-33.7,15.1-33.7,33.7v10.3c-50.7-1.1-148.4-1.3-148.4-1.3.8-2.9,1.3-5.9,1.3-9,0-17.9-14.5-32.4-32.4-32.4s-24.9,8.1-29.8,19.7l-.9,2.4h-2.9c-1.7-20,3.6-27.7,3.6-27.7v.2h.1Z"/>
                </g>
                <g>
                  <path class="st1" d="M189.7,148s-14.4,1.8-22.5,1.9c0,0-.3-37.9-37.8-39.9-37.9-2.1-41.6,36.9-40.9,40.6l-87-.9s-24.2,2-29.9-16.3c-5.7-18.2-3.8-36.5-2.9-42.8,0,0,.9-6.8,3.4-11.2"/>
                  <g>
                    <g>
                      <path d="M96.3,81.6c-5.2-.5-13.2-.9-22.8-1.3l.7-14.9c10.9,7.3,22.1,16.2,22.1,16.2Z"/>
                      <path class="st5" d="M10.2,45.2c26.8.5,39.1,5,52.8,12.9,3.1,1.8,6.6,4,10.1,6.4l-.8,16.4c-25-1-60.1-1.9-89.5-2.4l3.1-32.6c7.6-.6,15.8-.9,24.2-.7h.1Z"/>
                      <path class="st5" d="M-50.5,54c5.1-3.3,16.3-6,30.1-7.5-1.2,4.7-5.1,21-6.8,31.8-25.5-.5-44.5-.7-44.5-.7.5-1.5,12.6-18.1,21.2-23.6Z"/>
                      <path class="st7" d="M-14.2,46.5l-3,31.4c-3.3,0-6.6,0-9.8-.2,1.6-10.4,5.4-26.1,6.5-30.6,2-.2,4.1-.4,6.2-.6h.1Z"/>
                    </g>
                    <g>
                      <rect x="-21.9" y="94.2" width="16.7" height="6.9"/>
                      <path class="st9" d="M165.9,95.8s6.3-.5,11.5,9.1c5.2,9.5,1,8.9-1.7,7.5-2.8-1.5-17.1-14.7-9.8-16.5h0Z"/>
                    </g>
                  </g>
                </g>
              </g>
            </g>
          </g>
          <circle class="st8" cx="711.9" cy="108" r="161.4"/>
          <ellipse cx="36.8" cy="178.4" rx="152.8" ry="5.7"/>
          <g>
            <polygon class="st8" points="436.9 -12.3 450.9 -34.4 464.6 -12.1 486.8 -25.9 489.4 .1 515.4 -2.7 506.5 21.9 531.2 30.6 512.5 48.9 530.9 67.5 506.1 75.9 514.7 100.6 488.7 97.4 485.7 123.4 463.7 109.2 449.7 131.3 436 109 413.8 122.8 411.1 96.8 385.1 99.6 394 75 369.4 66.3 388 48 369.6 29.4 394.4 21 385.9 -3.7 411.8 -.5 414.9 -26.5 436.9 -12.3"/>
            <g>
              <path class="st7" d="M429.1,49.9c-1,.2-1.9.3-2.8.3s-1.8-.3-2.7-.6l-.7-3.3,2.1-.5.7,1.9c.3.2.8.3,1.3.3h1.7c.5,0,.9-.3,1.2-.5s.5-.5.6-.8,0-.6,0-1-.2-.6-.4-.8c-.2-.2-.5-.4-.9-.5s-.9-.2-1.6-.3c-1.1,0-2.1-.2-2.9-.5-.8-.2-1.4-.6-1.9-1s-.8-1-.9-1.8c-.2-.7,0-1.4.2-2.1s.8-1.2,1.4-1.7c.7-.5,1.4-.8,2.4-1.1,1-.2,2-.3,2.9-.2.9,0,1.6.3,2.3.6l.7,3.1-2,.5-.8-1.8c-.3,0-.6-.2-1-.2h-1.4c-.4,0-.8.2-1.1.5-.3.2-.5.5-.7.7,0,.3-.2.6,0,1,0,.3.2.6.4.7.2.2.5.3,1,.5.4,0,1,.2,1.8.3,1.6,0,2.9.4,3.8.9s1.5,1.3,1.8,2.4c.2.8,0,1.5-.2,2.1-.3.7-.8,1.2-1.5,1.7s-1.5.8-2.5,1l-.3.2h0Z"/>
              <path class="st7" d="M441.6,47.1c-1.3.3-2.5.3-3.6,0s-2-1-2.8-1.8c-.8-.9-1.3-2-1.6-3.4v-.5c-.4-1.3-.4-2.5,0-3.7.3-1.1.8-2.1,1.7-2.9.8-.8,1.9-1.3,3.2-1.6.9-.2,1.8-.3,2.7-.2.9,0,1.7.3,2.4.7l.7,3.3-2,.4-.7-2c-.2,0-.5-.2-.8-.2h-1.7c-.8.2-1.4.5-1.9,1s-.8,1.1-.9,1.9,0,1.6,0,2.6v.5c.3,1,.7,1.7,1.1,2.4.5.6,1,1.1,1.7,1.3s1.4.3,2.2,0c.4,0,.8-.2,1.2-.4.4-.2.7-.4,1-.6v-2l1.9-.4.7,3.2c-.5.5-1,.9-1.8,1.3-.7.4-1.6.7-2.6.9h-.1v.2Z"/>
              <path class="st7" d="M447.3,45.6l-.4-1.6.9-.4,1.7-12.8,2.8-.6,6.9,10.9h1l.4,1.6-4.6,1-.4-1.6.9-.4-1-1.7-4.8,1.1-.2,2h1l.4,1.6-4.6,1h0ZM451,38.9l3.5-.8-2.6-4.3-.2-.4h0v.5l-.6,5h-.1,0Z"/>
              <path class="st7" d="M461.6,42.5l-.4-1.6,1.4-.6-2.2-9.8h-1.5l-.4-1.6,1.4-.3,2.8-.6,8,8.1h0l-1.7-7.5h-1.8l-.4-1.5,4.2-.9,1.5-.3.4,1.6-1.4.6,2.6,11.7-2.6.6-8.1-8h0l1.6,7.4h1.8l.4,1.5-5.6,1.2h0Z"/>
              <path class="st7" d="M405.3,76.1l-.4-1.6.9-.4,1.7-12.8,2.8-.6,6.9,10.9h1l.4,1.6-4.6,1-.4-1.6.9-.4-1-1.7-4.8,1.1-.2,2h1l.4,1.6-4.6,1h0q0,0,0,0ZM409,69.4l3.5-.8-2.6-4.3-.2-.4h0v.5l-.6,5h-.1,0Z"/>
              <path class="st7" d="M419.5,73l-.4-1.6,1.4-.6-2.2-9.8h-1.5l-.4-1.6,1.4-.3,2.8-.6,8,8.1h0l-1.7-7.5h-1.8l-.4-1.5,4.2-.9,1.5-.3.4,1.6-1.4.6,2.6,11.7-2.6.6-8.1-8h0l1.6,7.4h1.8l.4,1.5-5.6,1.2h0Z"/>
              <path class="st7" d="M434.5,69.7l-.4-1.6,1.4-.6-2.1-9.7h-1.5l-.4-1.6,1.5-.3,4.5-1c1.2-.3,2.3-.2,3.4,0s2,1,2.7,1.9,1.3,2,1.5,3.3v.3c.3,1.3.3,2.5,0,3.6s-.8,2.1-1.6,2.8c-.8.8-1.8,1.3-3,1.6l-6,1.3h0c0,0,0,0,0,0ZM438.2,66.7l1.7-.4c.8-.2,1.3-.5,1.8-1,.4-.5.7-1.1.8-1.9s0-1.6,0-2.5v-.3c-.3-.9-.6-1.7-1-2.3s-.9-1.1-1.6-1.4c-.6-.3-1.3-.3-2-.2l-1.7.4,2.1,9.4v.2h0Z"/>
              <path class="st7" d="M452.5,65.7l-.4-1.6,1.4-.6-2.2-9.8h-1.5l-.4-1.6,6.4-1.4c1-.2,2-.3,2.8,0,.8.2,1.5.5,2,1s.9,1.2,1.1,2,0,1.6,0,2.3c-.3.7-.7,1.3-1.3,1.9-.6.5-1.4.9-2.3,1.1l-2.6.6.8,3.5h1.5l.4,1.6-5.6,1.2h0v-.2ZM455,57.3l2.2-.5c.8-.2,1.3-.5,1.6-.9s.4-.9.3-1.6c0-.6-.4-1.1-.9-1.4s-1.1-.4-1.8-.2l-2.3.5.9,4h0ZM461.3,63.8l-3.6-5.4,2.3-1.1,3,4.1h1.2l.4,1.6-3.3.7h0s0,0,0,.1Z"/>
              <path class="st7" d="M465.5,62.8l-.4-1.6.9-.4,1.7-12.8,2.8-.6,6.9,10.9h1l.4,1.6-4.6,1-.4-1.6.9-.4-1-1.7-4.8,1.1-.2,2h1l.4,1.6-4.6,1h0ZM469.2,56.1l3.5-.8-2.6-4.3-.2-.4h0v.5l-.6,5h-.1,0Z"/>
              <path class="st7" d="M481.5,59.3l-.4-1.6,1.4-.6-2.1-9.6-2.5.5.2,1.7-2.1.5-.8-3.7,12.1-2.7.8,3.7-2.1.5-.5-1.6-2.5.5,2.1,9.6h1.5l.4,1.6-5.7,1.2h.2Z"/>
              <path class="st7" d="M491.4,57.2l-.4-1.6,1.4-.6-2.2-9.8h-1.5l-.4-1.6,10.6-2.3.8,3.7-2.1.5-.5-1.5-4.2.9.8,3.4,4.6-1,.5,2.1-4.6,1,.9,3.9,4.4-1-.2-1.7,2.1-.5.8,3.7-10.8,2.4h0Z"/>
            </g>
          </g>
        </g>
      </g>
      <rect class="st7" x="513" y="9" width="198" height="198"/>
      <g class="st2">
        <g class="st2">
          <g class="st2">
            <g class="st2">
              <path class="st8" d="M219.5,69.8v-2l1.7-.3v-11.7l-1.7-.3v-2h5.1l7.1,11.3h0v-9l-2.1-.3v-2h6.8v2l-1.8.3v14h-3.2l-7.3-11.2h0v8.9l2.1.3v2h-6.8Z"/>
              <path class="st8" d="M243.4,70c-1.2,0-2.2-.3-3-.8s-1.5-1.2-2-2.1c-.5-.9-.7-1.9-.7-3.1v-.4c0-1.2.2-2.3.7-3.2.4-.9,1.1-1.7,1.9-2.2.8-.5,1.8-.8,2.9-.8s2,.2,2.8.7,1.3,1.1,1.7,1.9c.4.8.6,1.8.6,3v1.8h-7.2c0,.6.2,1.1.4,1.5.2.4.5.7.9,1,.4.2.9.4,1.5.4s1.2,0,1.7-.2c.5-.2,1-.4,1.5-.7l.9,2c-.5.4-1.1.7-1.9,1-.8.3-1.6.4-2.6.4ZM241.1,62.5h4.1v-.3c0-.5,0-.9-.2-1.3-.1-.4-.3-.6-.6-.8-.3-.2-.7-.3-1.1-.3s-.8.1-1.1.3-.5.5-.7.9c-.2.4-.3.8-.3,1.3h0Z"/>
              <path class="st8" d="M253.7,69.8l-2.8-9.9-1.5-.3v-2h5.9v2l-1.3.2,1.1,4.7.2.9h0l.3-.9,2.5-6.9h2.2l2.4,7,.3,1h0l.3-1,1.3-4.8-1.4-.3v-2h5.8v2l-1.4.3-3.1,9.9h-2.8l-2.2-6-.4-1.3h0l-.4,1.3-2.2,6h-2.9Z"/>
              <path class="st8" d="M275.7,69.8v-2l1.8-.4v-11.7l-1.8-.4v-2h7.2c1.5,0,2.7.3,3.9,1,1.1.7,2,1.6,2.6,2.8.6,1.2.9,2.6.9,4.2v.3c0,1.5-.3,2.9-.9,4.1-.6,1.2-1.5,2.2-2.6,2.8s-2.4,1-3.9,1h-7.2ZM280.8,67.3h2c.9,0,1.7-.2,2.3-.7s1.1-1.1,1.4-2c.3-.8.5-1.8.5-2.8v-.3c0-1.1-.2-2-.5-2.9-.3-.8-.8-1.5-1.4-1.9s-1.4-.7-2.3-.7h-2v11.3Z"/>
            </g>
          </g>
          <g class="st2">
            <g class="st2">
              <path class="st8" d="M292.1,69.8v-2l1.6-.3v-7.5l-1.7-.3v-2h4.8v1.5c.1,0,.1.3.1.3.3-.7.7-1.2,1.1-1.5.4-.3,1-.5,1.6-.5s.4,0,.6,0c.2,0,.4,0,.6.1l-.3,3h-1.6c-.5-.1-.8,0-1.1.1-.3.2-.5.4-.8.8v6l1.6.3v2h-6.4Z"/>
            </g>
          </g>
          <g class="st2">
            <g class="st2">
              <path class="st8" d="M301.8,69.8v-2l1.6-.3v-7.5l-1.8-.3v-2h5v9.8l1.6.3v2h-6.4ZM303.3,55.1v-2.8h3.4v2.8h-3.4Z"/>
            </g>
          </g>
          <g class="st2">
            <g class="st2">
              <path class="st8" d="M313.9,69.8l-3.7-10-1.3-.2v-2h5.9v2l-1.3.2,1.8,5.5.3.9h0l.3-.9,2-5.5-1.5-.2v-2h5.9v2l-1.3.2-3.8,10h-3.3Z"/>
            </g>
          </g>
          <g class="st2">
            <g class="st2">
              <path class="st8" d="M328.9,70c-1.2,0-2.2-.3-3-.8s-1.5-1.2-2-2.1c-.5-.9-.7-1.9-.7-3.1v-.4c0-1.2.2-2.3.7-3.2.4-.9,1.1-1.7,1.9-2.2.8-.5,1.8-.8,2.9-.8s2,.2,2.8.7,1.3,1.1,1.7,1.9c.4.8.6,1.8.6,3v1.8h-7.2c0,.6.2,1.1.4,1.5.2.4.5.7.9,1,.4.2.9.4,1.5.4s1.2,0,1.7-.2c.5-.2,1-.4,1.5-.7l.9,2c-.5.4-1.1.7-1.9,1-.8.3-1.6.4-2.6.4ZM326.6,62.5h4.1v-.3c0-.5,0-.9-.2-1.3-.1-.4-.3-.6-.6-.8-.3-.2-.7-.3-1.1-.3s-.8.1-1.1.3-.5.5-.7.9c-.2.4-.3.8-.3,1.3h0Z"/>
            </g>
          </g>
          <g class="st2">
            <g class="st2">
              <path class="st8" d="M335.6,69.8v-2l1.6-.3v-7.5l-1.7-.3v-2h4.8v1.5c.1,0,.1.3.1.3.3-.7.7-1.2,1.1-1.5.4-.3,1-.5,1.6-.5s.4,0,.6,0c.2,0,.4,0,.6.1l-.3,3h-1.6c-.5-.1-.8,0-1.1.1-.3.2-.5.4-.8.8v6l1.6.3v2h-6.4Z"/>
            </g>
          </g>
          <g class="st2">
            <g class="st2">
              <path class="st8" d="M344,69.8v-2.9h3.3v2.9h-3.3Z"/>
            </g>
          </g>
        </g>
      </g>
      <g>
        <path class="st8" d="M238.1,124.7c-4,0-7.3-.8-10.1-2.3s-4.8-3.7-6.3-6.4c-1.4-2.8-2.2-5.9-2.2-9.6v-1.7c0-3.8.7-7.2,2.1-10.1,1.4-2.9,3.5-5.2,6.2-6.9s6-2.5,9.8-2.5,5.2.4,7.9,1.2c2.6.8,5,2.1,7,3.8v9h-6.6l-1.4-4.9c-.6-.6-1.4-1.1-2.5-1.5s-2.3-.6-3.7-.6c-2.1,0-3.9.5-5.3,1.6-1.4,1-2.5,2.5-3.2,4.4s-1.1,4-1.1,6.5v1.8c0,2.3.4,4.3,1.1,6s1.8,3,3.3,4c1.4.9,3.2,1.4,5.3,1.4s2.2,0,3.3-.3,1.9-.5,2.6-.8v-5l-4.3-.5v-6.4h13.6v15.9c-2.1,1.3-4.4,2.3-7,3s-5.4,1-8.5,1h0q0,0,0,0h0Z"/>
        <path class="st8" d="M270.5,124.7c-2.9,0-5.4-.6-7.5-1.8s-3.7-2.9-4.8-5.1-1.6-4.7-1.6-7.6v-.5c0-2.8.5-5.4,1.6-7.5,1.1-2.2,2.7-3.9,4.8-5.1s4.6-1.9,7.5-1.9,5.4.6,7.5,1.8,3.6,2.9,4.7,5.1,1.6,4.7,1.6,7.6v.5c0,2.9-.5,5.4-1.6,7.6s-2.7,3.9-4.7,5.1c-2.1,1.2-4.5,1.8-7.4,1.8h-.1ZM270.5,117.7c1.1,0,2-.3,2.7-.9s1.2-1.5,1.5-2.6.5-2.5.5-4v-.5c0-1.5-.2-2.8-.5-3.9s-.8-2-1.5-2.6-1.6-.9-2.7-.9-2,.3-2.7.9-1.2,1.5-1.5,2.6-.4,2.4-.4,3.9v.5c0,1.6.1,2.9.4,4s.8,2,1.5,2.6,1.6.9,2.8.9h-.1,0Z"/>
        <path class="st8" d="M299,124.7c-3,0-5.3-.8-6.8-2.4-1.6-1.6-2.3-4.1-2.3-7.6v-12.8h-3.6v-6.4h3.6v-7h9.2v7h4.7v6.4h-4.7v12.8c0,.9.2,1.6.6,2s1,.6,1.7.6h.9c.3,0,.6,0,.9,0l.6,6.9c-.8.2-1.6.4-2.4.5s-1.7.2-2.5.2h.1q0,0,0,0h0Z"/>
        <path class="st8" d="M219.9,174.1v-5.4l4-.8v-25.9l-4-.8v-5.4h31.6v11.3h-7l-.2-4.2h-11.2v8.9h13.1v7.1h-13.1v9.1l4,.8v5.4h-17.2q0-.1,0-.1Z"/>
        <path class="st8" d="M267.4,174.7c-2.8,0-5.2-.6-7.3-1.8-2.1-1.2-3.7-2.9-4.9-4.9-1.2-2.1-1.7-4.5-1.7-7.1v-1c0-2.9.5-5.5,1.5-7.7,1-2.2,2.5-4,4.5-5.2,2-1.3,4.4-1.9,7.3-1.9s4.8.5,6.6,1.5c1.8,1,3.1,2.5,4.1,4.4s1.4,4.3,1.4,7.1v4.8h-15.7v.2c.1.9.4,1.7.9,2.4s1.1,1.2,1.9,1.6c.8.4,1.8.6,3.1.6s2.4-.1,3.5-.4c1.2-.3,2.4-.7,3.7-1.3l2.1,5.6c-1.3.9-2.8,1.7-4.7,2.3s-3.9.9-6.2.9h-.1q0-.1,0-.1ZM263.1,157.1h7.3v-.7c0-1-.1-1.9-.3-2.6-.2-.7-.5-1.2-1-1.6-.5-.4-1.2-.5-2-.5s-1.7.2-2.2.7c-.6.4-1,1.1-1.2,1.8-.3.8-.4,1.7-.5,2.7h.1l-.2.2h0Z"/>
        <path class="st8" d="M295.8,174.7c-2.8,0-5.2-.6-7.3-1.8-2.1-1.2-3.7-2.9-4.9-4.9-1.2-2.1-1.7-4.5-1.7-7.1v-1c0-2.9.5-5.5,1.5-7.7s2.5-4,4.5-5.2c2-1.3,4.4-1.9,7.3-1.9s4.8.5,6.6,1.5c1.8,1,3.1,2.5,4.1,4.4s1.4,4.3,1.4,7.1v4.8h-15.7v.2c.1.9.4,1.7.9,2.4s1.1,1.2,1.9,1.6c.8.4,1.8.6,3.1.6s2.4-.1,3.5-.4c1.2-.3,2.4-.7,3.7-1.3l2.1,5.6c-1.3.9-2.8,1.7-4.7,2.3s-3.9.9-6.2.9h-.1q0-.1,0-.1ZM291.5,157.1h7.3v-.7c0-1-.1-1.9-.3-2.6-.2-.7-.5-1.2-1-1.6-.5-.4-1.2-.5-2-.5s-1.7.2-2.2.7c-.6.4-1,1.1-1.2,1.8-.3.8-.4,1.7-.5,2.7h.1l-.2.2h0Z"/>
        <path class="st8" d="M320.6,174.7c-2.2,0-4.2-.6-5.8-1.8-1.6-1.2-2.8-2.8-3.7-5-.9-2.1-1.3-4.6-1.3-7.5v-.6c0-3,.4-5.6,1.3-7.8s2.1-4,3.7-5.2,3.5-1.9,5.7-1.9,2.8.3,3.9.9c1.1.6,2.1,1.5,2.9,2.6v-9.4l-4-.8v-5.4h13.3v34.9l3.3.8v5.4h-11.3l-.7-3.5c-.9,1.3-1.9,2.4-3.1,3s-2.6,1-4.2,1v.3h0ZM323.5,167.6c.8,0,1.5-.1,2.2-.4.7-.3,1.2-.7,1.7-1.3v-11.4c-.4-.7-1-1.3-1.6-1.6-.6-.4-1.4-.6-2.1-.6s-1.9.3-2.6,1-1.1,1.6-1.4,2.7c-.3,1.2-.4,2.5-.4,4.1v.6c0,2.3.3,4,.9,5.3s1.8,1.9,3.4,1.9v-.3h-.1Z"/>
        <path class="st8" d="M359.3,174.7c-1.7,0-3.1-.3-4.3-1-1.2-.7-2.2-1.7-3-2.9l-.6,3.4h-8v-34.9l-4-.8v-5.4h13.2v15.4c.8-1.1,1.7-1.9,2.9-2.5,1.1-.6,2.4-.9,3.9-.9,2.3,0,4.2.6,5.8,1.8,1.6,1.2,2.8,2.9,3.6,5.2.8,2.2,1.2,4.8,1.2,7.9v.6c0,2.9-.4,5.4-1.2,7.5-.8,2.1-2,3.8-3.6,4.9s-3.6,1.7-5.9,1.7h0ZM356.3,167.6c1.7,0,2.8-.6,3.5-1.8s1-3,1-5.4v-.6c0-1.7-.1-3.1-.4-4.2-.3-1.2-.8-2-1.4-2.6s-1.5-.9-2.5-.9-1.6.2-2.3.6c-.7.4-1.2,1-1.5,1.7v11.5c.5.6,1,1,1.6,1.3s1.3.4,2.1.4h-.1Z"/>
        <path class="st8" d="M383.1,174.7c-2.8,0-5-.8-6.8-2.3-1.7-1.6-2.6-3.6-2.6-6.2s1.1-4.9,3.2-6.6c2.2-1.7,5.4-2.6,9.8-2.6h3v-1.7c0-1.1-.3-2.1-1-2.9-.7-.8-1.7-1.2-3.1-1.2s-1.2,0-1.7.2c-.5.1-1,.4-1.4.6l-.6,3.6h-6.5v-7.9c1.5-.7,3.2-1.3,4.9-1.9,1.8-.5,3.7-.8,5.9-.8,3.9,0,7,.9,9.3,2.7s3.4,4.3,3.4,7.6v12.8l3.1.5v5.4h-10.8c-.2-.3-.5-.7-.7-1.3s-.4-1.1-.6-1.6c-.9,1.1-1.8,1.9-2.9,2.5s-2.4.9-4.1.9v.2h.2ZM385.9,168.2c.7,0,1.3-.1,2-.4.7-.3,1.3-.7,1.8-1.2v-4.1h-2.9c-1.2,0-2.2.3-2.9.8-.7.5-1,1.3-1,2.2s.3,1.5.8,2c.6.5,1.3.7,2.2.7Z"/>
        <path class="st8" d="M417.8,174.7c-2.8,0-5.3-.6-7.3-1.9-2-1.2-3.6-3-4.7-5.1-1.1-2.2-1.6-4.7-1.6-7.5v-.6c0-2.9.6-5.4,1.7-7.6,1.1-2.2,2.7-3.9,4.7-5.1,2-1.2,4.4-1.8,7.1-1.8s5.1.4,7,1.2,3.5,1.7,4.6,2.6l-.2,9h-6.9l-1.1-5.2c-.3-.3-.7-.5-1.2-.7s-.9-.3-1.3-.3c-1.3,0-2.4.3-3.1.9-.8.6-1.3,1.4-1.7,2.6s-.5,2.6-.5,4.5v.6c0,1.9.2,3.4.7,4.4.4,1.1,1,1.9,1.7,2.3.7.5,1.4.7,2.1.7,1.1,0,2-.3,2.6-.8.6-.6,1.1-1.4,1.4-2.4h7.8v.2c-.3,2.3-1,4.2-1.9,5.7s-2.1,2.6-3.7,3.4-3.7,1.1-6.2,1.1v-.2h0Z"/>
        <path class="st8" d="M432.4,174.1v-5.4l3.4-.8v-28.6l-4-.8v-5.4h13.2v34.9l2.7.8v5.4h-15.3q0,0,0,0h0ZM443.9,166.6l-4.8-4.4,12.4-10.7h0l-2.8-.5v-5.4h16.4v5.4l-3.7,1.1-17.5,14.5h0ZM450.4,174.1v-5l1.7-.6h0c0-.1-4-5.9-4-5.9l6.3-5.6,8,10.8,3.2.9v5.4h-15.2Z"/>
        <path class="st8" d="M474.9,163.1c0-1.3,0-2.4.3-3.3s.5-1.7.9-2.4,1-1.4,1.8-2.1,1.7-1.5,2.8-2.3c.7-.5,1.3-1.1,1.9-1.8.5-.7,1-1.4,1.3-2.2s.5-1.6.5-2.5c0-1.3-.4-2.3-1.1-3.1s-1.7-1.1-3-1.1-2,.3-2.8.9c-.8.6-1.2,1.5-1.2,2.8h-9v-.2c0-2.3.4-4.3,1.5-5.9,1.1-1.6,2.6-2.8,4.6-3.6s4.2-1.2,6.8-1.2c4.2,0,7.5,1,9.9,3s3.6,4.7,3.6,8.1-.3,3-.9,4.3-1.5,2.6-2.5,3.7-2.2,2.1-3.5,3c-.7.5-1.2,1-1.6,1.6-.4.5-.6,1.1-.8,1.8,0,.7-.2,1.5-.2,2.4h-9.3,0ZM474.9,174.1v-7.5h9.1v7.5h-9.1Z"/>
      </g>
      <path class="st8" d="M133,23.6l1.9,5c2.2,5.9,6.8,10.5,12.7,12.7l5,1.9-5,1.9c-5.9,2.2-10.5,6.8-12.7,12.7l-1.9,5-1.9-5c-2.2-5.9-6.8-10.5-12.7-12.7l-5-1.9,5-1.9c5.9-2.2,10.5-6.8,12.7-12.7,0,0,1.9-5,1.9-5Z"/>
      <path class="st8" d="M62.4,23.6l.9,2.4c1,2.8,3.2,4.9,6,6l2.4.9-2.4.9c-2.8,1-4.9,3.2-6,6l-.9,2.4-.9-2.4c-1-2.8-3.2-4.9-6-6l-2.4-.9,2.4-.9c2.8-1,4.9-3.2,6-6l.9-2.4Z"/>
      <path class="st7" d="M184.4,66.1l.8,2.2c.7,2,2.3,3.6,4.3,4.3l2.2.8-2.2.8c-2,.7-3.6,2.3-4.3,4.3l-.8,2.2-.8-2.2c-.7-2-2.3-3.6-4.3-4.3l-2.2-.8,2.2-.8c2-.7,3.6-2.3,4.3-4.3l.8-2.2Z"/>
      <path class="st7" d="M97,8.8l.5,1.4c.5,1.3,1.4,2.2,2.7,2.7l1.4.5-1.4.5c-1.3.5-2.2,1.4-2.7,2.7l-.5,1.4-.5-1.4c-.5-1.3-1.4-2.2-2.7-2.7l-1.4-.5,1.4-.5c1.3-.5,2.2-1.4,2.7-2.7,0,0,.5-1.4.5-1.4Z"/>
    </g>
  </g>
</svg>