<?xml version="1.0" encoding="UTF-8"?>
<svg id="Layer_2" xmlns="http://www.w3.org/2000/svg" xmlns:xlink="http://www.w3.org/1999/xlink" version="1.1" viewBox="0 0 720 216">
  <!-- Generator: Adobe Illustrator 30.1.0, SVG Export Plug-In . SVG Version: 2.1.1 Build 136)  -->
  <defs>
    <style>
      .st0 {
        fill: none;
      }

      .st1 {
        fill: #fdd600;
        stroke: #ffd500;
        stroke-miterlimit: 10;
      }

      .st2 {
        fill: #fff;
      }

      .st3 {
        fill: #2a2a2a;
      }

      .st4 {
        clip-path: url(#clippath);
      }
    </style>
    <clipPath id="clippath">
      <rect class="st0" x="-18" y="-18" width="756" height="252"/>
    </clipPath>
  </defs>
  <g id="Layer_1-2">
    <g>
      <g class="st4">
        <rect class="st3" x="-18" y="-18" width="756" height="252"/>
      </g>
      <rect class="st1" x="-18" y="125.3" width="756" height="108.7"/>
      <g>
        <path class="st2" d="M40.1,60.4c-2,0-3.9-.4-5.6-1.1-1.7-.7-3.2-1.8-4.4-3.1s-2.2-2.9-2.9-4.7c-.7-1.8-1-3.8-1-5.9v-.5c0-2.1.3-4,1-5.8s1.6-3.4,2.9-4.7c1.2-1.3,2.7-2.4,4.4-3.1s3.5-1.1,5.6-1.1,3.8.4,5.5,1.1c1.7.7,3.2,1.8,4.5,3.1s2.3,2.9,3,4.7,1.1,3.7,1.1,5.8v.5c0,2.1-.4,4.1-1.1,5.9s-1.7,3.4-3,4.7-2.8,2.4-4.5,3.1-3.5,1.1-5.5,1.1ZM40.1,55c1.5,0,2.7-.4,3.8-1.2,1-.8,1.8-1.9,2.4-3.3.5-1.4.8-3.1.8-5v-.5c0-1.9-.3-3.5-.8-4.9s-1.4-2.5-2.4-3.3-2.3-1.2-3.8-1.2-2.8.4-3.8,1.2-1.7,1.9-2.2,3.3-.7,3.1-.7,5v.5c0,1.9.2,3.6.7,5s1.2,2.5,2.2,3.3,2.3,1.2,3.8,1.2h0Z"/>
        <path class="st2" d="M56,59.9v-4.1l2.5-.6v-12.2l-3-.6v-4.1h9.7l.2,3c.7-1.1,1.6-1.9,2.7-2.5s2.2-.9,3.6-.9c2,0,3.6.7,4.8,2.1s1.8,3.6,1.8,6.6v8.7l2.5.6v4.1h-11.6v-4.1l2-.6v-8.7c0-1.2-.2-2-.7-2.5s-1.1-.7-2-.7-1.2,0-1.7.4c-.5.2-.9.6-1.2,1.1v10.5l1.8.6v4.1h-11.4s0-.2,0-.2Z"/>
        <path class="st2" d="M101.2,60.4c-2.3,0-4-.6-5.2-1.8s-1.8-3.1-1.8-5.7v-9.7h-2.7v-4.9h2.7v-5.4h7v5.4h3.5v4.9h-3.5v9.7c0,.7.2,1.2.5,1.5s.8.4,1.3.4h1.4l.5,5.3c-.6.2-1.2.3-1.9.4-.6,0-1.3.2-1.9.2v-.3h0Z"/>
        <path class="st2" d="M106.7,59.9v-4.1l2.5-.6v-21.8l-3-.6v-4.1h10v12.3c.6-1,1.4-1.7,2.4-2.3s2.1-.8,3.3-.8c2.1,0,3.8.7,5,2.2,1.2,1.5,1.9,3.8,1.9,6.9v8.2l2.5.6v4.1h-11.6v-4.1l2.1-.6v-8.2c0-1.4-.2-2.4-.7-2.9s-1.2-.8-2.1-.8-1.2,0-1.7.3-.9.6-1.2,1v10.6l2.1.6v4.1h-11.6,0Z"/>
        <path class="st2" d="M143.4,60.4c-2.1,0-4-.5-5.6-1.4s-2.8-2.2-3.7-3.8-1.3-3.4-1.3-5.4v-.7c0-2.2.4-4.2,1.2-5.8.8-1.7,1.9-3,3.4-4s3.3-1.4,5.5-1.4,3.6.4,5,1.1c1.4.8,2.4,1.9,3.1,3.3s1.1,3.3,1.1,5.4v3.6h-12c.1.8.3,1.4.7,2,.4.5.8.9,1.5,1.3.6.3,1.4.5,2.3.5s1.8,0,2.7-.3c.9-.2,1.8-.5,2.8-1l1.6,4.3c-1,.7-2.2,1.3-3.6,1.7-1.4.5-3,.7-4.7.7h0ZM140.1,47h5.5v-.5c0-.8,0-1.4-.2-1.9s-.4-.9-.8-1.2c-.4-.3-.9-.4-1.5-.4s-1.3.2-1.7.5-.7.8-.9,1.4-.3,1.3-.4,2h0q0,0,0,.1Z"/>
        <path class="st2" d="M178.6,60.4c-2.8,0-5.3-.6-7.4-1.7-2.2-1.1-3.9-2.8-5.1-4.9-1.2-2.1-1.9-4.7-1.9-7.8v-1.3c0-2.8.6-5.3,1.7-7.4,1.1-2.2,2.8-3.8,4.9-5.1,2.1-1.2,4.6-1.8,7.5-1.8s4,.3,5.8.8,3.5,1.5,5.1,2.8v7.5h-5.1l-.7-4.3c-.5-.3-.9-.6-1.4-.8s-1-.4-1.6-.5-1.2-.2-1.8-.2c-1.5,0-2.8.4-3.9,1.1-1.1.7-2,1.7-2.6,3.1-.6,1.3-.9,3-.9,4.9v1.4c0,1.8.3,3.4.9,4.7.6,1.4,1.5,2.4,2.6,3.2s2.4,1.1,3.9,1.1,1.6,0,2.4-.2,1.6-.4,2.4-.7l.7-4.1h5.1v7.4c-1.2.8-2.6,1.5-4.5,2.1-1.8.6-3.9.9-6.2.9v-.2h.1Z"/>
        <path class="st2" d="M191,59.9v-4.1l2.6-.6v-21.8l-3-.6v-4.1h10.1v26.5l2.5.6v4.1h-12.2Z"/>
        <path class="st2" d="M214.8,60.4c-2.2,0-4.1-.5-5.7-1.4-1.6-.9-2.8-2.2-3.6-3.9s-1.3-3.6-1.3-5.8v-.4c0-2.2.4-4.1,1.3-5.7.8-1.7,2-3,3.6-3.9s3.5-1.4,5.7-1.4,4.1.5,5.7,1.4,2.8,2.2,3.6,3.9,1.3,3.6,1.3,5.8v.4c0,2.2-.4,4.1-1.3,5.8s-2,3-3.6,3.9-3.5,1.4-5.7,1.4h0ZM214.8,55c.9,0,1.5-.2,2.1-.7.5-.5.9-1.1,1.1-2s.4-1.9.4-3v-.4c0-1.1-.1-2.1-.4-3s-.6-1.5-1.1-2-1.2-.7-2.1-.7-1.5.2-2.1.7-.9,1.1-1.1,2c-.2.8-.3,1.8-.3,3v.4c0,1.2.1,2.2.3,3.1s.6,1.5,1.1,2,1.2.7,2.1.7h0Z"/>
        <path class="st2" d="M238,60.4c-2.2,0-4-.5-5.6-1.4s-2.7-2.3-3.6-3.9c-.8-1.7-1.2-3.5-1.2-5.7v-.5c0-2.2.4-4.1,1.3-5.8.9-1.7,2.1-3,3.6-3.9s3.3-1.4,5.4-1.4,3.8.3,5.3.9,2.6,1.3,3.5,2v6.8h-5.4l-.8-3.9c-.2-.2-.5-.4-.9-.6-.4,0-.7-.2-1-.2-1,0-1.8.2-2.4.7-.6.4-1,1.1-1.3,2s-.4,2-.4,3.4v.5c0,1.4.2,2.6.5,3.4s.8,1.4,1.3,1.8c.5.3,1.1.5,1.6.5.8,0,1.5-.2,2-.6s.8-1,1.1-1.9h6c-.3,1.8-.8,3.3-1.5,4.4s-1.6,2-2.8,2.6-2.8.9-4.7.9h0s0,0,0,0h0Z"/>
        <path class="st2" d="M249,59.9v-4.1l2.6-.6v-21.8l-3-.6v-4.1h10v26.5l2.1.6v4.1h-11.7ZM257.8,54.2l-3.6-3.4,9.4-8.2h0l-2.2-.4v-4.1h12.5v4.1l-2.8.8-13.3,11v.2ZM262.8,59.9v-3.8l1.3-.5h0l-3.1-4.5,4.8-4.3,6.1,8.2,2.4.7v4.1h-11.5q0,0,0,0Z"/>
        <path class="st2" d="M277.5,59.9v-5.8h7v5.8h-7Z"/>
        <path class="st2" d="M40.1,106.8c-2,0-3.9-.4-5.6-1.1-1.7-.7-3.2-1.8-4.4-3.1s-2.2-2.9-2.9-4.7c-.7-1.8-1-3.8-1-5.9v-.5c0-2.1.3-4,1-5.8s1.6-3.4,2.9-4.7c1.2-1.3,2.7-2.4,4.4-3.1s3.5-1.1,5.6-1.1,3.8.4,5.5,1.1,3.2,1.8,4.5,3.1c1.3,1.3,2.3,2.9,3,4.7.7,1.8,1.1,3.7,1.1,5.8v.5c0,2.1-.4,4.1-1.1,5.9s-1.7,3.4-3,4.7-2.8,2.4-4.5,3.1-3.5,1.1-5.5,1.1ZM40.1,101.5c1.5,0,2.7-.4,3.8-1.2,1-.8,1.8-1.9,2.4-3.3.5-1.4.8-3.1.8-5v-.5c0-1.9-.3-3.5-.8-4.9s-1.4-2.5-2.4-3.3-2.3-1.2-3.8-1.2-2.8.4-3.8,1.2c-1,.8-1.7,1.9-2.2,3.3s-.7,3.1-.7,5v.5c0,1.9.2,3.6.7,5s1.2,2.5,2.2,3.3,2.3,1.2,3.8,1.2h0Z"/>
        <path class="st2" d="M56,106.4v-4.1l2.5-.6v-12.2l-3-.6v-4.1h9.7l.2,3c.7-1.1,1.6-1.9,2.7-2.5s2.2-.9,3.6-.9c2,0,3.6.7,4.8,2.1s1.8,3.6,1.8,6.6v8.7l2.5.6v4.1h-11.6v-4.1l2-.6v-8.7c0-1.2-.2-2-.7-2.5s-1.1-.7-2-.7-1.2,0-1.7.4c-.5.2-.9.6-1.2,1.1v10.5l1.8.6v4.1h-11.4s0-.2,0-.2Z"/>
        <path class="st2" d="M101.2,106.9c-2.3,0-4-.6-5.2-1.8s-1.8-3.1-1.8-5.7v-9.7h-2.7v-4.9h2.7v-5.4h7v5.4h3.5v4.9h-3.5v9.7c0,.7.2,1.2.5,1.5s.8.4,1.3.4h1.4l.5,5.3c-.6.2-1.2.3-1.9.4-.6,0-1.3.2-1.9.2v-.3h0Z"/>
        <path class="st2" d="M106.7,106.4v-4.1l2.5-.6v-21.8l-3-.6v-4.1h10v12.3c.6-1,1.4-1.7,2.4-2.3s2.1-.8,3.3-.8c2.1,0,3.8.7,5,2.2,1.2,1.5,1.9,3.8,1.9,6.9v8.2l2.5.6v4.1h-11.6v-4.1l2.1-.6v-8.2c0-1.4-.2-2.4-.7-2.9s-1.2-.8-2.1-.8-1.2,0-1.7.3c-.5.2-.9.6-1.2,1v10.6l2.1.6v4.1h-11.6,0Z"/>
        <path class="st2" d="M143.4,106.8c-2.1,0-4-.5-5.6-1.4s-2.8-2.2-3.7-3.8-1.3-3.4-1.3-5.4v-.7c0-2.2.4-4.2,1.2-5.8.8-1.7,1.9-3,3.4-4s3.3-1.4,5.5-1.4,3.6.4,5,1.1c1.4.8,2.4,1.9,3.1,3.3s1.1,3.3,1.1,5.4v3.6h-12c.1.8.3,1.4.7,2,.4.5.8.9,1.5,1.3.6.3,1.4.5,2.3.5s1.8,0,2.7-.3c.9-.2,1.8-.5,2.8-1l1.6,4.3c-1,.7-2.2,1.3-3.6,1.7-1.4.5-3,.7-4.7.7h0ZM140.1,93.5h5.5v-.5c0-.8,0-1.4-.2-1.9s-.4-.9-.8-1.2c-.4-.3-.9-.4-1.5-.4s-1.3.2-1.7.5-.7.8-.9,1.4-.3,1.3-.4,2h0Z"/>
        <path class="st2" d="M164.2,106.4v-4.1l3-.6v-19.7l-3-.6v-4.2h14.4c2.3,0,4.3.4,6,1.1s3,1.8,3.9,3.1,1.4,3,1.4,4.8-.5,3.3-1.4,4.8-2.2,2.7-3.8,3.5c-1.6.9-3.5,1.3-5.5,1.3h-4.9v5.8l3,.6v4.1h-13.1,0ZM174.3,90.4h4.4c1.4,0,2.4-.3,3.1-1,.7-.6,1.1-1.6,1.1-2.8s-.4-2.2-1.1-3c-.7-.8-1.8-1.1-3.2-1.1h-4.3v7.9ZM182.7,106.4l-3.9-11.4,6.1-2.1,3.5,8.7,2.8.7v4.1h-8.5Z"/>
        <path class="st2" d="M203.8,106.8c-2.1,0-4-.5-5.6-1.4s-2.8-2.2-3.7-3.8-1.3-3.4-1.3-5.4v-.7c0-2.2.4-4.2,1.2-5.8.8-1.7,1.9-3,3.4-4s3.3-1.4,5.5-1.4,3.6.4,5,1.1c1.4.8,2.4,1.9,3.1,3.3s1.1,3.3,1.1,5.4v3.6h-12c.1.8.3,1.4.7,2,.4.5.8.9,1.5,1.3.6.3,1.4.5,2.3.5s1.8,0,2.7-.3c.9-.2,1.8-.5,2.8-1l1.6,4.3c-1,.7-2.2,1.3-3.6,1.7-1.4.5-3,.7-4.7.7h0ZM200.5,93.5h5.5v-.5c0-.8,0-1.4-.2-1.9s-.4-.9-.8-1.2c-.4-.3-.9-.4-1.5-.4s-1.3.2-1.7.5-.7.8-.9,1.4-.3,1.3-.4,2h0Z"/>
        <path class="st2" d="M224.9,106.8c-2.2,0-4-.5-5.6-1.4s-2.7-2.3-3.6-3.9c-.8-1.7-1.2-3.5-1.2-5.7v-.5c0-2.2.4-4.1,1.3-5.8.9-1.7,2.1-3,3.6-3.9s3.3-1.4,5.4-1.4,3.8.3,5.3.9,2.6,1.3,3.5,2v6.8h-5.4l-.8-3.9c-.2-.2-.5-.4-.9-.6-.4,0-.7-.2-1-.2-1,0-1.8.2-2.4.7-.6.4-1,1.1-1.3,2s-.4,2-.4,3.4v.5c0,1.4.2,2.6.5,3.4s.8,1.4,1.3,1.8c.5.3,1.1.5,1.6.5.8,0,1.5-.2,2-.6s.8-1,1.1-1.9h6c-.3,1.8-.8,3.3-1.5,4.4s-1.6,2-2.8,2.6-2.8.9-4.7.9h0q0,0,0-.1Z"/>
        <path class="st2" d="M246.7,106.8c-2.2,0-4.1-.5-5.7-1.4s-2.8-2.2-3.6-3.9c-.8-1.7-1.3-3.6-1.3-5.8v-.4c0-2.2.4-4.1,1.3-5.7.8-1.7,2-3,3.6-3.9s3.5-1.4,5.7-1.4,4.1.5,5.7,1.4,2.8,2.2,3.6,3.9c.8,1.7,1.3,3.6,1.3,5.8v.4c0,2.2-.4,4.1-1.3,5.8s-2,3-3.6,3.9-3.5,1.4-5.7,1.4h0ZM246.7,101.5c.9,0,1.5-.2,2.1-.7.5-.5.9-1.1,1.1-2s.4-1.9.4-3v-.4c0-1.1-.1-2.1-.4-3s-.6-1.5-1.1-2-1.2-.7-2.1-.7-1.5.2-2.1.7-.9,1.1-1.1,2c-.2.8-.3,1.8-.3,3v.4c0,1.2.1,2.2.3,3.1s.6,1.5,1.1,2,1.2.7,2.1.7h0Z"/>
        <path class="st2" d="M260.3,106.4v-4.1l2.5-.6v-12.2l-3-.6v-4.1h9.6l.2,2.6v.5c.5-1.2,1.1-2.1,1.8-2.7.7-.6,1.6-.9,2.7-.9s.6,0,1,0,.8,0,1.2.3l-.7,6.5h-3c-.7-.2-1.2,0-1.6,0-.4.2-.8.5-1.2.9v9.6l2.5.6v4.1h-12.1.1Z"/>
        <path class="st2" d="M285.6,106.8c-1.7,0-3.2-.4-4.4-1.3-1.2-.9-2.2-2.2-2.8-3.8-.6-1.6-1-3.5-1-5.7v-.4c0-2.3.3-4.2,1-5.9s1.6-3,2.8-4c1.2-.9,2.6-1.4,4.3-1.4s2.1.2,3,.7c.8.5,1.6,1.1,2.2,2v-7.1l-3-.6v-4.1h10.1v26.5l2.5.6v4.1h-8.6l-.5-2.7c-.7,1-1.4,1.8-2.3,2.3s-2,.8-3.2.8h-.1ZM287.7,101.4c.6,0,1.1,0,1.6-.3.5-.2.9-.6,1.3-1v-8.7c-.3-.5-.7-1-1.2-1.3s-1-.4-1.6-.4-1.5.2-1.9.7c-.5.5-.9,1.2-1.1,2.1s-.3,1.9-.3,3.1v.4c0,1.7.2,3.1.7,4s1.3,1.4,2.6,1.4c0,0-.1,0-.1,0Z"/>
        <path class="st2" d="M302.8,106.4v-5.8h7v5.8h-7Z"/>
      </g>
      <g>
        <path d="M42.9,164.2s0,0,0,0c1.3-.7,2.3-1.6,3.1-2.7.7-1.2,1.1-2.5,1.1-4s-.4-2.9-1.1-4c-.7-1.1-1.8-2-3.2-2.6-1.4-.6-3-.9-5-.9h-11.9v3l2.7.5v18.1l-2.7.5v3h10.4v-3l-2.7-.5v-6.4h4.6l3.9,9.9h6.1v-3l-2.1-.5-3.2-7.4ZM33.7,161.3v-7.5h4.2c1.4,0,2.5.3,3.2,1,.7.7,1.1,1.6,1.1,2.8s-.4,2.1-1.1,2.7-1.8.9-3.3.9h-4.1Z"/>
        <path d="M66.7,171.1c0-.2,0-.5,0-.8v-7.7c0-2.1-.7-3.7-2.1-4.9s-3.3-1.7-5.8-1.7-2.7.2-3.8.5c-1.1.3-2.2.8-3.2,1.3v4.9h3.7l.4-2.5c.4-.2.7-.4,1.2-.6.4-.1.9-.2,1.5-.2,1,0,1.8.3,2.4.8.5.6.8,1.3.8,2.2v1.4h-2.5c-2.8,0-4.8.6-6.3,1.7s-2.1,2.5-2.1,4.3.5,3.1,1.6,4.1c1.1,1,2.6,1.5,4.4,1.5s2-.2,2.9-.7,1.5-1.1,2.1-1.8c0,.4.1.7.3,1.1.1.4.3.7.4,1h6.3v-3l-2-.3c0-.2,0-.5,0-.7ZM61.7,170c-.3.5-.8.9-1.5,1.3-.6.3-1.3.5-2,.5s-1.3-.2-1.8-.5c-.4-.4-.6-.9-.6-1.5s.3-1.3.9-1.8c.6-.5,1.4-.8,2.5-.8h2.5v3Z"/>
        <path d="M79.4,171.4c-.3,0-.6,0-.9,0-.5,0-.9-.2-1.3-.5-.3-.3-.5-.8-.5-1.6v-9.5h3.4v-3.5h-3.4v-4.6h-5v4.6h-2.6v3.5h2.6v9.5c0,2.1.5,3.6,1.4,4.5.9,1,2.3,1.4,4,1.4s1.2,0,1.8-.1,1.2-.2,1.7-.4l-.4-3.6c-.2,0-.5,0-.8.1Z"/>
        <path d="M94.9,157.1c-1.2-.7-2.6-1-4.3-1s-3.2.4-4.5,1.2c-1.3.8-2.2,1.9-2.9,3.4s-1,3.1-1,4.9v.7c0,1.8.4,3.4,1.1,4.7.7,1.4,1.8,2.5,3.1,3.3,1.3.8,2.9,1.2,4.7,1.2s2.8-.2,4-.6c1.2-.4,2.1-.9,2.9-1.5l-1.4-3.1c-.8.5-1.5.8-2.3,1-.8.2-1.7.4-2.6.4s-1.6-.2-2.3-.5c-.6-.4-1.1-.9-1.4-1.5-.3-.6-.5-1.4-.6-2.2h0c0-.1,11-.1,11-.1v-2.7c0-1.8-.3-3.3-.9-4.6-.6-1.3-1.5-2.2-2.6-2.9ZM93.7,163.9h-6.3c0-.9.3-1.5.5-2.2.3-.6.6-1.1,1.1-1.4.5-.4,1-.5,1.7-.5s1.3.1,1.7.4c.4.3.8.7,1,1.3.2.5.3,1.2.3,2v.4Z"/>
        <polygon points="109.1 156.8 112.9 156.8 113.2 153.8 117.8 153.8 117.8 171.6 115.1 172.1 115.1 175.1 125.5 175.1 125.5 172.1 122.8 171.6 122.8 153.8 127.4 153.8 127.7 156.8 131.5 156.8 131.5 149.9 109.1 149.9 109.1 156.8"/>
        <path d="M151.9,163.7c0-2.6-.6-4.5-1.7-5.8-1.1-1.2-2.6-1.9-4.5-1.9s-2.1.2-3,.7c-.9.5-1.6,1.1-2.2,2v-10.6h-7.7v3l2.7.5v19.9l-2.4.5v3h9.6v-3l-2.2-.5v-9.9c.4-.5.8-1,1.4-1.2.6-.3,1.2-.4,1.9-.4,1,0,1.7.3,2.2.8.5.6.8,1.5.8,2.9v7.9l-2.2.5v3h9.6v-3l-2.4-.5v-7.8Z"/>
        <rect x="158" y="148.1" width="5.2" height="4.3"/>
        <polygon points="163.2 156.4 155.5 156.4 155.5 159.4 158.2 160 158.2 171.6 155.8 172.1 155.8 175.1 165.7 175.1 165.7 172.1 163.2 171.6 163.2 156.4"/>
        <path d="M176.3,163.8c-.9-.2-1.7-.4-2.2-.7-.5-.2-.8-.5-1-.8-.2-.3-.3-.6-.3-.9,0-.6.2-1,.7-1.4s1.2-.5,2-.5,1,0,1.4.2c.4.1.8.3,1.1.5l.5,2.5h3.5v-5.1c-.8-.4-1.8-.8-3-1.1s-2.5-.4-3.9-.4-3.1.3-4.1.8c-1.1.5-1.9,1.2-2.4,2.1s-.8,1.8-.8,2.8c0,1.5.5,2.7,1.6,3.7,1,1,2.7,1.7,4.9,2.1,1.5.3,2.4.6,2.9,1,.5.4.7.9.7,1.4s-.2,1-.7,1.4-1.3.6-2.4.6-1.1,0-1.6-.2c-.5-.1-.9-.3-1.3-.5l-.7-2.7h-3.5v5.3c1.2.5,2.3.9,3.5,1.1,1.2.3,2.5.4,3.9.4,2.5,0,4.4-.5,5.7-1.6,1.3-1.1,1.9-2.5,1.9-4.2s-.5-2.8-1.6-3.7c-1.1-.9-2.7-1.6-5.1-2.1Z"/>
        <path d="M210.8,151.5c-1.7-1.1-3.7-1.6-5.9-1.6h-11v3l2.7.6v17.9l-2.7.6v3h11.1c2.2,0,4.2-.5,5.9-1.6,1.7-1.1,3-2.5,4-4.4,1-1.9,1.4-4,1.4-6.4v-.5c0-2.4-.5-4.5-1.4-6.4-1-1.9-2.3-3.3-4-4.4ZM211.2,162.8c0,1.6-.3,3.1-.8,4.4-.5,1.3-1.3,2.3-2.2,3-1,.7-2.1,1.1-3.5,1.1h-3.1v-17.4h3.1c1.4,0,2.6.4,3.5,1.1,1,.7,1.7,1.7,2.2,3,.5,1.3.8,2.7.8,4.4v.5Z"/>
        <path d="M230.8,156.1c-.9,0-1.8.3-2.4.8-.7.5-1.3,1.3-1.7,2.3v-.4s-.2-2.3-.2-2.3h-7.4v3l2.7.5v11.6l-2.4.5v3h9.9v-3l-2.4-.5v-9.2c.3-.5.7-.9,1.2-1.2.4-.3,1-.4,1.7-.4h2.5c0,.1.5-4.5.5-4.5-.3,0-.6-.1-1-.2-.4,0-.7,0-1,0Z"/>
        <rect x="236.8" y="148.1" width="5.2" height="4.3"/>
        <polygon points="242 156.4 234.3 156.4 234.3 159.4 237 160 237 171.6 234.5 172.1 234.5 175.1 244.4 175.1 244.4 172.1 242 171.6 242 156.4"/>
        <polygon points="257.2 159.4 259.5 159.8 256.4 168.3 255.9 169.7 255.8 169.7 255.4 168.3 252.6 159.8 254.6 159.4 254.6 156.4 245.5 156.4 245.5 159.4 247.5 159.8 253.2 175.1 258.3 175.1 264.2 159.8 266.3 159.4 266.3 156.4 257.2 156.4 257.2 159.4"/>
        <path d="M280.4,157.1c-1.2-.7-2.6-1-4.3-1s-3.2.4-4.5,1.2c-1.3.8-2.2,1.9-2.9,3.4s-1,3.1-1,4.9v.7c0,1.8.4,3.4,1.1,4.7.7,1.4,1.8,2.5,3.1,3.3,1.3.8,2.9,1.2,4.7,1.2s2.8-.2,4-.6c1.2-.4,2.1-.9,2.9-1.5l-1.4-3.1c-.8.5-1.5.8-2.3,1-.8.2-1.7.4-2.6.4s-1.6-.2-2.3-.5c-.6-.4-1.1-.9-1.4-1.5-.3-.6-.5-1.4-.6-2.2h0c0-.1,11-.1,11-.1v-2.7c0-1.8-.3-3.3-.9-4.6-.6-1.3-1.5-2.2-2.6-2.9ZM279.2,163.9h-6.3c0-.9.3-1.5.5-2.2.3-.6.6-1.1,1.1-1.4.5-.4,1-.5,1.7-.5s1.3.1,1.7.4c.4.3.8.7,1,1.3.2.5.3,1.2.3,2v.4Z"/>
        <path d="M299.1,156.1c-.4,0-.7,0-1,0-.9,0-1.8.3-2.4.8-.7.5-1.3,1.3-1.7,2.3v-.4s-.2-2.3-.2-2.3h-7.4v3l2.7.5v11.6l-2.4.5v3h9.9v-3l-2.4-.5v-9.2c.3-.5.7-.9,1.2-1.2.4-.3,1-.4,1.7-.4h2.5c0,.1.5-4.5.5-4.5-.3,0-.6-.1-1-.2Z"/>
        <rect x="299.7" y="170.7" width="5" height="4.4"/>
      </g>
      <rect class="st2" x="513" y="9" width="198" height="198"/>
      <circle class="st3" cx="417" cy="121.6" r="69.5"/>
      <g>
        <path class="st2" d="M477.3,118c-.5-7.8-2.4-15.3-5.8-22.4-1-2.1-2.1-4-3.3-6l3.1-2.3c.8-.6,1-1.8.4-2.6l-2.7-3.7c-.6-.8-1.8-1-2.6-.4l-3.1,2.3c-1.7-2.1-3.6-4.1-5.7-5.9-5.2-4.8-11.2-8.6-17.8-11.2l1.4-4,1.1.4c.9.3,1.9-.2,2.3-1.1l1.2-3.5c4-.8,7.6-3.6,9-7.7,2.2-6.2-1.1-13-7.3-15.2-6.2-2.2-13,1.1-15.2,7.3s-.5,8.6,2.2,11.7l-1.2,3.5c-.3.9.2,1.9,1.1,2.3l1.1.4-1.4,4c-6.8-2-13.8-2.9-20.9-2.4-2.7.2-5.5.5-8.1,1.1l-1-3.7c-.3-1-1.3-1.6-2.3-1.3l-4.4,1.2c-1,.3-1.6,1.3-1.3,2.3l1,3.7c-2.1.7-4.2,1.6-6.3,2.6-7.1,3.4-13.3,8-18.6,13.8-5.4,6-9.6,12.9-12.3,20.6s-3.8,15.7-3.3,23.7c.5,7.8,2.4,15.3,5.8,22.4s8,13.3,13.8,18.6c6,5.4,12.9,9.6,20.6,12.3s15.7,3.8,23.7,3.3c7.8-.5,15.3-2.4,22.4-5.8s13.3-8,18.6-13.8c5.4-6,9.6-12.9,12.3-20.6,2.7-7.7,3.8-15.7,3.3-23.7l.2-.2h0ZM434.6,42.7c1.8-5.1,7.4-7.7,12.4-5.9,5.1,1.8,7.7,7.4,5.9,12.4-1,2.9-3.4,5.1-6.1,6l.6-1.7c.3-.9-.2-1.9-1.1-2.3l-7.9-2.8c-.9-.3-1.9.2-2.3,1.1l-.6,1.7c-1.6-2.4-2-5.6-1-8.5,0,0,.1,0,.1,0ZM458.8,159.7c-4.9,5.4-10.8,9.7-17.4,12.9s-13.7,5-21,5.4c-7.6.5-15-.6-22.2-3.1s-13.7-6.4-19.3-11.5c-5.4-4.9-9.7-10.8-12.9-17.4-3.2-6.6-5-13.7-5.4-21-.5-7.5.6-15,3.1-22.2s6.4-13.7,11.5-19.3c4.9-5.4,10.8-9.7,17.4-12.9,6.6-3.2,13.7-5,21-5.4,7.5-.5,15,.6,22.2,3.1s13.7,6.4,19.3,11.5c5.4,4.9,9.7,10.8,12.9,17.4,3.2,6.6,5,13.7,5.4,21,.5,7.5-.6,15-3.1,22.2s-6.4,13.7-11.5,19.3h0Z"/>
        <path class="st2" d="M464.9,137.7l2.8,1c2.2-6.6,3.1-13.4,2.7-20.2-.4-6.6-2-13-4.8-19.1l-2.6,1.3-.7-1.5,2.6-1.3c-3-6-6.9-11.2-11.8-15.7-5.1-4.6-10.9-8.2-17.4-10.6l-1,2.8-1.6-.6,1-2.8c-6.6-2.2-13.4-3.1-20.2-2.7-6.6.4-13,2-19.1,4.8l1.3,2.6-1.5.7-1.3-2.6c-6,3-11.2,6.9-15.7,11.8-4.6,5.1-8.2,10.9-10.6,17.4l2.8,1-.6,1.6-2.8-1c-2.2,6.6-3.1,13.4-2.7,20.2.4,6.6,2,13,4.8,19.1l2.6-1.3.7,1.5-2.6,1.3c3,6,6.9,11.2,11.8,15.7,5.1,4.6,10.9,8.2,17.4,10.6l1-2.8,1.6.6-1,2.8c6.6,2.2,13.4,3.1,20.2,2.7,6.6-.4,13-2,19.1-4.8l-1.3-2.6,1.5-.7,1.3,2.6c6-3,11.2-6.9,15.7-11.8,4.6-5.1,8.2-10.9,10.6-17.4l-2.8-1,.6-1.6h0ZM428.4,89.5c.9.3-4.3,20.3-7.1,29-.6-.8-1.5-1.5-2.5-1.9s-2.1-.4-3.1,0c3.3-8.5,11.8-27.4,12.7-27.1h0ZM417.2,129.6c-1.5,2.9-5.9,1.4-5.3-1.8.2-.9.5-1.9.9-3.1.6.8,1.5,1.5,2.5,1.9s2.1.4,3.1,0c-.4,1.2-.8,2.2-1.2,3h0q0,0,0,0h0ZM415.7,125.5c-2.1-.8-3.2-3.1-2.5-5.2s3.1-3.2,5.2-2.5c2.1.8,3.2,3.1,2.5,5.2s-3.1,3.2-5.2,2.5Z"/>
      </g>
      <path class="st2" d="M477.3,118c-.5-7.8-2.4-15.3-5.8-22.4-1-2.1-2.1-4-3.3-6l3.1-2.3c.8-.6,1-1.8.4-2.6l-2.7-3.7c-.6-.8-1.8-1-2.6-.4l-3.1,2.3c-1.7-2.1-3.6-4.1-5.7-5.9-5.2-4.8-11.2-8.6-17.8-11.2l1.4-4,1.1.4c.9.3,1.9-.2,2.3-1.1l1.2-3.5c4-.8,7.6-3.6,9-7.7,2.2-6.2-1.1-13-7.3-15.2-6.2-2.2-13,1.1-15.2,7.3s-.5,8.6,2.2,11.7l-1.2,3.5c-.3.9.2,1.9,1.1,2.3l1.1.4-1.4,4c-6.8-2-13.8-2.9-20.9-2.4-2.7.2-5.5.5-8.1,1.1l-1-3.7c-.3-1-1.3-1.6-2.3-1.3l-4.4,1.2c-1,.3-1.6,1.3-1.3,2.3l1,3.7c-2.1.7-4.2,1.6-6.3,2.6-7.1,3.4-13.3,8-18.6,13.8-5.4,6-9.6,12.9-12.3,20.6s-3.8,15.7-3.3,23.7c.5,7.8,2.4,15.3,5.8,22.4s8,13.3,13.8,18.6c6,5.4,12.9,9.6,20.6,12.3s15.7,3.8,23.7,3.3c7.8-.5,15.3-2.4,22.4-5.8s13.3-8,18.6-13.8c5.4-6,9.6-12.9,12.3-20.6,2.7-7.7,3.8-15.7,3.3-23.7l.2-.2h0ZM434.6,42.7c1.8-5.1,7.4-7.7,12.4-5.9,5.1,1.8,7.7,7.4,5.9,12.4-1,2.9-3.4,5.1-6.1,6l.6-1.7c.3-.9-.2-1.9-1.1-2.3l-7.9-2.8c-.9-.3-1.9.2-2.3,1.1l-.6,1.7c-1.6-2.4-2-5.6-1-8.5,0,0,.1,0,.1,0ZM458.8,159.7c-4.9,5.4-10.8,9.7-17.4,12.9s-13.7,5-21,5.4c-7.6.5-15-.6-22.2-3.1s-13.7-6.4-19.3-11.5c-5.4-4.9-9.7-10.8-12.9-17.4-3.2-6.6-5-13.7-5.4-21-.5-7.5.6-15,3.1-22.2s6.4-13.7,11.5-19.3c4.9-5.4,10.8-9.7,17.4-12.9,6.6-3.2,13.7-5,21-5.4,7.5-.5,15,.6,22.2,3.1s13.7,6.4,19.3,11.5c5.4,4.9,9.7,10.8,12.9,17.4,3.2,6.6,5,13.7,5.4,21,.5,7.5-.6,15-3.1,22.2s-6.4,13.7-11.5,19.3h0Z"/>
    </g>
  </g>
</svg>