<?xml version="1.0" encoding="UTF-8"?>
<svg id="Layer_2" xmlns="http://www.w3.org/2000/svg" xmlns:xlink="http://www.w3.org/1999/xlink" version="1.1" viewBox="0 0 720 216">
  <!-- Generator: Adobe Illustrator 30.1.0, SVG Export Plug-In . SVG Version: 2.1.1 Build 136)  -->
  <defs>
    <style>
      .st0 {
        fill: none;
      }

      .st1 {
        isolation: isolate;
      }

      .st2 {
        stroke: #ffd500;
      }

      .st2, .st3 {
        fill: #fdd600;
      }

      .st2, .st4 {
        stroke-miterlimit: 10;
      }

      .st5 {
        fill: #fff;
      }

      .st6 {
        fill: #2a2a2a;
      }

      .st4 {
        fill: #010101;
        stroke: #010101;
        stroke-width: .8px;
      }

      .st7 {
        clip-path: url(#clippath);
      }
    </style>
    <clipPath id="clippath">
      <rect class="st0" x="-18" y="-18" width="756" height="252"/>
    </clipPath>
  </defs>
  <g id="Layer_1-2">
    <g>
      <g class="st7">
        <g>
          <rect class="st6" x="-18" y="-18" width="756" height="252"/>
          <polygon class="st2" points="378 -28.1 409.7 -73 436.1 -24.8 484.2 -51.4 487 3.4 541.9 .3 520.7 50.9 571.5 71.9 530.4 108.3 567 149.2 514.2 164.2 529.5 217 475.3 207.6 466.2 261.8 421.5 229.8 389.8 274.7 363.4 226.5 315.4 253.1 312.5 198.3 257.7 201.4 278.9 150.8 228.1 129.8 269.2 93.4 232.6 52.5 285.4 37.5 270.1 -15.3 324.2 -5.9 333.3 -60.1 378 -28.1"/>
        </g>
      </g>
      <rect class="st5" x="513" y="9" width="198" height="198"/>
      <g>
        <path class="st4" d="M445.4,120.3l-4.4.2c2.8,4.6-3.6,21-16.8,18.7,1.7,8.9-5.8,14.4-14.4,12.2-7.4-1.9-11.7-2.6-24.6-.2-16,3-34.4,8-53.3-3.2-1.7-1-3.6,0-4.1,1.1-.9,2.1-.2,8.3-5.4,8.4h-19.3c-6.9,0-12.4-10.2-12.3-42.5.1-33.6.5-46.8,14.3-46.9,13.5,0,17.3,0,17.3,0,4.3,0,5,3,5.7,4.9.4,1.1,2,1.5,3.1,1.1,1.7-.8,18.8-8.2,33.5-9.8,13.7-1.5,19-5.7,28.3-4.2,10.9,1.7,46.2.5,56.8.4,10.3,0,26.9,3.2,48.9,2.7,21-.5,21.1,24.1,2.2,23-14.9-.9-15.4,1-20.6.3-9.1-1.1-19,0-26,.4-3.2.2-6.8-.8-16.2.2,5.2,1.2,5.4,2.7,12.8,6.1,10.8,5.5,4.5,26.4-5.4,27.1,0,0-.1,0-.1,0Z"/>
        <g>
          <path class="st5" d="M318.3,111.6c-.4,13.4,2.2,36.6,2.9,38.7.7,2-.7,3.2-3.7,3-2.1-.2-12.4-.1-12.4-.1-4.5,0-10.1-4.7-10.1-40.5.2-37,1.7-41.7,12.5-41.7l13.4.4c.8.2,1.4.6,1.8,1.5,1.1,2.1-3.6,4.9-4.5,38.7h.1Z"/>
          <path class="st5" d="M349.6,115.3c-.6.6-.8,1.6-.5,2.1,1.2,2.4,3.9.6,6,.4,1.7-.2,11.1-1.7,14.5.5s10.2,6.6,12.5,16c.4,1.8,3.3,7,7.7,8.4,3.1,1,2.6,4.3,0,4.5-7.2.7-9.4,3.7-31.8,3.7-17.8-1-34.5-4.5-35.6-28.4-.4-13.2.2-31.6,2.1-38.2,1.9-6.7,7.4-6.7,12.2-9.2,19.8-8.6,33.1-8.1,44.1-10.6,4.3-1,7.6-2.7,13.1,1.2,11.8,8.4,25.9,11.2,29.4,13.7,2.4,1.6,3.1,2.3,3.4,3.2.6,1.4,3.1,1.6,5.2,3.4,1.4,1,2,1.5,3.4,2.1-2,2.6-3.8-.3-6.5,5.3-.6,1.2,0,3.5.5,4.5,1.3,2.3,6.1,2.7,8,3,1.5.3,3.3.6,5,.9,4.5.9,5.9-3.8,6.1-2.2.8,8.4-10.4,6.7-14.1,6.1-3.7-.3-6.7-2.2-10.4-3.1-1.6-1.2-10.1-1.5-10-7.5-.1-1,0-3.1-2.6-2.2-2,.7-11.5.7-13-2.1-.7-1.3-1.3-2.1-2.6-2.7-1.4-.6-2.2.2-2,1.7.2,2,0,4.7-2.7,5.3-2.5.7-3.7.7-5.4-.4-1.8-1-5.3-3.2-6.9-3.1-1.3.4-2.3,1.4.7,2.9,2.7,1.3,6,5.8,1.4,10.9-6.9,7.5-4.7,8.1-29,8.9-1.1,0-1.8.2-2.4.9h.2c0,0,0,.1,0,0h0Z"/>
          <path class="st5" d="M389.4,115.7c-3.2-4.1-5.6-5.5-2.6-9.5.4-.8,1.5-.8,4.5,0,1.6.4,6.9,6.9,2.3,11.2-1.1.6-2.3,1.1-4.1-1.7h-.1,0Z"/>
          <path class="st5" d="M384.3,128.5c-1.9.6-5-8.5-4.9-9.1.2-.9.3-1.8,4.3-2.1,1.8,0,5,3.5,4.7,7.3-.3,2.6-3.7,3.7-4.1,3.9h0Z"/>
          <path class="st5" d="M400.4,105.6c-1.7-1.9-5.6-5.5-4.5-7.4,1.3-2.3,2.8-3.4,6.8-2,2.7,1,7.7,5.3,2.3,10.7-1.7.7-2.3,1.2-4.6-1.3h0Z"/>
          <path class="st5" d="M420.6,139.1c2.8,11.7-10,10.9-15.2,7.8-8.3-5-15.5-6.2-18.3-9.6-1.6-1.9-3.9-6.7-1.6-6.9,2.1-.2,4-2,5-3,.5-.4-.2-3.7.5-3.6.5,0-.4,3.5,7.6,7.4,3.4,1.6,10.9,4.6,13.5,5.2,2,.4,4.1,1.4,7.6,1.9.7.1.8.5.8.7h.1Z"/>
          <path class="st5" d="M436.1,120.6c-8.8-.5-12.3,0-14.4,0-10.8,1.1-15.6-3.1-17.9-6.2-2.2-2.1-2.8-3.8-4.5-5.2-1.4-1.1-2.9-3.5-2,.2.5,1.8,1.9,3,.7,6-1.1,1.9-1.4,3-4.7,5-.4,0-.8.2-.5.4,1,.8,2,6.6,11.1,8.9,12,3.1,17.3,6.1,19.9,6.6h1.7c3.7-.2,5.1-.8,6.2-1.8,1.2-.9,7.3-6.2,5.7-12.7-.3-.7-.7-1.3-1.2-1.3h-.1Z"/>
          <path class="st5" d="M452.4,100.1c.9,0,2.3,13.2-6.8,16.5-4.5,1.6-6.9.5-11.3.6-7.6-.4-13.7.2-16.8,0-4.5,0-8.1-1.1-10.6-3.7-1.2-1.3-4-3.5-2.2-4.2s3-1,4.6-4.1c2.1-4-.7-6.6,1.8-5.6,2.1.9,2.2,1,4.5,2.6,8.6,6.2,36,12.8,35.4-1.1.1-1,1-1.7,1.4-1.1Z"/>
          <path class="st5" d="M438.5,90.5c1.6,0,2.9.9,3.8,1.4,1.7.7,7.9,1.9,5,5.5-2.8,3.6-11.2.5-14.1-.5-1.2-.5-1.7-1.4-1.7-2.5s.7-3.8,7-3.8h0q0,0,0,0h0Z"/>
          <path class="st5" d="M484.5,66.5c-6.8,0-22.4-3.5-30.6-1.9-10.1-1.9-27.5,0-33.3-.4-4.9,0-16-1.1-23.6,0,2.1.9,10.1,7,22.5,10.2,4.3,1,7.7,3,11.2,7.7,8.7,1.4,21.3,2,21.9.8.3-.6.4-1.3,2-.9,1.4.3.7.7,3.3.8,13.6.4,20.9,0,20.9,0,3-.2,2-1.3,3.1-1.6,1-.3.2.7,3.4,1.1,1.7.2,6,.8,18.1.6,10.7.3,13.2-16.1-4.9-16.8-12.3-.5-12.2.6-14,.2h0q0,0,0,0h0Z"/>
        </g>
      </g>
      <g>
        <g>
          <path class="st5" d="M31,88.7v-4.9l3.6-.8v-23.4l-3.6-.8v-4.9h17.1c2.8,0,5.1.4,7.2,1.3,2,.9,3.6,2.1,4.7,3.7,1.1,1.6,1.6,3.5,1.6,5.7s-.6,3.9-1.7,5.7-2.6,3.2-4.5,4.2c-1.9,1.1-4.1,1.6-6.6,1.6h-5.8v6.9l3.6.8v4.9s-15.6,0-15.6,0ZM42.9,69.7h5.2c1.6,0,2.9-.4,3.7-1.1.9-.8,1.3-1.8,1.3-3.3s-.4-2.7-1.3-3.6-2.2-1.3-3.8-1.3h-5.1v9.3h0ZM52.9,88.7l-4.7-13.5,7.3-2.5,4.2,10.3,3.3.8v4.9s-10.1,0-10.1,0Z"/>
          <path class="st5" d="M74.1,89.2c-2.5,0-4.5-.7-6.1-2.1s-2.4-3.3-2.4-5.7,1-4.4,2.9-5.9,4.9-2.3,8.8-2.3h2.7v-1.5c0-1-.3-1.9-.9-2.6s-1.5-1.1-2.8-1.1-1,0-1.5.2c-.5,0-.9.3-1.3.6l-.6,3.3h-5.9v-7.2c1.3-.7,2.9-1.2,4.5-1.7s3.4-.7,5.4-.7c3.5,0,6.3.8,8.4,2.4,2.1,1.6,3.1,3.9,3.1,6.9v11.6l2.8.5v4.9h-9.8c-.2-.3-.4-.7-.7-1.1-.2-.5-.4-1-.5-1.4-.8,1-1.7,1.7-2.6,2.3-1,.5-2.2.8-3.7.8v-.2h.2ZM76.7,83.3c.6,0,1.2,0,1.8-.4.6-.2,1.1-.6,1.6-1.1v-3.7h-2.6c-1.1,0-2,.2-2.6.7s-.9,1.1-.9,2,.3,1.4.8,1.8,1.2.7,2,.7h-.1Z"/>
          <path class="st5" d="M102.5,89.2c-2.7,0-4.8-.7-6.2-2.2-1.4-1.4-2.1-3.7-2.1-6.8v-11.6h-3.2v-5.8h3.2v-6.4h8.3v6.4h4.2v5.8h-4.2v11.6c0,.8.2,1.4.6,1.8s.9.5,1.6.5h.9c.3,0,.6,0,.9,0l.6,6.2c-.7.2-1.5.4-2.2.5s-1.5.2-2.3.2h0q0,0,0,0h-.1Z"/>
          <path class="st5" d="M121.4,89.2c-2.5,0-4.7-.5-6.6-1.6s-3.3-2.6-4.4-4.5c-1-1.9-1.6-4-1.6-6.4v-.9c0-2.6.5-4.9,1.4-7,.9-2,2.3-3.6,4.1-4.7,1.8-1.1,4-1.7,6.6-1.7s4.3.5,5.9,1.3c1.6.9,2.8,2.2,3.7,4,.8,1.7,1.3,3.9,1.3,6.4v4.3h-14.2v.2c0,.8.4,1.5.8,2.2s1,1.1,1.8,1.5c.7.4,1.7.5,2.8.5s2.1,0,3.2-.4c1-.2,2.1-.6,3.3-1.2l1.9,5.1c-1.2.8-2.6,1.5-4.2,2.1-1.7.5-3.5.8-5.6.8h-.2ZM117.5,73.3h6.6v-.6c0-.9,0-1.7-.3-2.3-.2-.6-.5-1.1-.9-1.4s-1.1-.5-1.8-.5-1.5.2-2,.6-.9,1-1.1,1.7-.4,1.5-.5,2.4h0Z"/>
          <path class="st5" d="M153.8,88.7v-4.9l3.6-.8v-22.6h-5.4l-.2,3.7h-6.3v-10.2h32.3v10.2h-6.4l-.2-3.7h-5.4v22.6l3.6.8v4.9h-15.6Z"/>
          <path class="st5" d="M179.2,88.7v-4.9l3-.8v-25.9l-3.6-.8v-4.9h11.9v14.6c.8-1.2,1.7-2.1,2.9-2.7,1.1-.6,2.5-1,4-1,2.5,0,4.5.9,6,2.7,1.5,1.8,2.3,4.5,2.3,8.2v9.8l3,.8v4.9h-13.8v-4.9l2.5-.8v-9.8c0-1.7-.3-2.8-.8-3.5-.6-.6-1.4-.9-2.4-.9s-1.4,0-2,.4-1.1.7-1.5,1.2v12.6l2.5.8v4.9h-14,0Z"/>
          <path class="st5" d="M210,88.7v-4.9l3-.8v-14.5l-3.6-.8v-4.9h12v20.2l3,.8v4.9s-14.4,0-14.4,0ZM212.8,58v-6.5h8.6v6.5h-8.6Z"/>
          <path class="st5" d="M237.6,89.2c-2,0-3.9-.2-5.7-.6s-3.3-.9-4.8-1.5v-8h5.6l1,3.7c.3.2.8.4,1.3.5.5.2,1.2.2,1.9.2,1.4,0,2.3-.2,2.8-.5.5-.4.8-.8.8-1.4s-.3-1-.9-1.5-1.8-.9-3.7-1.2c-3-.6-5.2-1.6-6.7-3-1.4-1.4-2.1-3.2-2.1-5.3s.3-2.8,1-4,1.8-2.2,3.3-3,3.5-1.1,6.1-1.1,3.8.2,5.5.5c1.8.3,3.2.8,4.3,1.3v7.8h-5.7l-.7-3.3c-.4-.3-.8-.4-1.2-.6-.5,0-1-.2-1.5-.2-1.1,0-1.8.2-2.3.6s-.7.9-.7,1.5.1.7.3,1c.2.4.6.7,1.3,1,.6.3,1.6.6,2.8.9,2.9.7,5.2,1.6,6.6,2.7,1.5,1.2,2.2,2.9,2.2,5.3s-.9,4.6-2.7,6c-1.8,1.5-4.5,2.2-7.9,2.2h-.2Z"/>
          <path class="st5" d="M31,137.9v-4.9l3.6-.9v-23.1l-3.6-.9v-4.9h16.3c3.1,0,5.9.7,8.3,2.2s4.3,3.5,5.7,6c1.4,2.6,2.1,5.5,2.1,8.9v.5c0,3.4-.7,6.3-2.1,8.9-1.4,2.6-3.3,4.6-5.7,6s-5.2,2.2-8.3,2.2c0,0-16.3,0-16.3,0ZM43,131.5h3.8c1.8,0,3.2-.4,4.4-1.3s2.1-2.1,2.7-3.8c.6-1.6.9-3.5.9-5.6v-.6c0-2.1-.3-4-.9-5.6s-1.5-2.9-2.7-3.7-2.7-1.3-4.4-1.3h-3.8v22h0q0,0,0,0h0Z"/>
          <path class="st5" d="M67.3,137.9v-4.9l3-.8v-14.5l-3.6-.8v-4.9h11.5l.2,3.1v.6c.6-1.5,1.3-2.5,2.2-3.2.9-.7,1.9-1,3.2-1s.8,0,1.2,0,1,.2,1.5.3l-.8,7.7-3.6-.2c-.8,0-1.5,0-1.9.3-.5.2-.9.6-1.4,1.1v11.4l3,.8v4.9h-14.5q0,0,0,0h0Z"/>
          <path class="st5" d="M88.3,137.9v-4.9l3-.8v-14.5l-3.6-.8v-4.9h12v20.2l3,.8v4.9h-14.4ZM91.1,107.2v-6.5h8.6v6.5h-8.6Z"/>
          <path class="st5" d="M113.4,137.9l-6.9-20.4-2.9-.5v-4.9h13.6v4.9l-2.3.5,2.7,9.9.5,2h0l.6-2,3.6-9.8-3-.5v-4.9h13.5v4.9l-3,.6-7.8,20.3h-8.9.2q0-.1,0,0Z"/>
          <path class="st5" d="M147.1,138.4c-2.5,0-4.7-.5-6.6-1.6-1.9-1.1-3.3-2.6-4.4-4.5-1-1.9-1.6-4-1.6-6.4v-.9c0-2.6.5-4.9,1.4-7,.9-2,2.3-3.6,4.1-4.7s4-1.7,6.6-1.7,4.3.5,5.9,1.3c1.6.9,2.8,2.2,3.7,4,.8,1.7,1.3,3.9,1.3,6.4v4.3h-14.2v.2c.1.8.4,1.5.8,2.2s1,1.1,1.8,1.5c.7.4,1.7.5,2.8.5s2.1-.1,3.2-.4c1-.2,2.1-.6,3.3-1.2l1.9,5.1c-1.2.8-2.6,1.5-4.2,2.1-1.7.5-3.5.8-5.6.8h-.2ZM143.2,122.5h6.6v-.6c0-.9,0-1.7-.3-2.3-.2-.6-.5-1.1-.9-1.4s-1.1-.5-1.8-.5-1.5.2-2,.6-.9,1-1.1,1.7c-.2.7-.4,1.5-.5,2.4h0Z"/>
          <path class="st5" d="M161.3,137.9v-4.9l3-.8v-14.5l-3.6-.8v-4.9h11.5l.2,3.1v.6c.6-1.5,1.3-2.5,2.2-3.2s1.9-1,3.2-1,.8,0,1.2,0,1,.2,1.5.3l-.8,7.7-3.6-.2c-.8,0-1.5,0-1.9.3-.5.2-.9.6-1.4,1.1v11.4l3,.8v4.9h-14.5q0,0,0,0h0Z"/>
          <path class="st5" d="M178.6,137.9v-6.9h8.3v6.9h-8.3Z"/>
        </g>
        <g class="st1">
          <g class="st1">
            <g class="st1">
              <g class="st1">
                <path class="st3" d="M35.5,164.6c-.9,0-1.7-.1-2.4-.3-.7-.2-1.5-.6-2.2-1.1v-2.9h1.8l.3,1.8c.3.2.6.4,1.1.5.4.1.9.2,1.5.2s.9,0,1.2-.2c.3-.1.6-.3.7-.6s.3-.5.3-.9,0-.6-.2-.8c-.2-.2-.4-.5-.8-.7-.4-.2-.8-.4-1.4-.6-1-.3-1.8-.6-2.4-.9-.6-.3-1.1-.8-1.4-1.2-.3-.5-.5-1.1-.5-1.7s.2-1.3.6-1.8c.4-.5.9-.9,1.5-1.2.7-.3,1.4-.4,2.3-.5.9,0,1.8.1,2.5.4.7.2,1.3.6,1.9,1v2.7h-1.8l-.3-1.7c-.2-.2-.5-.3-.9-.4-.4-.1-.8-.2-1.3-.2s-.8,0-1.1.2c-.3.1-.6.3-.8.6-.2.2-.3.5-.3.9s0,.6.2.8c.2.2.4.4.8.6.4.2.9.4,1.5.6,1.4.4,2.4.9,3.1,1.5.7.6,1.1,1.4,1.1,2.4s-.2,1.3-.6,1.8c-.4.5-.9.9-1.6,1.2-.7.3-1.5.4-2.4.4Z"/>
              </g>
            </g>
            <g class="st1">
              <g class="st1">
                <path class="st3" d="M45.5,164.6c-.9,0-1.6-.2-2.3-.6-.6-.4-1.1-.9-1.5-1.6-.3-.7-.5-1.5-.5-2.4v-.3c0-.9.2-1.7.5-2.4.4-.7.8-1.3,1.5-1.7.6-.4,1.4-.6,2.3-.6s1.5.1,2.1.4c.6.3,1.1.6,1.4.9v2.6h-1.8l-.3-1.6c-.1-.1-.3-.3-.6-.4-.2,0-.5-.1-.7-.1-.5,0-.9.1-1.2.4-.3.2-.6.6-.7,1-.2.4-.2,1-.2,1.6v.3c0,.6,0,1.2.3,1.6.2.4.4.7.7,1,.3.2.6.3,1,.3s.8-.1,1.1-.4c.3-.2.5-.6.6-1h2c0,.7-.3,1.2-.6,1.7s-.7.8-1.2,1.1c-.5.3-1.2.4-2,.4Z"/>
              </g>
            </g>
            <g class="st1">
              <g class="st1">
                <path class="st3" d="M53.4,164.6c-.9,0-1.7-.2-2.2-.7-.5-.5-.8-1.2-.8-2s.4-1.6,1.1-2.1c.7-.5,1.7-.8,3.1-.8h1.3v-.7c0-.5-.1-.8-.4-1.1-.3-.3-.7-.4-1.2-.4s-.6,0-.8.1c-.2,0-.4.2-.6.3l-.2,1.2h-1.7v-2.3c.4-.3,1-.5,1.5-.7.6-.2,1.2-.3,1.9-.3,1.2,0,2.1.3,2.8.8.7.6,1,1.4,1,2.4v3.9c0,.1,0,.2,0,.4,0,.1,0,.2,0,.4h.9v1.5h-2.9c0-.2-.1-.4-.2-.5,0-.2,0-.4-.1-.6-.3.4-.7.7-1.1.9-.4.2-.9.4-1.4.4ZM54,162.8c.4,0,.8,0,1.1-.3s.6-.4.8-.7v-1.5h-1.3c-.6,0-1,.1-1.4.4s-.5.6-.5,1,.1.6.3.8c.2.2.5.3.9.3Z"/>
                <path class="st3" d="M60.1,164.4v-1.4l1.2-.3v-5.9l-1.3-.3v-1.4h3.5v1.3c.4-.5.8-.8,1.3-1.1.5-.3,1-.4,1.6-.4.9,0,1.7.3,2.2.9.5.6.8,1.5.8,2.7v4.1l1.2.3v1.4h-4.7v-1.4l1.1-.3v-4.1c0-.7-.1-1.1-.4-1.4-.3-.3-.7-.4-1.2-.4s-.7,0-1,.3c-.3.2-.5.4-.7.7v5l1.1.3v1.4h-4.7Z"/>
              </g>
            </g>
            <g class="st1">
              <g class="st1">
                <path class="st3" d="M79.3,164.6c-.8,0-1.5-.2-1.9-.7-.5-.5-.7-1.2-.7-2.2v-4.9h-1.3v-1.6h1.3v-2.3h2.3v2.3h1.8v1.6h-1.8v4.9c0,.4,0,.6.2.8.2.2.4.2.6.2s.3,0,.5,0c.2,0,.3,0,.4,0l.2,1.6c-.3,0-.5.1-.9.2-.3,0-.6,0-.9,0Z"/>
              </g>
            </g>
            <g class="st1">
              <g class="st1">
                <path class="st3" d="M86.2,164.6c-.9,0-1.7-.2-2.3-.6-.6-.4-1.1-1-1.5-1.7-.3-.7-.5-1.5-.5-2.4v-.2c0-.9.2-1.7.5-2.4.3-.7.8-1.3,1.5-1.7.6-.4,1.4-.6,2.3-.6s1.7.2,2.3.6c.6.4,1.1,1,1.5,1.7.3.7.5,1.5.5,2.4v.2c0,.9-.2,1.7-.5,2.4-.3.7-.8,1.3-1.5,1.7-.6.4-1.4.6-2.3.6ZM86.2,162.8c.4,0,.8-.1,1.1-.4.3-.2.5-.6.7-1,.1-.4.2-.9.2-1.5v-.2c0-.6,0-1.1-.2-1.5-.1-.4-.4-.8-.7-1-.3-.2-.7-.4-1.1-.4s-.8.1-1.1.4c-.3.2-.5.6-.7,1-.1.4-.2.9-.2,1.5v.2c0,.6,0,1.1.2,1.5.1.4.4.8.7,1,.3.2.7.4,1.1.4Z"/>
                <path class="st3" d="M95.9,164.4v-1.4l1.3-.3v-9.1l-1.3-.3v-1.4h5.8c.9,0,1.7.1,2.4.4.7.3,1.2.7,1.5,1.3s.5,1.2.5,2-.2,1.4-.5,1.9c-.4.6-.8,1-1.5,1.3-.6.3-1.4.5-2.2.5h-2.4v3.4l1.3.3v1.4h-5ZM99.6,157.6h2.1c.8,0,1.3-.2,1.7-.5.4-.3.6-.8.6-1.4s-.2-1.1-.5-1.4c-.4-.4-.9-.5-1.6-.5h-2.2v3.8ZM104,164.4l-2.2-5.6,2.1-.4,1.9,4.3,1,.2v1.4h-2.8Z"/>
                <path class="st3" d="M112.3,164.6c-.9,0-1.6-.2-2.3-.6-.7-.4-1.2-.9-1.5-1.6s-.5-1.5-.5-2.4v-.4c0-.9.2-1.7.5-2.4s.8-1.3,1.4-1.7c.6-.4,1.3-.6,2.2-.6s1.5.2,2.1.5c.6.3,1,.8,1.3,1.4.3.6.4,1.4.4,2.2v1.3h-5.6c0,.5.1.9.3,1.2.2.3.4.6.7.8.3.2.7.3,1.2.3s.9,0,1.3-.2c.4-.1.8-.3,1.1-.6l.7,1.4c-.4.3-.8.6-1.4.8-.6.2-1.2.3-2,.3ZM110.4,158.9h3.3v-.2c0-.4,0-.7-.2-1-.1-.3-.3-.5-.5-.7-.2-.2-.5-.2-.9-.2s-.6,0-.9.3c-.2.2-.4.4-.6.8-.1.3-.2.7-.3,1.1h0Z"/>
              </g>
            </g>
            <g class="st1">
              <g class="st1">
                <path class="st3" d="M117,168v-1.4l1.2-.3v-9.5l-1.4-.3v-1.4h3.5v1.1c.4-.4.7-.7,1.1-.9.4-.2.9-.3,1.4-.3s1.4.2,1.9.6c.5.4.9,1,1.2,1.7.3.7.4,1.6.4,2.6v.2c0,.9-.1,1.7-.4,2.4-.3.7-.7,1.2-1.2,1.6-.5.4-1.2.6-1.9.6s-1,0-1.3-.3c-.4-.2-.7-.5-1-.8v2.8l1.3.3v1.4h-4.8ZM122.1,162.8c.7,0,1.2-.2,1.5-.7.3-.5.5-1.2.5-2v-.2c0-.6,0-1.1-.2-1.6-.1-.5-.4-.8-.6-1.1-.3-.3-.7-.4-1.1-.4s-.7,0-1,.3c-.3.2-.5.4-.7.7v4.1c.2.3.4.5.7.7.3.2.6.2,1,.2Z"/>
              </g>
            </g>
            <g class="st1">
              <g class="st1">
                <path class="st3" d="M132.1,164.6c-.9,0-1.7-.2-2.3-.6-.6-.4-1.1-1-1.5-1.7-.3-.7-.5-1.5-.5-2.4v-.2c0-.9.2-1.7.5-2.4.3-.7.8-1.3,1.5-1.7.6-.4,1.4-.6,2.3-.6s1.7.2,2.3.6c.6.4,1.1,1,1.5,1.7.3.7.5,1.5.5,2.4v.2c0,.9-.2,1.7-.5,2.4-.3.7-.8,1.3-1.5,1.7-.6.4-1.4.6-2.3.6ZM132.1,162.8c.4,0,.8-.1,1.1-.4.3-.2.5-.6.7-1,.1-.4.2-.9.2-1.5v-.2c0-.6,0-1.1-.2-1.5-.1-.4-.4-.8-.7-1-.3-.2-.7-.4-1.1-.4s-.8.1-1.1.4c-.3.2-.5.6-.7,1-.1.4-.2.9-.2,1.5v.2c0,.6,0,1.1.2,1.5.1.4.4.8.7,1,.3.2.7.4,1.1.4Z"/>
              </g>
            </g>
            <g class="st1">
              <g class="st1">
                <path class="st3" d="M137.7,164.4v-1.4l1.2-.3v-5.9l-1.3-.3v-1.4h3.5v1.2c.1,0,.1.2.1.2.2-.5.5-.9.9-1.1.3-.3.8-.4,1.2-.4s.3,0,.5,0c.2,0,.3,0,.5,0l-.3,2.1h-1.2c-.4,0-.7,0-.9.1-.2.2-.4.4-.6.7v4.7l1.2.3v1.4h-4.8Z"/>
              </g>
            </g>
            <g class="st1">
              <g class="st1">
                <path class="st3" d="M148.9,164.6c-.8,0-1.5-.2-1.9-.7-.5-.5-.7-1.2-.7-2.2v-4.9h-1.3v-1.6h1.3v-2.3h2.3v2.3h1.8v1.6h-1.8v4.9c0,.4,0,.6.2.8.2.2.4.2.6.2s.3,0,.5,0c.2,0,.3,0,.4,0l.2,1.6c-.3,0-.5.1-.9.2-.3,0-.6,0-.9,0Z"/>
              </g>
            </g>
          </g>
        </g>
      </g>
    </g>
  </g>
</svg>