<?xml version="1.0" encoding="UTF-8"?>
<svg id="Layer_2" xmlns="http://www.w3.org/2000/svg" version="1.1" viewBox="0 0 720 216">
  <!-- Generator: Adobe Illustrator 30.1.0, SVG Export Plug-In . SVG Version: 2.1.1 Build 136)  -->
  <defs>
    <style>
      .st0 {
        fill: #fffcfa;
      }

      .st1 {
        isolation: isolate;
      }

      .st2 {
        fill: #fdd600;
        stroke: #ffd500;
      }

      .st2, .st3, .st4, .st5 {
        stroke-miterlimit: 10;
      }

      .st3, .st4 {
        stroke: #000;
        stroke-width: .5px;
      }

      .st6 {
        fill: #fff;
      }

      .st4 {
        fill: none;
      }

      .st5 {
        stroke: #fff;
      }

      .st7 {
        fill: #2a2a2a;
      }

      .st8 {
        fill: #171814;
      }
    </style>
  </defs>
  <g id="Layer_1-2">
    <g>
      <rect class="st2" x="-18" y="-18" width="756" height="252"/>
      <path class="st0" d="M340.6,48.3h0c.2,2.6,2.3,4.7,4.9,4.9h0c-2.6.2-4.7,2.3-4.9,4.9h0c-.2-2.6-2.3-4.7-4.9-4.9h0c2.6-.2,4.7-2.3,4.9-4.9h0Z"/>
      <path class="st7" d="M450,148.1h0c.4,5.6,4.8,10,10.4,10.4h0c-5.6.4-10,4.8-10.4,10.4h0c-.4-5.6-4.8-10-10.4-10.4h0c5.6-.4,10-4.8,10.4-10.4h0Z"/>
      <path class="st7" d="M418.6,23.4h0c.5,8.1,7,14.6,15.1,15.1h0c-8.1.5-14.6,7-15.1,15.1h0c-.5-8.1-7-14.6-15.1-15.1h0c8.1-.5,14.6-7,15.1-15.1h0Z"/>
      <path class="st7" d="M34.4,141.6h0c.2,2.8,2.4,5.1,5.3,5.3h0c-2.8.2-5.1,2.4-5.3,5.3h0c-.2-2.8-2.4-5.1-5.3-5.3h0c2.8-.2,5.1-2.4,5.3-5.3h0Z"/>
      <path class="st0" d="M17.4,11.2h0c.3,4.9,4.2,8.8,9.1,9.1h0c-4.9.3-8.8,4.2-9.1,9.1h0c-.3-4.9-4.2-8.8-9.1-9.1h0c4.9-.3,8.8-4.2,9.1-9.1h0Z"/>
      <rect class="st7" x="-18" y="176.8" width="756" height="57.2"/>
      <rect class="st6" x="133.8" y="193.9" width="43.5" height="4.5"/>
      <rect class="st6" x="332.4" y="193.9" width="43.5" height="4.5"/>
      <rect class="st6" x="399.8" y="193.9" width="43.5" height="4.5"/>
      <rect class="st6" x="460.9" y="193.9" width="43.5" height="4.5"/>
      <g>
        <g>
          <path class="st8" d="M180.5,182.1s1.4,7.3,1.9,10.2l.6-1.5,27.3.2s3.8-6.6-2.6-14.3c-6.4-7.6-16.2-4.8-16.2-4.8,0,0-7.9.1-10.9,10.2h-.1Z"/>
          <path class="st8" d="M309.7,191.6l-2.2-2.1-25.8,1.3-3.9-.9s-2.2-19.3,16.9-19.5c0,0,19.1.9,15.1,21.2h-.1Z"/>
        </g>
        <g>
          <g>
            <g>
              <path class="st8" d="M281.1,186.9c0,7.5,6.1,13.5,13.5,13.5s13.5-6.1,13.5-13.5-6.1-13.5-13.5-13.5-13.5,6.1-13.5,13.5ZM284.5,186.9c0-5.6,4.5-10.1,10.1-10.1s10.1,4.5,10.1,10.1-4.5,10.1-10.1,10.1-10.1-4.5-10.1-10.1Z"/>
              <g>
                <path class="st6" d="M284.5,186.9c0,5.6,4.5,10.1,10.1,10.1s10.1-4.5,10.1-10.1-4.5-10.1-10.1-10.1-10.1,4.5-10.1,10.1Z"/>
                <g>
                  <circle class="st3" cx="294.6" cy="186.9" r="4"/>
                  <circle class="st4" cx="294.6" cy="186.9" r="2.6"/>
                </g>
              </g>
            </g>
            <g>
              <path class="st8" d="M182.4,186.9c0,7.5,6.1,13.5,13.5,13.5s13.5-6.1,13.5-13.5-6.1-13.5-13.5-13.5-13.5,6.1-13.5,13.5ZM185.8,186.9c0-5.6,4.5-10.1,10.1-10.1s10.1,4.5,10.1,10.1-4.5,10.1-10.1,10.1-10.1-4.5-10.1-10.1Z"/>
              <g>
                <circle class="st8" cx="195.9" cy="186.9" r="10.1"/>
                <g>
                  <path class="st6" d="M185.8,186.9c0,5.6,4.5,10.1,10.1,10.1s10.1-4.5,10.1-10.1-4.5-10.1-10.1-10.1-10.1,4.5-10.1,10.1Z"/>
                  <g>
                    <circle class="st3" cx="195.9" cy="186.9" r="4"/>
                    <circle class="st4" cx="195.9" cy="186.9" r="2.6"/>
                  </g>
                </g>
              </g>
            </g>
          </g>
          <g>
            <g>
              <g>
                <path d="M184.4,163.4c1.1-1.6,2.3-1.6,2.9-1.6-.5,1-1.8,3.4-5.2,7.5-.2-.9.9-3.9,2.3-6h0Z"/>
                <path d="M184.4,163.4c.6-1,1.7-1.8,2.9-1.7,0,0,.1,0,.1.1-.6,1.5-1.3,2.8-2.2,4.2-.9,1.3-1.8,2.5-2.9,3.7-.1.1-.4.2-.5,0-.4-.7,0-1.4.2-2,.6-1.5,1.4-3,2.3-4.3h.1,0ZM184.4,163.4c-1,1.7-2.1,3.9-1.9,5.9h-.7c1.7-2.7,3.7-4.9,5.3-7.5v.2c-1-.3-2.1.5-2.8,1.4h.1,0Z"/>
              </g>
              <path class="st6" d="M182.2,169.4c3.3-4.2,4.7-6.5,5.2-7.5h.3-.3c.2-.5.3-.7.3-.7,6.9-9.3,14.9-17.8,20.5-19.9,5.9-2.3,33.7-6.8,48-1.9h-.5.7c14.3,5.1,28.8,16.9,28.8,16.9h5.7c.2.1.3.2.3.2,0,0-.1,0-.3-.2h2c20.7,3.1,23.4,9.7,23.4,9.7l2.7,1.9c1.6,2.9,1.8,6.4,1.8,6.4l.9.9s.7,1.1.8,3.5c.1,2.4-1.3,2.1-1.3,2.1l.3,4.6c2,.9.4,2.9.4,2.9-1.8,1.4-12.1,3.4-12.1,3.4.1-1.7-.2-5.8-.2-5.8-.5-8.1-7.3-14.5-15.5-14.5s-15.5,6.9-15.5,15.5v4.7c-23.3-.5-68.2-.6-68.2-.6.4-1.3.6-2.7.6-4.1,0-8.2-6.7-14.9-14.9-14.9s-11.4,3.7-13.7,9.1l-.4,1.1h-1.3c-.8-9.2,1.7-12.7,1.7-12.7h-.2q0,0,0,0h0Z"/>
            </g>
            <g>
              <path class="st4" d="M322.3,187.2s-6.6.8-10.3.9c0,0-.1-17.4-17.4-18.4-17.4-.9-19.1,17-18.8,18.7l-40-.4s-11.1.9-13.8-7.5c-2.6-8.4-1.7-16.8-1.3-19.7,0,0,.4-3.1,1.6-5.2"/>
              <g>
                <g>
                  <path d="M279.4,156.6c-2.4-.2-6-.4-10.5-.6l.3-6.8c5,3.4,10.2,7.4,10.2,7.4h0Z"/>
                  <path class="st5" d="M239.8,139.9c12.3.2,18,2.3,24.3,5.9,1.4.8,3,1.8,4.7,2.9l-.3,7.6c-11.5-.5-27.6-.9-41.1-1.1l1.4-15c3.5-.3,7.3-.4,11.1-.3h-.1Z"/>
                  <path class="st5" d="M211.9,143.9c2.4-1.5,7.5-2.7,13.8-3.4-.5,2.2-2.4,9.6-3.1,14.6-11.7-.2-20.5-.3-20.5-.3.2-.7,5.8-8.3,9.7-10.8h.1Z"/>
                  <path class="st6" d="M228.6,140.5l-1.4,14.4h-4.5c.7-4.8,2.5-12,3-14.1.9-.1,1.9-.2,2.9-.3h0Z"/>
                </g>
                <g>
                  <rect x="225" y="162.4" width="7.7" height="3.2"/>
                  <path class="st8" d="M311.4,163.1s2.9-.2,5.3,4.2.5,4.1-.8,3.4-7.9-6.7-4.5-7.6h0Z"/>
                </g>
              </g>
            </g>
          </g>
        </g>
      </g>
      <ellipse cx="251.4" cy="201.2" rx="76.4" ry="2.9"/>
      <rect class="st6" x="513" y="9" width="198" height="198"/>
      <g>
        <path class="st7" d="M61.3,66.4c2.6,0,4.8-.4,6.7-1.2s3.4-1.9,4.5-3.3c1.1-1.4,1.6-3.1,1.6-5.1,0-2.8-1-5.1-3-6.9-2-1.7-4.9-3.2-8.7-4.2-1.8-.6-3.2-1.1-4.2-1.7-1-.5-1.7-1.1-2.2-1.6-.4-.6-.6-1.3-.6-2s.2-1.7.7-2.3c.5-.6,1.2-1.1,2-1.5s1.8-.5,2.9-.5,2.5.1,3.5.4c1,.3,1.8.6,2.4,1l.9,4.8h5.2v-7.8c-1.5-1.2-3.3-2.1-5.3-2.8-2.1-.7-4.4-1-7.1-1-2.4,0-4.5.5-6.4,1.3-1.8.8-3.3,2-4.3,3.4-1,1.4-1.6,3.1-1.6,5s.4,3.5,1.3,4.8c.9,1.3,2.2,2.5,4.1,3.5s4.1,1.8,6.8,2.7c1.6.5,2.8,1,3.8,1.5.9.5,1.6,1.1,2,1.8.4.6.6,1.4.6,2.2s-.2,1.6-.7,2.3-1.1,1.1-2,1.5c-.9.3-1.9.5-3.2.5s-2.8-.2-4.1-.6-2.2-.9-3-1.5l-.7-4.9h-5.4v8.4c2,1.4,4.1,2.4,6.2,3,2.1.6,4.4.9,7,.9Z"/>
        <path class="st7" d="M81.9,64.4c1.3,1.3,3.1,2,5.5,2s1.6,0,2.5-.2,1.6-.3,2.3-.5l-.6-5c-.3,0-.7.1-1.1.2s-.9,0-1.3,0c-.7,0-1.3-.2-1.7-.6-.4-.4-.6-1.1-.6-2.1v-13.1h4.7v-4.9h-4.7v-6.3h-6.9v6.3h-3.6v4.9h3.6v13.2c0,2.9.6,4.9,1.9,6.3Z"/>
        <polygon class="st7" points="98.7 61 95.4 61.7 95.4 65.9 109 65.9 109 61.7 105.7 61 105.7 40.1 95 40.1 95 44.3 98.7 45 98.7 61"/>
        <rect class="st7" x="98.5" y="28.7" width="7.2" height="5.9"/>
        <polygon class="st7" points="114.3 61 111 61.7 111 65.9 124.6 65.9 124.6 61.7 121.3 61 121.3 28.7 110.6 28.7 110.6 32.9 114.3 33.6 114.3 61"/>
        <polygon class="st7" points="129.9 61 126.5 61.7 126.5 65.9 140.2 65.9 140.2 61.7 136.8 61 136.8 28.7 126.2 28.7 126.2 32.9 129.9 33.6 129.9 61"/>
        <path class="st7" d="M178,65.4c2.2-.7,4-1.5,5.6-2.6v-14h-11.9v4.9l5,.4v5.9c-.7.3-1.5.6-2.5.8-1,.2-2.1.3-3.4.3-2.1,0-3.8-.5-5.3-1.4s-2.5-2.3-3.3-4c-.7-1.7-1.1-3.8-1.1-6.1v-1.2c0-2.4.4-4.5,1.1-6.3.7-1.8,1.8-3.2,3.2-4.3,1.4-1,3.1-1.5,5-1.5s2.5.2,3.6.5c1,.3,1.9.8,2.5,1.3l1,4.6h5.1v-7.7c-1.6-1.4-3.5-2.4-5.7-3.1-2.2-.7-4.5-1-7-1s-6,.7-8.4,2.2-4.2,3.5-5.5,6.2c-1.3,2.6-1.9,5.7-1.9,9.2v1.2c0,3.4.6,6.3,1.9,8.8,1.3,2.5,3.2,4.5,5.6,6,2.4,1.4,5.4,2.1,8.8,2.1s5.4-.3,7.5-1Z"/>
        <path class="st7" d="M211.6,52.8c0-2.6-.5-4.8-1.5-6.8-1-2-2.4-3.5-4.2-4.6-1.8-1.1-4-1.7-6.6-1.7s-4.7.6-6.5,1.7c-1.8,1.1-3.2,2.7-4.2,4.6-1,2-1.5,4.2-1.5,6.8v.5c0,2.6.5,4.8,1.5,6.8,1,2,2.4,3.5,4.2,4.6,1.8,1.1,4,1.7,6.6,1.7s4.7-.6,6.5-1.7c1.8-1.1,3.2-2.7,4.2-4.6,1-2,1.5-4.3,1.5-6.8v-.5ZM204.7,53.3c0,1.6-.2,2.9-.5,4.1-.4,1.2-.9,2.1-1.7,2.7-.8.7-1.7,1-3,1s-2.2-.3-3-1c-.8-.6-1.3-1.6-1.7-2.7s-.5-2.5-.5-4.1v-.5c0-1.5.2-2.9.5-4,.4-1.2.9-2.1,1.7-2.7s1.8-1,3-1,2.2.3,3,1,1.3,1.6,1.7,2.7c.4,1.2.5,2.5.5,4v.5Z"/>
        <path class="st7" d="M217.2,58.2c0,2.9.6,4.9,1.9,6.3,1.3,1.3,3.1,2,5.5,2s1.6,0,2.5-.2,1.6-.3,2.3-.5l-.6-5c-.3,0-.7.1-1.1.2s-.9,0-1.3,0c-.7,0-1.3-.2-1.7-.6-.4-.4-.6-1.1-.6-2.1v-13.1h4.7v-4.9h-4.7v-6.3h-6.9v6.3h-3.6v4.9h3.6v13.2Z"/>
        <polygon class="st7" points="258.3 61.7 254.6 61 254.6 36.1 258.3 35.4 258.3 31.2 243.9 31.2 243.9 35.4 247.6 36.1 247.6 61 243.9 61.7 243.9 65.9 258.3 65.9 258.3 61.7"/>
        <path class="st7" d="M263.7,58.2c0,2.9.6,4.9,1.9,6.3,1.3,1.3,3.1,2,5.5,2s1.6,0,2.5-.2,1.6-.3,2.3-.5l-.6-5c-.3,0-.7.1-1.1.2s-.9,0-1.3,0c-.7,0-1.3-.2-1.7-.6-.4-.4-.6-1.1-.6-2.1v-13.1h4.7v-4.9h-4.7v-6.3h-6.9v6.3h-3.6v4.9h3.6v13.2Z"/>
        <rect class="st7" x="285" y="59.8" width="7" height="6.1"/>
        <path class="st7" d="M286.1,37.2c.8-.6,1.8-1,2.9-1s2.4.4,3.2,1.2c.8.8,1.1,1.8,1.1,3.2s-.1,1.6-.4,2.4c-.3.8-.7,1.5-1.2,2.2s-1.2,1.4-2,2.1c-1,.7-1.7,1.4-2.3,2-.6.6-1.1,1.2-1.4,1.8-.3.6-.6,1.3-.7,2.1-.1.8-.2,1.8-.2,2.9h7c0-.9,0-1.6.2-2.3.1-.6.3-1.2.6-1.6.3-.5.8-1,1.4-1.5,1.2-1,2.3-2.1,3.2-3.1.9-1,1.7-2.2,2.2-3.3.5-1.2.8-2.5.8-3.8,0-3-1-5.3-3-7.1s-4.8-2.6-8.3-2.6-4.1.4-5.8,1.1c-1.7.7-3,1.8-3.9,3.1s-1.4,3-1.3,5h0c0,.1,6.7.1,6.7.1,0-1.3.4-2.2,1.3-2.9Z"/>
        <path class="st7" d="M70.5,100s0,0,0,0c1.8-.9,3.2-2.2,4.2-3.8s1.5-3.4,1.5-5.5-.5-4-1.5-5.6c-1-1.5-2.5-2.7-4.4-3.6-1.9-.8-4.2-1.2-6.9-1.2h-16.4v4.2l3.7.7v24.9l-3.7.7v4.2h14.4v-4.2l-3.7-.7v-8.8h6.3l5.3,13.7h8.4v-4.2l-3-.7-4.4-10.2ZM57.8,96v-10.3h5.8c1.9,0,3.4.5,4.4,1.4,1,1,1.5,2.2,1.5,3.8s-.5,2.9-1.5,3.7c-1,.8-2.5,1.3-4.5,1.3h-5.7Z"/>
        <path class="st7" d="M103.2,109.6c0-.3,0-.7,0-1v-10.6c0-2.9-1-5.1-2.9-6.7-2-1.6-4.6-2.3-8-2.3s-3.7.2-5.3.7c-1.6.5-3,1.1-4.4,1.9v6.7h5.1l.5-3.4c.5-.3,1-.6,1.6-.8s1.3-.3,2-.3c1.4,0,2.5.4,3.3,1.2.7.8,1.1,1.8,1.1,3v1.9h-3.4c-3.8,0-6.7.8-8.6,2.3-2,1.5-3,3.5-3,5.9s.8,4.2,2.3,5.6,3.5,2.1,6.1,2.1,2.8-.3,3.9-.9c1.1-.6,2.1-1.5,2.9-2.5,0,.5.2,1,.4,1.5.2.5.3,1,.5,1.4h8.6v-4.2l-2.7-.4c0-.3,0-.6,0-1ZM96.3,108.1c-.5.7-1.2,1.3-2,1.7-.9.4-1.8.7-2.8.7s-1.8-.2-2.4-.8c-.6-.5-.9-1.2-.9-2.1s.4-1.8,1.2-2.5c.8-.7,1.9-1,3.5-1h3.4v4.1Z"/>
        <path class="st7" d="M120.8,110c-.4,0-.9,0-1.3,0-.7,0-1.3-.2-1.7-.6-.4-.4-.6-1.1-.6-2.1v-13.1h4.7v-4.9h-4.7v-6.3h-6.9v6.3h-3.6v4.9h3.6v13.2c0,2.9.6,4.9,1.9,6.3,1.3,1.3,3.1,2,5.5,2s1.6,0,2.5-.2,1.6-.3,2.3-.5l-.6-5c-.3,0-.7.1-1.1.2Z"/>
        <path class="st7" d="M142.1,90.2c-1.6-.9-3.6-1.4-5.9-1.4s-4.4.6-6.2,1.7c-1.7,1.1-3.1,2.7-4,4.7s-1.4,4.2-1.4,6.8v1c0,2.4.5,4.6,1.5,6.5,1,1.9,2.4,3.4,4.3,4.5s4,1.6,6.5,1.6,3.9-.3,5.5-.8c1.6-.6,3-1.3,4-2.1l-1.9-4.3c-1,.6-2.1,1.1-3.2,1.4-1.1.3-2.3.5-3.6.5s-2.3-.2-3.1-.8c-.9-.5-1.5-1.2-2-2.1-.5-.9-.8-1.9-.8-3h0c0-.1,15.2-.1,15.2-.1v-3.8c0-2.5-.4-4.6-1.2-6.3-.8-1.7-2-3.1-3.6-4ZM140.5,99.7h-8.7c.1-1.2.4-2.1.7-3,.4-.8.9-1.5,1.5-2,.6-.5,1.4-.7,2.3-.7s1.8.2,2.4.6c.6.4,1.1,1,1.3,1.8.3.8.4,1.7.4,2.7v.6Z"/>
        <polygon class="st7" points="185.6 104.6 185.4 104.6 176 80.4 165.7 80.4 162 80.4 162 84.6 165.7 85.3 165.7 110.2 162 110.9 162 115.1 176.4 115.1 176.4 110.9 172.3 110.2 172.3 102.9 171.8 88.1 172 88.1 182.6 114.6 187.9 114.6 198.2 87.9 198.4 87.9 198.2 103.6 198.2 110.2 194.4 110.9 194.4 115.1 208.7 115.1 208.7 110.9 205 110.2 205 85.3 208.7 84.6 208.7 80.4 194.7 80.4 185.6 104.6"/>
        <path class="st7" d="M227.3,93.5l3.1.4-4.8,12.8h-.1l-.5-1.4-4.1-11.4,3.1-.5v-4.2h-13.7v4.2l3.2.5,8.6,21.4-.6,1.6c-.3,1-.9,1.7-1.6,2.3-.7.5-1.6.8-2.6.8s-.6,0-1,0c-.4,0-.7,0-1-.1l-.8,5.1c.6.2,1.2.3,1.9.4.7.1,1.3.2,1.9.2,1.7,0,3-.3,4.2-.9,1.1-.6,2.1-1.4,2.8-2.4.7-1,1.3-2.1,1.8-3.3l9.8-25,2.9-.4v-4.2h-12.7v4.2Z"/>
        <path class="st7" d="M277.2,82.6c-2.4-1.5-5.1-2.2-8.2-2.2h-15.2v4.2l3.7.8v24.7l-3.7.8v4.2h15.3c3.1,0,5.8-.7,8.2-2.2,2.4-1.5,4.2-3.5,5.5-6,1.3-2.6,2-5.5,2-8.8v-.6c0-3.3-.7-6.3-2-8.8-1.3-2.6-3.2-4.6-5.5-6ZM277.8,98.1c0,2.3-.4,4.3-1.1,6-.7,1.8-1.7,3.1-3.1,4.2-1.3,1-3,1.5-4.9,1.5h-4.3v-24h4.3c1.9,0,3.6.5,4.9,1.5,1.3,1,2.4,2.4,3.1,4.1.7,1.8,1.1,3.8,1.1,6.1v.7Z"/>
        <path class="st7" d="M306.1,88.8c-1.3,0-2.4.4-3.4,1.1-.9.7-1.7,1.8-2.4,3.2v-.6s-.3-3.2-.3-3.2h-10.2v4.2l3.7.7v16l-3.3.7v4.2h13.6v-4.2l-3.3-.7v-12.6c.5-.7,1-1.3,1.6-1.6.6-.4,1.4-.5,2.4-.5l3.5.2.7-6.4c-.4-.1-.8-.2-1.3-.3-.5,0-.9-.1-1.4-.1Z"/>
        <rect class="st7" x="314.4" y="77.9" width="7.2" height="5.9"/>
        <polygon class="st7" points="321.6 89.3 310.9 89.3 310.9 93.5 314.6 94.2 314.6 110.2 311.3 110.9 311.3 115.1 324.9 115.1 324.9 110.9 321.6 110.2 321.6 89.3"/>
        <polygon class="st7" points="342.5 93.5 345.6 94 341.4 105.7 340.7 107.7 340.5 107.7 340 105.7 336.1 94 338.8 93.5 338.8 89.3 326.3 89.3 326.3 93.5 329.1 93.9 336.9 115.1 343.9 115.1 352.1 94 354.9 93.5 354.9 89.3 342.5 89.3 342.5 93.5"/>
        <rect class="st7" x="359.9" y="77.9" width="7.2" height="5.9"/>
        <polygon class="st7" points="367.1 89.3 356.4 89.3 356.4 93.5 360.1 94.2 360.1 110.2 356.8 110.9 356.8 115.1 370.4 115.1 370.4 110.9 367.1 110.2 367.1 89.3"/>
        <path class="st7" d="M398.7,99c0-3.5-.7-6.1-2.2-7.7-1.4-1.6-3.4-2.5-6-2.5s-3.1.4-4.3,1.1-2.3,1.8-3.2,3.1l-.3-3.7h-10.2v4.2l3.7.7v16l-3.3.7v4.2h13.1v-4.2l-2.8-.7v-13.5c.5-.8,1.1-1.4,1.8-1.8.7-.4,1.6-.6,2.6-.6s2.4.4,3,1.1c.7.7,1,2,1,3.7v11.2l-3,.7v4.2h13.3v-4.2l-3.3-.7v-11.2Z"/>
        <path class="st7" d="M423.3,89.3h-2.1l-.5,3.2c-.8-1.2-1.7-2.1-2.8-2.8-1.1-.6-2.4-1-4-1s-3.8.6-5.3,1.7-2.6,2.7-3.4,4.8c-.8,2-1.2,4.4-1.2,7.1v.5c0,2.5.4,4.7,1.2,6.6.8,1.9,1.9,3.4,3.5,4.4,1.5,1.1,3.3,1.6,5.4,1.6s2.5-.3,3.5-.8c1-.5,1.9-1.2,2.7-2.2v1.7c0,1.8-.4,3.3-1.3,4.3-.9,1-2.2,1.5-4.1,1.5s-2.2-.1-3.5-.4c-1.2-.3-2.4-.7-3.5-1.1l-1.3,5c1.2.6,2.7,1.1,4.3,1.4,1.6.3,3.1.5,4.4.5,2.5,0,4.6-.5,6.4-1.4,1.8-.9,3.2-2.2,4.1-3.9,1-1.7,1.4-3.6,1.4-5.9v-20.2l3-.6v-4.2h-6.9ZM420.2,107.9c-.4.7-1,1.3-1.7,1.7s-1.6.6-2.5.6c-1.8,0-3.1-.6-3.9-1.9-.8-1.3-1.2-3.1-1.2-5.3v-.5c0-1.6.2-3.1.5-4.3.3-1.2.9-2.2,1.6-2.9.7-.7,1.7-1,2.9-1s1.8.2,2.5.6,1.3,1,1.8,1.8v11.2Z"/>
        <rect class="st7" x="433.9" y="109" width="6.9" height="6.1"/>
      </g>
      <rect class="st6" x="6" y="193.9" width="43.5" height="4.5"/>
      <rect class="st6" x="69.9" y="193.9" width="43.5" height="4.5"/>
      <path class="st0" d="M120.4,127.4c4.2-.6,8.7,0,12.4,2.1,4.6,2.5,7.6,7.7,7.5,12.9,0,3.1-.9,6.3-2.8,8.8-.8,1.1-1.9,1.8-2.8,2.7,1.5.9,3.2,1.8,4.1,3.4.5.8.7,1.8.9,2.7,1-1.1,1.9-2.3,3.2-3.1,3.4-2.2,7.8-3,11.6-1.7,3,.8,5.6,2.8,7.4,5.4,1.7,2.7,2.3,6,2,9.2-.3,2.3-1.5,4.3-2.3,6.4,3.2,1.6,7,3.7,9.6,4.7,3.1,1.7,9.4,3.9,9.4,3.9,0,0-6.2,1.9-8,2.4-2.7.8-6,1.2-8.8,1.3-9.1.3-18.2,0-27.3.1-5.9.1-11.8,0-17.6,0s-4.1.4-6.1,0c-3.4-.4-6.1-2.6-9.4-3.4-4-1.1-8.1.6-12.2.2-2.6-.3-5.3-.6-7.5-1.9-2.9-1.6-5.1-4.5-5.6-7.8-.4-2.7-.4-5.5.8-8,1.9-4.2,6.2-7.4,10.9-7.6,1.4,0,2.7.4,4.1.8-.9-1.4-2-2.8-2.6-4.4-.9-2.4-.4-5.2.9-7.4,1.9-3,5.3-5.2,8.9-5.2,2-.1,3.9.5,5.7,1.3-.8-4.2.9-8.6,3.7-11.8,2.7-3,6.3-5.2,10.3-5.8l-.4-.2h0Z"/>
      <g class="st1">
        <g class="st1">
          <g class="st1">
            <g class="st1">
              <path class="st7" d="M98.6,173.9c-.5,0-.9,0-1.3-.2-.4-.1-.8-.3-1.2-.6v-1.6h.9v1c.3.1.5.2.8.3.2,0,.5.1.8.1s.5,0,.7-.1c.2,0,.3-.2.4-.3s.1-.3.1-.5,0-.3-.1-.5-.2-.3-.4-.4-.5-.2-.8-.3c-.5-.1-.9-.3-1.3-.5s-.6-.4-.8-.7-.3-.6-.3-.9,0-.7.3-1c.2-.3.5-.5.8-.7.4-.2.8-.2,1.2-.2.5,0,1,0,1.3.2s.7.3,1,.5v1.5h-.9l-.2-1c-.1,0-.3-.2-.5-.2-.2,0-.4,0-.7,0s-.4,0-.6.1c-.2,0-.3.2-.4.3-.1.1-.2.3-.2.5s0,.3.1.5c0,.1.2.2.5.3.2.1.5.2.9.3.7.2,1.3.5,1.7.8.4.3.6.8.6,1.3s-.1.7-.3,1c-.2.3-.5.5-.9.7-.4.2-.8.2-1.3.2Z"/>
            </g>
          </g>
          <g class="st1">
            <g class="st1">
              <path class="st7" d="M104.1,173.9c-.5,0-.9-.1-1.2-.3-.3-.2-.6-.5-.8-.9s-.3-.8-.3-1.3v-.2c0-.5,0-.9.3-1.3.2-.4.5-.7.8-.9.3-.2.8-.3,1.2-.3s.8,0,1.1.2c.3.1.6.3.8.5v1.4s-.9,0-.9,0l-.2-.9c0,0-.2-.2-.3-.2-.1,0-.3,0-.4,0-.3,0-.5,0-.7.2-.2.1-.3.3-.4.6,0,.2-.1.5-.1.9v.2c0,.4,0,.7.1.9,0,.2.2.4.4.6.2.1.4.2.6.2s.5,0,.7-.2.3-.3.3-.6h1c0,.4-.1.7-.3.9s-.4.5-.7.6c-.3.1-.6.2-1.1.2Z"/>
            </g>
          </g>
          <g class="st1">
            <g class="st1">
              <path class="st7" d="M108.4,173.9c-.5,0-.9-.1-1.2-.4s-.4-.6-.4-1.1.2-.9.6-1.2.9-.4,1.7-.4h.8v-.4c0-.3,0-.5-.2-.6-.2-.2-.4-.2-.7-.2s-.3,0-.5,0-.3.1-.4.2v.7h-1v-1.3c.2-.2.5-.3.8-.4.3,0,.6-.1,1-.1.6,0,1.2.2,1.5.5.4.3.6.7.6,1.3v2.2c0,0,0,.1,0,.2s0,.1,0,.2h.5v.8h-1.5c0-.1,0-.2,0-.3,0-.1,0-.2,0-.3-.2.2-.4.4-.6.5s-.5.2-.8.2ZM108.7,173c.2,0,.5,0,.7-.2.2-.1.4-.2.5-.4v-.8h-.8c-.4,0-.6,0-.8.2s-.3.4-.3.6,0,.3.2.5c.1.1.3.2.5.2Z"/>
              <path class="st7" d="M112,173.8v-.7h.7v-3.5h-.7v-.9h1.8v.7c.2-.3.4-.5.7-.6.3-.1.5-.2.9-.2.5,0,.9.2,1.2.5s.4.8.4,1.5v2.3h.7v.9h-2.5v-.7h.7v-2.5c0-.4,0-.7-.2-.8s-.4-.2-.7-.2-.4,0-.6.2c-.2.1-.3.2-.4.4v2.8h.6v.9h-2.5Z"/>
            </g>
          </g>
          <g class="st1">
            <g class="st1">
              <path class="st7" d="M122.6,173.9c-.4,0-.8-.1-1-.4s-.4-.6-.4-1.2v-2.8h-.7v-.8h.7v-1.2h1.2v1.2h1v.8h-1v2.8c0,.2,0,.4.1.5,0,0,.2.1.4.1s.2,0,.3,0,.2,0,.3,0v.8s-.2,0-.3.1c-.2,0-.3,0-.5,0Z"/>
            </g>
          </g>
          <g class="st1">
            <g class="st1">
              <path class="st7" d="M126.4,173.9c-.5,0-.9-.1-1.3-.3-.3-.2-.6-.5-.8-.9-.2-.4-.3-.8-.3-1.3h0c0-.6,0-1,.3-1.4s.5-.7.8-.9c.4-.2.8-.3,1.2-.3s.9.1,1.3.3c.4.2.6.5.8.9.2.4.3.8.3,1.3h0c0,.6,0,1.1-.3,1.4-.2.4-.5.7-.8.9-.3.2-.8.3-1.2.3ZM126.4,173c.3,0,.5,0,.6-.2.2-.1.3-.3.4-.6,0-.3.1-.5.1-.9h0c0-.4,0-.7-.1-1s-.2-.4-.4-.6-.4-.2-.7-.2-.5,0-.6.2-.3.3-.4.6c0,.2-.1.5-.1.9h0c0,.4,0,.7.1,1,0,.3.2.4.4.6.2.1.4.2.7.2Z"/>
              <path class="st7" d="M131.7,173.8v-.7h.7v-5.2h-.7v-.9h3.2c.5,0,1,0,1.3.2.4.2.6.4.8.7.2.3.3.6.3,1.1s0,.7-.3,1c-.2.3-.5.5-.8.7s-.7.2-1.2.3h-1.4v2h.7v.9h-2.7ZM133.7,170h1.2c.4,0,.8,0,1-.3s.3-.4.3-.8-.1-.6-.3-.8-.5-.3-.9-.3h-1.2v2.2ZM136.2,173.8l-1.3-3.1,1.1-.2,1.1,2.5h.5v.8h-1.4Z"/>
            </g>
          </g>
          <g class="st1">
            <g class="st1">
              <path class="st7" d="M140,173.9c-.5,0-.9-.1-1.2-.4s-.4-.6-.4-1.1.2-.9.6-1.2.9-.4,1.7-.4h.8v-.4c0-.3,0-.5-.2-.6-.2-.2-.4-.2-.7-.2s-.3,0-.5,0-.3.1-.4.2v.7h-1v-1.3c.2-.2.5-.3.8-.4.3,0,.6-.1,1-.1.6,0,1.2.2,1.5.5.4.3.6.7.6,1.3v2.2c0,0,0,.1,0,.2s0,.1,0,.2h.5v.8h-1.5c0-.1,0-.2,0-.3,0-.1,0-.2,0-.3-.2.2-.4.4-.6.5s-.5.2-.8.2ZM140.3,173c.2,0,.5,0,.7-.2.2-.1.4-.2.5-.4v-.8h-.8c-.4,0-.6,0-.8.2s-.3.4-.3.6,0,.3.2.5c.1.1.3.2.5.2Z"/>
            </g>
          </g>
          <g class="st1">
            <g class="st1">
              <path class="st7" d="M145.4,173.9c-.4,0-.8-.1-1-.4s-.4-.6-.4-1.2v-2.8h-.7v-.8h.7v-1.2h1.2v1.2h1v.8h-1v2.8c0,.2,0,.4.1.5,0,0,.2.1.4.1s.2,0,.3,0,.2,0,.3,0v.8s-.2,0-.3.1c-.2,0-.3,0-.5,0Z"/>
            </g>
          </g>
          <g class="st1">
            <g class="st1">
              <path class="st7" d="M149.3,173.9c-.5,0-.9-.1-1.2-.3-.4-.2-.6-.5-.8-.9-.2-.4-.3-.8-.3-1.3v-.2c0-.5,0-.9.3-1.3.2-.4.5-.7.8-.9.3-.2.7-.3,1.2-.3s.8,0,1.2.3c.3.2.5.4.7.8.2.3.2.7.2,1.2v.7h-3.1c0,.3,0,.5.2.7,0,.2.2.4.4.5.2.1.4.2.7.2s.5,0,.8-.1c.2,0,.4-.2.6-.3l.4.7c-.2.2-.5.3-.8.4-.3.1-.7.2-1.1.2ZM148.2,170.8h2c0-.3,0-.5-.1-.7s-.2-.3-.3-.4-.3-.1-.5-.1-.4,0-.5.2c-.1.1-.3.2-.3.4,0,.2-.1.4-.2.6h0Z"/>
            </g>
          </g>
        </g>
      </g>
    </g>
  </g>
</svg>