<?xml version="1.0" encoding="UTF-8"?>
<svg id="Layer_2" xmlns="http://www.w3.org/2000/svg" xmlns:xlink="http://www.w3.org/1999/xlink" version="1.1" viewBox="0 0 720 216">
  <!-- Generator: Adobe Illustrator 30.1.0, SVG Export Plug-In . SVG Version: 2.1.1 Build 136)  -->
  <defs>
    <style>
      .st0, .st1, .st2 {
        fill: none;
      }

      .st3 {
        fill: #f4f4f5;
      }

      .st4 {
        isolation: isolate;
      }

      .st5 {
        stroke: #ffd500;
      }

      .st5, .st6, .st1, .st7, .st2 {
        stroke-miterlimit: 10;
      }

      .st5, .st8 {
        fill: #fdd600;
      }

      .st6, .st9, .st1 {
        stroke: #000;
      }

      .st6, .st1 {
        stroke-width: .5px;
      }

      .st9 {
        stroke-miterlimit: 10;
        stroke-width: .5px;
      }

      .st10 {
        fill: #fff;
      }

      .st7 {
        stroke: #fff;
      }

      .st2 {
        stroke: #f4f4f5;
      }

      .st11 {
        fill: #2a2a2a;
      }

      .st12 {
        fill: #171814;
      }

      .st13 {
        clip-path: url(#clippath);
      }
    </style>
    <clipPath id="clippath">
      <rect class="st0" x="-18" y="-18" width="756" height="252"/>
    </clipPath>
  </defs>
  <g id="Layer_1-2">
    <g>
      <g class="st13">
        <g>
          <rect class="st11" x="-18" y="-18" width="756" height="252"/>
          <polygon class="st5" points="21.7 -28 58.8 -65.3 76 -15.6 125.7 -33.1 119.6 19.2 172 24.9 143.8 69.4 188.5 97.3 143.8 125.2 172 169.7 119.6 175.4 125.7 227.7 76 210.2 58.8 259.9 21.7 222.6 -15.5 259.9 -32.7 210.2 -82.3 227.7 -76.3 175.4 -128.6 169.7 -100.5 125.2 -145.1 97.3 -100.5 69.4 -128.6 24.9 -76.3 19.2 -82.3 -33.1 -32.7 -15.6 -15.5 -65.3 21.7 -28"/>
          <g>
            <g>
              <path class="st12" d="M-172.2,121.3s3,15.8,4.2,22.3l1.3-3.3,59.3.4s8.3-14.5-5.7-31-35.3-10.4-35.3-10.4c0,0-17.1.3-23.7,22.1h0c0,0-.1,0-.1,0Z"/>
              <path class="st12" d="M108.9,141.9l-4.8-4.7-56.1,2.9-8.6-2s-4.8-42,36.7-42.4c0,0,41.5,2.1,32.8,46.1h0Z"/>
            </g>
            <g>
              <g>
                <g>
                  <path class="st12" d="M46.7,131.6c0,16.3,13.2,29.4,29.4,29.4s29.4-13.2,29.4-29.4-13.2-29.4-29.4-29.4-29.4,13.2-29.4,29.4ZM54.1,131.6c0-12.2,9.9-22,22-22s22,9.9,22,22-9.9,22-22,22-22-9.9-22-22h0Z"/>
                  <g>
                    <path class="st10" d="M54.1,131.6c0,12.2,9.9,22,22,22s22-9.9,22-22-9.9-22-22-22-22,9.9-22,22h0Z"/>
                    <g>
                      <circle class="st9" cx="76.1" cy="131.5" r="8.6"/>
                      <circle class="st1" cx="76.1" cy="131.6" r="5.7"/>
                    </g>
                  </g>
                </g>
                <g>
                  <path class="st12" d="M-168,131.6c0,16.3,13.2,29.4,29.4,29.4s29.4-13.2,29.4-29.4-13.2-29.4-29.4-29.4-29.4,13.2-29.4,29.4ZM-160.6,131.6c0-12.2,9.9-22,22-22s22,9.9,22,22-9.9,22-22,22-22-9.9-22-22Z"/>
                  <g>
                    <circle class="st12" cx="-138.6" cy="131.6" r="22"/>
                    <g>
                      <path class="st10" d="M-160.6,131.6c0,12.2,9.9,22,22,22s22-9.9,22-22-9.9-22-22-22-22,9.9-22,22Z"/>
                      <g>
                        <circle class="st6" cx="-138.6" cy="131.6" r="8.6"/>
                        <circle class="st1" cx="-138.6" cy="131.6" r="5.7"/>
                      </g>
                    </g>
                  </g>
                </g>
              </g>
              <g>
                <g>
                  <g>
                    <path d="M-163.6,80.5c2.3-3.4,5-3.6,6.2-3.4-1.1,2.3-4,7.3-11.2,16.4-.5-2.1,1.9-8.4,5-13Z"/>
                    <path d="M-163.6,80.5c1.4-2.1,3.6-3.8,6.3-3.5,0,0,.1,0,.1.2-1.4,3.1-3.2,5.9-5,8.7-1.9,2.8-3.9,5.4-6.1,7.9,0,.2-.4.2-.6,0-.5-1.1,0-2.7.4-3.9,1.2-3.4,2.9-6.5,4.8-9.5h0s.1,0,0,0h.1ZM-163.6,80.5c-1.9,2.9-3.4,6.2-4.3,9.6-.3,1.1-.5,2.3-.3,3.3h-.7c3.4-4.9,8.6-11.3,11.4-16.4v.2c-2.4-.5-4.8,1.2-6.1,3.3h0Z"/>
                  </g>
                  <path class="st10" d="M-168.6,93.6c7.2-9.1,10.1-14.2,11.2-16.4.4,0,.6,0,.6,0,0,0-.2,0-.6,0,.5-1,.6-1.5.6-1.5,15-20.3,32.3-38.6,44.6-43.4,12.9-5,73.2-14.9,104.4-4.1h-1,1.3c31.1,11,62.6,36.7,62.6,36.7h12.4c.4.3.7.4.7.4,0,0-.2-.2-.7-.4h4.3c45,6.8,50.9,21,50.9,21l5.9,4.1c3.4,6.3,4,13.9,4,13.9l2,1.9s1.5,2.4,1.7,7.6c.3,5.2-2.9,4.6-2.9,4.6l.7,10.1c4.4,2.1.9,6.3.9,6.3-4,3-26.3,7.3-26.3,7.3.2-3.7-.5-12.6-.5-12.6-1.1-17.6-15.8-31.5-33.7-31.5s-33.7,15.1-33.7,33.7v10.3c-50.7-1.1-148.4-1.3-148.4-1.3.8-2.9,1.3-5.9,1.3-9,0-17.9-14.5-32.4-32.4-32.4s-24.9,8.1-29.8,19.7l-.9,2.4h-2.9c-1.7-20,3.6-27.7,3.6-27.7v.2c0,0,.1,0,.1,0h0Z"/>
                </g>
                <g>
                  <path class="st1" d="M136.4,132.2s-14.4,1.8-22.5,1.9c0,0-.3-37.9-37.8-39.9-37.9-2.1-41.6,36.9-40.9,40.6l-87-.9s-24.2,2-29.9-16.3c-5.7-18.2-3.8-36.5-2.9-42.8,0,0,.9-6.8,3.4-11.2"/>
                  <g>
                    <g>
                      <path d="M43,65.8c-5.2-.5-13.2-.9-22.8-1.3l.7-14.9c10.9,7.3,22.1,16.2,22.1,16.2Z"/>
                      <path class="st7" d="M-43.1,29.4c26.8.5,39.1,5,52.8,12.9,3.1,1.8,6.6,4,10.1,6.4l-.8,16.4c-25-1-60.1-1.9-89.5-2.4l3.1-32.6c7.6-.6,15.8-.9,24.2-.7h.1Z"/>
                      <path class="st7" d="M-103.9,38.1c5.1-3.3,16.3-6,30.1-7.5-1.2,4.7-5.1,21-6.8,31.8-25.5-.5-44.5-.7-44.5-.7.5-1.5,12.6-18.1,21.2-23.6Z"/>
                      <path class="st10" d="M-67.5,30.7l-3,31.4c-3.3,0-6.6,0-9.8-.2,1.6-10.4,5.4-26.1,6.5-30.6,2-.2,4.1-.4,6.2-.6,0,0,0,0,.1,0Z"/>
                    </g>
                    <g>
                      <rect x="-75.2" y="78.4" width="16.7" height="6.9"/>
                      <path class="st12" d="M112.6,80s6.3-.5,11.5,9.1c5.2,9.5,1,8.9-1.7,7.5-2.8-1.5-17.1-14.7-9.8-16.5h0Z"/>
                    </g>
                  </g>
                </g>
              </g>
            </g>
          </g>
          <ellipse cx="-16.5" cy="162.6" rx="152.8" ry="5.7"/>
        </g>
      </g>
      <g>
        <path class="st3" d="M213.9,60.8c-2.2,0-4.1-.2-5.8-.6s-3.4-1.2-5-2.3v-6.9h4.9l.5,3.5c.4.4,1.1.8,2.1,1.1s2.1.4,3.2.4,1.5,0,2-.3,1-.5,1.2-.9.4-.9.4-1.4-.1-1-.4-1.4-.7-.8-1.3-1.2-1.4-.8-2.4-1.1c-2.3-.7-4.1-1.5-5.6-2.2-1.5-.8-2.5-1.6-3.3-2.7-.7-1-1.1-2.3-1.1-3.9s.4-2.8,1.3-3.9,2-2,3.5-2.6,3.2-1,5.1-1,4.1.2,5.8.6c1.7.5,3.1,1.2,4.4,2.2v6.4h-4.7l-.7-3.6c-.4-.2-1-.4-1.8-.6s-1.6-.3-2.4-.3-1.4,0-2,.3c-.6.2-1,.5-1.4.9-.3.4-.5.9-.5,1.5s.1.9.4,1.3.8.7,1.5,1.1,1.7.8,3,1.3c3,.9,5.3,2,6.9,3.3s2.3,3.1,2.3,5.4-.4,2.9-1.3,4-2,1.9-3.6,2.5-3.3.9-5.3.9v.2q0,0,0,0h.1Z"/>
        <path class="st3" d="M234,60.9c-2.1,0-3.6-.6-4.7-1.7s-1.6-2.8-1.6-5.2v-8.9h-2.5v-4.4h2.5v-4.9h6.4v4.9h3.2v4.4h-3.2v8.9c0,.6.1,1.1.4,1.4s.7.4,1.2.4h1.4l.4,4.8c-.6.2-1.1.3-1.7.4h-1.7v-.2q0,0,0,0h0Z"/>
        <path class="st3" d="M247.4,60.8c-2,0-3.7-.6-4.8-1.9-1.2-1.3-1.8-3.3-1.8-6v-7.9l-2.1-.6v-3.8h8.5v12.3c0,1,.2,1.7.6,2.2s1,.8,1.8.8.9,0,1.4-.3c.5-.2.9-.4,1.3-.8v-9.8l-2.2-.6v-3.8h8.6v15.4l2.5.6v3.7h-8l-.4-2.2c-.6.9-1.4,1.5-2.3,2s-1.9.7-3.1.7h0Z"/>
        <path class="st3" d="M270.3,60.8c-1.5,0-2.9-.4-4-1.2s-2-2-2.6-3.4c-.6-1.5-.9-3.2-.9-5.2v-.4c0-2.1.3-3.9.9-5.4s1.4-2.7,2.5-3.6,2.4-1.3,3.9-1.3,2,.2,2.7.6c.8.4,1.4,1,2,1.8v-6.5l-2.8-.6v-3.8h9.2v24.2l2.3.6v3.7h-7.9l-.5-2.4c-.6.9-1.3,1.6-2.1,2.1-.8.5-1.8.7-2.9.7h.2q0,0,0,.1ZM272.3,55.9c.5,0,1,0,1.5-.3s.8-.5,1.1-.9v-7.9c-.3-.5-.7-.9-1.1-1.1-.4-.3-.9-.4-1.5-.4s-1.3.2-1.8.7-.8,1.1-1,1.9-.3,1.7-.3,2.8v.4c0,1.6.2,2.8.7,3.6s1.2,1.3,2.4,1.3h0Z"/>
        <path class="st3" d="M294.7,60.8c-1.9,0-3.6-.4-5.1-1.3-1.4-.8-2.6-2-3.4-3.4s-1.2-3.1-1.2-4.9v-.7c0-2,.4-3.8,1.1-5.3s1.7-2.7,3.1-3.6,3-1.3,5-1.3,3.3.3,4.5,1,2.2,1.7,2.8,3c.6,1.3,1,3,1,4.9v3.3h-10.9c0,.7.3,1.3.6,1.8s.8.9,1.3,1.1c.6.3,1.3.4,2.1.4s1.6,0,2.4-.3c.8-.2,1.6-.5,2.5-.9l1.5,3.9c-.9.6-2,1.2-3.2,1.6s-2.7.6-4.3.6c0,0,.2,0,.2.1ZM291.7,48.7h5v-.5c0-.7,0-1.3-.2-1.8s-.4-.8-.7-1.1c-.3-.2-.8-.4-1.4-.4s-1.2.2-1.5.5c-.4.3-.7.7-.8,1.3-.2.5-.3,1.2-.4,1.9h0Z"/>
        <path class="st3" d="M304.5,60.5v-3.7l2.3-.6v-11.1l-2.7-.6v-3.8h8.8l.2,2.8c.7-1,1.5-1.8,2.4-2.3,1-.5,2-.8,3.3-.8s3.3.6,4.4,1.9,1.6,3.2,1.6,6v7.9l2.3.6v3.7h-10.6v-3.7l1.9-.6v-8c0-1.1-.2-1.8-.6-2.3-.4-.4-1-.7-1.8-.7s-1.1,0-1.5.3-.8.5-1.1,1v9.6l1.6.6v3.7h-10.5,0Z"/>
        <path class="st3" d="M336,60.9c-2.1,0-3.6-.6-4.7-1.7s-1.6-2.8-1.6-5.2v-8.9h-2.5v-4.4h2.5v-4.9h6.4v4.9h3.2v4.4h-3.2v8.9c0,.6.1,1.1.4,1.4s.7.4,1.2.4h1.4l.4,4.8c-.6.2-1.1.3-1.7.4h-1.7v-.2q0,0,0,0h0Z"/>
        <path class="st3" d="M350,60.5v-3.7l2.8-.7v-17.7l-2.8-.7v-3.8h12.5c2.4,0,4.5.6,6.4,1.7,1.8,1.1,3.3,2.7,4.3,4.6,1,2,1.6,4.2,1.6,6.8v.4c0,2.6-.5,4.8-1.6,6.8-1,2-2.5,3.5-4.3,4.6-1.9,1.1-4,1.7-6.4,1.7,0,0-12.5,0-12.5,0ZM359.2,55.6h2.9c1.4,0,2.5-.3,3.4-1s1.6-1.6,2.1-2.9.7-2.7.7-4.3v-.4c0-1.6-.2-3.1-.7-4.3s-1.2-2.2-2.1-2.9-2-1-3.4-1h-2.9v16.9h0Z"/>
        <path class="st3" d="M377.8,60.5v-3.7l2.3-.6v-11.1l-2.7-.6v-3.8h8.8v2.4l.2.5c.4-1.1,1-1.9,1.6-2.5.7-.5,1.5-.8,2.4-.8h.9c.4,0,.7,0,1.1.2l-.6,5.9h-2.7c-.6-.2-1.1,0-1.5,0-.4.2-.7.4-1.1.8v8.7l2.3.6v3.7h-11v.3h0Z"/>
        <path class="st3" d="M393.9,60.5v-3.7l2.3-.6v-11.1l-2.8-.6v-3.8h9.2v15.4l2.3.6v3.7h-11ZM396,37v-5h6.6v5h-6.6Z"/>
        <path class="st3" d="M413.1,60.5l-5.3-15.6-2.2-.4v-3.8h10.4v3.7l-1.8.4,2.1,7.5.4,1.5h0l.5-1.5,2.8-7.5-2.3-.4v-3.7h10.4v3.8l-2.3.4-6,15.6h-6.8,0Z"/>
        <path class="st3" d="M438.9,60.8c-1.9,0-3.6-.4-5.1-1.3-1.4-.8-2.6-2-3.4-3.4s-1.2-3.1-1.2-4.9v-.7c0-2,.4-3.8,1.1-5.3s1.7-2.7,3.1-3.6,3-1.3,5-1.3,3.3.3,4.5,1,2.2,1.7,2.8,3,1,3,1,4.9v3.3h-10.9c0,.7.3,1.3.6,1.8s.8.9,1.3,1.1c.6.3,1.3.4,2.1.4s1.6,0,2.4-.3c.8-.2,1.6-.5,2.5-.9l1.5,3.9c-.9.6-2,1.2-3.2,1.6s-2.7.6-4.3.6h.2ZM435.9,48.7h5v-.5c0-.7,0-1.3-.2-1.8s-.4-.8-.7-1.1c-.3-.2-.8-.4-1.4-.4s-1.2.2-1.5.5c-.4.3-.7.7-.8,1.3-.2.5-.3,1.2-.4,1.9h0Z"/>
        <path class="st3" d="M449.7,60.5v-3.7l2.3-.6v-11.1l-2.7-.6v-3.8h8.8v2.4l.2.5c.4-1.1,1-1.9,1.6-2.5.7-.5,1.5-.8,2.4-.8h.9c.4,0,.7,0,1.1.2l-.6,5.9h-2.7c-.6-.2-1.1,0-1.5,0-.4.2-.7.4-1.1.8v8.7l2.3.6v3.7h-11v.3h0Z"/>
        <path class="st3" d="M463,60.5v-5.3h6.4v5.3h-6.4Z"/>
        <path class="st3" d="M205.9,98.5c-2.2,0-4.1-.2-5.8-.6s-3.4-1.2-5-2.3v-6.9h4.9l.5,3.5c.4.4,1.1.8,2.1,1.1s2.1.4,3.2.4,1.5,0,2-.3,1-.5,1.2-.9.4-.9.4-1.4-.1-1-.4-1.4-.7-.8-1.3-1.2-1.4-.8-2.4-1.1c-2.3-.7-4.1-1.5-5.6-2.2-1.5-.8-2.5-1.6-3.3-2.7-.7-1-1.1-2.3-1.1-3.9s.4-2.8,1.3-3.9,2-2,3.5-2.6,3.2-1,5.1-1,4.1.2,5.8.6c1.7.5,3.1,1.2,4.4,2.2v6.4h-4.7l-.7-3.6c-.4-.2-1-.4-1.8-.6s-1.6-.3-2.4-.3-1.4,0-2,.3c-.6.2-1,.5-1.4.9-.3.4-.5.9-.5,1.5s.1.9.4,1.3c.3.4.8.7,1.5,1.1s1.7.8,3,1.3c3,.9,5.3,2,6.9,3.3s2.3,3.1,2.3,5.4-.4,2.9-1.3,4-2,1.9-3.6,2.5-3.3.9-5.3.9v.2q0,0,0,0h.1Z"/>
        <path class="st3" d="M227.3,98.5c-2,0-3.6-.4-5.1-1.3-1.4-.9-2.5-2.1-3.2-3.6-.8-1.5-1.1-3.2-1.1-5.2v-.4c0-2,.4-3.7,1.2-5.2s1.9-2.7,3.3-3.5c1.4-.9,3-1.3,4.9-1.3s3.5.3,4.8.9,2.4,1.2,3.2,1.8v6.2h-4.9l-.8-3.6c-.2-.2-.5-.4-.8-.5s-.6-.2-.9-.2c-.9,0-1.6.2-2.2.6-.5.4-.9,1-1.2,1.8-.2.8-.3,1.8-.3,3.1v.4c0,1.3.2,2.3.5,3.1.3.7.7,1.3,1.2,1.6s1,.5,1.5.5c.8,0,1.4-.2,1.8-.6s.7-.9,1-1.7h5.4c-.3,1.7-.7,3-1.4,4-.6,1-1.5,1.8-2.6,2.3s-2.5.8-4.3.8h0Z"/>
        <path class="st3" d="M247.2,98.5c-2,0-3.8-.4-5.2-1.3-1.4-.8-2.5-2-3.3-3.5s-1.1-3.3-1.1-5.3v-.4c0-2,.4-3.7,1.1-5.2s1.9-2.7,3.3-3.6c1.4-.9,3.2-1.3,5.2-1.3s3.8.4,5.2,1.3,2.5,2,3.3,3.5,1.1,3.3,1.1,5.2v.4c0,2-.4,3.7-1.1,5.2-.8,1.5-1.9,2.7-3.3,3.6s-3.1,1.3-5.2,1.3h0ZM247.2,93.6c.8,0,1.4-.2,1.9-.6s.8-1,1-1.8.3-1.7.3-2.8v-.4c0-1-.1-1.9-.3-2.7s-.6-1.4-1-1.8c-.5-.4-1.1-.6-1.9-.6s-1.4.2-1.9.6-.8,1-1,1.8-.3,1.7-.3,2.7v.4c0,1.1.1,2,.3,2.8s.5,1.4,1,1.8,1.1.6,1.9.6Z"/>
        <path class="st3" d="M259.6,98.1v-3.7l2.3-.6v-11.1l-2.7-.6v-3.8h8.8v2.4c.1,0,.2.5.2.5.4-1.1,1-1.9,1.6-2.5.7-.5,1.5-.8,2.4-.8h.9c.4,0,.7,0,1.1.2l-.6,5.9h-2.7c-.6-.2-1.1,0-1.5,0-.4.2-.7.4-1.1.8v8.7l2.3.6v3.7h-11v.3h0Z"/>
        <path class="st3" d="M284.8,98.5c-1.9,0-3.6-.4-5.1-1.3-1.4-.8-2.6-2-3.4-3.4s-1.2-3.1-1.2-4.9v-.7c0-2,.4-3.8,1.1-5.3s1.7-2.7,3.1-3.6,3-1.3,5-1.3,3.3.3,4.5,1,2.2,1.7,2.8,3c.6,1.3,1,3,1,4.9v3.3h-10.9c0,.7.3,1.3.6,1.8s.8.9,1.3,1.1c.6.3,1.3.4,2.1.4s1.6,0,2.4-.3c.8-.2,1.6-.5,2.5-.9l1.5,3.9c-.9.6-2,1.2-3.2,1.6s-2.7.6-4.3.6h.2q0,0,0,0h0ZM281.8,86.3h5v-.5c0-.7,0-1.3-.2-1.8s-.4-.8-.7-1.1c-.3-.2-.8-.4-1.4-.4s-1.2.2-1.5.5c-.4.3-.7.7-.8,1.3-.2.5-.3,1.2-.4,1.9h0Z"/>
        <path class="st3" d="M303.6,98.1v-3.7l2.7-.6v-17.9l-2.7-.6v-3.8h12.5l6.4,17.5h.1l6.2-17.5h12.4v3.8l-2.8.6v17.9l2.8.6v3.7h-11.9v-3.7l2.9-.6v-16c.1,0,0,0,0,0l-7.5,20.3h-5l-7.6-20.1h-.1l.4,11.4v4.3l3.1.6v3.7h-11.9c0,0,0,0,0,0Z"/>
        <path class="st3" d="M348.9,106.1c-.6,0-1.1,0-1.7,0-.6,0-1.1-.2-1.7-.4l.8-4.6c.2,0,.5,0,.7,0h.7c.8,0,1.5,0,2.1-.4s1-.7,1.1-1.3l.2-.7-6.4-16.2-2.6-.4v-3.8h11.9v3.8l-2.4.4,2.6,8h0c0,0,3.1-8.1,3.1-8.1l-2.3-.3v-3.8h10.8v3.8l-2.3.3-7.4,18.5c-.4.9-.8,1.7-1.4,2.5s-1.4,1.4-2.3,1.9c-1,.5-2.1.7-3.5.7h0q0,0,0,0h0Z"/>
        <path class="st3" d="M387.7,98.5c-2.2,0-4.1-.2-5.8-.6s-3.4-1.2-5-2.3v-6.9h4.9l.5,3.5c.4.4,1.1.8,2.1,1.1s2.1.4,3.2.4,1.5,0,2-.3,1-.5,1.2-.9.4-.9.4-1.4,0-1-.4-1.4-.7-.8-1.3-1.2-1.4-.8-2.4-1.1c-2.3-.7-4.1-1.5-5.6-2.2-1.5-.8-2.5-1.6-3.3-2.7-.7-1-1.1-2.3-1.1-3.9s.4-2.8,1.3-3.9,2-2,3.5-2.6,3.2-1,5.1-1,4.1.2,5.8.6c1.7.5,3.1,1.2,4.4,2.2v6.4h-4.7l-.7-3.6c-.4-.2-1-.4-1.8-.6s-1.6-.3-2.4-.3-1.4,0-2,.3c-.6.2-1,.5-1.4.9-.3.4-.5.9-.5,1.5s0,.9.4,1.3c.3.4.8.7,1.5,1.1s1.7.8,3,1.3c3,.9,5.3,2,6.9,3.3s2.3,3.1,2.3,5.4-.4,2.9-1.3,4-2,1.9-3.6,2.5-3.3.9-5.3.9v.2s0,0,0,0h0Z"/>
        <path class="st3" d="M399.2,98.1v-3.7l2.3-.6v-19.8l-2.8-.6v-3.8h9.1v24.2l1.9.6v3.7h-10.6.1ZM407.1,92.9l-3.3-3.1,8.6-7.4h0l-2-.3v-3.7h11.4v3.8l-2.6.7-12.1,10h0ZM411.7,98.1v-3.5l1.2-.4h0l-2.8-4.1,4.3-3.9,5.6,7.5,2.2.7v3.7h-10.5Z"/>
        <path class="st3" d="M423.7,98.1v-3.7l2.3-.6v-11.1l-2.8-.6v-3.8h9.2v15.4l2.3.6v3.7h-11ZM425.9,74.6v-5h6.6v5h-6.6Z"/>
        <path class="st3" d="M435.7,98.1v-3.7l2.3-.6v-19.8l-2.8-.6v-3.8h9.2v24.2l2.3.6v3.7h-11.1.1Z"/>
        <path class="st3" d="M447.6,98.1v-3.7l2.3-.6v-19.8l-2.8-.6v-3.8h9.2v24.2l2.3.6v3.7h-11.1.1Z"/>
        <path class="st3" d="M468.7,98.5c-1.6,0-3,0-4.4-.4-1.3-.3-2.6-.7-3.6-1.2v-6.2h4.3l.7,2.9c.3.2.6.3,1,.4s.9.2,1.4.2c1,0,1.7,0,2.1-.4s.6-.6.6-1.1-.2-.8-.7-1.1c-.4-.3-1.4-.7-2.8-.9-2.3-.5-4-1.2-5.1-2.3s-1.6-2.4-1.6-4.1.3-2.1.8-3.1c.5-.9,1.3-1.7,2.5-2.3s2.7-.9,4.7-.9,2.9,0,4.2.4c1.3.3,2.4.6,3.3,1v6h-4.3l-.5-2.6c-.3-.2-.6-.3-.9-.4-.4,0-.7,0-1.2,0-.8,0-1.4,0-1.8.4s-.6.7-.6,1.1,0,.5.2.8.5.5,1,.8c.5.2,1.2.5,2.1.7,2.3.5,3.9,1.2,5.1,2.1,1.1.9,1.7,2.2,1.7,4.1s-.7,3.5-2.1,4.6-3.4,1.7-6.1,1.7h0q0,0,0,0h0Z"/>
        <path class="st3" d="M480.1,98.1v-5.3h6.4v5.3h-6.4Z"/>
      </g>
      <rect class="st10" x="522" y="18" width="180" height="180"/>
      <polygon class="st8" points="738 234 558 234 522 198 702 18 738 54 738 234"/>
      <rect class="st10" x="513" y="9" width="198" height="198"/>
      <g>
        <polygon class="st8" points="442.6 169.6 217.8 169.6 217.8 137.4 225.3 129.9 225.3 162.2 450 162.2 450 162.2 442.6 169.6"/>
        <rect class="st2" x="228.3" y="126.9" width="224.7" height="32.3"/>
      </g>
      <g class="st4">
        <g class="st4">
          <g class="st4">
            <g class="st4">
              <path class="st10" d="M277.9,147.1c-.7,0-1.4,0-1.9-.2s-1.2-.4-1.7-.8v-2.3h1.5l.2,1.4c.2.2.5.3.8.4.3.1.7.2,1.1.2s.6,0,.9-.1c.2,0,.4-.2.5-.4.1-.2.2-.4.2-.6s0-.4-.2-.6c-.1-.2-.3-.3-.6-.5-.3-.1-.6-.3-1-.4-.8-.2-1.4-.5-1.9-.7-.5-.3-.9-.6-1.1-1-.2-.4-.4-.8-.4-1.3s.1-1,.4-1.4c.3-.4.7-.7,1.2-.9.5-.2,1.1-.3,1.8-.4.7,0,1.4,0,2,.3.6.2,1.1.4,1.5.8v2.2h-1.4l-.2-1.3c-.2-.1-.4-.2-.7-.3-.3,0-.6-.1-1-.1s-.6,0-.8.1c-.2,0-.4.2-.6.4s-.2.4-.2.6,0,.4.2.6.3.3.6.5c.3.1.7.3,1.2.5,1.1.3,1.9.7,2.4,1.2.5.5.8,1.1.8,1.9s-.1,1-.4,1.4c-.3.4-.7.7-1.2.9-.5.2-1.2.3-1.9.3Z"/>
              <path class="st10" d="M285.6,147.1c-.7,0-1.3-.2-1.8-.5-.5-.3-.9-.7-1.2-1.3s-.4-1.2-.4-1.9v-.2c0-.7.1-1.3.4-1.9.3-.5.7-1,1.2-1.3.5-.3,1.1-.5,1.8-.5s1.2,0,1.7.3c.5.2.8.4,1.1.7v2h-1.5l-.3-1.3c-.1-.1-.2-.2-.4-.3-.2,0-.3,0-.5,0-.4,0-.6,0-.9.3-.2.2-.4.4-.5.8-.1.3-.2.7-.2,1.2v.2c0,.5,0,.9.2,1.2s.3.5.5.7c.2.1.5.2.7.2s.6,0,.8-.3c.2-.2.3-.4.4-.8h1.7c0,.5-.2,1-.4,1.4-.2.4-.5.7-.9.9-.4.2-.9.3-1.5.3Z"/>
              <path class="st10" d="M291.8,147.1c-.7,0-1.3-.2-1.7-.6-.4-.4-.6-.9-.6-1.6s.3-1.2.8-1.6,1.3-.6,2.4-.6h.9v-.5c0-.3-.1-.6-.3-.8-.2-.2-.5-.3-.9-.3s-.4,0-.6,0c-.2,0-.3.1-.4.2l-.2.9h-1.4v-1.9c.3-.2.8-.4,1.2-.5.4-.1.9-.2,1.5-.2.9,0,1.7.2,2.2.6.5.4.8,1.1.8,1.9v2.9c0,0,0,.2,0,.3,0,0,0,.2,0,.3h.7v1.3h-2.4c0-.1,0-.3-.1-.4,0-.1,0-.3-.1-.4-.2.3-.5.5-.8.7-.3.2-.7.3-1.1.3ZM292.3,145.7c.3,0,.5,0,.8-.2s.4-.3.6-.5v-1.1h-.9c-.4,0-.7,0-1,.3-.2.2-.3.4-.3.7s0,.5.2.6c.2.1.4.2.7.2Z"/>
              <path class="st10" d="M296.9,147v-1.2l.9-.2v-4.4l-1-.2v-1.2h2.8v1c.3-.4.6-.6,1-.9.3-.2.7-.3,1.2-.3.7,0,1.3.2,1.7.7.4.5.6,1.2.6,2.1v3.1l.9.2v1.2h-3.7v-1.2l.8-.2v-3.1c0-.5,0-.8-.3-1s-.5-.3-.8-.3-.5,0-.7.2c-.2.1-.4.3-.5.5v3.7l.8.2v1.2h-3.6Z"/>
            </g>
          </g>
          <g class="st4">
            <g class="st4">
              <path class="st10" d="M311.7,147.1c-.7,0-1.2-.2-1.5-.5-.4-.4-.5-.9-.5-1.7v-3.6h-1v-1.4h1v-1.7h1.9v1.7h1.3v1.4h-1.3v3.6c0,.3,0,.5.2.6.1.1.3.2.5.2s.2,0,.3,0c.1,0,.2,0,.3,0l.2,1.4c-.2,0-.4.1-.6.1-.2,0-.5,0-.7,0Z"/>
            </g>
          </g>
          <g class="st4">
            <g class="st4">
              <path class="st10" d="M317,147.1c-.7,0-1.3-.2-1.8-.5s-.9-.7-1.2-1.3c-.3-.5-.4-1.2-.4-1.9h0c0-.8.1-1.5.4-2,.3-.5.7-1,1.2-1.3.5-.3,1.1-.5,1.8-.5s1.3.2,1.8.5c.5.3.9.7,1.2,1.3s.4,1.2.4,1.9h0c0,.9-.1,1.5-.4,2-.3.5-.7,1-1.2,1.3s-1.1.5-1.8.5ZM317,145.7c.3,0,.6,0,.8-.3.2-.2.4-.4.5-.8s.2-.7.2-1.1h0c0-.6,0-.9-.2-1.3-.1-.3-.3-.6-.5-.8-.2-.2-.5-.3-.8-.3s-.6,0-.8.3c-.2.2-.4.4-.5.8,0,.3-.1.7-.1,1.1h0c0,.6,0,.9.1,1.3,0,.3.3.6.5.8.2.2.5.3.8.3Z"/>
              <path class="st10" d="M328.4,147.1c-.7,0-1.4,0-1.9-.2s-1.2-.4-1.7-.8v-2.3h1.5l.2,1.4c.2.2.5.3.8.4.3.1.7.2,1.1.2s.6,0,.9-.1c.2,0,.4-.2.5-.4.1-.2.2-.4.2-.6s0-.4-.2-.6c-.1-.2-.3-.3-.6-.5-.3-.1-.6-.3-1-.4-.8-.2-1.4-.5-1.9-.7-.5-.3-.9-.6-1.1-1-.2-.4-.4-.8-.4-1.3s.1-1,.4-1.4c.3-.4.7-.7,1.2-.9.5-.2,1.1-.3,1.8-.4.7,0,1.4,0,2,.3.6.2,1.1.4,1.5.8v2.2h-1.4l-.2-1.3c-.2-.1-.4-.2-.7-.3-.3,0-.6-.1-1-.1s-.6,0-.8.1c-.2,0-.4.2-.6.4s-.2.4-.2.6,0,.4.2.6.3.3.6.5c.3.1.7.3,1.2.5,1.1.3,1.9.7,2.4,1.2.5.5.8,1.1.8,1.9s-.1,1-.4,1.4c-.3.4-.7.7-1.2.9-.5.2-1.2.3-1.9.3Z"/>
              <path class="st10" d="M336.1,147.1c-.7,0-1.3-.2-1.8-.5-.5-.3-.9-.7-1.2-1.3s-.4-1.2-.4-1.9v-.2c0-.7.1-1.3.4-1.9.3-.5.7-1,1.2-1.3.5-.3,1.1-.5,1.8-.5s1.2,0,1.7.3c.5.2.8.4,1.1.7v2h-1.5l-.3-1.3c-.1-.1-.2-.2-.4-.3-.2,0-.3,0-.5,0-.4,0-.6,0-.9.3-.2.2-.4.4-.5.8-.1.3-.2.7-.2,1.2v.2c0,.5,0,.9.2,1.2s.3.5.5.7c.2.1.5.2.7.2s.6,0,.8-.3c.2-.2.3-.4.4-.8h1.7c0,.5-.2,1-.4,1.4-.2.4-.5.7-.9.9-.4.2-.9.3-1.5.3Z"/>
              <path class="st10" d="M343.3,147.1c-.7,0-1.3-.2-1.8-.5s-.9-.7-1.2-1.3c-.3-.5-.4-1.2-.4-1.9h0c0-.8.1-1.5.4-2,.3-.5.7-1,1.2-1.3.5-.3,1.1-.5,1.8-.5s1.3.2,1.8.5c.5.3.9.7,1.2,1.3s.4,1.2.4,1.9h0c0,.9-.1,1.5-.4,2-.3.5-.7,1-1.2,1.3s-1.1.5-1.8.5ZM343.3,145.7c.3,0,.6,0,.8-.3.2-.2.4-.4.5-.8s.2-.7.2-1.1h0c0-.6,0-.9-.2-1.3-.1-.3-.3-.6-.5-.8-.2-.2-.5-.3-.8-.3s-.6,0-.8.3c-.2.2-.4.4-.5.8,0,.3-.1.7-.1,1.1h0c0,.6,0,.9.1,1.3,0,.3.3.6.5.8.2.2.5.3.8.3Z"/>
            </g>
          </g>
          <g class="st4">
            <g class="st4">
              <path class="st10" d="M347.6,147v-1.2l.9-.2v-4.4l-1-.2v-1.2h2.8v.9c0,0,0,.2,0,.2.2-.4.4-.7.7-.9.3-.2.6-.3.9-.3s.2,0,.4,0,.3,0,.4,0l-.2,1.8h-1c-.3,0-.5,0-.7,0-.2.1-.3.3-.5.5v3.5l.9.2v1.2h-3.8Z"/>
            </g>
          </g>
          <g class="st4">
            <g class="st4">
              <path class="st10" d="M356.6,147.1c-.7,0-1.3-.2-1.8-.5-.5-.3-.9-.7-1.2-1.2-.3-.5-.4-1.1-.4-1.8v-.3c0-.7.1-1.3.4-1.9.3-.5.6-1,1.1-1.3.5-.3,1-.5,1.7-.5s1.2.1,1.6.4.8.6,1,1.1c.2.5.3,1.1.3,1.7v1h-4.2c0,.4.1.6.2.9.1.2.3.4.6.6s.5.2.9.2.7,0,1-.1c.3,0,.6-.2.9-.4l.5,1.2c-.3.2-.7.4-1.1.6-.4.2-1,.2-1.5.2ZM355.3,142.7h2.4v-.2c0-.3,0-.5-.1-.7,0-.2-.2-.4-.4-.5-.2-.1-.4-.2-.7-.2s-.5,0-.6.2c-.2.1-.3.3-.4.6,0,.2-.2.5-.2.8h0Z"/>
            </g>
          </g>
        </g>
      </g>
      <path class="st10" d="M415.7,132.1c-4.8.1-8.5-.6-10.8-.6s-10.1.3-12.5,0c-2-.3-3.2.6-6.2.9-3.2.3-7,2-7.4,2.2s-.6,0-.7-.2c0-.4-.3-1.1-1.2-1.1h-3.8c-3,0-3.1,2.9-3.1,10.3s1.2,9.3,2.7,9.3h4.2c1.1,0,1-1.4,1.2-1.9,0-.2.5-.5.9-.2,4.2,2.5,8.2,1.4,11.7.7,2.8-.5,3.8-.4,5.4,0,1.9.5,3.5-.7,3.2-2.7,2.9.5,4.3-3.1,3.7-4.1h1c2.2-.2,3.6-4.8,1.2-6-1.6-.7-1.7-1.1-2.8-1.3,2.1-.2,2.8,0,3.6,0,1.5-.1,3.7-.3,5.7,0,1.1.1,1.2-.3,4.5,0,4.2.2,4.1-5.2-.5-5.1v-.2h0ZM375.9,151.9h-2.7c-1,0-2.2-1-2.2-8.9s.4-9.2,2.8-9.2h2.9c.2.1.3.2.4.4.2.5-.8,1.1-1,8.5,0,3,.5,8.1.6,8.5.2.4-.2.7-.8.7h0ZM395.2,150.5c-1.8-1.1-3.4-1.4-4-2.1-.3-.4-.9-1.5-.4-1.5s.9-.4,1.1-.7v-.8s0,.8,1.7,1.6c.8.4,2.4,1,3,1.1.4,0,.9.3,1.7.4,0,0,.2.1.2.2.6,2.6-2.2,2.4-3.3,1.7h0ZM391.4,145.6c0,.6-.8.8-.9.8-.4.1-1.1-1.9-1.1-2,0-.2,0-.4.9-.5.4,0,1.1.8,1,1.6h0q0,0,0,0h.1ZM391.1,141.6c0-.2.3-.2,1,0,.4,0,1.5,1.5.5,2.5-.2.1-.5.2-.9-.4-.7-.9-1.2-1.2-.6-2.1ZM401,147.8c-.3.2-.6.3-1.4.4h-.4c-.6-.1-1.7-.8-4.4-1.5-2-.5-2.2-1.8-2.4-2h0c.7-.4.8-.7,1-1.1.3-.7,0-.9-.2-1.3-.2-.8,0-.3.4,0s.5.7,1,1.2c.5.7,1.6,1.6,3.9,1.4.5,0,1.2-.1,3.2,0,0,0,.2.1.3.3.4,1.4-1,2.6-1.3,2.8l.2-.2h0ZM393.1,139.8c.3-.5.6-.8,1.5-.4.6.2,1.7,1.2.5,2.3-.4.1-.5.3-1-.3-.4-.4-1.2-1.2-1-1.6ZM405.2,140.5c0-.2.2-.4.3-.2.2,0,.5,2.9-1.5,3.6-1,.4-1.5.1-2.5.1h-3.7c-1,0-1.8-.2-2.3-.8-.3-.3-.9-.8-.5-.9.4-.2.7-.2,1-.9.5-.9,0-1.5.4-1.2.3.1.7.3,1,.6,1.9,1.4,7.9,2.8,7.8-.2h0ZM404.7,140.1c.2,1.9-2.3,1.5-3.1,1.3-.8,0-1.5-.5-2.3-.7-.4-.3-2.2-.3-2.2-1.7s0-.7-.6-.5c-.4.2-2.5.1-2.9-.5,0-.3-.3-.5-.6-.6s-.5,0-.4.4c0,.4,0,1-.6,1.2-.5.1-.8.2-1.2,0s-1.2-.7-1.5-.7-.5.3.2.6c.6.3,1.3,1.3.3,2.4-1.5,1.7-1,1.8-6.4,2-.2,0-.4,0-.5.2,0,.1-.2.4,0,.5.3.5.9.1,1.3,0,.4,0,2.4-.4,3.2.1s2.2,1.4,2.8,3.5c0,.4.7,1.5,1.7,1.9.7.2.6.9,0,1-1.6.2-2.1.8-7,.8-3.9-.2-7.6-1-7.8-6.3,0-2.9,0-6.9.5-8.4.4-1.5,1.6-1.5,2.7-2,4.4-1.9,7.3-1.8,9.7-2.3,1-.2,1.7-.6,2.9.3,2.6,1.8,5.7,2.5,6.5,3,.5.3.7.5.8.7,0,.3.7.4,1.1.7.3.2.4.3.8.5-.4.6-.8,0-1.4,1.2v1c.3.5,1.4.6,1.8.7.3,0,.7.1,1.1.2,1,.2,1.3-.8,1.3-.5h-.2,0ZM402.5,138.1c.4,0,.6.2.8.3.4.2,1.7.4,1.1,1.2s-2.5.1-3.1-.1-.4-.3-.4-.5.2-.8,1.5-.8h0q0,0,0,0h.1ZM416.7,136.5c-2.7,0-3.6,0-4-.1-.7,0-.5-.3-.8-.2-.2,0,0,.3-.7.4h-4.6c-.6,0-.4-.1-.7-.2-.3,0-.4,0-.4.2,0,.3-2.9.1-4.8-.2-.8-1-1.5-1.5-2.5-1.7-2.7-.7-4.5-2-4.9-2.2,1.7-.2,4.1,0,5.2,0,1.3.1,5.1-.3,7.3,0,1.8-.4,5.2.4,6.7.4s.4-.2,3.1,0c4,.2,3.4,3.8,1.1,3.7h0q0,0,0,0h0Z"/>
    </g>
  </g>
</svg>